%TF.GenerationSoftware,KiCad,Pcbnew,7.0.9-7.0.9~ubuntu22.04.1*%
%TF.CreationDate,2023-12-02T23:02:12+03:00*%
%TF.ProjectId,air-detector,6169722d-6465-4746-9563-746f722e6b69,rev?*%
%TF.SameCoordinates,Original*%
%TF.FileFunction,Paste,Top*%
%TF.FilePolarity,Positive*%
%FSLAX46Y46*%
G04 Gerber Fmt 4.6, Leading zero omitted, Abs format (unit mm)*
G04 Created by KiCad (PCBNEW 7.0.9-7.0.9~ubuntu22.04.1) date 2023-12-02 23:02:12*
%MOMM*%
%LPD*%
G01*
G04 APERTURE LIST*
G04 Aperture macros list*
%AMRoundRect*
0 Rectangle with rounded corners*
0 $1 Rounding radius*
0 $2 $3 $4 $5 $6 $7 $8 $9 X,Y pos of 4 corners*
0 Add a 4 corners polygon primitive as box body*
4,1,4,$2,$3,$4,$5,$6,$7,$8,$9,$2,$3,0*
0 Add four circle primitives for the rounded corners*
1,1,$1+$1,$2,$3*
1,1,$1+$1,$4,$5*
1,1,$1+$1,$6,$7*
1,1,$1+$1,$8,$9*
0 Add four rect primitives between the rounded corners*
20,1,$1+$1,$2,$3,$4,$5,0*
20,1,$1+$1,$4,$5,$6,$7,0*
20,1,$1+$1,$6,$7,$8,$9,0*
20,1,$1+$1,$8,$9,$2,$3,0*%
G04 Aperture macros list end*
%ADD10C,0.010000*%
%ADD11RoundRect,0.250000X-0.262500X-0.450000X0.262500X-0.450000X0.262500X0.450000X-0.262500X0.450000X0*%
%ADD12RoundRect,0.225000X-0.250000X0.225000X-0.250000X-0.225000X0.250000X-0.225000X0.250000X0.225000X0*%
%ADD13RoundRect,0.225000X0.250000X-0.225000X0.250000X0.225000X-0.250000X0.225000X-0.250000X-0.225000X0*%
%ADD14RoundRect,0.250000X0.450000X-0.262500X0.450000X0.262500X-0.450000X0.262500X-0.450000X-0.262500X0*%
%ADD15R,2.000000X1.500000*%
%ADD16R,2.000000X3.800000*%
%ADD17RoundRect,0.225000X0.225000X-0.225000X0.225000X0.225000X-0.225000X0.225000X-0.225000X-0.225000X0*%
%ADD18RoundRect,0.062500X0.062500X-0.337500X0.062500X0.337500X-0.062500X0.337500X-0.062500X-0.337500X0*%
%ADD19RoundRect,0.062500X0.337500X-0.062500X0.337500X0.062500X-0.337500X0.062500X-0.337500X-0.062500X0*%
%ADD20R,0.550000X0.400000*%
%ADD21RoundRect,0.225000X-0.225000X-0.250000X0.225000X-0.250000X0.225000X0.250000X-0.225000X0.250000X0*%
%ADD22R,0.600000X1.160000*%
%ADD23R,0.300000X1.160000*%
%ADD24RoundRect,0.250000X-0.450000X0.262500X-0.450000X-0.262500X0.450000X-0.262500X0.450000X0.262500X0*%
%ADD25R,0.700000X1.000000*%
%ADD26R,0.700000X0.600000*%
%ADD27R,1.500000X1.000000*%
%ADD28RoundRect,0.250000X0.262500X0.450000X-0.262500X0.450000X-0.262500X-0.450000X0.262500X-0.450000X0*%
%ADD29R,0.900000X1.500000*%
%ADD30R,1.500000X0.900000*%
%ADD31R,1.050000X1.050000*%
G04 APERTURE END LIST*
%TO.C,U10*%
D10*
X102275000Y-75470000D02*
X101225000Y-75470000D01*
X101225000Y-74270000D01*
X101525000Y-73970000D01*
X102275000Y-73970000D01*
X102275000Y-75470000D01*
G36*
X102275000Y-75470000D02*
G01*
X101225000Y-75470000D01*
X101225000Y-74270000D01*
X101525000Y-73970000D01*
X102275000Y-73970000D01*
X102275000Y-75470000D01*
G37*
%TD*%
D11*
%TO.C,R19*%
X70787500Y-54600000D03*
X72612500Y-54600000D03*
%TD*%
D12*
%TO.C,C22*%
X68100000Y-53025000D03*
X68100000Y-54575000D03*
%TD*%
D13*
%TO.C,C19*%
X99036750Y-72745000D03*
X99036750Y-71195000D03*
%TD*%
D14*
%TO.C,R28*%
X82250000Y-74382500D03*
X82250000Y-72557500D03*
%TD*%
D15*
%TO.C,U14*%
X67850000Y-73920000D03*
X67850000Y-76220000D03*
D16*
X74150000Y-76220000D03*
D15*
X67850000Y-78520000D03*
%TD*%
D17*
%TO.C,U13*%
X89080000Y-73240000D03*
X90200000Y-73240000D03*
X91320000Y-73240000D03*
X89080000Y-72120000D03*
X90200000Y-72120000D03*
X91320000Y-72120000D03*
X89080000Y-71000000D03*
X90200000Y-71000000D03*
X91320000Y-71000000D03*
D18*
X88700000Y-74570000D03*
X89200000Y-74570000D03*
X89700000Y-74570000D03*
X90200000Y-74570000D03*
X90700000Y-74570000D03*
X91200000Y-74570000D03*
X91700000Y-74570000D03*
D19*
X92650000Y-73620000D03*
X92650000Y-73120000D03*
X92650000Y-72620000D03*
X92650000Y-72120000D03*
X92650000Y-71620000D03*
X92650000Y-71120000D03*
X92650000Y-70620000D03*
D18*
X91700000Y-69670000D03*
X91200000Y-69670000D03*
X90700000Y-69670000D03*
X90200000Y-69670000D03*
X89700000Y-69670000D03*
X89200000Y-69670000D03*
X88700000Y-69670000D03*
D19*
X87750000Y-70620000D03*
X87750000Y-71120000D03*
X87750000Y-71620000D03*
X87750000Y-72120000D03*
X87750000Y-72620000D03*
X87750000Y-73120000D03*
X87750000Y-73620000D03*
%TD*%
D20*
%TO.C,U10*%
X100600000Y-73920000D03*
X100600000Y-74720000D03*
X100600000Y-75520000D03*
X102900000Y-75520000D03*
X102900000Y-74720000D03*
X102900000Y-73920000D03*
%TD*%
D21*
%TO.C,C27*%
X95525000Y-71470000D03*
X97075000Y-71470000D03*
%TD*%
D22*
%TO.C,J9*%
X87200000Y-82090000D03*
X88000000Y-82090000D03*
D23*
X89150000Y-82090000D03*
X90150000Y-82090000D03*
X90650000Y-82090000D03*
X91650000Y-82090000D03*
D22*
X92800000Y-82090000D03*
X93600000Y-82090000D03*
X93600000Y-82090000D03*
X92800000Y-82090000D03*
D23*
X92150000Y-82090000D03*
X91150000Y-82090000D03*
X89650000Y-82090000D03*
X88650000Y-82090000D03*
D22*
X88000000Y-82090000D03*
X87200000Y-82090000D03*
%TD*%
D24*
%TO.C,R27*%
X84250000Y-70807500D03*
X84250000Y-72632500D03*
%TD*%
D25*
%TO.C,D9*%
X84900000Y-77350000D03*
D26*
X84900000Y-79050000D03*
X86900000Y-79050000D03*
X86900000Y-77150000D03*
%TD*%
D27*
%TO.C,D4*%
X72595000Y-60755000D03*
X72595000Y-57555000D03*
X67695000Y-57555000D03*
X67695000Y-60755000D03*
%TD*%
D11*
%TO.C,R25*%
X95587500Y-73220000D03*
X97412500Y-73220000D03*
%TD*%
D28*
%TO.C,R24*%
X97412500Y-75220000D03*
X95587500Y-75220000D03*
%TD*%
D29*
%TO.C,U15*%
X109500000Y-49970000D03*
X108230000Y-49970000D03*
X106960000Y-49970000D03*
X105690000Y-49970000D03*
X104420000Y-49970000D03*
X103150000Y-49970000D03*
X101880000Y-49970000D03*
X100610000Y-49970000D03*
X99340000Y-49970000D03*
X98070000Y-49970000D03*
X96800000Y-49970000D03*
X95530000Y-49970000D03*
X94260000Y-49970000D03*
X92990000Y-49970000D03*
D30*
X91740000Y-53010000D03*
X91740000Y-54280000D03*
X91740000Y-55550000D03*
X91740000Y-56820000D03*
X91740000Y-58090000D03*
X91740000Y-59360000D03*
X91740000Y-60630000D03*
X91740000Y-61900000D03*
X91740000Y-63170000D03*
X91740000Y-64440000D03*
D29*
X92990000Y-67470000D03*
X94260000Y-67470000D03*
X95530000Y-67470000D03*
X96800000Y-67470000D03*
X98070000Y-67470000D03*
X99340000Y-67470000D03*
X100610000Y-67470000D03*
X101880000Y-67470000D03*
X103150000Y-67470000D03*
X104420000Y-67470000D03*
X105690000Y-67470000D03*
X106960000Y-67470000D03*
X108230000Y-67470000D03*
X109500000Y-67470000D03*
D31*
X103685000Y-56515000D03*
X102160000Y-56515000D03*
X100635000Y-56515000D03*
X103685000Y-58040000D03*
X102160000Y-58040000D03*
X100635000Y-58040000D03*
X103685000Y-59565000D03*
X102160000Y-59565000D03*
X100635000Y-59565000D03*
%TD*%
D28*
%TO.C,R16*%
X102662500Y-71470000D03*
X100837500Y-71470000D03*
%TD*%
M02*
