M48
; DRILL file {KiCad 7.0.9-7.0.9~ubuntu22.04.1} date Сб 02 дек 2023 23:02:15
; FORMAT={-:-/ absolute / inch / decimal}
; #@! TF.CreationDate,2023-12-02T23:02:15+03:00
; #@! TF.GenerationSoftware,Kicad,Pcbnew,7.0.9-7.0.9~ubuntu22.04.1
; #@! TF.FileFunction,Plated,1,2,PTH
FMAT,2
INCH
; #@! TA.AperFunction,Plated,PTH,ComponentDrill
T1C0.0079
; #@! TA.AperFunction,Plated,PTH,ViaDrill
T2C0.0157
; #@! TA.AperFunction,Plated,PTH,ComponentDrill
T3C0.0315
; #@! TA.AperFunction,Plated,PTH,ComponentDrill
T4C0.0374
; #@! TA.AperFunction,Plated,PTH,ComponentDrill
T5C0.0394
; #@! TA.AperFunction,Plated,PTH,ComponentDrill
T6C0.0472
%
G90
G05
T1
X3.962Y-2.255
X3.962Y-2.3151
X3.992Y-2.225
X3.992Y-2.285
X3.992Y-2.3451
X4.022Y-2.255
X4.022Y-2.3151
X4.0521Y-2.225
X4.0521Y-2.285
X4.0521Y-2.3451
X4.0821Y-2.255
X4.0821Y-2.3151
T2
X2.6811Y-2.0866
X2.8581Y-2.2659
X2.8583Y-2.3906
X3.0241Y-2.4488
X3.189Y-2.815
X3.2293Y-2.6575
X3.2677Y-2.5638
X3.2835Y-2.3354
X3.315Y-2.7921
X3.315Y-2.863
X3.3425Y-3.0433
X3.3563Y-1.5748
X3.3704Y-2.9341
X3.3937Y-2.9024
X3.3976Y-2.8543
X3.4124Y-2.6575
X3.4646Y-3.178
X3.4803Y-2.3354
X3.4961Y-2.5638
X3.5079Y-3.1622
X3.5118Y-2.989
X3.5354Y-3.0913
X3.5433Y-1.7554
X3.5512Y-2.8394
X3.5827Y-3.1307
X3.6142Y-3.1622
X3.6457Y-2.989
X3.6535Y-3.1701
X3.6614Y-1.9685
X3.6732Y-2.4843
X3.6929Y-2.8709
X3.7087Y-2.0835
X3.8346Y-2.8866
X3.8622Y-2.5709
X3.8661Y-1.9024
X4.0079Y-2.9417
X4.0315Y-2.0844
X4.0551Y-2.8709
X4.0866Y-2.5638
X4.1024Y-2.8866
X4.126Y-2.752
X4.161Y-2.6563
X4.2126Y-2.5638
X4.2283Y-2.0884
T3
X2.681Y-3.3157
X2.6969Y-2.6563
X2.8188Y-3.3157
X2.8346Y-2.6563
X3.7148Y-1.6268
X3.8148Y-1.6268
T4
X4.2333Y-2.8236
X4.2333Y-2.922
X4.2333Y-3.0205
X4.2333Y-3.1189
T5
X2.7713Y-1.6677
X2.826Y-1.5354
X2.826Y-1.8
X3.061Y-3.3246
X3.0906Y-1.5354
X3.0906Y-1.8
X3.1453Y-1.6677
X3.1594Y-3.3246
X3.2976Y-2.0165
X3.2976Y-2.2134
X3.3346Y-2.422
X3.4331Y-2.422
X3.4945Y-2.115
X3.5039Y-1.3967
X3.6024Y-1.3967
X4.1142Y-1.3976
X4.2126Y-1.3976
T6
X3.3858Y-1.8406
X3.6417Y-1.8406
X4.0256Y-1.6732
X4.2815Y-1.6732
T3
G00X3.3386Y-3.2825
M15
G01X3.3386Y-3.251
M16
G05
G00X3.3386Y-3.4449
M15
G01X3.3386Y-3.3976
M16
G05
G00X3.7795Y-3.2825
M15
G01X3.7795Y-3.251
M16
G05
G00X3.7795Y-3.4449
M15
G01X3.7795Y-3.3976
M16
G05
T0
M30
