%TF.GenerationSoftware,KiCad,Pcbnew,7.0.9-7.0.9~ubuntu22.04.1*%
%TF.CreationDate,2023-12-02T23:02:12+03:00*%
%TF.ProjectId,air-detector,6169722d-6465-4746-9563-746f722e6b69,rev?*%
%TF.SameCoordinates,Original*%
%TF.FileFunction,Soldermask,Bot*%
%TF.FilePolarity,Negative*%
%FSLAX46Y46*%
G04 Gerber Fmt 4.6, Leading zero omitted, Abs format (unit mm)*
G04 Created by KiCad (PCBNEW 7.0.9-7.0.9~ubuntu22.04.1) date 2023-12-02 23:02:12*
%MOMM*%
%LPD*%
G01*
G04 APERTURE LIST*
G04 Aperture macros list*
%AMRoundRect*
0 Rectangle with rounded corners*
0 $1 Rounding radius*
0 $2 $3 $4 $5 $6 $7 $8 $9 X,Y pos of 4 corners*
0 Add a 4 corners polygon primitive as box body*
4,1,4,$2,$3,$4,$5,$6,$7,$8,$9,$2,$3,0*
0 Add four circle primitives for the rounded corners*
1,1,$1+$1,$2,$3*
1,1,$1+$1,$4,$5*
1,1,$1+$1,$6,$7*
1,1,$1+$1,$8,$9*
0 Add four rect primitives between the rounded corners*
20,1,$1+$1,$2,$3,$4,$5,0*
20,1,$1+$1,$4,$5,$6,$7,0*
20,1,$1+$1,$6,$7,$8,$9,0*
20,1,$1+$1,$8,$9,$2,$3,0*%
G04 Aperture macros list end*
%ADD10C,2.200000*%
%ADD11R,1.600000X1.600000*%
%ADD12C,1.600000*%
%ADD13R,2.000000X2.000000*%
%ADD14C,2.000000*%
%ADD15RoundRect,0.250000X-0.600000X-0.750000X0.600000X-0.750000X0.600000X0.750000X-0.600000X0.750000X0*%
%ADD16O,1.700000X2.000000*%
%ADD17O,1.200000X2.000000*%
%ADD18O,1.000000X2.400000*%
%ADD19R,1.560000X1.560000*%
%ADD20C,1.560000*%
%ADD21RoundRect,0.250000X0.600000X0.750000X-0.600000X0.750000X-0.600000X-0.750000X0.600000X-0.750000X0*%
%ADD22RoundRect,0.250000X-0.725000X0.600000X-0.725000X-0.600000X0.725000X-0.600000X0.725000X0.600000X0*%
%ADD23O,1.950000X1.700000*%
%ADD24O,1.600000X1.600000*%
%ADD25RoundRect,0.150000X0.587500X0.150000X-0.587500X0.150000X-0.587500X-0.150000X0.587500X-0.150000X0*%
%ADD26RoundRect,0.250000X0.325000X1.100000X-0.325000X1.100000X-0.325000X-1.100000X0.325000X-1.100000X0*%
%ADD27RoundRect,0.225000X-0.250000X0.225000X-0.250000X-0.225000X0.250000X-0.225000X0.250000X0.225000X0*%
%ADD28RoundRect,0.225000X0.250000X-0.225000X0.250000X0.225000X-0.250000X0.225000X-0.250000X-0.225000X0*%
%ADD29RoundRect,0.225000X-0.225000X-0.250000X0.225000X-0.250000X0.225000X0.250000X-0.225000X0.250000X0*%
%ADD30RoundRect,0.150000X0.150000X-0.587500X0.150000X0.587500X-0.150000X0.587500X-0.150000X-0.587500X0*%
%ADD31RoundRect,0.250000X-0.262500X-0.450000X0.262500X-0.450000X0.262500X0.450000X-0.262500X0.450000X0*%
%ADD32RoundRect,0.250000X-0.450000X0.262500X-0.450000X-0.262500X0.450000X-0.262500X0.450000X0.262500X0*%
%ADD33RoundRect,0.225000X0.225000X0.250000X-0.225000X0.250000X-0.225000X-0.250000X0.225000X-0.250000X0*%
%ADD34RoundRect,0.250000X0.450000X-0.262500X0.450000X0.262500X-0.450000X0.262500X-0.450000X-0.262500X0*%
%ADD35RoundRect,0.250000X0.262500X0.450000X-0.262500X0.450000X-0.262500X-0.450000X0.262500X-0.450000X0*%
%ADD36RoundRect,0.250000X-0.325000X-1.100000X0.325000X-1.100000X0.325000X1.100000X-0.325000X1.100000X0*%
%ADD37RoundRect,0.150000X-0.587500X-0.150000X0.587500X-0.150000X0.587500X0.150000X-0.587500X0.150000X0*%
%ADD38RoundRect,0.250000X1.100000X-0.325000X1.100000X0.325000X-1.100000X0.325000X-1.100000X-0.325000X0*%
G04 APERTURE END LIST*
D10*
%TO.C,H4*%
X88000000Y-42000000D03*
%TD*%
%TO.C,H1*%
X108000000Y-86000000D03*
%TD*%
D11*
%TO.C,C33*%
X72000000Y-67470000D03*
D12*
X68500000Y-67470000D03*
%TD*%
D11*
%TO.C,C30*%
X68097349Y-84220000D03*
D12*
X71597349Y-84220000D03*
%TD*%
D13*
%TO.C,U6*%
X78500000Y-45720000D03*
D14*
X79890000Y-42360000D03*
X78500000Y-39000000D03*
X71780000Y-39000000D03*
X70390000Y-42360000D03*
X71780000Y-45720000D03*
%TD*%
D10*
%TO.C,H3*%
X79000000Y-55000000D03*
%TD*%
D14*
%TO.C,SW4*%
X86000000Y-46750000D03*
X92500000Y-46750000D03*
%TD*%
D15*
%TO.C,J7*%
X89000000Y-35475000D03*
D16*
X91500000Y-35475000D03*
%TD*%
D17*
%TO.C,J9*%
X84800000Y-82975000D03*
D18*
X84800000Y-86900000D03*
D17*
X96000000Y-82975000D03*
D18*
X96000000Y-86900000D03*
%TD*%
D19*
%TO.C,RV2*%
X83760000Y-56220000D03*
D20*
X88760000Y-53720000D03*
X83760000Y-51220000D03*
%TD*%
D21*
%TO.C,J2*%
X87200000Y-61520000D03*
D16*
X84700000Y-61520000D03*
%TD*%
D22*
%TO.C,J4*%
X107525000Y-71720000D03*
D23*
X107525000Y-74220000D03*
X107525000Y-76720000D03*
X107525000Y-79220000D03*
%TD*%
D15*
%TO.C,J6*%
X104500000Y-35500000D03*
D16*
X107000000Y-35500000D03*
%TD*%
D10*
%TO.C,H2*%
X77500000Y-71000000D03*
%TD*%
D15*
%TO.C,J10*%
X77750000Y-84445000D03*
D16*
X80250000Y-84445000D03*
%TD*%
D14*
%TO.C,SW2*%
X102250000Y-42500000D03*
X108750000Y-42500000D03*
%TD*%
D12*
%TO.C,R8*%
X94355000Y-41320000D03*
D24*
X96895000Y-41320000D03*
%TD*%
D25*
%TO.C,Q6*%
X84187500Y-72520000D03*
X84187500Y-74420000D03*
X82312500Y-73470000D03*
%TD*%
D26*
%TO.C,C31*%
X70975000Y-81220000D03*
X68025000Y-81220000D03*
%TD*%
D27*
%TO.C,C37*%
X104400000Y-52945000D03*
X104400000Y-54495000D03*
%TD*%
D28*
%TO.C,C28*%
X90750000Y-75995000D03*
X90750000Y-74445000D03*
%TD*%
D29*
%TO.C,C13*%
X75975000Y-42500000D03*
X77525000Y-42500000D03*
%TD*%
D30*
%TO.C,Q3*%
X76850000Y-60137500D03*
X74950000Y-60137500D03*
X75900000Y-58262500D03*
%TD*%
D31*
%TO.C,R23*%
X84837500Y-38750000D03*
X86662500Y-38750000D03*
%TD*%
D29*
%TO.C,C14*%
X104825000Y-38320000D03*
X106375000Y-38320000D03*
%TD*%
D28*
%TO.C,C35*%
X102400000Y-54495000D03*
X102400000Y-52945000D03*
%TD*%
D32*
%TO.C,R26*%
X92500000Y-74057500D03*
X92500000Y-75882500D03*
%TD*%
D33*
%TO.C,C41*%
X90025000Y-48000000D03*
X88475000Y-48000000D03*
%TD*%
D34*
%TO.C,R29*%
X107300000Y-51012500D03*
X107300000Y-49187500D03*
%TD*%
D32*
%TO.C,R11*%
X103750000Y-63307500D03*
X103750000Y-65132500D03*
%TD*%
D31*
%TO.C,R37*%
X93287500Y-63100000D03*
X95112500Y-63100000D03*
%TD*%
D34*
%TO.C,R22*%
X97300000Y-37307500D03*
X97300000Y-35482500D03*
%TD*%
D31*
%TO.C,R9*%
X95587500Y-45000000D03*
X97412500Y-45000000D03*
%TD*%
D33*
%TO.C,C10*%
X97275000Y-43250000D03*
X95725000Y-43250000D03*
%TD*%
D35*
%TO.C,R18*%
X76812500Y-62200000D03*
X74987500Y-62200000D03*
%TD*%
D28*
%TO.C,C20*%
X104400000Y-77375000D03*
X104400000Y-75825000D03*
%TD*%
%TO.C,C8*%
X71750000Y-50275000D03*
X71750000Y-48725000D03*
%TD*%
D36*
%TO.C,C32*%
X69025000Y-70470000D03*
X71975000Y-70470000D03*
%TD*%
D32*
%TO.C,R31*%
X90000000Y-44587500D03*
X90000000Y-46412500D03*
%TD*%
D28*
%TO.C,C29*%
X89250000Y-75995000D03*
X89250000Y-74445000D03*
%TD*%
D37*
%TO.C,Q4*%
X100312500Y-37345000D03*
X100312500Y-35445000D03*
X102187500Y-36395000D03*
%TD*%
D25*
%TO.C,Q7*%
X84187500Y-69020000D03*
X84187500Y-70920000D03*
X82312500Y-69970000D03*
%TD*%
D33*
%TO.C,C34*%
X104775000Y-50250000D03*
X103225000Y-50250000D03*
%TD*%
D38*
%TO.C,C36*%
X107400000Y-55995000D03*
X107400000Y-53045000D03*
%TD*%
D32*
%TO.C,R13*%
X107000000Y-63307500D03*
X107000000Y-65132500D03*
%TD*%
D29*
%TO.C,C21*%
X89425000Y-38120000D03*
X90975000Y-38120000D03*
%TD*%
D34*
%TO.C,R33*%
X98000000Y-65312500D03*
X98000000Y-63487500D03*
%TD*%
D37*
%TO.C,Q5*%
X84812500Y-36895000D03*
X84812500Y-34995000D03*
X86687500Y-35945000D03*
%TD*%
D31*
%TO.C,R35*%
X92987500Y-50000000D03*
X94812500Y-50000000D03*
%TD*%
M02*
