%TF.GenerationSoftware,KiCad,Pcbnew,7.0.9-7.0.9~ubuntu22.04.1*%
%TF.CreationDate,2023-12-02T23:02:12+03:00*%
%TF.ProjectId,air-detector,6169722d-6465-4746-9563-746f722e6b69,rev?*%
%TF.SameCoordinates,Original*%
%TF.FileFunction,Legend,Top*%
%TF.FilePolarity,Positive*%
%FSLAX46Y46*%
G04 Gerber Fmt 4.6, Leading zero omitted, Abs format (unit mm)*
G04 Created by KiCad (PCBNEW 7.0.9-7.0.9~ubuntu22.04.1) date 2023-12-02 23:02:12*
%MOMM*%
%LPD*%
G01*
G04 APERTURE LIST*
%ADD10C,0.150000*%
%ADD11C,0.120000*%
%ADD12C,0.127000*%
%ADD13C,0.200000*%
G04 APERTURE END LIST*
D10*
X80450000Y-64570000D02*
X85300000Y-64570000D01*
X85300000Y-64570000D02*
X86350000Y-65870000D01*
X80736779Y-81008866D02*
X81498684Y-81008866D01*
X81117731Y-81389819D02*
X81117731Y-80627914D01*
X82451064Y-80389819D02*
X81974874Y-80389819D01*
X81974874Y-80389819D02*
X81927255Y-80866009D01*
X81927255Y-80866009D02*
X81974874Y-80818390D01*
X81974874Y-80818390D02*
X82070112Y-80770771D01*
X82070112Y-80770771D02*
X82308207Y-80770771D01*
X82308207Y-80770771D02*
X82403445Y-80818390D01*
X82403445Y-80818390D02*
X82451064Y-80866009D01*
X82451064Y-80866009D02*
X82498683Y-80961247D01*
X82498683Y-80961247D02*
X82498683Y-81199342D01*
X82498683Y-81199342D02*
X82451064Y-81294580D01*
X82451064Y-81294580D02*
X82403445Y-81342200D01*
X82403445Y-81342200D02*
X82308207Y-81389819D01*
X82308207Y-81389819D02*
X82070112Y-81389819D01*
X82070112Y-81389819D02*
X81974874Y-81342200D01*
X81974874Y-81342200D02*
X81927255Y-81294580D01*
X82784398Y-80389819D02*
X83117731Y-81389819D01*
X83117731Y-81389819D02*
X83451064Y-80389819D01*
X74860588Y-80437438D02*
X74765350Y-80389819D01*
X74765350Y-80389819D02*
X74622493Y-80389819D01*
X74622493Y-80389819D02*
X74479636Y-80437438D01*
X74479636Y-80437438D02*
X74384398Y-80532676D01*
X74384398Y-80532676D02*
X74336779Y-80627914D01*
X74336779Y-80627914D02*
X74289160Y-80818390D01*
X74289160Y-80818390D02*
X74289160Y-80961247D01*
X74289160Y-80961247D02*
X74336779Y-81151723D01*
X74336779Y-81151723D02*
X74384398Y-81246961D01*
X74384398Y-81246961D02*
X74479636Y-81342200D01*
X74479636Y-81342200D02*
X74622493Y-81389819D01*
X74622493Y-81389819D02*
X74717731Y-81389819D01*
X74717731Y-81389819D02*
X74860588Y-81342200D01*
X74860588Y-81342200D02*
X74908207Y-81294580D01*
X74908207Y-81294580D02*
X74908207Y-80961247D01*
X74908207Y-80961247D02*
X74717731Y-80961247D01*
X75336779Y-81389819D02*
X75336779Y-80389819D01*
X75336779Y-80389819D02*
X75908207Y-81389819D01*
X75908207Y-81389819D02*
X75908207Y-80389819D01*
X76384398Y-81389819D02*
X76384398Y-80389819D01*
X76384398Y-80389819D02*
X76622493Y-80389819D01*
X76622493Y-80389819D02*
X76765350Y-80437438D01*
X76765350Y-80437438D02*
X76860588Y-80532676D01*
X76860588Y-80532676D02*
X76908207Y-80627914D01*
X76908207Y-80627914D02*
X76955826Y-80818390D01*
X76955826Y-80818390D02*
X76955826Y-80961247D01*
X76955826Y-80961247D02*
X76908207Y-81151723D01*
X76908207Y-81151723D02*
X76860588Y-81246961D01*
X76860588Y-81246961D02*
X76765350Y-81342200D01*
X76765350Y-81342200D02*
X76622493Y-81389819D01*
X76622493Y-81389819D02*
X76384398Y-81389819D01*
X71057142Y-53404819D02*
X70723809Y-52928628D01*
X70485714Y-53404819D02*
X70485714Y-52404819D01*
X70485714Y-52404819D02*
X70866666Y-52404819D01*
X70866666Y-52404819D02*
X70961904Y-52452438D01*
X70961904Y-52452438D02*
X71009523Y-52500057D01*
X71009523Y-52500057D02*
X71057142Y-52595295D01*
X71057142Y-52595295D02*
X71057142Y-52738152D01*
X71057142Y-52738152D02*
X71009523Y-52833390D01*
X71009523Y-52833390D02*
X70961904Y-52881009D01*
X70961904Y-52881009D02*
X70866666Y-52928628D01*
X70866666Y-52928628D02*
X70485714Y-52928628D01*
X72009523Y-53404819D02*
X71438095Y-53404819D01*
X71723809Y-53404819D02*
X71723809Y-52404819D01*
X71723809Y-52404819D02*
X71628571Y-52547676D01*
X71628571Y-52547676D02*
X71533333Y-52642914D01*
X71533333Y-52642914D02*
X71438095Y-52690533D01*
X72485714Y-53404819D02*
X72676190Y-53404819D01*
X72676190Y-53404819D02*
X72771428Y-53357200D01*
X72771428Y-53357200D02*
X72819047Y-53309580D01*
X72819047Y-53309580D02*
X72914285Y-53166723D01*
X72914285Y-53166723D02*
X72961904Y-52976247D01*
X72961904Y-52976247D02*
X72961904Y-52595295D01*
X72961904Y-52595295D02*
X72914285Y-52500057D01*
X72914285Y-52500057D02*
X72866666Y-52452438D01*
X72866666Y-52452438D02*
X72771428Y-52404819D01*
X72771428Y-52404819D02*
X72580952Y-52404819D01*
X72580952Y-52404819D02*
X72485714Y-52452438D01*
X72485714Y-52452438D02*
X72438095Y-52500057D01*
X72438095Y-52500057D02*
X72390476Y-52595295D01*
X72390476Y-52595295D02*
X72390476Y-52833390D01*
X72390476Y-52833390D02*
X72438095Y-52928628D01*
X72438095Y-52928628D02*
X72485714Y-52976247D01*
X72485714Y-52976247D02*
X72580952Y-53023866D01*
X72580952Y-53023866D02*
X72771428Y-53023866D01*
X72771428Y-53023866D02*
X72866666Y-52976247D01*
X72866666Y-52976247D02*
X72914285Y-52928628D01*
X72914285Y-52928628D02*
X72961904Y-52833390D01*
X72957142Y-63479580D02*
X72909523Y-63527200D01*
X72909523Y-63527200D02*
X72766666Y-63574819D01*
X72766666Y-63574819D02*
X72671428Y-63574819D01*
X72671428Y-63574819D02*
X72528571Y-63527200D01*
X72528571Y-63527200D02*
X72433333Y-63431961D01*
X72433333Y-63431961D02*
X72385714Y-63336723D01*
X72385714Y-63336723D02*
X72338095Y-63146247D01*
X72338095Y-63146247D02*
X72338095Y-63003390D01*
X72338095Y-63003390D02*
X72385714Y-62812914D01*
X72385714Y-62812914D02*
X72433333Y-62717676D01*
X72433333Y-62717676D02*
X72528571Y-62622438D01*
X72528571Y-62622438D02*
X72671428Y-62574819D01*
X72671428Y-62574819D02*
X72766666Y-62574819D01*
X72766666Y-62574819D02*
X72909523Y-62622438D01*
X72909523Y-62622438D02*
X72957142Y-62670057D01*
X73290476Y-62574819D02*
X73909523Y-62574819D01*
X73909523Y-62574819D02*
X73576190Y-62955771D01*
X73576190Y-62955771D02*
X73719047Y-62955771D01*
X73719047Y-62955771D02*
X73814285Y-63003390D01*
X73814285Y-63003390D02*
X73861904Y-63051009D01*
X73861904Y-63051009D02*
X73909523Y-63146247D01*
X73909523Y-63146247D02*
X73909523Y-63384342D01*
X73909523Y-63384342D02*
X73861904Y-63479580D01*
X73861904Y-63479580D02*
X73814285Y-63527200D01*
X73814285Y-63527200D02*
X73719047Y-63574819D01*
X73719047Y-63574819D02*
X73433333Y-63574819D01*
X73433333Y-63574819D02*
X73338095Y-63527200D01*
X73338095Y-63527200D02*
X73290476Y-63479580D01*
X74242857Y-62574819D02*
X74861904Y-62574819D01*
X74861904Y-62574819D02*
X74528571Y-62955771D01*
X74528571Y-62955771D02*
X74671428Y-62955771D01*
X74671428Y-62955771D02*
X74766666Y-63003390D01*
X74766666Y-63003390D02*
X74814285Y-63051009D01*
X74814285Y-63051009D02*
X74861904Y-63146247D01*
X74861904Y-63146247D02*
X74861904Y-63384342D01*
X74861904Y-63384342D02*
X74814285Y-63479580D01*
X74814285Y-63479580D02*
X74766666Y-63527200D01*
X74766666Y-63527200D02*
X74671428Y-63574819D01*
X74671428Y-63574819D02*
X74385714Y-63574819D01*
X74385714Y-63574819D02*
X74290476Y-63527200D01*
X74290476Y-63527200D02*
X74242857Y-63479580D01*
X67257142Y-51959580D02*
X67209523Y-52007200D01*
X67209523Y-52007200D02*
X67066666Y-52054819D01*
X67066666Y-52054819D02*
X66971428Y-52054819D01*
X66971428Y-52054819D02*
X66828571Y-52007200D01*
X66828571Y-52007200D02*
X66733333Y-51911961D01*
X66733333Y-51911961D02*
X66685714Y-51816723D01*
X66685714Y-51816723D02*
X66638095Y-51626247D01*
X66638095Y-51626247D02*
X66638095Y-51483390D01*
X66638095Y-51483390D02*
X66685714Y-51292914D01*
X66685714Y-51292914D02*
X66733333Y-51197676D01*
X66733333Y-51197676D02*
X66828571Y-51102438D01*
X66828571Y-51102438D02*
X66971428Y-51054819D01*
X66971428Y-51054819D02*
X67066666Y-51054819D01*
X67066666Y-51054819D02*
X67209523Y-51102438D01*
X67209523Y-51102438D02*
X67257142Y-51150057D01*
X67638095Y-51150057D02*
X67685714Y-51102438D01*
X67685714Y-51102438D02*
X67780952Y-51054819D01*
X67780952Y-51054819D02*
X68019047Y-51054819D01*
X68019047Y-51054819D02*
X68114285Y-51102438D01*
X68114285Y-51102438D02*
X68161904Y-51150057D01*
X68161904Y-51150057D02*
X68209523Y-51245295D01*
X68209523Y-51245295D02*
X68209523Y-51340533D01*
X68209523Y-51340533D02*
X68161904Y-51483390D01*
X68161904Y-51483390D02*
X67590476Y-52054819D01*
X67590476Y-52054819D02*
X68209523Y-52054819D01*
X68590476Y-51150057D02*
X68638095Y-51102438D01*
X68638095Y-51102438D02*
X68733333Y-51054819D01*
X68733333Y-51054819D02*
X68971428Y-51054819D01*
X68971428Y-51054819D02*
X69066666Y-51102438D01*
X69066666Y-51102438D02*
X69114285Y-51150057D01*
X69114285Y-51150057D02*
X69161904Y-51245295D01*
X69161904Y-51245295D02*
X69161904Y-51340533D01*
X69161904Y-51340533D02*
X69114285Y-51483390D01*
X69114285Y-51483390D02*
X68542857Y-52054819D01*
X68542857Y-52054819D02*
X69161904Y-52054819D01*
X97757142Y-70079580D02*
X97709523Y-70127200D01*
X97709523Y-70127200D02*
X97566666Y-70174819D01*
X97566666Y-70174819D02*
X97471428Y-70174819D01*
X97471428Y-70174819D02*
X97328571Y-70127200D01*
X97328571Y-70127200D02*
X97233333Y-70031961D01*
X97233333Y-70031961D02*
X97185714Y-69936723D01*
X97185714Y-69936723D02*
X97138095Y-69746247D01*
X97138095Y-69746247D02*
X97138095Y-69603390D01*
X97138095Y-69603390D02*
X97185714Y-69412914D01*
X97185714Y-69412914D02*
X97233333Y-69317676D01*
X97233333Y-69317676D02*
X97328571Y-69222438D01*
X97328571Y-69222438D02*
X97471428Y-69174819D01*
X97471428Y-69174819D02*
X97566666Y-69174819D01*
X97566666Y-69174819D02*
X97709523Y-69222438D01*
X97709523Y-69222438D02*
X97757142Y-69270057D01*
X98709523Y-70174819D02*
X98138095Y-70174819D01*
X98423809Y-70174819D02*
X98423809Y-69174819D01*
X98423809Y-69174819D02*
X98328571Y-69317676D01*
X98328571Y-69317676D02*
X98233333Y-69412914D01*
X98233333Y-69412914D02*
X98138095Y-69460533D01*
X99185714Y-70174819D02*
X99376190Y-70174819D01*
X99376190Y-70174819D02*
X99471428Y-70127200D01*
X99471428Y-70127200D02*
X99519047Y-70079580D01*
X99519047Y-70079580D02*
X99614285Y-69936723D01*
X99614285Y-69936723D02*
X99661904Y-69746247D01*
X99661904Y-69746247D02*
X99661904Y-69365295D01*
X99661904Y-69365295D02*
X99614285Y-69270057D01*
X99614285Y-69270057D02*
X99566666Y-69222438D01*
X99566666Y-69222438D02*
X99471428Y-69174819D01*
X99471428Y-69174819D02*
X99280952Y-69174819D01*
X99280952Y-69174819D02*
X99185714Y-69222438D01*
X99185714Y-69222438D02*
X99138095Y-69270057D01*
X99138095Y-69270057D02*
X99090476Y-69365295D01*
X99090476Y-69365295D02*
X99090476Y-69603390D01*
X99090476Y-69603390D02*
X99138095Y-69698628D01*
X99138095Y-69698628D02*
X99185714Y-69746247D01*
X99185714Y-69746247D02*
X99280952Y-69793866D01*
X99280952Y-69793866D02*
X99471428Y-69793866D01*
X99471428Y-69793866D02*
X99566666Y-69746247D01*
X99566666Y-69746247D02*
X99614285Y-69698628D01*
X99614285Y-69698628D02*
X99661904Y-69603390D01*
X72757142Y-88679580D02*
X72709523Y-88727200D01*
X72709523Y-88727200D02*
X72566666Y-88774819D01*
X72566666Y-88774819D02*
X72471428Y-88774819D01*
X72471428Y-88774819D02*
X72328571Y-88727200D01*
X72328571Y-88727200D02*
X72233333Y-88631961D01*
X72233333Y-88631961D02*
X72185714Y-88536723D01*
X72185714Y-88536723D02*
X72138095Y-88346247D01*
X72138095Y-88346247D02*
X72138095Y-88203390D01*
X72138095Y-88203390D02*
X72185714Y-88012914D01*
X72185714Y-88012914D02*
X72233333Y-87917676D01*
X72233333Y-87917676D02*
X72328571Y-87822438D01*
X72328571Y-87822438D02*
X72471428Y-87774819D01*
X72471428Y-87774819D02*
X72566666Y-87774819D01*
X72566666Y-87774819D02*
X72709523Y-87822438D01*
X72709523Y-87822438D02*
X72757142Y-87870057D01*
X73090476Y-87774819D02*
X73709523Y-87774819D01*
X73709523Y-87774819D02*
X73376190Y-88155771D01*
X73376190Y-88155771D02*
X73519047Y-88155771D01*
X73519047Y-88155771D02*
X73614285Y-88203390D01*
X73614285Y-88203390D02*
X73661904Y-88251009D01*
X73661904Y-88251009D02*
X73709523Y-88346247D01*
X73709523Y-88346247D02*
X73709523Y-88584342D01*
X73709523Y-88584342D02*
X73661904Y-88679580D01*
X73661904Y-88679580D02*
X73614285Y-88727200D01*
X73614285Y-88727200D02*
X73519047Y-88774819D01*
X73519047Y-88774819D02*
X73233333Y-88774819D01*
X73233333Y-88774819D02*
X73138095Y-88727200D01*
X73138095Y-88727200D02*
X73090476Y-88679580D01*
X74328571Y-87774819D02*
X74423809Y-87774819D01*
X74423809Y-87774819D02*
X74519047Y-87822438D01*
X74519047Y-87822438D02*
X74566666Y-87870057D01*
X74566666Y-87870057D02*
X74614285Y-87965295D01*
X74614285Y-87965295D02*
X74661904Y-88155771D01*
X74661904Y-88155771D02*
X74661904Y-88393866D01*
X74661904Y-88393866D02*
X74614285Y-88584342D01*
X74614285Y-88584342D02*
X74566666Y-88679580D01*
X74566666Y-88679580D02*
X74519047Y-88727200D01*
X74519047Y-88727200D02*
X74423809Y-88774819D01*
X74423809Y-88774819D02*
X74328571Y-88774819D01*
X74328571Y-88774819D02*
X74233333Y-88727200D01*
X74233333Y-88727200D02*
X74185714Y-88679580D01*
X74185714Y-88679580D02*
X74138095Y-88584342D01*
X74138095Y-88584342D02*
X74090476Y-88393866D01*
X74090476Y-88393866D02*
X74090476Y-88155771D01*
X74090476Y-88155771D02*
X74138095Y-87965295D01*
X74138095Y-87965295D02*
X74185714Y-87870057D01*
X74185714Y-87870057D02*
X74233333Y-87822438D01*
X74233333Y-87822438D02*
X74328571Y-87774819D01*
X66638095Y-33774819D02*
X66638095Y-34584342D01*
X66638095Y-34584342D02*
X66685714Y-34679580D01*
X66685714Y-34679580D02*
X66733333Y-34727200D01*
X66733333Y-34727200D02*
X66828571Y-34774819D01*
X66828571Y-34774819D02*
X67019047Y-34774819D01*
X67019047Y-34774819D02*
X67114285Y-34727200D01*
X67114285Y-34727200D02*
X67161904Y-34679580D01*
X67161904Y-34679580D02*
X67209523Y-34584342D01*
X67209523Y-34584342D02*
X67209523Y-33774819D01*
X68114285Y-33774819D02*
X67923809Y-33774819D01*
X67923809Y-33774819D02*
X67828571Y-33822438D01*
X67828571Y-33822438D02*
X67780952Y-33870057D01*
X67780952Y-33870057D02*
X67685714Y-34012914D01*
X67685714Y-34012914D02*
X67638095Y-34203390D01*
X67638095Y-34203390D02*
X67638095Y-34584342D01*
X67638095Y-34584342D02*
X67685714Y-34679580D01*
X67685714Y-34679580D02*
X67733333Y-34727200D01*
X67733333Y-34727200D02*
X67828571Y-34774819D01*
X67828571Y-34774819D02*
X68019047Y-34774819D01*
X68019047Y-34774819D02*
X68114285Y-34727200D01*
X68114285Y-34727200D02*
X68161904Y-34679580D01*
X68161904Y-34679580D02*
X68209523Y-34584342D01*
X68209523Y-34584342D02*
X68209523Y-34346247D01*
X68209523Y-34346247D02*
X68161904Y-34251009D01*
X68161904Y-34251009D02*
X68114285Y-34203390D01*
X68114285Y-34203390D02*
X68019047Y-34155771D01*
X68019047Y-34155771D02*
X67828571Y-34155771D01*
X67828571Y-34155771D02*
X67733333Y-34203390D01*
X67733333Y-34203390D02*
X67685714Y-34251009D01*
X67685714Y-34251009D02*
X67638095Y-34346247D01*
X78066666Y-66404819D02*
X78066666Y-67119104D01*
X78066666Y-67119104D02*
X78019047Y-67261961D01*
X78019047Y-67261961D02*
X77923809Y-67357200D01*
X77923809Y-67357200D02*
X77780952Y-67404819D01*
X77780952Y-67404819D02*
X77685714Y-67404819D01*
X78542857Y-67404819D02*
X78542857Y-66404819D01*
X78542857Y-66404819D02*
X78923809Y-66404819D01*
X78923809Y-66404819D02*
X79019047Y-66452438D01*
X79019047Y-66452438D02*
X79066666Y-66500057D01*
X79066666Y-66500057D02*
X79114285Y-66595295D01*
X79114285Y-66595295D02*
X79114285Y-66738152D01*
X79114285Y-66738152D02*
X79066666Y-66833390D01*
X79066666Y-66833390D02*
X79019047Y-66881009D01*
X79019047Y-66881009D02*
X78923809Y-66928628D01*
X78923809Y-66928628D02*
X78542857Y-66928628D01*
X79971428Y-66738152D02*
X79971428Y-67404819D01*
X79733333Y-66357200D02*
X79495238Y-67071485D01*
X79495238Y-67071485D02*
X80114285Y-67071485D01*
X76647618Y-68604819D02*
X76314285Y-68128628D01*
X76076190Y-68604819D02*
X76076190Y-67604819D01*
X76076190Y-67604819D02*
X76457142Y-67604819D01*
X76457142Y-67604819D02*
X76552380Y-67652438D01*
X76552380Y-67652438D02*
X76599999Y-67700057D01*
X76599999Y-67700057D02*
X76647618Y-67795295D01*
X76647618Y-67795295D02*
X76647618Y-67938152D01*
X76647618Y-67938152D02*
X76599999Y-68033390D01*
X76599999Y-68033390D02*
X76552380Y-68081009D01*
X76552380Y-68081009D02*
X76457142Y-68128628D01*
X76457142Y-68128628D02*
X76076190Y-68128628D01*
X77076190Y-68081009D02*
X77409523Y-68081009D01*
X77552380Y-68604819D02*
X77076190Y-68604819D01*
X77076190Y-68604819D02*
X77076190Y-67604819D01*
X77076190Y-67604819D02*
X77552380Y-67604819D01*
X77933333Y-68557200D02*
X78076190Y-68604819D01*
X78076190Y-68604819D02*
X78314285Y-68604819D01*
X78314285Y-68604819D02*
X78409523Y-68557200D01*
X78409523Y-68557200D02*
X78457142Y-68509580D01*
X78457142Y-68509580D02*
X78504761Y-68414342D01*
X78504761Y-68414342D02*
X78504761Y-68319104D01*
X78504761Y-68319104D02*
X78457142Y-68223866D01*
X78457142Y-68223866D02*
X78409523Y-68176247D01*
X78409523Y-68176247D02*
X78314285Y-68128628D01*
X78314285Y-68128628D02*
X78123809Y-68081009D01*
X78123809Y-68081009D02*
X78028571Y-68033390D01*
X78028571Y-68033390D02*
X77980952Y-67985771D01*
X77980952Y-67985771D02*
X77933333Y-67890533D01*
X77933333Y-67890533D02*
X77933333Y-67795295D01*
X77933333Y-67795295D02*
X77980952Y-67700057D01*
X77980952Y-67700057D02*
X78028571Y-67652438D01*
X78028571Y-67652438D02*
X78123809Y-67604819D01*
X78123809Y-67604819D02*
X78361904Y-67604819D01*
X78361904Y-67604819D02*
X78504761Y-67652438D01*
X78933333Y-68081009D02*
X79266666Y-68081009D01*
X79409523Y-68604819D02*
X78933333Y-68604819D01*
X78933333Y-68604819D02*
X78933333Y-67604819D01*
X78933333Y-67604819D02*
X79409523Y-67604819D01*
X79695238Y-67604819D02*
X80266666Y-67604819D01*
X79980952Y-68604819D02*
X79980952Y-67604819D01*
X78957142Y-74774819D02*
X78623809Y-74298628D01*
X78385714Y-74774819D02*
X78385714Y-73774819D01*
X78385714Y-73774819D02*
X78766666Y-73774819D01*
X78766666Y-73774819D02*
X78861904Y-73822438D01*
X78861904Y-73822438D02*
X78909523Y-73870057D01*
X78909523Y-73870057D02*
X78957142Y-73965295D01*
X78957142Y-73965295D02*
X78957142Y-74108152D01*
X78957142Y-74108152D02*
X78909523Y-74203390D01*
X78909523Y-74203390D02*
X78861904Y-74251009D01*
X78861904Y-74251009D02*
X78766666Y-74298628D01*
X78766666Y-74298628D02*
X78385714Y-74298628D01*
X79338095Y-73870057D02*
X79385714Y-73822438D01*
X79385714Y-73822438D02*
X79480952Y-73774819D01*
X79480952Y-73774819D02*
X79719047Y-73774819D01*
X79719047Y-73774819D02*
X79814285Y-73822438D01*
X79814285Y-73822438D02*
X79861904Y-73870057D01*
X79861904Y-73870057D02*
X79909523Y-73965295D01*
X79909523Y-73965295D02*
X79909523Y-74060533D01*
X79909523Y-74060533D02*
X79861904Y-74203390D01*
X79861904Y-74203390D02*
X79290476Y-74774819D01*
X79290476Y-74774819D02*
X79909523Y-74774819D01*
X80480952Y-74203390D02*
X80385714Y-74155771D01*
X80385714Y-74155771D02*
X80338095Y-74108152D01*
X80338095Y-74108152D02*
X80290476Y-74012914D01*
X80290476Y-74012914D02*
X80290476Y-73965295D01*
X80290476Y-73965295D02*
X80338095Y-73870057D01*
X80338095Y-73870057D02*
X80385714Y-73822438D01*
X80385714Y-73822438D02*
X80480952Y-73774819D01*
X80480952Y-73774819D02*
X80671428Y-73774819D01*
X80671428Y-73774819D02*
X80766666Y-73822438D01*
X80766666Y-73822438D02*
X80814285Y-73870057D01*
X80814285Y-73870057D02*
X80861904Y-73965295D01*
X80861904Y-73965295D02*
X80861904Y-74012914D01*
X80861904Y-74012914D02*
X80814285Y-74108152D01*
X80814285Y-74108152D02*
X80766666Y-74155771D01*
X80766666Y-74155771D02*
X80671428Y-74203390D01*
X80671428Y-74203390D02*
X80480952Y-74203390D01*
X80480952Y-74203390D02*
X80385714Y-74251009D01*
X80385714Y-74251009D02*
X80338095Y-74298628D01*
X80338095Y-74298628D02*
X80290476Y-74393866D01*
X80290476Y-74393866D02*
X80290476Y-74584342D01*
X80290476Y-74584342D02*
X80338095Y-74679580D01*
X80338095Y-74679580D02*
X80385714Y-74727200D01*
X80385714Y-74727200D02*
X80480952Y-74774819D01*
X80480952Y-74774819D02*
X80671428Y-74774819D01*
X80671428Y-74774819D02*
X80766666Y-74727200D01*
X80766666Y-74727200D02*
X80814285Y-74679580D01*
X80814285Y-74679580D02*
X80861904Y-74584342D01*
X80861904Y-74584342D02*
X80861904Y-74393866D01*
X80861904Y-74393866D02*
X80814285Y-74298628D01*
X80814285Y-74298628D02*
X80766666Y-74251009D01*
X80766666Y-74251009D02*
X80671428Y-74203390D01*
X75761905Y-75574819D02*
X75761905Y-76384342D01*
X75761905Y-76384342D02*
X75809524Y-76479580D01*
X75809524Y-76479580D02*
X75857143Y-76527200D01*
X75857143Y-76527200D02*
X75952381Y-76574819D01*
X75952381Y-76574819D02*
X76142857Y-76574819D01*
X76142857Y-76574819D02*
X76238095Y-76527200D01*
X76238095Y-76527200D02*
X76285714Y-76479580D01*
X76285714Y-76479580D02*
X76333333Y-76384342D01*
X76333333Y-76384342D02*
X76333333Y-75574819D01*
X77333333Y-76574819D02*
X76761905Y-76574819D01*
X77047619Y-76574819D02*
X77047619Y-75574819D01*
X77047619Y-75574819D02*
X76952381Y-75717676D01*
X76952381Y-75717676D02*
X76857143Y-75812914D01*
X76857143Y-75812914D02*
X76761905Y-75860533D01*
X78190476Y-75908152D02*
X78190476Y-76574819D01*
X77952381Y-75527200D02*
X77714286Y-76241485D01*
X77714286Y-76241485D02*
X78333333Y-76241485D01*
X94166667Y-46657200D02*
X94309524Y-46704819D01*
X94309524Y-46704819D02*
X94547619Y-46704819D01*
X94547619Y-46704819D02*
X94642857Y-46657200D01*
X94642857Y-46657200D02*
X94690476Y-46609580D01*
X94690476Y-46609580D02*
X94738095Y-46514342D01*
X94738095Y-46514342D02*
X94738095Y-46419104D01*
X94738095Y-46419104D02*
X94690476Y-46323866D01*
X94690476Y-46323866D02*
X94642857Y-46276247D01*
X94642857Y-46276247D02*
X94547619Y-46228628D01*
X94547619Y-46228628D02*
X94357143Y-46181009D01*
X94357143Y-46181009D02*
X94261905Y-46133390D01*
X94261905Y-46133390D02*
X94214286Y-46085771D01*
X94214286Y-46085771D02*
X94166667Y-45990533D01*
X94166667Y-45990533D02*
X94166667Y-45895295D01*
X94166667Y-45895295D02*
X94214286Y-45800057D01*
X94214286Y-45800057D02*
X94261905Y-45752438D01*
X94261905Y-45752438D02*
X94357143Y-45704819D01*
X94357143Y-45704819D02*
X94595238Y-45704819D01*
X94595238Y-45704819D02*
X94738095Y-45752438D01*
X95071429Y-45704819D02*
X95309524Y-46704819D01*
X95309524Y-46704819D02*
X95500000Y-45990533D01*
X95500000Y-45990533D02*
X95690476Y-46704819D01*
X95690476Y-46704819D02*
X95928572Y-45704819D01*
X96738095Y-46038152D02*
X96738095Y-46704819D01*
X96500000Y-45657200D02*
X96261905Y-46371485D01*
X96261905Y-46371485D02*
X96880952Y-46371485D01*
X94678570Y-47859580D02*
X94630951Y-47907200D01*
X94630951Y-47907200D02*
X94488094Y-47954819D01*
X94488094Y-47954819D02*
X94392856Y-47954819D01*
X94392856Y-47954819D02*
X94249999Y-47907200D01*
X94249999Y-47907200D02*
X94154761Y-47811961D01*
X94154761Y-47811961D02*
X94107142Y-47716723D01*
X94107142Y-47716723D02*
X94059523Y-47526247D01*
X94059523Y-47526247D02*
X94059523Y-47383390D01*
X94059523Y-47383390D02*
X94107142Y-47192914D01*
X94107142Y-47192914D02*
X94154761Y-47097676D01*
X94154761Y-47097676D02*
X94249999Y-47002438D01*
X94249999Y-47002438D02*
X94392856Y-46954819D01*
X94392856Y-46954819D02*
X94488094Y-46954819D01*
X94488094Y-46954819D02*
X94630951Y-47002438D01*
X94630951Y-47002438D02*
X94678570Y-47050057D01*
X95535713Y-47954819D02*
X95535713Y-47431009D01*
X95535713Y-47431009D02*
X95488094Y-47335771D01*
X95488094Y-47335771D02*
X95392856Y-47288152D01*
X95392856Y-47288152D02*
X95202380Y-47288152D01*
X95202380Y-47288152D02*
X95107142Y-47335771D01*
X95535713Y-47907200D02*
X95440475Y-47954819D01*
X95440475Y-47954819D02*
X95202380Y-47954819D01*
X95202380Y-47954819D02*
X95107142Y-47907200D01*
X95107142Y-47907200D02*
X95059523Y-47811961D01*
X95059523Y-47811961D02*
X95059523Y-47716723D01*
X95059523Y-47716723D02*
X95107142Y-47621485D01*
X95107142Y-47621485D02*
X95202380Y-47573866D01*
X95202380Y-47573866D02*
X95440475Y-47573866D01*
X95440475Y-47573866D02*
X95535713Y-47526247D01*
X96154761Y-47954819D02*
X96059523Y-47907200D01*
X96059523Y-47907200D02*
X96011904Y-47811961D01*
X96011904Y-47811961D02*
X96011904Y-46954819D01*
X96535714Y-47954819D02*
X96535714Y-47288152D01*
X96535714Y-46954819D02*
X96488095Y-47002438D01*
X96488095Y-47002438D02*
X96535714Y-47050057D01*
X96535714Y-47050057D02*
X96583333Y-47002438D01*
X96583333Y-47002438D02*
X96535714Y-46954819D01*
X96535714Y-46954819D02*
X96535714Y-47050057D01*
X97011904Y-47954819D02*
X97011904Y-46954819D01*
X97011904Y-47335771D02*
X97107142Y-47288152D01*
X97107142Y-47288152D02*
X97297618Y-47288152D01*
X97297618Y-47288152D02*
X97392856Y-47335771D01*
X97392856Y-47335771D02*
X97440475Y-47383390D01*
X97440475Y-47383390D02*
X97488094Y-47478628D01*
X97488094Y-47478628D02*
X97488094Y-47764342D01*
X97488094Y-47764342D02*
X97440475Y-47859580D01*
X97440475Y-47859580D02*
X97392856Y-47907200D01*
X97392856Y-47907200D02*
X97297618Y-47954819D01*
X97297618Y-47954819D02*
X97107142Y-47954819D01*
X97107142Y-47954819D02*
X97011904Y-47907200D01*
X97916666Y-47954819D02*
X97916666Y-47288152D01*
X97916666Y-47478628D02*
X97964285Y-47383390D01*
X97964285Y-47383390D02*
X98011904Y-47335771D01*
X98011904Y-47335771D02*
X98107142Y-47288152D01*
X98107142Y-47288152D02*
X98202380Y-47288152D01*
X98964285Y-47954819D02*
X98964285Y-47431009D01*
X98964285Y-47431009D02*
X98916666Y-47335771D01*
X98916666Y-47335771D02*
X98821428Y-47288152D01*
X98821428Y-47288152D02*
X98630952Y-47288152D01*
X98630952Y-47288152D02*
X98535714Y-47335771D01*
X98964285Y-47907200D02*
X98869047Y-47954819D01*
X98869047Y-47954819D02*
X98630952Y-47954819D01*
X98630952Y-47954819D02*
X98535714Y-47907200D01*
X98535714Y-47907200D02*
X98488095Y-47811961D01*
X98488095Y-47811961D02*
X98488095Y-47716723D01*
X98488095Y-47716723D02*
X98535714Y-47621485D01*
X98535714Y-47621485D02*
X98630952Y-47573866D01*
X98630952Y-47573866D02*
X98869047Y-47573866D01*
X98869047Y-47573866D02*
X98964285Y-47526247D01*
X99297619Y-47288152D02*
X99678571Y-47288152D01*
X99440476Y-46954819D02*
X99440476Y-47811961D01*
X99440476Y-47811961D02*
X99488095Y-47907200D01*
X99488095Y-47907200D02*
X99583333Y-47954819D01*
X99583333Y-47954819D02*
X99678571Y-47954819D01*
X100392857Y-47907200D02*
X100297619Y-47954819D01*
X100297619Y-47954819D02*
X100107143Y-47954819D01*
X100107143Y-47954819D02*
X100011905Y-47907200D01*
X100011905Y-47907200D02*
X99964286Y-47811961D01*
X99964286Y-47811961D02*
X99964286Y-47431009D01*
X99964286Y-47431009D02*
X100011905Y-47335771D01*
X100011905Y-47335771D02*
X100107143Y-47288152D01*
X100107143Y-47288152D02*
X100297619Y-47288152D01*
X100297619Y-47288152D02*
X100392857Y-47335771D01*
X100392857Y-47335771D02*
X100440476Y-47431009D01*
X100440476Y-47431009D02*
X100440476Y-47526247D01*
X100440476Y-47526247D02*
X99964286Y-47621485D01*
X95166666Y-32554819D02*
X95166666Y-33269104D01*
X95166666Y-33269104D02*
X95119047Y-33411961D01*
X95119047Y-33411961D02*
X95023809Y-33507200D01*
X95023809Y-33507200D02*
X94880952Y-33554819D01*
X94880952Y-33554819D02*
X94785714Y-33554819D01*
X95547619Y-32554819D02*
X96214285Y-32554819D01*
X96214285Y-32554819D02*
X95785714Y-33554819D01*
X95290476Y-34431009D02*
X94957143Y-34431009D01*
X94957143Y-34954819D02*
X94957143Y-33954819D01*
X94957143Y-33954819D02*
X95433333Y-33954819D01*
X95766667Y-34669104D02*
X96242857Y-34669104D01*
X95671429Y-34954819D02*
X96004762Y-33954819D01*
X96004762Y-33954819D02*
X96338095Y-34954819D01*
X96671429Y-34954819D02*
X96671429Y-33954819D01*
X96671429Y-33954819D02*
X97242857Y-34954819D01*
X97242857Y-34954819D02*
X97242857Y-33954819D01*
X89561905Y-76174819D02*
X89561905Y-76984342D01*
X89561905Y-76984342D02*
X89609524Y-77079580D01*
X89609524Y-77079580D02*
X89657143Y-77127200D01*
X89657143Y-77127200D02*
X89752381Y-77174819D01*
X89752381Y-77174819D02*
X89942857Y-77174819D01*
X89942857Y-77174819D02*
X90038095Y-77127200D01*
X90038095Y-77127200D02*
X90085714Y-77079580D01*
X90085714Y-77079580D02*
X90133333Y-76984342D01*
X90133333Y-76984342D02*
X90133333Y-76174819D01*
X91133333Y-77174819D02*
X90561905Y-77174819D01*
X90847619Y-77174819D02*
X90847619Y-76174819D01*
X90847619Y-76174819D02*
X90752381Y-76317676D01*
X90752381Y-76317676D02*
X90657143Y-76412914D01*
X90657143Y-76412914D02*
X90561905Y-76460533D01*
X91466667Y-76174819D02*
X92085714Y-76174819D01*
X92085714Y-76174819D02*
X91752381Y-76555771D01*
X91752381Y-76555771D02*
X91895238Y-76555771D01*
X91895238Y-76555771D02*
X91990476Y-76603390D01*
X91990476Y-76603390D02*
X92038095Y-76651009D01*
X92038095Y-76651009D02*
X92085714Y-76746247D01*
X92085714Y-76746247D02*
X92085714Y-76984342D01*
X92085714Y-76984342D02*
X92038095Y-77079580D01*
X92038095Y-77079580D02*
X91990476Y-77127200D01*
X91990476Y-77127200D02*
X91895238Y-77174819D01*
X91895238Y-77174819D02*
X91609524Y-77174819D01*
X91609524Y-77174819D02*
X91514286Y-77127200D01*
X91514286Y-77127200D02*
X91466667Y-77079580D01*
X100961905Y-76374819D02*
X100961905Y-77184342D01*
X100961905Y-77184342D02*
X101009524Y-77279580D01*
X101009524Y-77279580D02*
X101057143Y-77327200D01*
X101057143Y-77327200D02*
X101152381Y-77374819D01*
X101152381Y-77374819D02*
X101342857Y-77374819D01*
X101342857Y-77374819D02*
X101438095Y-77327200D01*
X101438095Y-77327200D02*
X101485714Y-77279580D01*
X101485714Y-77279580D02*
X101533333Y-77184342D01*
X101533333Y-77184342D02*
X101533333Y-76374819D01*
X102533333Y-77374819D02*
X101961905Y-77374819D01*
X102247619Y-77374819D02*
X102247619Y-76374819D01*
X102247619Y-76374819D02*
X102152381Y-76517676D01*
X102152381Y-76517676D02*
X102057143Y-76612914D01*
X102057143Y-76612914D02*
X101961905Y-76660533D01*
X103152381Y-76374819D02*
X103247619Y-76374819D01*
X103247619Y-76374819D02*
X103342857Y-76422438D01*
X103342857Y-76422438D02*
X103390476Y-76470057D01*
X103390476Y-76470057D02*
X103438095Y-76565295D01*
X103438095Y-76565295D02*
X103485714Y-76755771D01*
X103485714Y-76755771D02*
X103485714Y-76993866D01*
X103485714Y-76993866D02*
X103438095Y-77184342D01*
X103438095Y-77184342D02*
X103390476Y-77279580D01*
X103390476Y-77279580D02*
X103342857Y-77327200D01*
X103342857Y-77327200D02*
X103247619Y-77374819D01*
X103247619Y-77374819D02*
X103152381Y-77374819D01*
X103152381Y-77374819D02*
X103057143Y-77327200D01*
X103057143Y-77327200D02*
X103009524Y-77279580D01*
X103009524Y-77279580D02*
X102961905Y-77184342D01*
X102961905Y-77184342D02*
X102914286Y-76993866D01*
X102914286Y-76993866D02*
X102914286Y-76755771D01*
X102914286Y-76755771D02*
X102961905Y-76565295D01*
X102961905Y-76565295D02*
X103009524Y-76470057D01*
X103009524Y-76470057D02*
X103057143Y-76422438D01*
X103057143Y-76422438D02*
X103152381Y-76374819D01*
X94607142Y-70079580D02*
X94559523Y-70127200D01*
X94559523Y-70127200D02*
X94416666Y-70174819D01*
X94416666Y-70174819D02*
X94321428Y-70174819D01*
X94321428Y-70174819D02*
X94178571Y-70127200D01*
X94178571Y-70127200D02*
X94083333Y-70031961D01*
X94083333Y-70031961D02*
X94035714Y-69936723D01*
X94035714Y-69936723D02*
X93988095Y-69746247D01*
X93988095Y-69746247D02*
X93988095Y-69603390D01*
X93988095Y-69603390D02*
X94035714Y-69412914D01*
X94035714Y-69412914D02*
X94083333Y-69317676D01*
X94083333Y-69317676D02*
X94178571Y-69222438D01*
X94178571Y-69222438D02*
X94321428Y-69174819D01*
X94321428Y-69174819D02*
X94416666Y-69174819D01*
X94416666Y-69174819D02*
X94559523Y-69222438D01*
X94559523Y-69222438D02*
X94607142Y-69270057D01*
X94988095Y-69270057D02*
X95035714Y-69222438D01*
X95035714Y-69222438D02*
X95130952Y-69174819D01*
X95130952Y-69174819D02*
X95369047Y-69174819D01*
X95369047Y-69174819D02*
X95464285Y-69222438D01*
X95464285Y-69222438D02*
X95511904Y-69270057D01*
X95511904Y-69270057D02*
X95559523Y-69365295D01*
X95559523Y-69365295D02*
X95559523Y-69460533D01*
X95559523Y-69460533D02*
X95511904Y-69603390D01*
X95511904Y-69603390D02*
X94940476Y-70174819D01*
X94940476Y-70174819D02*
X95559523Y-70174819D01*
X95892857Y-69174819D02*
X96559523Y-69174819D01*
X96559523Y-69174819D02*
X96130952Y-70174819D01*
X97866666Y-86174819D02*
X97866666Y-86889104D01*
X97866666Y-86889104D02*
X97819047Y-87031961D01*
X97819047Y-87031961D02*
X97723809Y-87127200D01*
X97723809Y-87127200D02*
X97580952Y-87174819D01*
X97580952Y-87174819D02*
X97485714Y-87174819D01*
X98390476Y-87174819D02*
X98580952Y-87174819D01*
X98580952Y-87174819D02*
X98676190Y-87127200D01*
X98676190Y-87127200D02*
X98723809Y-87079580D01*
X98723809Y-87079580D02*
X98819047Y-86936723D01*
X98819047Y-86936723D02*
X98866666Y-86746247D01*
X98866666Y-86746247D02*
X98866666Y-86365295D01*
X98866666Y-86365295D02*
X98819047Y-86270057D01*
X98819047Y-86270057D02*
X98771428Y-86222438D01*
X98771428Y-86222438D02*
X98676190Y-86174819D01*
X98676190Y-86174819D02*
X98485714Y-86174819D01*
X98485714Y-86174819D02*
X98390476Y-86222438D01*
X98390476Y-86222438D02*
X98342857Y-86270057D01*
X98342857Y-86270057D02*
X98295238Y-86365295D01*
X98295238Y-86365295D02*
X98295238Y-86603390D01*
X98295238Y-86603390D02*
X98342857Y-86698628D01*
X98342857Y-86698628D02*
X98390476Y-86746247D01*
X98390476Y-86746247D02*
X98485714Y-86793866D01*
X98485714Y-86793866D02*
X98676190Y-86793866D01*
X98676190Y-86793866D02*
X98771428Y-86746247D01*
X98771428Y-86746247D02*
X98819047Y-86698628D01*
X98819047Y-86698628D02*
X98866666Y-86603390D01*
X80154761Y-52204819D02*
X79821428Y-51728628D01*
X79583333Y-52204819D02*
X79583333Y-51204819D01*
X79583333Y-51204819D02*
X79964285Y-51204819D01*
X79964285Y-51204819D02*
X80059523Y-51252438D01*
X80059523Y-51252438D02*
X80107142Y-51300057D01*
X80107142Y-51300057D02*
X80154761Y-51395295D01*
X80154761Y-51395295D02*
X80154761Y-51538152D01*
X80154761Y-51538152D02*
X80107142Y-51633390D01*
X80107142Y-51633390D02*
X80059523Y-51681009D01*
X80059523Y-51681009D02*
X79964285Y-51728628D01*
X79964285Y-51728628D02*
X79583333Y-51728628D01*
X80440476Y-51204819D02*
X80773809Y-52204819D01*
X80773809Y-52204819D02*
X81107142Y-51204819D01*
X81392857Y-51300057D02*
X81440476Y-51252438D01*
X81440476Y-51252438D02*
X81535714Y-51204819D01*
X81535714Y-51204819D02*
X81773809Y-51204819D01*
X81773809Y-51204819D02*
X81869047Y-51252438D01*
X81869047Y-51252438D02*
X81916666Y-51300057D01*
X81916666Y-51300057D02*
X81964285Y-51395295D01*
X81964285Y-51395295D02*
X81964285Y-51490533D01*
X81964285Y-51490533D02*
X81916666Y-51633390D01*
X81916666Y-51633390D02*
X81345238Y-52204819D01*
X81345238Y-52204819D02*
X81964285Y-52204819D01*
X82685714Y-49954819D02*
X82685714Y-48954819D01*
X82685714Y-49431009D02*
X83257142Y-49431009D01*
X83257142Y-49954819D02*
X83257142Y-48954819D01*
X83685714Y-49050057D02*
X83733333Y-49002438D01*
X83733333Y-49002438D02*
X83828571Y-48954819D01*
X83828571Y-48954819D02*
X84066666Y-48954819D01*
X84066666Y-48954819D02*
X84161904Y-49002438D01*
X84161904Y-49002438D02*
X84209523Y-49050057D01*
X84209523Y-49050057D02*
X84257142Y-49145295D01*
X84257142Y-49145295D02*
X84257142Y-49240533D01*
X84257142Y-49240533D02*
X84209523Y-49383390D01*
X84209523Y-49383390D02*
X83638095Y-49954819D01*
X83638095Y-49954819D02*
X84257142Y-49954819D01*
X84638095Y-49907200D02*
X84780952Y-49954819D01*
X84780952Y-49954819D02*
X85019047Y-49954819D01*
X85019047Y-49954819D02*
X85114285Y-49907200D01*
X85114285Y-49907200D02*
X85161904Y-49859580D01*
X85161904Y-49859580D02*
X85209523Y-49764342D01*
X85209523Y-49764342D02*
X85209523Y-49669104D01*
X85209523Y-49669104D02*
X85161904Y-49573866D01*
X85161904Y-49573866D02*
X85114285Y-49526247D01*
X85114285Y-49526247D02*
X85019047Y-49478628D01*
X85019047Y-49478628D02*
X84828571Y-49431009D01*
X84828571Y-49431009D02*
X84733333Y-49383390D01*
X84733333Y-49383390D02*
X84685714Y-49335771D01*
X84685714Y-49335771D02*
X84638095Y-49240533D01*
X84638095Y-49240533D02*
X84638095Y-49145295D01*
X84638095Y-49145295D02*
X84685714Y-49050057D01*
X84685714Y-49050057D02*
X84733333Y-49002438D01*
X84733333Y-49002438D02*
X84828571Y-48954819D01*
X84828571Y-48954819D02*
X85066666Y-48954819D01*
X85066666Y-48954819D02*
X85209523Y-49002438D01*
X86352381Y-49907200D02*
X86495238Y-49954819D01*
X86495238Y-49954819D02*
X86733333Y-49954819D01*
X86733333Y-49954819D02*
X86828571Y-49907200D01*
X86828571Y-49907200D02*
X86876190Y-49859580D01*
X86876190Y-49859580D02*
X86923809Y-49764342D01*
X86923809Y-49764342D02*
X86923809Y-49669104D01*
X86923809Y-49669104D02*
X86876190Y-49573866D01*
X86876190Y-49573866D02*
X86828571Y-49526247D01*
X86828571Y-49526247D02*
X86733333Y-49478628D01*
X86733333Y-49478628D02*
X86542857Y-49431009D01*
X86542857Y-49431009D02*
X86447619Y-49383390D01*
X86447619Y-49383390D02*
X86400000Y-49335771D01*
X86400000Y-49335771D02*
X86352381Y-49240533D01*
X86352381Y-49240533D02*
X86352381Y-49145295D01*
X86352381Y-49145295D02*
X86400000Y-49050057D01*
X86400000Y-49050057D02*
X86447619Y-49002438D01*
X86447619Y-49002438D02*
X86542857Y-48954819D01*
X86542857Y-48954819D02*
X86780952Y-48954819D01*
X86780952Y-48954819D02*
X86923809Y-49002438D01*
X87733333Y-49907200D02*
X87638095Y-49954819D01*
X87638095Y-49954819D02*
X87447619Y-49954819D01*
X87447619Y-49954819D02*
X87352381Y-49907200D01*
X87352381Y-49907200D02*
X87304762Y-49811961D01*
X87304762Y-49811961D02*
X87304762Y-49431009D01*
X87304762Y-49431009D02*
X87352381Y-49335771D01*
X87352381Y-49335771D02*
X87447619Y-49288152D01*
X87447619Y-49288152D02*
X87638095Y-49288152D01*
X87638095Y-49288152D02*
X87733333Y-49335771D01*
X87733333Y-49335771D02*
X87780952Y-49431009D01*
X87780952Y-49431009D02*
X87780952Y-49526247D01*
X87780952Y-49526247D02*
X87304762Y-49621485D01*
X88066667Y-49288152D02*
X88447619Y-49288152D01*
X88209524Y-48954819D02*
X88209524Y-49811961D01*
X88209524Y-49811961D02*
X88257143Y-49907200D01*
X88257143Y-49907200D02*
X88352381Y-49954819D01*
X88352381Y-49954819D02*
X88447619Y-49954819D01*
X89209524Y-49288152D02*
X89209524Y-49954819D01*
X88780953Y-49288152D02*
X88780953Y-49811961D01*
X88780953Y-49811961D02*
X88828572Y-49907200D01*
X88828572Y-49907200D02*
X88923810Y-49954819D01*
X88923810Y-49954819D02*
X89066667Y-49954819D01*
X89066667Y-49954819D02*
X89161905Y-49907200D01*
X89161905Y-49907200D02*
X89209524Y-49859580D01*
X89685715Y-49288152D02*
X89685715Y-50288152D01*
X89685715Y-49335771D02*
X89780953Y-49288152D01*
X89780953Y-49288152D02*
X89971429Y-49288152D01*
X89971429Y-49288152D02*
X90066667Y-49335771D01*
X90066667Y-49335771D02*
X90114286Y-49383390D01*
X90114286Y-49383390D02*
X90161905Y-49478628D01*
X90161905Y-49478628D02*
X90161905Y-49764342D01*
X90161905Y-49764342D02*
X90114286Y-49859580D01*
X90114286Y-49859580D02*
X90066667Y-49907200D01*
X90066667Y-49907200D02*
X89971429Y-49954819D01*
X89971429Y-49954819D02*
X89780953Y-49954819D01*
X89780953Y-49954819D02*
X89685715Y-49907200D01*
X80266666Y-58374819D02*
X80266666Y-59089104D01*
X80266666Y-59089104D02*
X80219047Y-59231961D01*
X80219047Y-59231961D02*
X80123809Y-59327200D01*
X80123809Y-59327200D02*
X79980952Y-59374819D01*
X79980952Y-59374819D02*
X79885714Y-59374819D01*
X80695238Y-58470057D02*
X80742857Y-58422438D01*
X80742857Y-58422438D02*
X80838095Y-58374819D01*
X80838095Y-58374819D02*
X81076190Y-58374819D01*
X81076190Y-58374819D02*
X81171428Y-58422438D01*
X81171428Y-58422438D02*
X81219047Y-58470057D01*
X81219047Y-58470057D02*
X81266666Y-58565295D01*
X81266666Y-58565295D02*
X81266666Y-58660533D01*
X81266666Y-58660533D02*
X81219047Y-58803390D01*
X81219047Y-58803390D02*
X80647619Y-59374819D01*
X80647619Y-59374819D02*
X81266666Y-59374819D01*
X77528571Y-59774819D02*
X78099999Y-59774819D01*
X77814285Y-60774819D02*
X77814285Y-59774819D01*
X78576190Y-60774819D02*
X78480952Y-60727200D01*
X78480952Y-60727200D02*
X78433333Y-60679580D01*
X78433333Y-60679580D02*
X78385714Y-60584342D01*
X78385714Y-60584342D02*
X78385714Y-60298628D01*
X78385714Y-60298628D02*
X78433333Y-60203390D01*
X78433333Y-60203390D02*
X78480952Y-60155771D01*
X78480952Y-60155771D02*
X78576190Y-60108152D01*
X78576190Y-60108152D02*
X78719047Y-60108152D01*
X78719047Y-60108152D02*
X78814285Y-60155771D01*
X78814285Y-60155771D02*
X78861904Y-60203390D01*
X78861904Y-60203390D02*
X78909523Y-60298628D01*
X78909523Y-60298628D02*
X78909523Y-60584342D01*
X78909523Y-60584342D02*
X78861904Y-60679580D01*
X78861904Y-60679580D02*
X78814285Y-60727200D01*
X78814285Y-60727200D02*
X78719047Y-60774819D01*
X78719047Y-60774819D02*
X78576190Y-60774819D01*
X79766666Y-60108152D02*
X79766666Y-60774819D01*
X79338095Y-60108152D02*
X79338095Y-60631961D01*
X79338095Y-60631961D02*
X79385714Y-60727200D01*
X79385714Y-60727200D02*
X79480952Y-60774819D01*
X79480952Y-60774819D02*
X79623809Y-60774819D01*
X79623809Y-60774819D02*
X79719047Y-60727200D01*
X79719047Y-60727200D02*
X79766666Y-60679580D01*
X80671428Y-60727200D02*
X80576190Y-60774819D01*
X80576190Y-60774819D02*
X80385714Y-60774819D01*
X80385714Y-60774819D02*
X80290476Y-60727200D01*
X80290476Y-60727200D02*
X80242857Y-60679580D01*
X80242857Y-60679580D02*
X80195238Y-60584342D01*
X80195238Y-60584342D02*
X80195238Y-60298628D01*
X80195238Y-60298628D02*
X80242857Y-60203390D01*
X80242857Y-60203390D02*
X80290476Y-60155771D01*
X80290476Y-60155771D02*
X80385714Y-60108152D01*
X80385714Y-60108152D02*
X80576190Y-60108152D01*
X80576190Y-60108152D02*
X80671428Y-60155771D01*
X81100000Y-60774819D02*
X81100000Y-59774819D01*
X81528571Y-60774819D02*
X81528571Y-60251009D01*
X81528571Y-60251009D02*
X81480952Y-60155771D01*
X81480952Y-60155771D02*
X81385714Y-60108152D01*
X81385714Y-60108152D02*
X81242857Y-60108152D01*
X81242857Y-60108152D02*
X81147619Y-60155771D01*
X81147619Y-60155771D02*
X81100000Y-60203390D01*
X103466666Y-82374819D02*
X103466666Y-83089104D01*
X103466666Y-83089104D02*
X103419047Y-83231961D01*
X103419047Y-83231961D02*
X103323809Y-83327200D01*
X103323809Y-83327200D02*
X103180952Y-83374819D01*
X103180952Y-83374819D02*
X103085714Y-83374819D01*
X104371428Y-82708152D02*
X104371428Y-83374819D01*
X104133333Y-82327200D02*
X103895238Y-83041485D01*
X103895238Y-83041485D02*
X104514285Y-83041485D01*
X99619047Y-84051009D02*
X99761904Y-84098628D01*
X99761904Y-84098628D02*
X99809523Y-84146247D01*
X99809523Y-84146247D02*
X99857142Y-84241485D01*
X99857142Y-84241485D02*
X99857142Y-84384342D01*
X99857142Y-84384342D02*
X99809523Y-84479580D01*
X99809523Y-84479580D02*
X99761904Y-84527200D01*
X99761904Y-84527200D02*
X99666666Y-84574819D01*
X99666666Y-84574819D02*
X99285714Y-84574819D01*
X99285714Y-84574819D02*
X99285714Y-83574819D01*
X99285714Y-83574819D02*
X99619047Y-83574819D01*
X99619047Y-83574819D02*
X99714285Y-83622438D01*
X99714285Y-83622438D02*
X99761904Y-83670057D01*
X99761904Y-83670057D02*
X99809523Y-83765295D01*
X99809523Y-83765295D02*
X99809523Y-83860533D01*
X99809523Y-83860533D02*
X99761904Y-83955771D01*
X99761904Y-83955771D02*
X99714285Y-84003390D01*
X99714285Y-84003390D02*
X99619047Y-84051009D01*
X99619047Y-84051009D02*
X99285714Y-84051009D01*
X100285714Y-84574819D02*
X100285714Y-83574819D01*
X100285714Y-83574819D02*
X100619047Y-84289104D01*
X100619047Y-84289104D02*
X100952380Y-83574819D01*
X100952380Y-83574819D02*
X100952380Y-84574819D01*
X101428571Y-84051009D02*
X101761904Y-84051009D01*
X101904761Y-84574819D02*
X101428571Y-84574819D01*
X101428571Y-84574819D02*
X101428571Y-83574819D01*
X101428571Y-83574819D02*
X101904761Y-83574819D01*
X102285714Y-83670057D02*
X102333333Y-83622438D01*
X102333333Y-83622438D02*
X102428571Y-83574819D01*
X102428571Y-83574819D02*
X102666666Y-83574819D01*
X102666666Y-83574819D02*
X102761904Y-83622438D01*
X102761904Y-83622438D02*
X102809523Y-83670057D01*
X102809523Y-83670057D02*
X102857142Y-83765295D01*
X102857142Y-83765295D02*
X102857142Y-83860533D01*
X102857142Y-83860533D02*
X102809523Y-84003390D01*
X102809523Y-84003390D02*
X102238095Y-84574819D01*
X102238095Y-84574819D02*
X102857142Y-84574819D01*
X103428571Y-84003390D02*
X103333333Y-83955771D01*
X103333333Y-83955771D02*
X103285714Y-83908152D01*
X103285714Y-83908152D02*
X103238095Y-83812914D01*
X103238095Y-83812914D02*
X103238095Y-83765295D01*
X103238095Y-83765295D02*
X103285714Y-83670057D01*
X103285714Y-83670057D02*
X103333333Y-83622438D01*
X103333333Y-83622438D02*
X103428571Y-83574819D01*
X103428571Y-83574819D02*
X103619047Y-83574819D01*
X103619047Y-83574819D02*
X103714285Y-83622438D01*
X103714285Y-83622438D02*
X103761904Y-83670057D01*
X103761904Y-83670057D02*
X103809523Y-83765295D01*
X103809523Y-83765295D02*
X103809523Y-83812914D01*
X103809523Y-83812914D02*
X103761904Y-83908152D01*
X103761904Y-83908152D02*
X103714285Y-83955771D01*
X103714285Y-83955771D02*
X103619047Y-84003390D01*
X103619047Y-84003390D02*
X103428571Y-84003390D01*
X103428571Y-84003390D02*
X103333333Y-84051009D01*
X103333333Y-84051009D02*
X103285714Y-84098628D01*
X103285714Y-84098628D02*
X103238095Y-84193866D01*
X103238095Y-84193866D02*
X103238095Y-84384342D01*
X103238095Y-84384342D02*
X103285714Y-84479580D01*
X103285714Y-84479580D02*
X103333333Y-84527200D01*
X103333333Y-84527200D02*
X103428571Y-84574819D01*
X103428571Y-84574819D02*
X103619047Y-84574819D01*
X103619047Y-84574819D02*
X103714285Y-84527200D01*
X103714285Y-84527200D02*
X103761904Y-84479580D01*
X103761904Y-84479580D02*
X103809523Y-84384342D01*
X103809523Y-84384342D02*
X103809523Y-84193866D01*
X103809523Y-84193866D02*
X103761904Y-84098628D01*
X103761904Y-84098628D02*
X103714285Y-84051009D01*
X103714285Y-84051009D02*
X103619047Y-84003390D01*
X104428571Y-83574819D02*
X104523809Y-83574819D01*
X104523809Y-83574819D02*
X104619047Y-83622438D01*
X104619047Y-83622438D02*
X104666666Y-83670057D01*
X104666666Y-83670057D02*
X104714285Y-83765295D01*
X104714285Y-83765295D02*
X104761904Y-83955771D01*
X104761904Y-83955771D02*
X104761904Y-84193866D01*
X104761904Y-84193866D02*
X104714285Y-84384342D01*
X104714285Y-84384342D02*
X104666666Y-84479580D01*
X104666666Y-84479580D02*
X104619047Y-84527200D01*
X104619047Y-84527200D02*
X104523809Y-84574819D01*
X104523809Y-84574819D02*
X104428571Y-84574819D01*
X104428571Y-84574819D02*
X104333333Y-84527200D01*
X104333333Y-84527200D02*
X104285714Y-84479580D01*
X104285714Y-84479580D02*
X104238095Y-84384342D01*
X104238095Y-84384342D02*
X104190476Y-84193866D01*
X104190476Y-84193866D02*
X104190476Y-83955771D01*
X104190476Y-83955771D02*
X104238095Y-83765295D01*
X104238095Y-83765295D02*
X104285714Y-83670057D01*
X104285714Y-83670057D02*
X104333333Y-83622438D01*
X104333333Y-83622438D02*
X104428571Y-83574819D01*
X99916666Y-34479819D02*
X99916666Y-35194104D01*
X99916666Y-35194104D02*
X99869047Y-35336961D01*
X99869047Y-35336961D02*
X99773809Y-35432200D01*
X99773809Y-35432200D02*
X99630952Y-35479819D01*
X99630952Y-35479819D02*
X99535714Y-35479819D01*
X100821428Y-34479819D02*
X100630952Y-34479819D01*
X100630952Y-34479819D02*
X100535714Y-34527438D01*
X100535714Y-34527438D02*
X100488095Y-34575057D01*
X100488095Y-34575057D02*
X100392857Y-34717914D01*
X100392857Y-34717914D02*
X100345238Y-34908390D01*
X100345238Y-34908390D02*
X100345238Y-35289342D01*
X100345238Y-35289342D02*
X100392857Y-35384580D01*
X100392857Y-35384580D02*
X100440476Y-35432200D01*
X100440476Y-35432200D02*
X100535714Y-35479819D01*
X100535714Y-35479819D02*
X100726190Y-35479819D01*
X100726190Y-35479819D02*
X100821428Y-35432200D01*
X100821428Y-35432200D02*
X100869047Y-35384580D01*
X100869047Y-35384580D02*
X100916666Y-35289342D01*
X100916666Y-35289342D02*
X100916666Y-35051247D01*
X100916666Y-35051247D02*
X100869047Y-34956009D01*
X100869047Y-34956009D02*
X100821428Y-34908390D01*
X100821428Y-34908390D02*
X100726190Y-34860771D01*
X100726190Y-34860771D02*
X100535714Y-34860771D01*
X100535714Y-34860771D02*
X100440476Y-34908390D01*
X100440476Y-34908390D02*
X100392857Y-34956009D01*
X100392857Y-34956009D02*
X100345238Y-35051247D01*
X95783333Y-36556009D02*
X96116666Y-36556009D01*
X96259523Y-37079819D02*
X95783333Y-37079819D01*
X95783333Y-37079819D02*
X95783333Y-36079819D01*
X95783333Y-36079819D02*
X96259523Y-36079819D01*
X96592857Y-37079819D02*
X97116666Y-36413152D01*
X96592857Y-36413152D02*
X97116666Y-37079819D01*
X97354762Y-36413152D02*
X97735714Y-36413152D01*
X97497619Y-36079819D02*
X97497619Y-36936961D01*
X97497619Y-36936961D02*
X97545238Y-37032200D01*
X97545238Y-37032200D02*
X97640476Y-37079819D01*
X97640476Y-37079819D02*
X97735714Y-37079819D01*
X99164286Y-36556009D02*
X98830953Y-36556009D01*
X98830953Y-37079819D02*
X98830953Y-36079819D01*
X98830953Y-36079819D02*
X99307143Y-36079819D01*
X99640477Y-36794104D02*
X100116667Y-36794104D01*
X99545239Y-37079819D02*
X99878572Y-36079819D01*
X99878572Y-36079819D02*
X100211905Y-37079819D01*
X100545239Y-37079819D02*
X100545239Y-36079819D01*
X100545239Y-36079819D02*
X101116667Y-37079819D01*
X101116667Y-37079819D02*
X101116667Y-36079819D01*
X81157142Y-70374819D02*
X80823809Y-69898628D01*
X80585714Y-70374819D02*
X80585714Y-69374819D01*
X80585714Y-69374819D02*
X80966666Y-69374819D01*
X80966666Y-69374819D02*
X81061904Y-69422438D01*
X81061904Y-69422438D02*
X81109523Y-69470057D01*
X81109523Y-69470057D02*
X81157142Y-69565295D01*
X81157142Y-69565295D02*
X81157142Y-69708152D01*
X81157142Y-69708152D02*
X81109523Y-69803390D01*
X81109523Y-69803390D02*
X81061904Y-69851009D01*
X81061904Y-69851009D02*
X80966666Y-69898628D01*
X80966666Y-69898628D02*
X80585714Y-69898628D01*
X81538095Y-69470057D02*
X81585714Y-69422438D01*
X81585714Y-69422438D02*
X81680952Y-69374819D01*
X81680952Y-69374819D02*
X81919047Y-69374819D01*
X81919047Y-69374819D02*
X82014285Y-69422438D01*
X82014285Y-69422438D02*
X82061904Y-69470057D01*
X82061904Y-69470057D02*
X82109523Y-69565295D01*
X82109523Y-69565295D02*
X82109523Y-69660533D01*
X82109523Y-69660533D02*
X82061904Y-69803390D01*
X82061904Y-69803390D02*
X81490476Y-70374819D01*
X81490476Y-70374819D02*
X82109523Y-70374819D01*
X82442857Y-69374819D02*
X83109523Y-69374819D01*
X83109523Y-69374819D02*
X82680952Y-70374819D01*
X82361905Y-78554819D02*
X82361905Y-77554819D01*
X82361905Y-77554819D02*
X82600000Y-77554819D01*
X82600000Y-77554819D02*
X82742857Y-77602438D01*
X82742857Y-77602438D02*
X82838095Y-77697676D01*
X82838095Y-77697676D02*
X82885714Y-77792914D01*
X82885714Y-77792914D02*
X82933333Y-77983390D01*
X82933333Y-77983390D02*
X82933333Y-78126247D01*
X82933333Y-78126247D02*
X82885714Y-78316723D01*
X82885714Y-78316723D02*
X82838095Y-78411961D01*
X82838095Y-78411961D02*
X82742857Y-78507200D01*
X82742857Y-78507200D02*
X82600000Y-78554819D01*
X82600000Y-78554819D02*
X82361905Y-78554819D01*
X83409524Y-78554819D02*
X83600000Y-78554819D01*
X83600000Y-78554819D02*
X83695238Y-78507200D01*
X83695238Y-78507200D02*
X83742857Y-78459580D01*
X83742857Y-78459580D02*
X83838095Y-78316723D01*
X83838095Y-78316723D02*
X83885714Y-78126247D01*
X83885714Y-78126247D02*
X83885714Y-77745295D01*
X83885714Y-77745295D02*
X83838095Y-77650057D01*
X83838095Y-77650057D02*
X83790476Y-77602438D01*
X83790476Y-77602438D02*
X83695238Y-77554819D01*
X83695238Y-77554819D02*
X83504762Y-77554819D01*
X83504762Y-77554819D02*
X83409524Y-77602438D01*
X83409524Y-77602438D02*
X83361905Y-77650057D01*
X83361905Y-77650057D02*
X83314286Y-77745295D01*
X83314286Y-77745295D02*
X83314286Y-77983390D01*
X83314286Y-77983390D02*
X83361905Y-78078628D01*
X83361905Y-78078628D02*
X83409524Y-78126247D01*
X83409524Y-78126247D02*
X83504762Y-78173866D01*
X83504762Y-78173866D02*
X83695238Y-78173866D01*
X83695238Y-78173866D02*
X83790476Y-78126247D01*
X83790476Y-78126247D02*
X83838095Y-78078628D01*
X83838095Y-78078628D02*
X83885714Y-77983390D01*
X74061905Y-59774819D02*
X74061905Y-58774819D01*
X74061905Y-58774819D02*
X74300000Y-58774819D01*
X74300000Y-58774819D02*
X74442857Y-58822438D01*
X74442857Y-58822438D02*
X74538095Y-58917676D01*
X74538095Y-58917676D02*
X74585714Y-59012914D01*
X74585714Y-59012914D02*
X74633333Y-59203390D01*
X74633333Y-59203390D02*
X74633333Y-59346247D01*
X74633333Y-59346247D02*
X74585714Y-59536723D01*
X74585714Y-59536723D02*
X74538095Y-59631961D01*
X74538095Y-59631961D02*
X74442857Y-59727200D01*
X74442857Y-59727200D02*
X74300000Y-59774819D01*
X74300000Y-59774819D02*
X74061905Y-59774819D01*
X75490476Y-59108152D02*
X75490476Y-59774819D01*
X75252381Y-58727200D02*
X75014286Y-59441485D01*
X75014286Y-59441485D02*
X75633333Y-59441485D01*
X101557142Y-78974819D02*
X101223809Y-78498628D01*
X100985714Y-78974819D02*
X100985714Y-77974819D01*
X100985714Y-77974819D02*
X101366666Y-77974819D01*
X101366666Y-77974819D02*
X101461904Y-78022438D01*
X101461904Y-78022438D02*
X101509523Y-78070057D01*
X101509523Y-78070057D02*
X101557142Y-78165295D01*
X101557142Y-78165295D02*
X101557142Y-78308152D01*
X101557142Y-78308152D02*
X101509523Y-78403390D01*
X101509523Y-78403390D02*
X101461904Y-78451009D01*
X101461904Y-78451009D02*
X101366666Y-78498628D01*
X101366666Y-78498628D02*
X100985714Y-78498628D01*
X101938095Y-78070057D02*
X101985714Y-78022438D01*
X101985714Y-78022438D02*
X102080952Y-77974819D01*
X102080952Y-77974819D02*
X102319047Y-77974819D01*
X102319047Y-77974819D02*
X102414285Y-78022438D01*
X102414285Y-78022438D02*
X102461904Y-78070057D01*
X102461904Y-78070057D02*
X102509523Y-78165295D01*
X102509523Y-78165295D02*
X102509523Y-78260533D01*
X102509523Y-78260533D02*
X102461904Y-78403390D01*
X102461904Y-78403390D02*
X101890476Y-78974819D01*
X101890476Y-78974819D02*
X102509523Y-78974819D01*
X103414285Y-77974819D02*
X102938095Y-77974819D01*
X102938095Y-77974819D02*
X102890476Y-78451009D01*
X102890476Y-78451009D02*
X102938095Y-78403390D01*
X102938095Y-78403390D02*
X103033333Y-78355771D01*
X103033333Y-78355771D02*
X103271428Y-78355771D01*
X103271428Y-78355771D02*
X103366666Y-78403390D01*
X103366666Y-78403390D02*
X103414285Y-78451009D01*
X103414285Y-78451009D02*
X103461904Y-78546247D01*
X103461904Y-78546247D02*
X103461904Y-78784342D01*
X103461904Y-78784342D02*
X103414285Y-78879580D01*
X103414285Y-78879580D02*
X103366666Y-78927200D01*
X103366666Y-78927200D02*
X103271428Y-78974819D01*
X103271428Y-78974819D02*
X103033333Y-78974819D01*
X103033333Y-78974819D02*
X102938095Y-78927200D01*
X102938095Y-78927200D02*
X102890476Y-78879580D01*
X101557142Y-80374819D02*
X101223809Y-79898628D01*
X100985714Y-80374819D02*
X100985714Y-79374819D01*
X100985714Y-79374819D02*
X101366666Y-79374819D01*
X101366666Y-79374819D02*
X101461904Y-79422438D01*
X101461904Y-79422438D02*
X101509523Y-79470057D01*
X101509523Y-79470057D02*
X101557142Y-79565295D01*
X101557142Y-79565295D02*
X101557142Y-79708152D01*
X101557142Y-79708152D02*
X101509523Y-79803390D01*
X101509523Y-79803390D02*
X101461904Y-79851009D01*
X101461904Y-79851009D02*
X101366666Y-79898628D01*
X101366666Y-79898628D02*
X100985714Y-79898628D01*
X101938095Y-79470057D02*
X101985714Y-79422438D01*
X101985714Y-79422438D02*
X102080952Y-79374819D01*
X102080952Y-79374819D02*
X102319047Y-79374819D01*
X102319047Y-79374819D02*
X102414285Y-79422438D01*
X102414285Y-79422438D02*
X102461904Y-79470057D01*
X102461904Y-79470057D02*
X102509523Y-79565295D01*
X102509523Y-79565295D02*
X102509523Y-79660533D01*
X102509523Y-79660533D02*
X102461904Y-79803390D01*
X102461904Y-79803390D02*
X101890476Y-80374819D01*
X101890476Y-80374819D02*
X102509523Y-80374819D01*
X103366666Y-79708152D02*
X103366666Y-80374819D01*
X103128571Y-79327200D02*
X102890476Y-80041485D01*
X102890476Y-80041485D02*
X103509523Y-80041485D01*
X107511905Y-47704819D02*
X107511905Y-48514342D01*
X107511905Y-48514342D02*
X107559524Y-48609580D01*
X107559524Y-48609580D02*
X107607143Y-48657200D01*
X107607143Y-48657200D02*
X107702381Y-48704819D01*
X107702381Y-48704819D02*
X107892857Y-48704819D01*
X107892857Y-48704819D02*
X107988095Y-48657200D01*
X107988095Y-48657200D02*
X108035714Y-48609580D01*
X108035714Y-48609580D02*
X108083333Y-48514342D01*
X108083333Y-48514342D02*
X108083333Y-47704819D01*
X109083333Y-48704819D02*
X108511905Y-48704819D01*
X108797619Y-48704819D02*
X108797619Y-47704819D01*
X108797619Y-47704819D02*
X108702381Y-47847676D01*
X108702381Y-47847676D02*
X108607143Y-47942914D01*
X108607143Y-47942914D02*
X108511905Y-47990533D01*
X109988095Y-47704819D02*
X109511905Y-47704819D01*
X109511905Y-47704819D02*
X109464286Y-48181009D01*
X109464286Y-48181009D02*
X109511905Y-48133390D01*
X109511905Y-48133390D02*
X109607143Y-48085771D01*
X109607143Y-48085771D02*
X109845238Y-48085771D01*
X109845238Y-48085771D02*
X109940476Y-48133390D01*
X109940476Y-48133390D02*
X109988095Y-48181009D01*
X109988095Y-48181009D02*
X110035714Y-48276247D01*
X110035714Y-48276247D02*
X110035714Y-48514342D01*
X110035714Y-48514342D02*
X109988095Y-48609580D01*
X109988095Y-48609580D02*
X109940476Y-48657200D01*
X109940476Y-48657200D02*
X109845238Y-48704819D01*
X109845238Y-48704819D02*
X109607143Y-48704819D01*
X109607143Y-48704819D02*
X109511905Y-48657200D01*
X109511905Y-48657200D02*
X109464286Y-48609580D01*
X78190476Y-79974819D02*
X78190476Y-80689104D01*
X78190476Y-80689104D02*
X78142857Y-80831961D01*
X78142857Y-80831961D02*
X78047619Y-80927200D01*
X78047619Y-80927200D02*
X77904762Y-80974819D01*
X77904762Y-80974819D02*
X77809524Y-80974819D01*
X79190476Y-80974819D02*
X78619048Y-80974819D01*
X78904762Y-80974819D02*
X78904762Y-79974819D01*
X78904762Y-79974819D02*
X78809524Y-80117676D01*
X78809524Y-80117676D02*
X78714286Y-80212914D01*
X78714286Y-80212914D02*
X78619048Y-80260533D01*
X79809524Y-79974819D02*
X79904762Y-79974819D01*
X79904762Y-79974819D02*
X80000000Y-80022438D01*
X80000000Y-80022438D02*
X80047619Y-80070057D01*
X80047619Y-80070057D02*
X80095238Y-80165295D01*
X80095238Y-80165295D02*
X80142857Y-80355771D01*
X80142857Y-80355771D02*
X80142857Y-80593866D01*
X80142857Y-80593866D02*
X80095238Y-80784342D01*
X80095238Y-80784342D02*
X80047619Y-80879580D01*
X80047619Y-80879580D02*
X80000000Y-80927200D01*
X80000000Y-80927200D02*
X79904762Y-80974819D01*
X79904762Y-80974819D02*
X79809524Y-80974819D01*
X79809524Y-80974819D02*
X79714286Y-80927200D01*
X79714286Y-80927200D02*
X79666667Y-80879580D01*
X79666667Y-80879580D02*
X79619048Y-80784342D01*
X79619048Y-80784342D02*
X79571429Y-80593866D01*
X79571429Y-80593866D02*
X79571429Y-80355771D01*
X79571429Y-80355771D02*
X79619048Y-80165295D01*
X79619048Y-80165295D02*
X79666667Y-80070057D01*
X79666667Y-80070057D02*
X79714286Y-80022438D01*
X79714286Y-80022438D02*
X79809524Y-79974819D01*
X100957142Y-70174819D02*
X100623809Y-69698628D01*
X100385714Y-70174819D02*
X100385714Y-69174819D01*
X100385714Y-69174819D02*
X100766666Y-69174819D01*
X100766666Y-69174819D02*
X100861904Y-69222438D01*
X100861904Y-69222438D02*
X100909523Y-69270057D01*
X100909523Y-69270057D02*
X100957142Y-69365295D01*
X100957142Y-69365295D02*
X100957142Y-69508152D01*
X100957142Y-69508152D02*
X100909523Y-69603390D01*
X100909523Y-69603390D02*
X100861904Y-69651009D01*
X100861904Y-69651009D02*
X100766666Y-69698628D01*
X100766666Y-69698628D02*
X100385714Y-69698628D01*
X101909523Y-70174819D02*
X101338095Y-70174819D01*
X101623809Y-70174819D02*
X101623809Y-69174819D01*
X101623809Y-69174819D02*
X101528571Y-69317676D01*
X101528571Y-69317676D02*
X101433333Y-69412914D01*
X101433333Y-69412914D02*
X101338095Y-69460533D01*
X102766666Y-69174819D02*
X102576190Y-69174819D01*
X102576190Y-69174819D02*
X102480952Y-69222438D01*
X102480952Y-69222438D02*
X102433333Y-69270057D01*
X102433333Y-69270057D02*
X102338095Y-69412914D01*
X102338095Y-69412914D02*
X102290476Y-69603390D01*
X102290476Y-69603390D02*
X102290476Y-69984342D01*
X102290476Y-69984342D02*
X102338095Y-70079580D01*
X102338095Y-70079580D02*
X102385714Y-70127200D01*
X102385714Y-70127200D02*
X102480952Y-70174819D01*
X102480952Y-70174819D02*
X102671428Y-70174819D01*
X102671428Y-70174819D02*
X102766666Y-70127200D01*
X102766666Y-70127200D02*
X102814285Y-70079580D01*
X102814285Y-70079580D02*
X102861904Y-69984342D01*
X102861904Y-69984342D02*
X102861904Y-69746247D01*
X102861904Y-69746247D02*
X102814285Y-69651009D01*
X102814285Y-69651009D02*
X102766666Y-69603390D01*
X102766666Y-69603390D02*
X102671428Y-69555771D01*
X102671428Y-69555771D02*
X102480952Y-69555771D01*
X102480952Y-69555771D02*
X102385714Y-69603390D01*
X102385714Y-69603390D02*
X102338095Y-69651009D01*
X102338095Y-69651009D02*
X102290476Y-69746247D01*
X104166667Y-45657200D02*
X104309524Y-45704819D01*
X104309524Y-45704819D02*
X104547619Y-45704819D01*
X104547619Y-45704819D02*
X104642857Y-45657200D01*
X104642857Y-45657200D02*
X104690476Y-45609580D01*
X104690476Y-45609580D02*
X104738095Y-45514342D01*
X104738095Y-45514342D02*
X104738095Y-45419104D01*
X104738095Y-45419104D02*
X104690476Y-45323866D01*
X104690476Y-45323866D02*
X104642857Y-45276247D01*
X104642857Y-45276247D02*
X104547619Y-45228628D01*
X104547619Y-45228628D02*
X104357143Y-45181009D01*
X104357143Y-45181009D02*
X104261905Y-45133390D01*
X104261905Y-45133390D02*
X104214286Y-45085771D01*
X104214286Y-45085771D02*
X104166667Y-44990533D01*
X104166667Y-44990533D02*
X104166667Y-44895295D01*
X104166667Y-44895295D02*
X104214286Y-44800057D01*
X104214286Y-44800057D02*
X104261905Y-44752438D01*
X104261905Y-44752438D02*
X104357143Y-44704819D01*
X104357143Y-44704819D02*
X104595238Y-44704819D01*
X104595238Y-44704819D02*
X104738095Y-44752438D01*
X105071429Y-44704819D02*
X105309524Y-45704819D01*
X105309524Y-45704819D02*
X105500000Y-44990533D01*
X105500000Y-44990533D02*
X105690476Y-45704819D01*
X105690476Y-45704819D02*
X105928572Y-44704819D01*
X106261905Y-44800057D02*
X106309524Y-44752438D01*
X106309524Y-44752438D02*
X106404762Y-44704819D01*
X106404762Y-44704819D02*
X106642857Y-44704819D01*
X106642857Y-44704819D02*
X106738095Y-44752438D01*
X106738095Y-44752438D02*
X106785714Y-44800057D01*
X106785714Y-44800057D02*
X106833333Y-44895295D01*
X106833333Y-44895295D02*
X106833333Y-44990533D01*
X106833333Y-44990533D02*
X106785714Y-45133390D01*
X106785714Y-45133390D02*
X106214286Y-45704819D01*
X106214286Y-45704819D02*
X106833333Y-45704819D01*
X104071428Y-46681009D02*
X103738095Y-46681009D01*
X103738095Y-47204819D02*
X103738095Y-46204819D01*
X103738095Y-46204819D02*
X104214285Y-46204819D01*
X104738095Y-47204819D02*
X104642857Y-47157200D01*
X104642857Y-47157200D02*
X104595238Y-47061961D01*
X104595238Y-47061961D02*
X104595238Y-46204819D01*
X105547619Y-46538152D02*
X105547619Y-47204819D01*
X105119048Y-46538152D02*
X105119048Y-47061961D01*
X105119048Y-47061961D02*
X105166667Y-47157200D01*
X105166667Y-47157200D02*
X105261905Y-47204819D01*
X105261905Y-47204819D02*
X105404762Y-47204819D01*
X105404762Y-47204819D02*
X105500000Y-47157200D01*
X105500000Y-47157200D02*
X105547619Y-47109580D01*
X105976191Y-47157200D02*
X106071429Y-47204819D01*
X106071429Y-47204819D02*
X106261905Y-47204819D01*
X106261905Y-47204819D02*
X106357143Y-47157200D01*
X106357143Y-47157200D02*
X106404762Y-47061961D01*
X106404762Y-47061961D02*
X106404762Y-47014342D01*
X106404762Y-47014342D02*
X106357143Y-46919104D01*
X106357143Y-46919104D02*
X106261905Y-46871485D01*
X106261905Y-46871485D02*
X106119048Y-46871485D01*
X106119048Y-46871485D02*
X106023810Y-46823866D01*
X106023810Y-46823866D02*
X105976191Y-46728628D01*
X105976191Y-46728628D02*
X105976191Y-46681009D01*
X105976191Y-46681009D02*
X106023810Y-46585771D01*
X106023810Y-46585771D02*
X106119048Y-46538152D01*
X106119048Y-46538152D02*
X106261905Y-46538152D01*
X106261905Y-46538152D02*
X106357143Y-46585771D01*
X106833334Y-47204819D02*
X106833334Y-46204819D01*
X107261905Y-47204819D02*
X107261905Y-46681009D01*
X107261905Y-46681009D02*
X107214286Y-46585771D01*
X107214286Y-46585771D02*
X107119048Y-46538152D01*
X107119048Y-46538152D02*
X106976191Y-46538152D01*
X106976191Y-46538152D02*
X106880953Y-46585771D01*
X106880953Y-46585771D02*
X106833334Y-46633390D01*
X77916666Y-62904819D02*
X77916666Y-63619104D01*
X77916666Y-63619104D02*
X77869047Y-63761961D01*
X77869047Y-63761961D02*
X77773809Y-63857200D01*
X77773809Y-63857200D02*
X77630952Y-63904819D01*
X77630952Y-63904819D02*
X77535714Y-63904819D01*
X78392857Y-63904819D02*
X78392857Y-62904819D01*
X78392857Y-62904819D02*
X78773809Y-62904819D01*
X78773809Y-62904819D02*
X78869047Y-62952438D01*
X78869047Y-62952438D02*
X78916666Y-63000057D01*
X78916666Y-63000057D02*
X78964285Y-63095295D01*
X78964285Y-63095295D02*
X78964285Y-63238152D01*
X78964285Y-63238152D02*
X78916666Y-63333390D01*
X78916666Y-63333390D02*
X78869047Y-63381009D01*
X78869047Y-63381009D02*
X78773809Y-63428628D01*
X78773809Y-63428628D02*
X78392857Y-63428628D01*
X79297619Y-62904819D02*
X79916666Y-62904819D01*
X79916666Y-62904819D02*
X79583333Y-63285771D01*
X79583333Y-63285771D02*
X79726190Y-63285771D01*
X79726190Y-63285771D02*
X79821428Y-63333390D01*
X79821428Y-63333390D02*
X79869047Y-63381009D01*
X79869047Y-63381009D02*
X79916666Y-63476247D01*
X79916666Y-63476247D02*
X79916666Y-63714342D01*
X79916666Y-63714342D02*
X79869047Y-63809580D01*
X79869047Y-63809580D02*
X79821428Y-63857200D01*
X79821428Y-63857200D02*
X79726190Y-63904819D01*
X79726190Y-63904819D02*
X79440476Y-63904819D01*
X79440476Y-63904819D02*
X79345238Y-63857200D01*
X79345238Y-63857200D02*
X79297619Y-63809580D01*
X76164285Y-64781009D02*
X75830952Y-64781009D01*
X75830952Y-65304819D02*
X75830952Y-64304819D01*
X75830952Y-64304819D02*
X76307142Y-64304819D01*
X77164285Y-65304819D02*
X76688095Y-65304819D01*
X76688095Y-65304819D02*
X76688095Y-64304819D01*
X77497619Y-64304819D02*
X77497619Y-65114342D01*
X77497619Y-65114342D02*
X77545238Y-65209580D01*
X77545238Y-65209580D02*
X77592857Y-65257200D01*
X77592857Y-65257200D02*
X77688095Y-65304819D01*
X77688095Y-65304819D02*
X77878571Y-65304819D01*
X77878571Y-65304819D02*
X77973809Y-65257200D01*
X77973809Y-65257200D02*
X78021428Y-65209580D01*
X78021428Y-65209580D02*
X78069047Y-65114342D01*
X78069047Y-65114342D02*
X78069047Y-64304819D01*
X78497619Y-65257200D02*
X78640476Y-65304819D01*
X78640476Y-65304819D02*
X78878571Y-65304819D01*
X78878571Y-65304819D02*
X78973809Y-65257200D01*
X78973809Y-65257200D02*
X79021428Y-65209580D01*
X79021428Y-65209580D02*
X79069047Y-65114342D01*
X79069047Y-65114342D02*
X79069047Y-65019104D01*
X79069047Y-65019104D02*
X79021428Y-64923866D01*
X79021428Y-64923866D02*
X78973809Y-64876247D01*
X78973809Y-64876247D02*
X78878571Y-64828628D01*
X78878571Y-64828628D02*
X78688095Y-64781009D01*
X78688095Y-64781009D02*
X78592857Y-64733390D01*
X78592857Y-64733390D02*
X78545238Y-64685771D01*
X78545238Y-64685771D02*
X78497619Y-64590533D01*
X78497619Y-64590533D02*
X78497619Y-64495295D01*
X78497619Y-64495295D02*
X78545238Y-64400057D01*
X78545238Y-64400057D02*
X78592857Y-64352438D01*
X78592857Y-64352438D02*
X78688095Y-64304819D01*
X78688095Y-64304819D02*
X78926190Y-64304819D01*
X78926190Y-64304819D02*
X79069047Y-64352438D01*
X79497619Y-65304819D02*
X79497619Y-64304819D01*
X79497619Y-64781009D02*
X80069047Y-64781009D01*
X80069047Y-65304819D02*
X80069047Y-64304819D01*
X95458333Y-39404819D02*
X95125000Y-38928628D01*
X94886905Y-39404819D02*
X94886905Y-38404819D01*
X94886905Y-38404819D02*
X95267857Y-38404819D01*
X95267857Y-38404819D02*
X95363095Y-38452438D01*
X95363095Y-38452438D02*
X95410714Y-38500057D01*
X95410714Y-38500057D02*
X95458333Y-38595295D01*
X95458333Y-38595295D02*
X95458333Y-38738152D01*
X95458333Y-38738152D02*
X95410714Y-38833390D01*
X95410714Y-38833390D02*
X95363095Y-38881009D01*
X95363095Y-38881009D02*
X95267857Y-38928628D01*
X95267857Y-38928628D02*
X94886905Y-38928628D01*
X96029762Y-38833390D02*
X95934524Y-38785771D01*
X95934524Y-38785771D02*
X95886905Y-38738152D01*
X95886905Y-38738152D02*
X95839286Y-38642914D01*
X95839286Y-38642914D02*
X95839286Y-38595295D01*
X95839286Y-38595295D02*
X95886905Y-38500057D01*
X95886905Y-38500057D02*
X95934524Y-38452438D01*
X95934524Y-38452438D02*
X96029762Y-38404819D01*
X96029762Y-38404819D02*
X96220238Y-38404819D01*
X96220238Y-38404819D02*
X96315476Y-38452438D01*
X96315476Y-38452438D02*
X96363095Y-38500057D01*
X96363095Y-38500057D02*
X96410714Y-38595295D01*
X96410714Y-38595295D02*
X96410714Y-38642914D01*
X96410714Y-38642914D02*
X96363095Y-38738152D01*
X96363095Y-38738152D02*
X96315476Y-38785771D01*
X96315476Y-38785771D02*
X96220238Y-38833390D01*
X96220238Y-38833390D02*
X96029762Y-38833390D01*
X96029762Y-38833390D02*
X95934524Y-38881009D01*
X95934524Y-38881009D02*
X95886905Y-38928628D01*
X95886905Y-38928628D02*
X95839286Y-39023866D01*
X95839286Y-39023866D02*
X95839286Y-39214342D01*
X95839286Y-39214342D02*
X95886905Y-39309580D01*
X95886905Y-39309580D02*
X95934524Y-39357200D01*
X95934524Y-39357200D02*
X96029762Y-39404819D01*
X96029762Y-39404819D02*
X96220238Y-39404819D01*
X96220238Y-39404819D02*
X96315476Y-39357200D01*
X96315476Y-39357200D02*
X96363095Y-39309580D01*
X96363095Y-39309580D02*
X96410714Y-39214342D01*
X96410714Y-39214342D02*
X96410714Y-39023866D01*
X96410714Y-39023866D02*
X96363095Y-38928628D01*
X96363095Y-38928628D02*
X96315476Y-38881009D01*
X96315476Y-38881009D02*
X96220238Y-38833390D01*
D11*
%TO.C,R19*%
X71472936Y-53865000D02*
X71927064Y-53865000D01*
X71472936Y-55335000D02*
X71927064Y-55335000D01*
%TO.C,C33*%
X74659698Y-69785000D02*
X73859698Y-69785000D01*
X74259698Y-70185000D02*
X74259698Y-69385000D01*
X70250000Y-71550000D02*
X70250000Y-63390000D01*
X70210000Y-71550000D02*
X70210000Y-63390000D01*
X70170000Y-71550000D02*
X70170000Y-63390000D01*
X70130000Y-71549000D02*
X70130000Y-63391000D01*
X70090000Y-71547000D02*
X70090000Y-63393000D01*
X70050000Y-71546000D02*
X70050000Y-63394000D01*
X70010000Y-71544000D02*
X70010000Y-63396000D01*
X69970000Y-71541000D02*
X69970000Y-63399000D01*
X69930000Y-71538000D02*
X69930000Y-63402000D01*
X69890000Y-71535000D02*
X69890000Y-63405000D01*
X69850000Y-71531000D02*
X69850000Y-63409000D01*
X69810000Y-71527000D02*
X69810000Y-63413000D01*
X69770000Y-71522000D02*
X69770000Y-63418000D01*
X69730000Y-71518000D02*
X69730000Y-63422000D01*
X69690000Y-71512000D02*
X69690000Y-63428000D01*
X69650000Y-71507000D02*
X69650000Y-63433000D01*
X69610000Y-71500000D02*
X69610000Y-63440000D01*
X69570000Y-71494000D02*
X69570000Y-63446000D01*
X69529000Y-71487000D02*
X69529000Y-68510000D01*
X69529000Y-66430000D02*
X69529000Y-63453000D01*
X69489000Y-71480000D02*
X69489000Y-68510000D01*
X69489000Y-66430000D02*
X69489000Y-63460000D01*
X69449000Y-71472000D02*
X69449000Y-68510000D01*
X69449000Y-66430000D02*
X69449000Y-63468000D01*
X69409000Y-71464000D02*
X69409000Y-68510000D01*
X69409000Y-66430000D02*
X69409000Y-63476000D01*
X69369000Y-71455000D02*
X69369000Y-68510000D01*
X69369000Y-66430000D02*
X69369000Y-63485000D01*
X69329000Y-71446000D02*
X69329000Y-68510000D01*
X69329000Y-66430000D02*
X69329000Y-63494000D01*
X69289000Y-71437000D02*
X69289000Y-68510000D01*
X69289000Y-66430000D02*
X69289000Y-63503000D01*
X69249000Y-71427000D02*
X69249000Y-68510000D01*
X69249000Y-66430000D02*
X69249000Y-63513000D01*
X69209000Y-71417000D02*
X69209000Y-68510000D01*
X69209000Y-66430000D02*
X69209000Y-63523000D01*
X69169000Y-71406000D02*
X69169000Y-68510000D01*
X69169000Y-66430000D02*
X69169000Y-63534000D01*
X69129000Y-71395000D02*
X69129000Y-68510000D01*
X69129000Y-66430000D02*
X69129000Y-63545000D01*
X69089000Y-71384000D02*
X69089000Y-68510000D01*
X69089000Y-66430000D02*
X69089000Y-63556000D01*
X69049000Y-71372000D02*
X69049000Y-68510000D01*
X69049000Y-66430000D02*
X69049000Y-63568000D01*
X69009000Y-71359000D02*
X69009000Y-68510000D01*
X69009000Y-66430000D02*
X69009000Y-63581000D01*
X68969000Y-71347000D02*
X68969000Y-68510000D01*
X68969000Y-66430000D02*
X68969000Y-63593000D01*
X68929000Y-71333000D02*
X68929000Y-68510000D01*
X68929000Y-66430000D02*
X68929000Y-63607000D01*
X68889000Y-71320000D02*
X68889000Y-68510000D01*
X68889000Y-66430000D02*
X68889000Y-63620000D01*
X68849000Y-71305000D02*
X68849000Y-68510000D01*
X68849000Y-66430000D02*
X68849000Y-63635000D01*
X68809000Y-71291000D02*
X68809000Y-68510000D01*
X68809000Y-66430000D02*
X68809000Y-63649000D01*
X68769000Y-71275000D02*
X68769000Y-68510000D01*
X68769000Y-66430000D02*
X68769000Y-63665000D01*
X68729000Y-71260000D02*
X68729000Y-68510000D01*
X68729000Y-66430000D02*
X68729000Y-63680000D01*
X68689000Y-71244000D02*
X68689000Y-68510000D01*
X68689000Y-66430000D02*
X68689000Y-63696000D01*
X68649000Y-71227000D02*
X68649000Y-68510000D01*
X68649000Y-66430000D02*
X68649000Y-63713000D01*
X68609000Y-71210000D02*
X68609000Y-68510000D01*
X68609000Y-66430000D02*
X68609000Y-63730000D01*
X68569000Y-71192000D02*
X68569000Y-68510000D01*
X68569000Y-66430000D02*
X68569000Y-63748000D01*
X68529000Y-71174000D02*
X68529000Y-68510000D01*
X68529000Y-66430000D02*
X68529000Y-63766000D01*
X68489000Y-71156000D02*
X68489000Y-68510000D01*
X68489000Y-66430000D02*
X68489000Y-63784000D01*
X68449000Y-71136000D02*
X68449000Y-68510000D01*
X68449000Y-66430000D02*
X68449000Y-63804000D01*
X68409000Y-71117000D02*
X68409000Y-68510000D01*
X68409000Y-66430000D02*
X68409000Y-63823000D01*
X68369000Y-71097000D02*
X68369000Y-68510000D01*
X68369000Y-66430000D02*
X68369000Y-63843000D01*
X68329000Y-71076000D02*
X68329000Y-68510000D01*
X68329000Y-66430000D02*
X68329000Y-63864000D01*
X68289000Y-71054000D02*
X68289000Y-68510000D01*
X68289000Y-66430000D02*
X68289000Y-63886000D01*
X68249000Y-71032000D02*
X68249000Y-68510000D01*
X68249000Y-66430000D02*
X68249000Y-63908000D01*
X68209000Y-71010000D02*
X68209000Y-68510000D01*
X68209000Y-66430000D02*
X68209000Y-63930000D01*
X68169000Y-70987000D02*
X68169000Y-68510000D01*
X68169000Y-66430000D02*
X68169000Y-63953000D01*
X68129000Y-70963000D02*
X68129000Y-68510000D01*
X68129000Y-66430000D02*
X68129000Y-63977000D01*
X68089000Y-70939000D02*
X68089000Y-68510000D01*
X68089000Y-66430000D02*
X68089000Y-64001000D01*
X68049000Y-70914000D02*
X68049000Y-68510000D01*
X68049000Y-66430000D02*
X68049000Y-64026000D01*
X68009000Y-70888000D02*
X68009000Y-68510000D01*
X68009000Y-66430000D02*
X68009000Y-64052000D01*
X67969000Y-70862000D02*
X67969000Y-68510000D01*
X67969000Y-66430000D02*
X67969000Y-64078000D01*
X67929000Y-70835000D02*
X67929000Y-68510000D01*
X67929000Y-66430000D02*
X67929000Y-64105000D01*
X67889000Y-70808000D02*
X67889000Y-68510000D01*
X67889000Y-66430000D02*
X67889000Y-64132000D01*
X67849000Y-70779000D02*
X67849000Y-68510000D01*
X67849000Y-66430000D02*
X67849000Y-64161000D01*
X67809000Y-70750000D02*
X67809000Y-68510000D01*
X67809000Y-66430000D02*
X67809000Y-64190000D01*
X67769000Y-70720000D02*
X67769000Y-68510000D01*
X67769000Y-66430000D02*
X67769000Y-64220000D01*
X67729000Y-70690000D02*
X67729000Y-68510000D01*
X67729000Y-66430000D02*
X67729000Y-64250000D01*
X67689000Y-70659000D02*
X67689000Y-68510000D01*
X67689000Y-66430000D02*
X67689000Y-64281000D01*
X67649000Y-70626000D02*
X67649000Y-68510000D01*
X67649000Y-66430000D02*
X67649000Y-64314000D01*
X67609000Y-70594000D02*
X67609000Y-68510000D01*
X67609000Y-66430000D02*
X67609000Y-64346000D01*
X67569000Y-70560000D02*
X67569000Y-68510000D01*
X67569000Y-66430000D02*
X67569000Y-64380000D01*
X67529000Y-70525000D02*
X67529000Y-68510000D01*
X67529000Y-66430000D02*
X67529000Y-64415000D01*
X67489000Y-70489000D02*
X67489000Y-68510000D01*
X67489000Y-66430000D02*
X67489000Y-64451000D01*
X67449000Y-70453000D02*
X67449000Y-64487000D01*
X67409000Y-70415000D02*
X67409000Y-64525000D01*
X67369000Y-70377000D02*
X67369000Y-64563000D01*
X67329000Y-70337000D02*
X67329000Y-64603000D01*
X67289000Y-70296000D02*
X67289000Y-64644000D01*
X67249000Y-70254000D02*
X67249000Y-64686000D01*
X67209000Y-70211000D02*
X67209000Y-64729000D01*
X67169000Y-70167000D02*
X67169000Y-64773000D01*
X67129000Y-70121000D02*
X67129000Y-64819000D01*
X67089000Y-70074000D02*
X67089000Y-64866000D01*
X67049000Y-70026000D02*
X67049000Y-64914000D01*
X67009000Y-69975000D02*
X67009000Y-64965000D01*
X66969000Y-69924000D02*
X66969000Y-65016000D01*
X66929000Y-69870000D02*
X66929000Y-65070000D01*
X66889000Y-69815000D02*
X66889000Y-65125000D01*
X66849000Y-69757000D02*
X66849000Y-65183000D01*
X66809000Y-69698000D02*
X66809000Y-65242000D01*
X66769000Y-69636000D02*
X66769000Y-65304000D01*
X66729000Y-69572000D02*
X66729000Y-65368000D01*
X66689000Y-69504000D02*
X66689000Y-65436000D01*
X66649000Y-69434000D02*
X66649000Y-65506000D01*
X66609000Y-69360000D02*
X66609000Y-65580000D01*
X66569000Y-69283000D02*
X66569000Y-65657000D01*
X66529000Y-69201000D02*
X66529000Y-65739000D01*
X66489000Y-69115000D02*
X66489000Y-65825000D01*
X66449000Y-69022000D02*
X66449000Y-65918000D01*
X66409000Y-68923000D02*
X66409000Y-66017000D01*
X66369000Y-68816000D02*
X66369000Y-66124000D01*
X66329000Y-68699000D02*
X66329000Y-66241000D01*
X66289000Y-68568000D02*
X66289000Y-66372000D01*
X66249000Y-68418000D02*
X66249000Y-66522000D01*
X66209000Y-68238000D02*
X66209000Y-66702000D01*
X66169000Y-68003000D02*
X66169000Y-66937000D01*
X74370000Y-67470000D02*
G75*
G03*
X74370000Y-67470000I-4120000J0D01*
G01*
%TO.C,C22*%
X68610000Y-53659420D02*
X68610000Y-53940580D01*
X67590000Y-53659420D02*
X67590000Y-53940580D01*
%TO.C,C19*%
X98526750Y-72110580D02*
X98526750Y-71829420D01*
X99546750Y-72110580D02*
X99546750Y-71829420D01*
%TO.C,C30*%
X65437651Y-81905000D02*
X66237651Y-81905000D01*
X65837651Y-81505000D02*
X65837651Y-82305000D01*
X69847349Y-80140000D02*
X69847349Y-88300000D01*
X69887349Y-80140000D02*
X69887349Y-88300000D01*
X69927349Y-80140000D02*
X69927349Y-88300000D01*
X69967349Y-80141000D02*
X69967349Y-88299000D01*
X70007349Y-80143000D02*
X70007349Y-88297000D01*
X70047349Y-80144000D02*
X70047349Y-88296000D01*
X70087349Y-80146000D02*
X70087349Y-88294000D01*
X70127349Y-80149000D02*
X70127349Y-88291000D01*
X70167349Y-80152000D02*
X70167349Y-88288000D01*
X70207349Y-80155000D02*
X70207349Y-88285000D01*
X70247349Y-80159000D02*
X70247349Y-88281000D01*
X70287349Y-80163000D02*
X70287349Y-88277000D01*
X70327349Y-80168000D02*
X70327349Y-88272000D01*
X70367349Y-80172000D02*
X70367349Y-88268000D01*
X70407349Y-80178000D02*
X70407349Y-88262000D01*
X70447349Y-80183000D02*
X70447349Y-88257000D01*
X70487349Y-80190000D02*
X70487349Y-88250000D01*
X70527349Y-80196000D02*
X70527349Y-88244000D01*
X70568349Y-80203000D02*
X70568349Y-83180000D01*
X70568349Y-85260000D02*
X70568349Y-88237000D01*
X70608349Y-80210000D02*
X70608349Y-83180000D01*
X70608349Y-85260000D02*
X70608349Y-88230000D01*
X70648349Y-80218000D02*
X70648349Y-83180000D01*
X70648349Y-85260000D02*
X70648349Y-88222000D01*
X70688349Y-80226000D02*
X70688349Y-83180000D01*
X70688349Y-85260000D02*
X70688349Y-88214000D01*
X70728349Y-80235000D02*
X70728349Y-83180000D01*
X70728349Y-85260000D02*
X70728349Y-88205000D01*
X70768349Y-80244000D02*
X70768349Y-83180000D01*
X70768349Y-85260000D02*
X70768349Y-88196000D01*
X70808349Y-80253000D02*
X70808349Y-83180000D01*
X70808349Y-85260000D02*
X70808349Y-88187000D01*
X70848349Y-80263000D02*
X70848349Y-83180000D01*
X70848349Y-85260000D02*
X70848349Y-88177000D01*
X70888349Y-80273000D02*
X70888349Y-83180000D01*
X70888349Y-85260000D02*
X70888349Y-88167000D01*
X70928349Y-80284000D02*
X70928349Y-83180000D01*
X70928349Y-85260000D02*
X70928349Y-88156000D01*
X70968349Y-80295000D02*
X70968349Y-83180000D01*
X70968349Y-85260000D02*
X70968349Y-88145000D01*
X71008349Y-80306000D02*
X71008349Y-83180000D01*
X71008349Y-85260000D02*
X71008349Y-88134000D01*
X71048349Y-80318000D02*
X71048349Y-83180000D01*
X71048349Y-85260000D02*
X71048349Y-88122000D01*
X71088349Y-80331000D02*
X71088349Y-83180000D01*
X71088349Y-85260000D02*
X71088349Y-88109000D01*
X71128349Y-80343000D02*
X71128349Y-83180000D01*
X71128349Y-85260000D02*
X71128349Y-88097000D01*
X71168349Y-80357000D02*
X71168349Y-83180000D01*
X71168349Y-85260000D02*
X71168349Y-88083000D01*
X71208349Y-80370000D02*
X71208349Y-83180000D01*
X71208349Y-85260000D02*
X71208349Y-88070000D01*
X71248349Y-80385000D02*
X71248349Y-83180000D01*
X71248349Y-85260000D02*
X71248349Y-88055000D01*
X71288349Y-80399000D02*
X71288349Y-83180000D01*
X71288349Y-85260000D02*
X71288349Y-88041000D01*
X71328349Y-80415000D02*
X71328349Y-83180000D01*
X71328349Y-85260000D02*
X71328349Y-88025000D01*
X71368349Y-80430000D02*
X71368349Y-83180000D01*
X71368349Y-85260000D02*
X71368349Y-88010000D01*
X71408349Y-80446000D02*
X71408349Y-83180000D01*
X71408349Y-85260000D02*
X71408349Y-87994000D01*
X71448349Y-80463000D02*
X71448349Y-83180000D01*
X71448349Y-85260000D02*
X71448349Y-87977000D01*
X71488349Y-80480000D02*
X71488349Y-83180000D01*
X71488349Y-85260000D02*
X71488349Y-87960000D01*
X71528349Y-80498000D02*
X71528349Y-83180000D01*
X71528349Y-85260000D02*
X71528349Y-87942000D01*
X71568349Y-80516000D02*
X71568349Y-83180000D01*
X71568349Y-85260000D02*
X71568349Y-87924000D01*
X71608349Y-80534000D02*
X71608349Y-83180000D01*
X71608349Y-85260000D02*
X71608349Y-87906000D01*
X71648349Y-80554000D02*
X71648349Y-83180000D01*
X71648349Y-85260000D02*
X71648349Y-87886000D01*
X71688349Y-80573000D02*
X71688349Y-83180000D01*
X71688349Y-85260000D02*
X71688349Y-87867000D01*
X71728349Y-80593000D02*
X71728349Y-83180000D01*
X71728349Y-85260000D02*
X71728349Y-87847000D01*
X71768349Y-80614000D02*
X71768349Y-83180000D01*
X71768349Y-85260000D02*
X71768349Y-87826000D01*
X71808349Y-80636000D02*
X71808349Y-83180000D01*
X71808349Y-85260000D02*
X71808349Y-87804000D01*
X71848349Y-80658000D02*
X71848349Y-83180000D01*
X71848349Y-85260000D02*
X71848349Y-87782000D01*
X71888349Y-80680000D02*
X71888349Y-83180000D01*
X71888349Y-85260000D02*
X71888349Y-87760000D01*
X71928349Y-80703000D02*
X71928349Y-83180000D01*
X71928349Y-85260000D02*
X71928349Y-87737000D01*
X71968349Y-80727000D02*
X71968349Y-83180000D01*
X71968349Y-85260000D02*
X71968349Y-87713000D01*
X72008349Y-80751000D02*
X72008349Y-83180000D01*
X72008349Y-85260000D02*
X72008349Y-87689000D01*
X72048349Y-80776000D02*
X72048349Y-83180000D01*
X72048349Y-85260000D02*
X72048349Y-87664000D01*
X72088349Y-80802000D02*
X72088349Y-83180000D01*
X72088349Y-85260000D02*
X72088349Y-87638000D01*
X72128349Y-80828000D02*
X72128349Y-83180000D01*
X72128349Y-85260000D02*
X72128349Y-87612000D01*
X72168349Y-80855000D02*
X72168349Y-83180000D01*
X72168349Y-85260000D02*
X72168349Y-87585000D01*
X72208349Y-80882000D02*
X72208349Y-83180000D01*
X72208349Y-85260000D02*
X72208349Y-87558000D01*
X72248349Y-80911000D02*
X72248349Y-83180000D01*
X72248349Y-85260000D02*
X72248349Y-87529000D01*
X72288349Y-80940000D02*
X72288349Y-83180000D01*
X72288349Y-85260000D02*
X72288349Y-87500000D01*
X72328349Y-80970000D02*
X72328349Y-83180000D01*
X72328349Y-85260000D02*
X72328349Y-87470000D01*
X72368349Y-81000000D02*
X72368349Y-83180000D01*
X72368349Y-85260000D02*
X72368349Y-87440000D01*
X72408349Y-81031000D02*
X72408349Y-83180000D01*
X72408349Y-85260000D02*
X72408349Y-87409000D01*
X72448349Y-81064000D02*
X72448349Y-83180000D01*
X72448349Y-85260000D02*
X72448349Y-87376000D01*
X72488349Y-81096000D02*
X72488349Y-83180000D01*
X72488349Y-85260000D02*
X72488349Y-87344000D01*
X72528349Y-81130000D02*
X72528349Y-83180000D01*
X72528349Y-85260000D02*
X72528349Y-87310000D01*
X72568349Y-81165000D02*
X72568349Y-83180000D01*
X72568349Y-85260000D02*
X72568349Y-87275000D01*
X72608349Y-81201000D02*
X72608349Y-83180000D01*
X72608349Y-85260000D02*
X72608349Y-87239000D01*
X72648349Y-81237000D02*
X72648349Y-87203000D01*
X72688349Y-81275000D02*
X72688349Y-87165000D01*
X72728349Y-81313000D02*
X72728349Y-87127000D01*
X72768349Y-81353000D02*
X72768349Y-87087000D01*
X72808349Y-81394000D02*
X72808349Y-87046000D01*
X72848349Y-81436000D02*
X72848349Y-87004000D01*
X72888349Y-81479000D02*
X72888349Y-86961000D01*
X72928349Y-81523000D02*
X72928349Y-86917000D01*
X72968349Y-81569000D02*
X72968349Y-86871000D01*
X73008349Y-81616000D02*
X73008349Y-86824000D01*
X73048349Y-81664000D02*
X73048349Y-86776000D01*
X73088349Y-81715000D02*
X73088349Y-86725000D01*
X73128349Y-81766000D02*
X73128349Y-86674000D01*
X73168349Y-81820000D02*
X73168349Y-86620000D01*
X73208349Y-81875000D02*
X73208349Y-86565000D01*
X73248349Y-81933000D02*
X73248349Y-86507000D01*
X73288349Y-81992000D02*
X73288349Y-86448000D01*
X73328349Y-82054000D02*
X73328349Y-86386000D01*
X73368349Y-82118000D02*
X73368349Y-86322000D01*
X73408349Y-82186000D02*
X73408349Y-86254000D01*
X73448349Y-82256000D02*
X73448349Y-86184000D01*
X73488349Y-82330000D02*
X73488349Y-86110000D01*
X73528349Y-82407000D02*
X73528349Y-86033000D01*
X73568349Y-82489000D02*
X73568349Y-85951000D01*
X73608349Y-82575000D02*
X73608349Y-85865000D01*
X73648349Y-82668000D02*
X73648349Y-85772000D01*
X73688349Y-82767000D02*
X73688349Y-85673000D01*
X73728349Y-82874000D02*
X73728349Y-85566000D01*
X73768349Y-82991000D02*
X73768349Y-85449000D01*
X73808349Y-83122000D02*
X73808349Y-85318000D01*
X73848349Y-83272000D02*
X73848349Y-85168000D01*
X73888349Y-83452000D02*
X73888349Y-84988000D01*
X73928349Y-83687000D02*
X73928349Y-84753000D01*
X73967349Y-84220000D02*
G75*
G03*
X73967349Y-84220000I-4120000J0D01*
G01*
%TO.C,U6*%
X84765000Y-42360000D02*
G75*
G03*
X84765000Y-42360000I-9625000J0D01*
G01*
%TO.C,JP4*%
X81350000Y-66500000D02*
X84150000Y-66500000D01*
X81350000Y-68500000D02*
X81350000Y-66500000D01*
X84150000Y-66500000D02*
X84150000Y-68500000D01*
X84150000Y-68500000D02*
X81350000Y-68500000D01*
%TO.C,R28*%
X81515000Y-73697064D02*
X81515000Y-73242936D01*
X82985000Y-73697064D02*
X82985000Y-73242936D01*
%TO.C,U14*%
X66900000Y-72810000D02*
X72910000Y-72810000D01*
X69150000Y-79630000D02*
X72910000Y-79630000D01*
X72910000Y-72810000D02*
X72910000Y-74070000D01*
X72910000Y-79630000D02*
X72910000Y-78370000D01*
%TO.C,SW4*%
X86000000Y-45000000D02*
X86000000Y-45500000D01*
X86000000Y-45000000D02*
X92500000Y-45000000D01*
X86000000Y-48500000D02*
X86000000Y-48000000D01*
X86000000Y-48500000D02*
X92500000Y-48500000D01*
X87250000Y-46750000D02*
X88500000Y-46750000D01*
X88500000Y-46000000D02*
X90000000Y-46000000D01*
X88500000Y-46500000D02*
X88500000Y-46750000D01*
X89250000Y-45500000D02*
X89250000Y-46000000D01*
X90000000Y-46750000D02*
X90000000Y-46500000D01*
X91250000Y-46750000D02*
X90000000Y-46750000D01*
X92500000Y-45000000D02*
X92500000Y-45500000D01*
X92500000Y-48500000D02*
X92500000Y-48000000D01*
%TO.C,J7*%
X86150000Y-32725000D02*
X86150000Y-33975000D01*
X86440000Y-33015000D02*
X86440000Y-38985000D01*
X86440000Y-38985000D02*
X94060000Y-38985000D01*
X86450000Y-33025000D02*
X86450000Y-33775000D01*
X86450000Y-33775000D02*
X88250000Y-33775000D01*
X86450000Y-35275000D02*
X87200000Y-35275000D01*
X87200000Y-35275000D02*
X87200000Y-38225000D01*
X87200000Y-38225000D02*
X90250000Y-38225000D01*
X87400000Y-32725000D02*
X86150000Y-32725000D01*
X88250000Y-33025000D02*
X86450000Y-33025000D01*
X88250000Y-33775000D02*
X88250000Y-33025000D01*
X89750000Y-33025000D02*
X89750000Y-33775000D01*
X89750000Y-33775000D02*
X90750000Y-33775000D01*
X90750000Y-33025000D02*
X89750000Y-33025000D01*
X90750000Y-33775000D02*
X90750000Y-33025000D01*
X92250000Y-33025000D02*
X92250000Y-33775000D01*
X92250000Y-33775000D02*
X94050000Y-33775000D01*
X93300000Y-35275000D02*
X93300000Y-38225000D01*
X93300000Y-38225000D02*
X90250000Y-38225000D01*
X94050000Y-33025000D02*
X92250000Y-33025000D01*
X94050000Y-33775000D02*
X94050000Y-33025000D01*
X94050000Y-35275000D02*
X93300000Y-35275000D01*
X94060000Y-33015000D02*
X86440000Y-33015000D01*
X94060000Y-38985000D02*
X94060000Y-33015000D01*
%TO.C,U13*%
X92810000Y-74730000D02*
X92085000Y-74730000D01*
X87590000Y-74005000D02*
X87590000Y-74730000D01*
X92810000Y-74005000D02*
X92810000Y-74730000D01*
X87590000Y-70235000D02*
X87590000Y-69510000D01*
X92810000Y-70235000D02*
X92810000Y-69510000D01*
X87590000Y-69510000D02*
X88315000Y-69510000D01*
X92810000Y-69510000D02*
X92085000Y-69510000D01*
D12*
%TO.C,U10*%
X100530000Y-73400000D02*
X102970000Y-73400000D01*
X102970000Y-76040000D02*
X100530000Y-76040000D01*
D13*
X99800000Y-73920000D02*
G75*
G03*
X99800000Y-73920000I-100000J0D01*
G01*
D11*
%TO.C,C27*%
X96159420Y-70960000D02*
X96440580Y-70960000D01*
X96159420Y-71980000D02*
X96440580Y-71980000D01*
%TO.C,RV2*%
X82550000Y-57030000D02*
X82800000Y-57030000D01*
X88260000Y-57030000D02*
X84720000Y-57030000D01*
X82350000Y-56930000D02*
X82550000Y-56930000D01*
X82350000Y-56930000D02*
X82350000Y-55510000D01*
X82550000Y-56930000D02*
X82550000Y-57030000D01*
X82550000Y-55510000D02*
X82350000Y-55510000D01*
X82550000Y-55510000D02*
X82550000Y-51930000D01*
X89570000Y-54230000D02*
X89570000Y-55720000D01*
X82350000Y-51930000D02*
X82350000Y-50510000D01*
X82550000Y-51930000D02*
X82350000Y-51930000D01*
X89570000Y-51720000D02*
X89570000Y-53210000D01*
X82350000Y-50510000D02*
X82550000Y-50510000D01*
X82550000Y-50510000D02*
X82550000Y-50410000D01*
X82550000Y-50410000D02*
X83240000Y-50410000D01*
X84280000Y-50410000D02*
X88260000Y-50410000D01*
X88260000Y-57030000D02*
G75*
G03*
X89570000Y-55720000I0J1310000D01*
G01*
X89570000Y-51720000D02*
G75*
G03*
X88260000Y-50410000I-1310000J0D01*
G01*
%TO.C,J2*%
X90050000Y-64270000D02*
X90050000Y-63020000D01*
X89760000Y-63980000D02*
X89760000Y-58010000D01*
X89760000Y-58010000D02*
X82140000Y-58010000D01*
X89750000Y-63970000D02*
X89750000Y-63220000D01*
X89750000Y-63220000D02*
X87950000Y-63220000D01*
X89750000Y-61720000D02*
X89000000Y-61720000D01*
X89000000Y-61720000D02*
X89000000Y-58770000D01*
X89000000Y-58770000D02*
X85950000Y-58770000D01*
X88800000Y-64270000D02*
X90050000Y-64270000D01*
X87950000Y-63970000D02*
X89750000Y-63970000D01*
X87950000Y-63220000D02*
X87950000Y-63970000D01*
X86450000Y-63970000D02*
X86450000Y-63220000D01*
X86450000Y-63220000D02*
X85450000Y-63220000D01*
X85450000Y-63970000D02*
X86450000Y-63970000D01*
X85450000Y-63220000D02*
X85450000Y-63970000D01*
X83950000Y-63970000D02*
X83950000Y-63220000D01*
X83950000Y-63220000D02*
X82150000Y-63220000D01*
X82900000Y-61720000D02*
X82900000Y-58770000D01*
X82900000Y-58770000D02*
X85950000Y-58770000D01*
X82150000Y-63970000D02*
X83950000Y-63970000D01*
X82150000Y-63220000D02*
X82150000Y-63970000D01*
X82150000Y-61720000D02*
X82900000Y-61720000D01*
X82140000Y-63980000D02*
X89760000Y-63980000D01*
X82140000Y-58010000D02*
X82140000Y-63980000D01*
%TO.C,J4*%
X110275000Y-68870000D02*
X109025000Y-68870000D01*
X109985000Y-69160000D02*
X104015000Y-69160000D01*
X104015000Y-69160000D02*
X104015000Y-81780000D01*
X109975000Y-69170000D02*
X109225000Y-69170000D01*
X109225000Y-69170000D02*
X109225000Y-70970000D01*
X107725000Y-69170000D02*
X107725000Y-69920000D01*
X107725000Y-69920000D02*
X104775000Y-69920000D01*
X104775000Y-69920000D02*
X104775000Y-75470000D01*
X110275000Y-70120000D02*
X110275000Y-68870000D01*
X109975000Y-70970000D02*
X109975000Y-69170000D01*
X109225000Y-70970000D02*
X109975000Y-70970000D01*
X109975000Y-72470000D02*
X109225000Y-72470000D01*
X109225000Y-72470000D02*
X109225000Y-78470000D01*
X109975000Y-78470000D02*
X109975000Y-72470000D01*
X109225000Y-78470000D02*
X109975000Y-78470000D01*
X109975000Y-79970000D02*
X109225000Y-79970000D01*
X109225000Y-79970000D02*
X109225000Y-81770000D01*
X107725000Y-81020000D02*
X104775000Y-81020000D01*
X104775000Y-81020000D02*
X104775000Y-75470000D01*
X109975000Y-81770000D02*
X109975000Y-79970000D01*
X109225000Y-81770000D02*
X109975000Y-81770000D01*
X107725000Y-81770000D02*
X107725000Y-81020000D01*
X109985000Y-81780000D02*
X109985000Y-69160000D01*
X104015000Y-81780000D02*
X109985000Y-81780000D01*
%TO.C,J6*%
X101650000Y-32750000D02*
X101650000Y-34000000D01*
X101940000Y-33040000D02*
X101940000Y-39010000D01*
X101940000Y-39010000D02*
X109560000Y-39010000D01*
X101950000Y-33050000D02*
X101950000Y-33800000D01*
X101950000Y-33800000D02*
X103750000Y-33800000D01*
X101950000Y-35300000D02*
X102700000Y-35300000D01*
X102700000Y-35300000D02*
X102700000Y-38250000D01*
X102700000Y-38250000D02*
X105750000Y-38250000D01*
X102900000Y-32750000D02*
X101650000Y-32750000D01*
X103750000Y-33050000D02*
X101950000Y-33050000D01*
X103750000Y-33800000D02*
X103750000Y-33050000D01*
X105250000Y-33050000D02*
X105250000Y-33800000D01*
X105250000Y-33800000D02*
X106250000Y-33800000D01*
X106250000Y-33050000D02*
X105250000Y-33050000D01*
X106250000Y-33800000D02*
X106250000Y-33050000D01*
X107750000Y-33050000D02*
X107750000Y-33800000D01*
X107750000Y-33800000D02*
X109550000Y-33800000D01*
X108800000Y-35300000D02*
X108800000Y-38250000D01*
X108800000Y-38250000D02*
X105750000Y-38250000D01*
X109550000Y-33050000D02*
X107750000Y-33050000D01*
X109550000Y-33800000D02*
X109550000Y-33050000D01*
X109550000Y-35300000D02*
X108800000Y-35300000D01*
X109560000Y-33040000D02*
X101940000Y-33040000D01*
X109560000Y-39010000D02*
X109560000Y-33040000D01*
%TO.C,R27*%
X84985000Y-71492936D02*
X84985000Y-71947064D01*
X83515000Y-71492936D02*
X83515000Y-71947064D01*
%TO.C,D9*%
X85250000Y-79660000D02*
X86550000Y-79660000D01*
X86550000Y-76540000D02*
X84550000Y-76540000D01*
%TO.C,D4*%
X66495000Y-56405000D02*
X73795000Y-56405000D01*
X66495000Y-61905000D02*
X73795000Y-61905000D01*
X73795000Y-61905000D02*
X73795000Y-60755000D01*
%TO.C,R25*%
X96272936Y-72485000D02*
X96727064Y-72485000D01*
X96272936Y-73955000D02*
X96727064Y-73955000D01*
%TO.C,R24*%
X96727064Y-75955000D02*
X96272936Y-75955000D01*
X96727064Y-74485000D02*
X96272936Y-74485000D01*
%TO.C,U15*%
X117110000Y-49600000D02*
X110695000Y-49600000D01*
X117110000Y-49600000D02*
X117110000Y-67840000D01*
X110695000Y-49600000D02*
X110695000Y-49220000D01*
X92150000Y-49600000D02*
X91370000Y-49600000D01*
X91370000Y-49600000D02*
X91370000Y-50600000D01*
X117110000Y-67840000D02*
X110695000Y-67840000D01*
X92150000Y-67840000D02*
X91370000Y-67840000D01*
X91370000Y-67840000D02*
X91370000Y-66840000D01*
%TO.C,J10*%
X74900000Y-81695000D02*
X74900000Y-82945000D01*
X75190000Y-81985000D02*
X75190000Y-87955000D01*
X75190000Y-87955000D02*
X82810000Y-87955000D01*
X75200000Y-81995000D02*
X75200000Y-82745000D01*
X75200000Y-82745000D02*
X77000000Y-82745000D01*
X75200000Y-84245000D02*
X75950000Y-84245000D01*
X75950000Y-84245000D02*
X75950000Y-87195000D01*
X75950000Y-87195000D02*
X79000000Y-87195000D01*
X76150000Y-81695000D02*
X74900000Y-81695000D01*
X77000000Y-81995000D02*
X75200000Y-81995000D01*
X77000000Y-82745000D02*
X77000000Y-81995000D01*
X78500000Y-81995000D02*
X78500000Y-82745000D01*
X78500000Y-82745000D02*
X79500000Y-82745000D01*
X79500000Y-81995000D02*
X78500000Y-81995000D01*
X79500000Y-82745000D02*
X79500000Y-81995000D01*
X81000000Y-81995000D02*
X81000000Y-82745000D01*
X81000000Y-82745000D02*
X82800000Y-82745000D01*
X82050000Y-84245000D02*
X82050000Y-87195000D01*
X82050000Y-87195000D02*
X79000000Y-87195000D01*
X82800000Y-81995000D02*
X81000000Y-81995000D01*
X82800000Y-82745000D02*
X82800000Y-81995000D01*
X82800000Y-84245000D02*
X82050000Y-84245000D01*
X82810000Y-81985000D02*
X75190000Y-81985000D01*
X82810000Y-87955000D02*
X82810000Y-81985000D01*
%TO.C,R16*%
X101977064Y-72205000D02*
X101522936Y-72205000D01*
X101977064Y-70735000D02*
X101522936Y-70735000D01*
%TO.C,SW2*%
X102250000Y-40750000D02*
X102250000Y-41250000D01*
X102250000Y-40750000D02*
X108750000Y-40750000D01*
X102250000Y-44250000D02*
X102250000Y-43750000D01*
X102250000Y-44250000D02*
X108750000Y-44250000D01*
X103500000Y-42500000D02*
X104750000Y-42500000D01*
X104750000Y-41750000D02*
X106250000Y-41750000D01*
X104750000Y-42250000D02*
X104750000Y-42500000D01*
X105500000Y-41250000D02*
X105500000Y-41750000D01*
X106250000Y-42500000D02*
X106250000Y-42250000D01*
X107500000Y-42500000D02*
X106250000Y-42500000D01*
X108750000Y-40750000D02*
X108750000Y-41250000D01*
X108750000Y-44250000D02*
X108750000Y-43750000D01*
%TO.C,JP3*%
X86000000Y-66500000D02*
X88800000Y-66500000D01*
X86000000Y-68500000D02*
X86000000Y-66500000D01*
X88800000Y-66500000D02*
X88800000Y-68500000D01*
X88800000Y-68500000D02*
X86000000Y-68500000D01*
%TO.C,R8*%
X95725000Y-41320000D02*
X95795000Y-41320000D01*
X95725000Y-41320000D02*
G75*
G03*
X95725000Y-41320000I-1370000J0D01*
G01*
%TD*%
M02*
