%TF.GenerationSoftware,KiCad,Pcbnew,7.0.9-7.0.9~ubuntu22.04.1*%
%TF.CreationDate,2023-12-02T23:02:12+03:00*%
%TF.ProjectId,air-detector,6169722d-6465-4746-9563-746f722e6b69,rev?*%
%TF.SameCoordinates,Original*%
%TF.FileFunction,Copper,L1,Top*%
%TF.FilePolarity,Positive*%
%FSLAX46Y46*%
G04 Gerber Fmt 4.6, Leading zero omitted, Abs format (unit mm)*
G04 Created by KiCad (PCBNEW 7.0.9-7.0.9~ubuntu22.04.1) date 2023-12-02 23:02:12*
%MOMM*%
%LPD*%
G01*
G04 APERTURE LIST*
G04 Aperture macros list*
%AMRoundRect*
0 Rectangle with rounded corners*
0 $1 Rounding radius*
0 $2 $3 $4 $5 $6 $7 $8 $9 X,Y pos of 4 corners*
0 Add a 4 corners polygon primitive as box body*
4,1,4,$2,$3,$4,$5,$6,$7,$8,$9,$2,$3,0*
0 Add four circle primitives for the rounded corners*
1,1,$1+$1,$2,$3*
1,1,$1+$1,$4,$5*
1,1,$1+$1,$6,$7*
1,1,$1+$1,$8,$9*
0 Add four rect primitives between the rounded corners*
20,1,$1+$1,$2,$3,$4,$5,0*
20,1,$1+$1,$4,$5,$6,$7,0*
20,1,$1+$1,$6,$7,$8,$9,0*
20,1,$1+$1,$8,$9,$2,$3,0*%
%AMFreePoly0*
4,1,6,1.000000,0.000000,0.500000,-0.750000,-0.500000,-0.750000,-0.500000,0.750000,0.500000,0.750000,1.000000,0.000000,1.000000,0.000000,$1*%
%AMFreePoly1*
4,1,6,0.500000,-0.750000,-0.650000,-0.750000,-0.150000,0.000000,-0.650000,0.750000,0.500000,0.750000,0.500000,-0.750000,0.500000,-0.750000,$1*%
%AMFreePoly2*
4,1,15,-0.324998,0.855000,0.625000,0.855000,0.628536,0.853536,0.630000,0.850000,0.630000,-0.850000,0.628536,-0.853536,0.625000,-0.855000,-0.625000,-0.855000,-0.628536,-0.853536,-0.630000,-0.850000,-0.630001,0.550000,-0.628536,0.553536,-0.328536,0.853536,-0.325000,0.855001,-0.324998,0.855000,-0.324998,0.855000,$1*%
G04 Aperture macros list end*
%TA.AperFunction,SMDPad,CuDef*%
%ADD10RoundRect,0.250000X-0.262500X-0.450000X0.262500X-0.450000X0.262500X0.450000X-0.262500X0.450000X0*%
%TD*%
%TA.AperFunction,ComponentPad*%
%ADD11R,1.600000X1.600000*%
%TD*%
%TA.AperFunction,ComponentPad*%
%ADD12C,1.600000*%
%TD*%
%TA.AperFunction,SMDPad,CuDef*%
%ADD13RoundRect,0.225000X-0.250000X0.225000X-0.250000X-0.225000X0.250000X-0.225000X0.250000X0.225000X0*%
%TD*%
%TA.AperFunction,SMDPad,CuDef*%
%ADD14RoundRect,0.225000X0.250000X-0.225000X0.250000X0.225000X-0.250000X0.225000X-0.250000X-0.225000X0*%
%TD*%
%TA.AperFunction,ComponentPad*%
%ADD15R,2.000000X2.000000*%
%TD*%
%TA.AperFunction,ComponentPad*%
%ADD16C,2.000000*%
%TD*%
%TA.AperFunction,SMDPad,CuDef*%
%ADD17FreePoly0,0.000000*%
%TD*%
%TA.AperFunction,SMDPad,CuDef*%
%ADD18FreePoly1,0.000000*%
%TD*%
%TA.AperFunction,SMDPad,CuDef*%
%ADD19RoundRect,0.250000X0.450000X-0.262500X0.450000X0.262500X-0.450000X0.262500X-0.450000X-0.262500X0*%
%TD*%
%TA.AperFunction,SMDPad,CuDef*%
%ADD20R,2.000000X1.500000*%
%TD*%
%TA.AperFunction,SMDPad,CuDef*%
%ADD21R,2.000000X3.800000*%
%TD*%
%TA.AperFunction,ComponentPad*%
%ADD22RoundRect,0.250000X-0.600000X-0.750000X0.600000X-0.750000X0.600000X0.750000X-0.600000X0.750000X0*%
%TD*%
%TA.AperFunction,ComponentPad*%
%ADD23O,1.700000X2.000000*%
%TD*%
%TA.AperFunction,SMDPad,CuDef*%
%ADD24RoundRect,0.062500X0.062500X-0.337500X0.062500X0.337500X-0.062500X0.337500X-0.062500X-0.337500X0*%
%TD*%
%TA.AperFunction,SMDPad,CuDef*%
%ADD25RoundRect,0.062500X0.337500X-0.062500X0.337500X0.062500X-0.337500X0.062500X-0.337500X-0.062500X0*%
%TD*%
%TA.AperFunction,SMDPad,CuDef*%
%ADD26R,3.350000X3.350000*%
%TD*%
%TA.AperFunction,SMDPad,CuDef*%
%ADD27R,0.550000X0.400000*%
%TD*%
%TA.AperFunction,SMDPad,CuDef*%
%ADD28FreePoly2,0.000000*%
%TD*%
%TA.AperFunction,SMDPad,CuDef*%
%ADD29RoundRect,0.225000X-0.225000X-0.250000X0.225000X-0.250000X0.225000X0.250000X-0.225000X0.250000X0*%
%TD*%
%TA.AperFunction,SMDPad,CuDef*%
%ADD30R,0.600000X1.160000*%
%TD*%
%TA.AperFunction,SMDPad,CuDef*%
%ADD31R,0.300000X1.160000*%
%TD*%
%TA.AperFunction,ComponentPad*%
%ADD32O,1.200000X2.000000*%
%TD*%
%TA.AperFunction,ComponentPad*%
%ADD33O,1.000000X2.400000*%
%TD*%
%TA.AperFunction,ComponentPad*%
%ADD34R,1.560000X1.560000*%
%TD*%
%TA.AperFunction,ComponentPad*%
%ADD35C,1.560000*%
%TD*%
%TA.AperFunction,ComponentPad*%
%ADD36RoundRect,0.250000X0.600000X0.750000X-0.600000X0.750000X-0.600000X-0.750000X0.600000X-0.750000X0*%
%TD*%
%TA.AperFunction,ComponentPad*%
%ADD37RoundRect,0.250000X-0.725000X0.600000X-0.725000X-0.600000X0.725000X-0.600000X0.725000X0.600000X0*%
%TD*%
%TA.AperFunction,ComponentPad*%
%ADD38O,1.950000X1.700000*%
%TD*%
%TA.AperFunction,SMDPad,CuDef*%
%ADD39RoundRect,0.250000X-0.450000X0.262500X-0.450000X-0.262500X0.450000X-0.262500X0.450000X0.262500X0*%
%TD*%
%TA.AperFunction,SMDPad,CuDef*%
%ADD40R,0.700000X1.000000*%
%TD*%
%TA.AperFunction,SMDPad,CuDef*%
%ADD41R,0.700000X0.600000*%
%TD*%
%TA.AperFunction,SMDPad,CuDef*%
%ADD42R,1.500000X1.000000*%
%TD*%
%TA.AperFunction,SMDPad,CuDef*%
%ADD43RoundRect,0.250000X0.262500X0.450000X-0.262500X0.450000X-0.262500X-0.450000X0.262500X-0.450000X0*%
%TD*%
%TA.AperFunction,SMDPad,CuDef*%
%ADD44R,0.900000X1.500000*%
%TD*%
%TA.AperFunction,SMDPad,CuDef*%
%ADD45R,1.500000X0.900000*%
%TD*%
%TA.AperFunction,SMDPad,CuDef*%
%ADD46R,1.050000X1.050000*%
%TD*%
%TA.AperFunction,HeatsinkPad*%
%ADD47C,0.600000*%
%TD*%
%TA.AperFunction,SMDPad,CuDef*%
%ADD48R,4.200000X4.200000*%
%TD*%
%TA.AperFunction,ComponentPad*%
%ADD49O,1.600000X1.600000*%
%TD*%
%TA.AperFunction,ViaPad*%
%ADD50C,0.800000*%
%TD*%
%TA.AperFunction,Conductor*%
%ADD51C,1.000000*%
%TD*%
%TA.AperFunction,Conductor*%
%ADD52C,0.500000*%
%TD*%
%TA.AperFunction,Conductor*%
%ADD53C,0.200000*%
%TD*%
%TA.AperFunction,Conductor*%
%ADD54C,0.250000*%
%TD*%
G04 APERTURE END LIST*
D10*
%TO.P,R19,1*%
%TO.N,/board2/+5V*%
X70787500Y-54600000D03*
%TO.P,R19,2*%
%TO.N,Net-(D4-DIN)*%
X72612500Y-54600000D03*
%TD*%
D11*
%TO.P,C33,1*%
%TO.N,/board2/+3V3*%
X72000000Y-67470000D03*
D12*
%TO.P,C33,2*%
%TO.N,/core1/GND*%
X68500000Y-67470000D03*
%TD*%
D13*
%TO.P,C22,1*%
%TO.N,/core1/GND*%
X68100000Y-53025000D03*
%TO.P,C22,2*%
%TO.N,/board2/+5V*%
X68100000Y-54575000D03*
%TD*%
D14*
%TO.P,C19,1*%
%TO.N,/core1/GND*%
X99036750Y-72745000D03*
%TO.P,C19,2*%
%TO.N,Net-(U10-VCC)*%
X99036750Y-71195000D03*
%TD*%
D11*
%TO.P,C30,1*%
%TO.N,/board2/+5V*%
X68097349Y-84220000D03*
D12*
%TO.P,C30,2*%
%TO.N,/core1/GND*%
X71597349Y-84220000D03*
%TD*%
D15*
%TO.P,U6,1,B1*%
%TO.N,/board2/H2S*%
X78500000Y-45720000D03*
D16*
%TO.P,U6,2,VH+*%
%TO.N,/board2/+5V*%
X79890000Y-42360000D03*
%TO.P,U6,3,B2*%
%TO.N,/board2/H2S*%
X78500000Y-39000000D03*
%TO.P,U6,4,A2*%
%TO.N,/board2/+3V3*%
X71780000Y-39000000D03*
%TO.P,U6,5,VH-*%
%TO.N,/core1/GND*%
X70390000Y-42360000D03*
%TO.P,U6,6,A1*%
%TO.N,/board2/+3V3*%
X71780000Y-45720000D03*
%TD*%
D17*
%TO.P,JP4,1,A*%
%TO.N,Net-(JP4-A)*%
X82025000Y-67500000D03*
D18*
%TO.P,JP4,2,B*%
%TO.N,/core1/ESP32_ENABLE*%
X83475000Y-67500000D03*
%TD*%
D19*
%TO.P,R28,1*%
%TO.N,Net-(Q6-E)*%
X82250000Y-74382500D03*
%TO.P,R28,2*%
%TO.N,Net-(Q7-B)*%
X82250000Y-72557500D03*
%TD*%
D20*
%TO.P,U14,1,GND*%
%TO.N,/core1/GND*%
X67850000Y-73920000D03*
%TO.P,U14,2,VO*%
%TO.N,/board2/+3V3*%
X67850000Y-76220000D03*
D21*
X74150000Y-76220000D03*
D20*
%TO.P,U14,3,VI*%
%TO.N,/board2/+5V*%
X67850000Y-78520000D03*
%TD*%
D16*
%TO.P,SW4,1,1*%
%TO.N,/core1/GND*%
X86000000Y-46750000D03*
%TO.P,SW4,2,2*%
%TO.N,/core1/CALIBRATE_BUTTON*%
X92500000Y-46750000D03*
%TD*%
D22*
%TO.P,J7,1,Pin_1*%
%TO.N,Net-(J7-Pin_1)*%
X89000000Y-35475000D03*
D23*
%TO.P,J7,2,Pin_2*%
%TO.N,/board2/+5V*%
X91500000Y-35475000D03*
%TD*%
D24*
%TO.P,U13,1,~{DCD}*%
%TO.N,unconnected-(U13-~{DCD}-Pad1)*%
X88700000Y-74570000D03*
%TO.P,U13,2,~{RI}/CLK*%
%TO.N,unconnected-(U13-~{RI}{slash}CLK-Pad2)*%
X89200000Y-74570000D03*
%TO.P,U13,3,GND*%
%TO.N,/core1/GND*%
X89700000Y-74570000D03*
%TO.P,U13,4,D+*%
%TO.N,/core1/D+*%
X90200000Y-74570000D03*
%TO.P,U13,5,D-*%
%TO.N,/core1/D-*%
X90700000Y-74570000D03*
%TO.P,U13,6,VDD*%
%TO.N,/board2/+3V3*%
X91200000Y-74570000D03*
%TO.P,U13,7,VREGIN*%
X91700000Y-74570000D03*
D25*
%TO.P,U13,8,VBUS*%
%TO.N,Net-(U13-VBUS)*%
X92650000Y-73620000D03*
%TO.P,U13,9,~{RST}*%
%TO.N,Net-(U13-~{RST})*%
X92650000Y-73120000D03*
%TO.P,U13,10,NC*%
%TO.N,unconnected-(U13-NC-Pad10)*%
X92650000Y-72620000D03*
%TO.P,U13,11,~{SUSPEND}*%
%TO.N,unconnected-(U13-~{SUSPEND}-Pad11)*%
X92650000Y-72120000D03*
%TO.P,U13,12,SUSPEND*%
%TO.N,unconnected-(U13-SUSPEND-Pad12)*%
X92650000Y-71620000D03*
%TO.P,U13,13,CHREN*%
%TO.N,unconnected-(U13-CHREN-Pad13)*%
X92650000Y-71120000D03*
%TO.P,U13,14,CHR1*%
%TO.N,unconnected-(U13-CHR1-Pad14)*%
X92650000Y-70620000D03*
D24*
%TO.P,U13,15,CHR0*%
%TO.N,unconnected-(U13-CHR0-Pad15)*%
X91700000Y-69670000D03*
%TO.P,U13,16,~{WAKEUP}/GPIO.3*%
%TO.N,unconnected-(U13-~{WAKEUP}{slash}GPIO.3-Pad16)*%
X91200000Y-69670000D03*
%TO.P,U13,17,RS485/GPIO.2*%
%TO.N,unconnected-(U13-RS485{slash}GPIO.2-Pad17)*%
X90700000Y-69670000D03*
%TO.P,U13,18,~{RXT}/GPIO.1*%
%TO.N,unconnected-(U13-~{RXT}{slash}GPIO.1-Pad18)*%
X90200000Y-69670000D03*
%TO.P,U13,19,~{TXT}/GPIO.0*%
%TO.N,unconnected-(U13-~{TXT}{slash}GPIO.0-Pad19)*%
X89700000Y-69670000D03*
%TO.P,U13,20,GPIO.6*%
%TO.N,unconnected-(U13-GPIO.6-Pad20)*%
X89200000Y-69670000D03*
%TO.P,U13,21,GPIO.5*%
%TO.N,unconnected-(U13-GPIO.5-Pad21)*%
X88700000Y-69670000D03*
D25*
%TO.P,U13,22,GPIO.4*%
%TO.N,unconnected-(U13-GPIO.4-Pad22)*%
X87750000Y-70620000D03*
%TO.P,U13,23,~{CTS}*%
%TO.N,unconnected-(U13-~{CTS}-Pad23)*%
X87750000Y-71120000D03*
%TO.P,U13,24,~{RTS}*%
%TO.N,Net-(Q7-E)*%
X87750000Y-71620000D03*
%TO.P,U13,25,RXD*%
%TO.N,/core1/RXD_3V3*%
X87750000Y-72120000D03*
%TO.P,U13,26,TXD*%
%TO.N,/core1/TXD_3V3*%
X87750000Y-72620000D03*
%TO.P,U13,27,~{DSR}*%
%TO.N,unconnected-(U13-~{DSR}-Pad27)*%
X87750000Y-73120000D03*
%TO.P,U13,28,~{DTR}*%
%TO.N,Net-(Q6-E)*%
X87750000Y-73620000D03*
D26*
%TO.P,U13,29,GND*%
%TO.N,/core1/GND*%
X90200000Y-72120000D03*
%TD*%
D27*
%TO.P,U10,1,VCC*%
%TO.N,Net-(U10-VCC)*%
X100600000Y-73920000D03*
%TO.P,U10,2,GND1*%
%TO.N,/core1/GND*%
X100600000Y-74720000D03*
%TO.P,U10,3,SDA*%
%TO.N,/board2/SDA_3V3*%
X100600000Y-75520000D03*
%TO.P,U10,4,GND2*%
%TO.N,/core1/GND*%
X102900000Y-75520000D03*
%TO.P,U10,5,VCC_H*%
%TO.N,/board2/+3V3*%
X102900000Y-74720000D03*
%TO.P,U10,6,SCL*%
%TO.N,/board2/SCL_3V3*%
X102900000Y-73920000D03*
D28*
%TO.P,U10,7,PAD*%
%TO.N,/core1/GND*%
X101750000Y-74720000D03*
%TD*%
D29*
%TO.P,C27,1*%
%TO.N,Net-(U13-VBUS)*%
X95525000Y-71470000D03*
%TO.P,C27,2*%
%TO.N,/core1/GND*%
X97075000Y-71470000D03*
%TD*%
D30*
%TO.P,J9,A1,GND*%
%TO.N,/core1/GND*%
X87200000Y-82090000D03*
%TO.P,J9,A4,VBUS*%
%TO.N,/board2/+5V*%
X88000000Y-82090000D03*
D31*
%TO.P,J9,A5,CC1*%
%TO.N,unconnected-(J9-CC1-PadA5)*%
X89150000Y-82090000D03*
%TO.P,J9,A6,D+*%
%TO.N,/core1/D+*%
X90150000Y-82090000D03*
%TO.P,J9,A7,D-*%
%TO.N,/core1/D-*%
X90650000Y-82090000D03*
%TO.P,J9,A8,SBU1*%
%TO.N,unconnected-(J9-SBU1-PadA8)*%
X91650000Y-82090000D03*
D30*
%TO.P,J9,A9,VBUS*%
%TO.N,/board2/+5V*%
X92800000Y-82090000D03*
%TO.P,J9,A12,GND*%
%TO.N,/core1/GND*%
X93600000Y-82090000D03*
%TO.P,J9,B1,GND*%
X93600000Y-82090000D03*
%TO.P,J9,B4,VBUS*%
%TO.N,/board2/+5V*%
X92800000Y-82090000D03*
D31*
%TO.P,J9,B5,CC2*%
%TO.N,unconnected-(J9-CC2-PadB5)*%
X92150000Y-82090000D03*
%TO.P,J9,B6,D+*%
%TO.N,/core1/D+*%
X91150000Y-82090000D03*
%TO.P,J9,B7,D-*%
%TO.N,/core1/D-*%
X89650000Y-82090000D03*
%TO.P,J9,B8,SBU2*%
%TO.N,unconnected-(J9-SBU2-PadB8)*%
X88650000Y-82090000D03*
D30*
%TO.P,J9,B9,VBUS*%
%TO.N,/board2/+5V*%
X88000000Y-82090000D03*
%TO.P,J9,B12,GND*%
%TO.N,/core1/GND*%
X87200000Y-82090000D03*
D32*
%TO.P,J9,S1,SHIELD*%
X84800000Y-82975000D03*
D33*
X84800000Y-86900000D03*
D32*
X96000000Y-82975000D03*
D33*
X96000000Y-86900000D03*
%TD*%
D34*
%TO.P,RV2,1,1*%
%TO.N,/core1/GND*%
X83760000Y-56220000D03*
D35*
%TO.P,RV2,2,2*%
X88760000Y-53720000D03*
%TO.P,RV2,3,3*%
%TO.N,/board2/H2S*%
X83760000Y-51220000D03*
%TD*%
D36*
%TO.P,J2,1,Pin_1*%
%TO.N,/board2/TOUCH_SENSOR*%
X87200000Y-61520000D03*
D23*
%TO.P,J2,2,Pin_2*%
%TO.N,/core1/GND*%
X84700000Y-61520000D03*
%TD*%
D37*
%TO.P,J4,1,Pin_1*%
%TO.N,/board2/SCL_3V3*%
X107525000Y-71720000D03*
D38*
%TO.P,J4,2,Pin_2*%
%TO.N,/board2/SDA_3V3*%
X107525000Y-74220000D03*
%TO.P,J4,3,Pin_3*%
%TO.N,/board2/+3V3*%
X107525000Y-76720000D03*
%TO.P,J4,4,Pin_4*%
%TO.N,/core1/GND*%
X107525000Y-79220000D03*
%TD*%
D22*
%TO.P,J6,1,Pin_1*%
%TO.N,Net-(J6-Pin_1)*%
X104500000Y-35500000D03*
D23*
%TO.P,J6,2,Pin_2*%
%TO.N,/board2/+5V*%
X107000000Y-35500000D03*
%TD*%
D39*
%TO.P,R27,1*%
%TO.N,Net-(Q7-E)*%
X84250000Y-70807500D03*
%TO.P,R27,2*%
%TO.N,Net-(Q6-B)*%
X84250000Y-72632500D03*
%TD*%
D40*
%TO.P,D9,1,A*%
%TO.N,/core1/GND*%
X84900000Y-77350000D03*
D41*
%TO.P,D9,2,K*%
%TO.N,/board2/+5V*%
X84900000Y-79050000D03*
%TO.P,D9,3,K*%
%TO.N,/core1/D-*%
X86900000Y-79050000D03*
%TO.P,D9,4,K*%
%TO.N,/core1/D+*%
X86900000Y-77150000D03*
%TD*%
D42*
%TO.P,D4,1,VSS*%
%TO.N,/core1/GND*%
X72595000Y-60755000D03*
%TO.P,D4,2,DIN*%
%TO.N,Net-(D4-DIN)*%
X72595000Y-57555000D03*
%TO.P,D4,3,VDD*%
%TO.N,/board2/+5V*%
X67695000Y-57555000D03*
%TO.P,D4,4,DOUT*%
%TO.N,unconnected-(D4-DOUT-Pad4)*%
X67695000Y-60755000D03*
%TD*%
D10*
%TO.P,R25,1*%
%TO.N,Net-(U13-VBUS)*%
X95587500Y-73220000D03*
%TO.P,R25,2*%
%TO.N,/core1/GND*%
X97412500Y-73220000D03*
%TD*%
D43*
%TO.P,R24,1*%
%TO.N,/board2/+5V*%
X97412500Y-75220000D03*
%TO.P,R24,2*%
%TO.N,Net-(U13-VBUS)*%
X95587500Y-75220000D03*
%TD*%
D44*
%TO.P,U15,1,GND*%
%TO.N,/core1/GND*%
X109500000Y-49970000D03*
%TO.P,U15,2,VDD*%
%TO.N,/board2/+3V3*%
X108230000Y-49970000D03*
%TO.P,U15,3,EN*%
%TO.N,/core1/ESP32_ENABLE*%
X106960000Y-49970000D03*
%TO.P,U15,4,SENSOR_VP*%
%TO.N,unconnected-(U15-SENSOR_VP-Pad4)*%
X105690000Y-49970000D03*
%TO.P,U15,5,SENSOR_VN*%
%TO.N,unconnected-(U15-SENSOR_VN-Pad5)*%
X104420000Y-49970000D03*
%TO.P,U15,6,IO34*%
%TO.N,/board2/LIGHT*%
X103150000Y-49970000D03*
%TO.P,U15,7,IO35*%
%TO.N,/core1/O2*%
X101880000Y-49970000D03*
%TO.P,U15,8,IO32*%
%TO.N,/core1/CO*%
X100610000Y-49970000D03*
%TO.P,U15,9,IO33*%
%TO.N,/board2/H2S*%
X99340000Y-49970000D03*
%TO.P,U15,10,IO25*%
%TO.N,/board2/EXT_FAN_ENABLE*%
X98070000Y-49970000D03*
%TO.P,U15,11,IO26*%
%TO.N,/board2/FAN_ENABLE*%
X96800000Y-49970000D03*
%TO.P,U15,12,IO27*%
%TO.N,/core1/CALIBRATE_BUTTON*%
X95530000Y-49970000D03*
%TO.P,U15,13,IO14*%
%TO.N,unconnected-(U15-IO14-Pad13)*%
X94260000Y-49970000D03*
%TO.P,U15,14,IO12*%
%TO.N,Net-(U15-IO12)*%
X92990000Y-49970000D03*
D45*
%TO.P,U15,15,GND*%
%TO.N,/core1/GND*%
X91740000Y-53010000D03*
%TO.P,U15,16,IO13*%
%TO.N,unconnected-(U15-IO13-Pad16)*%
X91740000Y-54280000D03*
%TO.P,U15,17,SHD/SD2*%
%TO.N,unconnected-(U15-SHD{slash}SD2-Pad17)*%
X91740000Y-55550000D03*
%TO.P,U15,18,SWP/SD3*%
%TO.N,unconnected-(U15-SWP{slash}SD3-Pad18)*%
X91740000Y-56820000D03*
%TO.P,U15,19,SCS/CMD*%
%TO.N,unconnected-(U15-SCS{slash}CMD-Pad19)*%
X91740000Y-58090000D03*
%TO.P,U15,20,SCK/CLK*%
%TO.N,unconnected-(U15-SCK{slash}CLK-Pad20)*%
X91740000Y-59360000D03*
%TO.P,U15,21,SDO/SD0*%
%TO.N,unconnected-(U15-SDO{slash}SD0-Pad21)*%
X91740000Y-60630000D03*
%TO.P,U15,22,SDI/SD1*%
%TO.N,unconnected-(U15-SDI{slash}SD1-Pad22)*%
X91740000Y-61900000D03*
%TO.P,U15,23,IO15*%
%TO.N,Net-(U15-IO15)*%
X91740000Y-63170000D03*
%TO.P,U15,24,IO2*%
%TO.N,/board2/TOUCH_SENSOR*%
X91740000Y-64440000D03*
D44*
%TO.P,U15,25,IO0*%
%TO.N,/core1/ESP32_FLUSH*%
X92990000Y-67470000D03*
%TO.P,U15,26,IO4*%
%TO.N,/board2/RGB_CONTROL#*%
X94260000Y-67470000D03*
%TO.P,U15,27,IO16*%
%TO.N,/core1/TXD_2_3V3*%
X95530000Y-67470000D03*
%TO.P,U15,28,IO17*%
%TO.N,/core1/RXD_2_3V3*%
X96800000Y-67470000D03*
%TO.P,U15,29,IO5*%
%TO.N,Net-(U15-IO5)*%
X98070000Y-67470000D03*
%TO.P,U15,30,IO18*%
%TO.N,/core1/PMS7003_ENABLE*%
X99340000Y-67470000D03*
%TO.P,U15,31,IO19*%
%TO.N,unconnected-(U15-IO19-Pad31)*%
X100610000Y-67470000D03*
%TO.P,U15,32,NC*%
%TO.N,unconnected-(U15-NC-Pad32)*%
X101880000Y-67470000D03*
%TO.P,U15,33,IO21*%
%TO.N,/board2/SDA_3V3*%
X103150000Y-67470000D03*
%TO.P,U15,34,RXD0/IO3*%
%TO.N,/core1/TXD_3V3*%
X104420000Y-67470000D03*
%TO.P,U15,35,TXD0/IO1*%
%TO.N,/core1/RXD_3V3*%
X105690000Y-67470000D03*
%TO.P,U15,36,IO22*%
%TO.N,/board2/SCL_3V3*%
X106960000Y-67470000D03*
%TO.P,U15,37,IO23*%
%TO.N,unconnected-(U15-IO23-Pad37)*%
X108230000Y-67470000D03*
%TO.P,U15,38,GND*%
%TO.N,/core1/GND*%
X109500000Y-67470000D03*
D46*
%TO.P,U15,39,GND*%
X103685000Y-56515000D03*
D47*
X102922500Y-56515000D03*
D46*
X102160000Y-56515000D03*
D47*
X101397500Y-56515000D03*
D46*
X100635000Y-56515000D03*
D47*
X103685000Y-57277500D03*
X102160000Y-57277500D03*
X100635000Y-57277500D03*
D46*
X103685000Y-58040000D03*
D47*
X102922500Y-58040000D03*
D46*
X102160000Y-58040000D03*
D48*
X102160000Y-58040000D03*
D47*
X101397500Y-58040000D03*
D46*
X100635000Y-58040000D03*
D47*
X103685000Y-58802500D03*
X102160000Y-58802500D03*
X100635000Y-58802500D03*
D46*
X103685000Y-59565000D03*
D47*
X102922500Y-59565000D03*
D46*
X102160000Y-59565000D03*
D47*
X101397500Y-59565000D03*
D46*
X100635000Y-59565000D03*
%TD*%
D22*
%TO.P,J10,1,Pin_1*%
%TO.N,/core1/GND*%
X77750000Y-84445000D03*
D23*
%TO.P,J10,2,Pin_2*%
%TO.N,/board2/+5V*%
X80250000Y-84445000D03*
%TD*%
D43*
%TO.P,R16,1*%
%TO.N,/board2/+3V3*%
X102662500Y-71470000D03*
%TO.P,R16,2*%
%TO.N,Net-(U10-VCC)*%
X100837500Y-71470000D03*
%TD*%
D16*
%TO.P,SW2,1,1*%
%TO.N,/core1/GND*%
X102250000Y-42500000D03*
%TO.P,SW2,2,2*%
%TO.N,/core1/ESP32_ENABLE*%
X108750000Y-42500000D03*
%TD*%
D17*
%TO.P,JP3,1,A*%
%TO.N,Net-(JP3-A)*%
X86675000Y-67500000D03*
D18*
%TO.P,JP3,2,B*%
%TO.N,/core1/ESP32_FLUSH*%
X88125000Y-67500000D03*
%TD*%
D12*
%TO.P,R8,1*%
%TO.N,/board2/+3V3*%
X94355000Y-41320000D03*
D49*
%TO.P,R8,2*%
%TO.N,/board2/LIGHT*%
X96895000Y-41320000D03*
%TD*%
D50*
%TO.N,/core1/GND*%
X90200000Y-72120000D03*
X88800000Y-65120000D03*
X72600000Y-60720000D03*
X94200000Y-52920000D03*
X83400000Y-59320000D03*
X84900000Y-77300000D03*
X68100000Y-53000000D03*
X101800000Y-74720000D03*
X88400000Y-59320000D03*
X97400000Y-73320000D03*
X83000000Y-65120000D03*
%TO.N,/board2/+3V3*%
X102400000Y-52945000D03*
X92600000Y-75920000D03*
X90000000Y-44587500D03*
X104200000Y-73320000D03*
X89200000Y-75920000D03*
X107400000Y-53045000D03*
%TO.N,/board2/+5V*%
X92800000Y-80520000D03*
X88000000Y-80720000D03*
%TO.N,Net-(D4-DIN)*%
X72595000Y-57555000D03*
%TO.N,/core1/D-*%
X91000000Y-79520000D03*
X89100500Y-80320000D03*
%TO.N,/core1/D+*%
X89800000Y-78520000D03*
X91800000Y-80320000D03*
%TO.N,/board2/SCL_3V3*%
X103000000Y-72920000D03*
X107000000Y-65120000D03*
%TO.N,/board2/SDA_3V3*%
X103800000Y-65120000D03*
%TO.N,Net-(JP3-A)*%
X86675000Y-67500000D03*
%TO.N,Net-(JP4-A)*%
X82025000Y-67500000D03*
%TO.N,/board2/RGB_CONTROL#*%
X76812500Y-62200000D03*
%TO.N,/board2/EXT_FAN_ENABLE*%
X98200000Y-48320000D03*
%TO.N,/board2/FAN_ENABLE*%
X85250000Y-40000000D03*
%TO.N,Net-(Q6-B)*%
X84200000Y-72720000D03*
%TO.N,Net-(Q6-E)*%
X85607904Y-74525251D03*
%TO.N,Net-(Q7-B)*%
X81000000Y-71500000D03*
%TO.N,Net-(Q7-E)*%
X84200000Y-70920000D03*
%TO.N,Net-(U13-~{RST})*%
X93800000Y-72920500D03*
%TO.N,/core1/TXD_3V3*%
X104800000Y-69900000D03*
X86200000Y-73720000D03*
%TO.N,/core1/RXD_3V3*%
X86299500Y-72498798D03*
X105690000Y-67470000D03*
%TO.N,Net-(U15-IO5)*%
X98100000Y-65300000D03*
%TO.N,Net-(U15-IO12)*%
X93000000Y-50000000D03*
%TO.N,Net-(U15-IO15)*%
X93300000Y-63100000D03*
%TD*%
D51*
%TO.N,/core1/GND*%
X95115000Y-82090000D02*
X93800000Y-82090000D01*
D52*
X97887500Y-72745000D02*
X97412500Y-73220000D01*
D51*
X67850000Y-73920000D02*
X67850000Y-68120000D01*
D52*
X94110000Y-53010000D02*
X94200000Y-52920000D01*
D53*
X100600000Y-74720000D02*
X101750000Y-74720000D01*
D52*
X109500000Y-52225000D02*
X104447500Y-57277500D01*
D53*
X89700000Y-74570000D02*
X89700000Y-72620000D01*
D52*
X97025000Y-72832500D02*
X97400000Y-73207500D01*
D51*
X96000000Y-82975000D02*
X95115000Y-82090000D01*
D52*
X97025000Y-71470000D02*
X97025000Y-72832500D01*
X109500000Y-51720000D02*
X109500000Y-52225000D01*
X104447500Y-57277500D02*
X103685000Y-57277500D01*
X99036750Y-72745000D02*
X97887500Y-72745000D01*
X109500000Y-49970000D02*
X109500000Y-51720000D01*
X98800000Y-74720000D02*
X97400000Y-73320000D01*
D53*
X102900000Y-75520000D02*
X102550000Y-75520000D01*
D52*
X91740000Y-53010000D02*
X94110000Y-53010000D01*
X101750000Y-74720000D02*
X98800000Y-74720000D01*
D51*
X67850000Y-68120000D02*
X68500000Y-67470000D01*
X85685000Y-82090000D02*
X87000000Y-82090000D01*
X84800000Y-82975000D02*
X85685000Y-82090000D01*
D52*
X109500000Y-67470000D02*
X109500000Y-51720000D01*
D53*
X102550000Y-75520000D02*
X101800000Y-74770000D01*
D52*
%TO.N,/board2/+3V3*%
X74720000Y-48720000D02*
X71780000Y-45780000D01*
X104200000Y-71920000D02*
X103750000Y-71470000D01*
X73720000Y-67470000D02*
X74500000Y-68250000D01*
X71780000Y-39000000D02*
X72780000Y-40000000D01*
X108230000Y-52215000D02*
X108230000Y-49970000D01*
X102900000Y-74720000D02*
X103800000Y-74720000D01*
D51*
X74150000Y-76220000D02*
X72000000Y-74070000D01*
D52*
X80530000Y-48720000D02*
X78470000Y-48720000D01*
X89912500Y-44500000D02*
X84750000Y-44500000D01*
X74500000Y-68250000D02*
X74500000Y-72020000D01*
X103800000Y-74720000D02*
X104200000Y-74320000D01*
X76810000Y-53110000D02*
X76820000Y-53120000D01*
D53*
X91700000Y-74570000D02*
X92600000Y-75470000D01*
D52*
X84750000Y-44500000D02*
X80530000Y-48720000D01*
X85640000Y-53120000D02*
X87240000Y-51520000D01*
X103750000Y-71470000D02*
X102662500Y-71470000D01*
X78480000Y-76000000D02*
X89120000Y-76000000D01*
X72780000Y-44720000D02*
X71780000Y-45720000D01*
X87240000Y-51520000D02*
X100975000Y-51520000D01*
X90000000Y-44587500D02*
X89912500Y-44500000D01*
X72780000Y-40000000D02*
X72780000Y-44720000D01*
D53*
X91200000Y-74570000D02*
X91700000Y-74570000D01*
D52*
X89120000Y-76000000D02*
X89200000Y-75920000D01*
D51*
X78470000Y-51450000D02*
X75200000Y-54720000D01*
X67850000Y-76220000D02*
X74150000Y-76220000D01*
X78470000Y-48720000D02*
X78470000Y-51450000D01*
D52*
X72000000Y-67470000D02*
X73720000Y-67470000D01*
D53*
X92600000Y-75470000D02*
X92600000Y-75920000D01*
D51*
X72000000Y-74070000D02*
X72000000Y-67470000D01*
X75200000Y-62120000D02*
X72000000Y-65320000D01*
D52*
X100975000Y-51520000D02*
X102400000Y-52945000D01*
D51*
X75200000Y-54720000D02*
X75200000Y-62120000D01*
D52*
X78470000Y-48720000D02*
X74720000Y-48720000D01*
X107400000Y-53045000D02*
X108230000Y-52215000D01*
D51*
X72000000Y-65320000D02*
X72000000Y-67470000D01*
D52*
X76820000Y-53120000D02*
X85640000Y-53120000D01*
X104200000Y-74320000D02*
X104200000Y-71920000D01*
X74500000Y-72020000D02*
X78480000Y-76000000D01*
%TO.N,/board2/LIGHT*%
X98979950Y-46520000D02*
X97200000Y-46520000D01*
X97200000Y-46520000D02*
X96000000Y-45320000D01*
X103150000Y-49140000D02*
X102640025Y-48630025D01*
X102640025Y-48630025D02*
X101089975Y-48630025D01*
X96000000Y-42215000D02*
X96895000Y-41320000D01*
X103150000Y-49970000D02*
X103150000Y-49140000D01*
X96000000Y-45320000D02*
X96000000Y-42215000D01*
X101089975Y-48630025D02*
X98979950Y-46520000D01*
%TO.N,/board2/H2S*%
X96550000Y-47470000D02*
X98552082Y-47470000D01*
X98552082Y-47470000D02*
X99340000Y-48257918D01*
X88080000Y-39000000D02*
X96550000Y-47470000D01*
X78500000Y-39000000D02*
X88080000Y-39000000D01*
X99340000Y-48257918D02*
X99340000Y-49970000D01*
D53*
%TO.N,Net-(U10-VCC)*%
X100600000Y-73920000D02*
X100600000Y-71707500D01*
X99036750Y-71195000D02*
X100562500Y-71195000D01*
D51*
%TO.N,/board2/+5V*%
X68750000Y-87000000D02*
X68097349Y-86347349D01*
X66000000Y-39920000D02*
X66000000Y-54850000D01*
X82500000Y-80750000D02*
X84900000Y-80750000D01*
D52*
X68100000Y-54575000D02*
X68100000Y-57150000D01*
D54*
X84900000Y-79050000D02*
X84900000Y-80750000D01*
D52*
X75250000Y-33500000D02*
X75400000Y-33650000D01*
D51*
X80250000Y-86250000D02*
X79500000Y-87000000D01*
D52*
X75400000Y-39520000D02*
X78240000Y-42360000D01*
D51*
X80250000Y-84445000D02*
X80250000Y-83000000D01*
D52*
X92800000Y-82090000D02*
X92800000Y-80520000D01*
X97412500Y-80107500D02*
X97412500Y-75220000D01*
X75400000Y-33650000D02*
X75400000Y-39520000D01*
X68100000Y-57150000D02*
X67695000Y-57555000D01*
X88000000Y-82090000D02*
X88000000Y-80720000D01*
D51*
X66797349Y-84220000D02*
X66000000Y-83422651D01*
X80250000Y-84638503D02*
X80250000Y-86250000D01*
X68097349Y-84220000D02*
X66797349Y-84220000D01*
X80250000Y-83000000D02*
X82500000Y-80750000D01*
D52*
X92800000Y-80520000D02*
X97000000Y-80520000D01*
D51*
X68097349Y-84220000D02*
X68097349Y-78767349D01*
X72420000Y-33500000D02*
X66000000Y-39920000D01*
D52*
X97000000Y-80520000D02*
X97412500Y-80107500D01*
X106000000Y-33250000D02*
X107000000Y-34250000D01*
X68100000Y-54575000D02*
X70762500Y-54575000D01*
X66150000Y-54700000D02*
X67975000Y-54700000D01*
X90250000Y-33250000D02*
X106000000Y-33250000D01*
D51*
X68097349Y-86347349D02*
X68097349Y-84220000D01*
X66000000Y-83422651D02*
X66000000Y-54850000D01*
X90000000Y-33500000D02*
X75250000Y-33500000D01*
X79500000Y-87000000D02*
X68750000Y-87000000D01*
X84900000Y-80750000D02*
X87970000Y-80750000D01*
D52*
X107000000Y-34250000D02*
X107000000Y-35500000D01*
X90000000Y-33500000D02*
X91500000Y-35000000D01*
D51*
X87970000Y-80750000D02*
X88000000Y-80720000D01*
D52*
X90000000Y-33500000D02*
X90250000Y-33250000D01*
X78240000Y-42360000D02*
X79890000Y-42360000D01*
D51*
X75250000Y-33500000D02*
X72420000Y-33500000D01*
D53*
%TO.N,Net-(U13-VBUS)*%
X95475000Y-71470000D02*
X95475000Y-75107500D01*
X92650000Y-73620000D02*
X95187500Y-73620000D01*
%TO.N,/core1/ESP32_ENABLE*%
X106960000Y-51840000D02*
X104500000Y-54300000D01*
X92530000Y-66270000D02*
X84525000Y-66270000D01*
X104500000Y-54300000D02*
X101000000Y-54300000D01*
D52*
X106960000Y-44290000D02*
X108750000Y-42500000D01*
D53*
X106960000Y-49970000D02*
X106960000Y-51840000D01*
X84525000Y-66270000D02*
X83475000Y-67320000D01*
D52*
X106960000Y-49970000D02*
X106960000Y-44290000D01*
D53*
X101000000Y-54300000D02*
X96400000Y-58900000D01*
X96400000Y-62400000D02*
X92530000Y-66270000D01*
X96400000Y-58900000D02*
X96400000Y-62400000D01*
D52*
%TO.N,Net-(D4-DIN)*%
X72612500Y-54600000D02*
X72612500Y-57537500D01*
D53*
%TO.N,/core1/D-*%
X90650000Y-82090000D02*
X90650000Y-81260000D01*
X90700000Y-77220000D02*
X90700000Y-74570000D01*
X91000000Y-79520000D02*
X91000000Y-77520000D01*
X89100500Y-80776186D02*
X89650000Y-81325686D01*
X89650000Y-81325686D02*
X89650000Y-82090000D01*
X91000000Y-77520000D02*
X90700000Y-77220000D01*
X91000000Y-80910000D02*
X91000000Y-79520000D01*
X87830500Y-79050000D02*
X86900000Y-79050000D01*
X89100500Y-80320000D02*
X89100500Y-80776186D01*
X90650000Y-81260000D02*
X91000000Y-80910000D01*
X89100500Y-80320000D02*
X87830500Y-79050000D01*
%TO.N,/core1/D+*%
X86900000Y-77150000D02*
X89350000Y-77150000D01*
X91800000Y-80675686D02*
X91800000Y-80320000D01*
X89800000Y-77520000D02*
X90200000Y-77120000D01*
X91150000Y-81325686D02*
X91800000Y-80675686D01*
X89800000Y-78520000D02*
X89800000Y-80910000D01*
X90150000Y-81260000D02*
X90150000Y-82090000D01*
X89350000Y-77150000D02*
X89800000Y-77600000D01*
X89800000Y-77600000D02*
X89800000Y-77520000D01*
X89800000Y-80910000D02*
X90150000Y-81260000D01*
X91150000Y-82090000D02*
X91150000Y-81325686D01*
X90200000Y-77120000D02*
X90200000Y-74570000D01*
X89800000Y-78520000D02*
X89800000Y-77600000D01*
D52*
%TO.N,/board2/TOUCH_SENSOR*%
X90320000Y-64440000D02*
X87400000Y-61520000D01*
X91740000Y-64440000D02*
X90320000Y-64440000D01*
D53*
%TO.N,/board2/SCL_3V3*%
X106960000Y-67470000D02*
X106960000Y-65160000D01*
X106960000Y-71155000D02*
X106960000Y-67470000D01*
X102900000Y-73920000D02*
X102900000Y-73020000D01*
X102900000Y-73020000D02*
X103000000Y-72920000D01*
X106960000Y-65160000D02*
X107000000Y-65120000D01*
%TO.N,/board2/SDA_3V3*%
X105200000Y-72520000D02*
X105200000Y-71760000D01*
X105200000Y-71760000D02*
X103150000Y-69710000D01*
X101400000Y-76520000D02*
X105225000Y-76520000D01*
X105225000Y-76520000D02*
X107525000Y-74220000D01*
X103150000Y-69710000D02*
X103150000Y-67470000D01*
X103150000Y-65770000D02*
X103800000Y-65120000D01*
X106900000Y-74220000D02*
X105200000Y-72520000D01*
X103150000Y-67470000D02*
X103150000Y-65770000D01*
X100600000Y-75720000D02*
X101400000Y-76520000D01*
X100600000Y-75520000D02*
X100600000Y-75720000D01*
%TO.N,/core1/ESP32_FLUSH*%
X88275000Y-67470000D02*
X92990000Y-67470000D01*
%TO.N,/board2/RGB_CONTROL#*%
X76812500Y-62200000D02*
X76812500Y-65932500D01*
X94260000Y-68420000D02*
X94260000Y-67470000D01*
X93930000Y-68750000D02*
X94260000Y-68420000D01*
X76812500Y-65932500D02*
X79630000Y-68750000D01*
X79630000Y-68750000D02*
X93930000Y-68750000D01*
%TO.N,/board2/EXT_FAN_ENABLE*%
X98070000Y-48450000D02*
X98200000Y-48320000D01*
X98070000Y-49970000D02*
X98070000Y-48450000D01*
%TO.N,/board2/FAN_ENABLE*%
X96800000Y-48550000D02*
X96800000Y-49970000D01*
X88250000Y-40000000D02*
X96800000Y-48550000D01*
X85250000Y-40000000D02*
X88250000Y-40000000D01*
%TO.N,Net-(Q6-E)*%
X85607904Y-74525251D02*
X85465153Y-74382500D01*
X86850000Y-74520000D02*
X87750000Y-73620000D01*
X85607904Y-74525251D02*
X85613155Y-74520000D01*
X85465153Y-74382500D02*
X82250000Y-74382500D01*
X85613155Y-74520000D02*
X86850000Y-74520000D01*
%TO.N,Net-(Q7-B)*%
X81000000Y-71500000D02*
X81000000Y-71600000D01*
X81000000Y-71600000D02*
X81957500Y-72557500D01*
%TO.N,Net-(Q7-E)*%
X84362500Y-70920000D02*
X85062500Y-71620000D01*
X85062500Y-71620000D02*
X87750000Y-71620000D01*
%TO.N,Net-(U13-~{RST})*%
X93600500Y-73120000D02*
X92650000Y-73120000D01*
X93800000Y-72920500D02*
X93600500Y-73120000D01*
%TO.N,/core1/TXD_3V3*%
X104800000Y-68800000D02*
X104420000Y-68420000D01*
X87300000Y-72620000D02*
X86200000Y-73720000D01*
X87750000Y-72620000D02*
X87300000Y-72620000D01*
X104420000Y-68420000D02*
X104420000Y-67470000D01*
X104800000Y-69900000D02*
X104800000Y-68800000D01*
%TO.N,/core1/RXD_3V3*%
X86678298Y-72120000D02*
X86299500Y-72498798D01*
X87750000Y-72120000D02*
X86678298Y-72120000D01*
D52*
%TO.N,Net-(U15-IO5)*%
X98070000Y-67470000D02*
X98070000Y-65370000D01*
X98070000Y-65370000D02*
X98100000Y-65400000D01*
X98100000Y-65400000D02*
X98100000Y-65300000D01*
%TO.N,/core1/CALIBRATE_BUTTON*%
X95530000Y-48720000D02*
X93560000Y-46750000D01*
X95530000Y-49970000D02*
X95530000Y-48720000D01*
X93560000Y-46750000D02*
X92500000Y-46750000D01*
%TO.N,Net-(U15-IO15)*%
X93230000Y-63170000D02*
X93300000Y-63100000D01*
X91740000Y-63170000D02*
X93230000Y-63170000D01*
%TD*%
%TA.AperFunction,Conductor*%
%TO.N,/core1/GND*%
G36*
X90432539Y-57739685D02*
G01*
X90478294Y-57792489D01*
X90489500Y-57844000D01*
X90489500Y-58587870D01*
X90489501Y-58587876D01*
X90495908Y-58647481D01*
X90508659Y-58681669D01*
X90513642Y-58751361D01*
X90508659Y-58768331D01*
X90495908Y-58802518D01*
X90489501Y-58862116D01*
X90489500Y-58862135D01*
X90489500Y-59857870D01*
X90489501Y-59857876D01*
X90495908Y-59917481D01*
X90508659Y-59951669D01*
X90513642Y-60021361D01*
X90508659Y-60038331D01*
X90495908Y-60072518D01*
X90489501Y-60132116D01*
X90489500Y-60132135D01*
X90489500Y-61127870D01*
X90489501Y-61127876D01*
X90495908Y-61187481D01*
X90508659Y-61221669D01*
X90513642Y-61291361D01*
X90508659Y-61308331D01*
X90495908Y-61342518D01*
X90489501Y-61402116D01*
X90489500Y-61402135D01*
X90489500Y-62397870D01*
X90489501Y-62397876D01*
X90495908Y-62457481D01*
X90508659Y-62491669D01*
X90513642Y-62561361D01*
X90508659Y-62578331D01*
X90495908Y-62612518D01*
X90489501Y-62672116D01*
X90489500Y-62672135D01*
X90489500Y-63248770D01*
X90469815Y-63315809D01*
X90417011Y-63361564D01*
X90347853Y-63371508D01*
X90284297Y-63342483D01*
X90277819Y-63336451D01*
X88586818Y-61645450D01*
X88553333Y-61584127D01*
X88550499Y-61557769D01*
X88550499Y-60719998D01*
X88550498Y-60719981D01*
X88539999Y-60617203D01*
X88539998Y-60617200D01*
X88484814Y-60450666D01*
X88392712Y-60301344D01*
X88268656Y-60177288D01*
X88119334Y-60085186D01*
X87952797Y-60030001D01*
X87952795Y-60030000D01*
X87850010Y-60019500D01*
X86549998Y-60019500D01*
X86549981Y-60019501D01*
X86447203Y-60030000D01*
X86447200Y-60030001D01*
X86280668Y-60085185D01*
X86280663Y-60085187D01*
X86131342Y-60177289D01*
X86007288Y-60301343D01*
X86007285Y-60301347D01*
X85911550Y-60456558D01*
X85859602Y-60503283D01*
X85790640Y-60514504D01*
X85726558Y-60486661D01*
X85718331Y-60479143D01*
X85571078Y-60331891D01*
X85377578Y-60196399D01*
X85163492Y-60096570D01*
X85163486Y-60096567D01*
X84950000Y-60039364D01*
X84950000Y-61084498D01*
X84842315Y-61035320D01*
X84735763Y-61020000D01*
X84664237Y-61020000D01*
X84557685Y-61035320D01*
X84450000Y-61084498D01*
X84450000Y-60039364D01*
X84449999Y-60039364D01*
X84236513Y-60096567D01*
X84236507Y-60096570D01*
X84022422Y-60196399D01*
X84022420Y-60196400D01*
X83828926Y-60331886D01*
X83828920Y-60331891D01*
X83661891Y-60498920D01*
X83661886Y-60498926D01*
X83526400Y-60692420D01*
X83526399Y-60692422D01*
X83426570Y-60906507D01*
X83426566Y-60906516D01*
X83365432Y-61134673D01*
X83365430Y-61134684D01*
X83353592Y-61269999D01*
X83353593Y-61270000D01*
X84266314Y-61270000D01*
X84240507Y-61310156D01*
X84200000Y-61448111D01*
X84200000Y-61591889D01*
X84240507Y-61729844D01*
X84266314Y-61770000D01*
X83353592Y-61770000D01*
X83365430Y-61905315D01*
X83365432Y-61905326D01*
X83426566Y-62133483D01*
X83426570Y-62133492D01*
X83526399Y-62347577D01*
X83526400Y-62347579D01*
X83661886Y-62541073D01*
X83661891Y-62541079D01*
X83828917Y-62708105D01*
X84022421Y-62843600D01*
X84236507Y-62943429D01*
X84236516Y-62943433D01*
X84450000Y-63000634D01*
X84450000Y-61955501D01*
X84557685Y-62004680D01*
X84664237Y-62020000D01*
X84735763Y-62020000D01*
X84842315Y-62004680D01*
X84950000Y-61955501D01*
X84950000Y-63000633D01*
X85163483Y-62943433D01*
X85163492Y-62943429D01*
X85377577Y-62843600D01*
X85377579Y-62843599D01*
X85571073Y-62708113D01*
X85571079Y-62708108D01*
X85718331Y-62560857D01*
X85779654Y-62527372D01*
X85849346Y-62532356D01*
X85905279Y-62574228D01*
X85911551Y-62583441D01*
X85915186Y-62589334D01*
X86007288Y-62738656D01*
X86131344Y-62862712D01*
X86280666Y-62954814D01*
X86447203Y-63009999D01*
X86549991Y-63020500D01*
X87787769Y-63020499D01*
X87854808Y-63040184D01*
X87875450Y-63056818D01*
X89744267Y-64925634D01*
X89756048Y-64939266D01*
X89770390Y-64958530D01*
X89810420Y-64992119D01*
X89814392Y-64995759D01*
X89820224Y-65001591D01*
X89820227Y-65001594D01*
X89845947Y-65021931D01*
X89904788Y-65071304D01*
X89910818Y-65075270D01*
X89910785Y-65075319D01*
X89917143Y-65079369D01*
X89917175Y-65079319D01*
X89923320Y-65083109D01*
X89923323Y-65083111D01*
X89992936Y-65115572D01*
X90061567Y-65150040D01*
X90061572Y-65150041D01*
X90068361Y-65152513D01*
X90068340Y-65152570D01*
X90075455Y-65155043D01*
X90075475Y-65154986D01*
X90082330Y-65157258D01*
X90157558Y-65172790D01*
X90232279Y-65190500D01*
X90232289Y-65190500D01*
X90239452Y-65191338D01*
X90239444Y-65191397D01*
X90246945Y-65192164D01*
X90246951Y-65192105D01*
X90254140Y-65192734D01*
X90254144Y-65192733D01*
X90254145Y-65192734D01*
X90330918Y-65190500D01*
X90527680Y-65190500D01*
X90594719Y-65210185D01*
X90626948Y-65240191D01*
X90632454Y-65247546D01*
X90632457Y-65247548D01*
X90747664Y-65333793D01*
X90747671Y-65333797D01*
X90882517Y-65384091D01*
X90882516Y-65384091D01*
X90889444Y-65384835D01*
X90942127Y-65390500D01*
X92260902Y-65390499D01*
X92327941Y-65410184D01*
X92373696Y-65462987D01*
X92383640Y-65532146D01*
X92354615Y-65595702D01*
X92348585Y-65602179D01*
X92317585Y-65633180D01*
X92256262Y-65666666D01*
X92229902Y-65669500D01*
X84568428Y-65669500D01*
X84560329Y-65668969D01*
X84525000Y-65664318D01*
X84485639Y-65669500D01*
X84368239Y-65684955D01*
X84368237Y-65684956D01*
X84222160Y-65745463D01*
X84096714Y-65841721D01*
X84075026Y-65869987D01*
X84069677Y-65876087D01*
X84065885Y-65879879D01*
X84062091Y-65883673D01*
X84000774Y-65917163D01*
X83974403Y-65920000D01*
X81924000Y-65920000D01*
X81856961Y-65900315D01*
X81811206Y-65847511D01*
X81800000Y-65796000D01*
X81800000Y-57844000D01*
X81819685Y-57776961D01*
X81872489Y-57731206D01*
X81924000Y-57720000D01*
X90365500Y-57720000D01*
X90432539Y-57739685D01*
G37*
%TD.AperFunction*%
%TD*%
M02*
