M48
; DRILL file {KiCad 7.0.10-7.0.10~ubuntu22.04.1} date Вт 09 янв 2024 15:42:07
; FORMAT={-:-/ absolute / inch / decimal}
; #@! TF.CreationDate,2024-01-09T15:42:07+03:00
; #@! TF.GenerationSoftware,Kicad,Pcbnew,7.0.10-7.0.10~ubuntu22.04.1
; #@! TF.FileFunction,Plated,1,2,PTH
FMAT,2
INCH
; #@! TA.AperFunction,Plated,PTH,ComponentDrill
T1C0.0079
; #@! TA.AperFunction,Plated,PTH,ViaDrill
T2C0.0157
; #@! TA.AperFunction,Plated,PTH,ComponentDrill
T3C0.0315
; #@! TA.AperFunction,Plated,PTH,ComponentDrill
T4C0.0374
; #@! TA.AperFunction,Plated,PTH,ComponentDrill
T5C0.0394
; #@! TA.AperFunction,Plated,PTH,ComponentDrill
T6C0.0472
; #@! TA.AperFunction,Plated,PTH,ComponentDrill
T7C0.1063
%
G90
G05
T1
X8.5585Y-2.6204
X8.5585Y-2.6804
X8.5885Y-2.5904
X8.5885Y-2.6504
X8.5885Y-2.7104
X8.6185Y-2.6204
X8.6185Y-2.6804
X8.6485Y-2.5904
X8.6485Y-2.6504
X8.6485Y-2.7104
X8.6785Y-2.6204
X8.6785Y-2.6804
T2
X6.8198Y-3.0243
X6.8238Y-2.8353
X6.874Y-2.8904
X6.8819Y-2.9731
X6.9055Y-2.7323
X6.9143Y-2.9022
X6.9616Y-2.9219
X6.9843Y-2.7992
X7.0157Y-2.978
X7.0915Y-2.6384
X7.1588Y-2.7093
X7.1663Y-2.6384
X7.1963Y-2.7211
X7.2017Y-2.8825
X7.2332Y-2.6384
X7.308Y-2.6384
X7.4685Y-2.5479
X7.4715Y-2.685
X7.4731Y-2.7982
X7.7362Y-2.2756
X7.9528Y-2.8707
X8.0551Y-2.9055
X8.1378Y-2.9055
X8.2047Y-2.8504
X8.2559Y-2.3346
X8.2726Y-2.4534
X8.3268Y-2.937
X8.3701Y-2.7835
X8.4094Y-2.9055
X8.4567Y-2.9645
X8.5915Y-2.418
X8.7047Y-3.0276
X8.7283Y-3.1299
X8.7559Y-1.6969
X8.7598Y-3.0236
T3
X6.682Y-3.3661
X6.682Y-3.5039
X7.3946Y-3.3649
X7.3946Y-3.5027
T4
X7.7815Y-2.918
X7.7815Y-3.0164
X7.7815Y-3.1148
X7.7815Y-3.2132
X7.9291Y-3.4567
X8.0276Y-3.4567
X8.126Y-3.4567
X8.2244Y-3.4567
X8.3139Y-3.1788
X8.3228Y-3.4567
X8.4124Y-3.1788
X8.4213Y-3.4567
X8.5108Y-3.1788
X8.5197Y-3.4567
X8.6092Y-3.1788
X8.6181Y-3.4567
X8.7165Y-3.4567
X8.815Y-3.4567
T5
X6.6662Y-2.3675
X6.6662Y-2.4659
X6.7012Y-1.8441
X6.7559Y-1.7118
X6.7559Y-1.9764
X7.0205Y-1.7118
X7.0205Y-1.9764
X7.0752Y-1.8441
X7.19Y-2.2291
X7.19Y-2.4259
X7.3868Y-2.3275
X7.476Y-1.852
X7.5307Y-1.7197
X7.5307Y-1.9843
X7.7953Y-1.7197
X7.7953Y-1.9843
X7.85Y-1.852
X7.9206Y-2.225
X7.9206Y-2.4219
X8.1175Y-2.3235
T6
X7.6969Y-2.4705
X7.6969Y-2.7264
X7.8543Y-2.5591
X8.1102Y-2.5591
T7
X8.5197Y-2.1398
X8.7854Y-1.874
T3
G00X6.5551Y-2.709
M15
G01X6.6024Y-2.709
M16
G05
G00X6.5551Y-3.15
M15
G01X6.6024Y-3.15
M16
G05
G00X6.7175Y-2.709
M15
G01X6.749Y-2.709
M16
G05
G00X6.7175Y-3.15
M15
G01X6.749Y-3.15
M16
G05
M30
