%TF.GenerationSoftware,KiCad,Pcbnew,7.0.10-7.0.10~ubuntu22.04.1*%
%TF.CreationDate,2024-01-09T15:42:03+03:00*%
%TF.ProjectId,air-detector,6169722d-6465-4746-9563-746f722e6b69,rev?*%
%TF.SameCoordinates,Original*%
%TF.FileFunction,Paste,Bot*%
%TF.FilePolarity,Positive*%
%FSLAX46Y46*%
G04 Gerber Fmt 4.6, Leading zero omitted, Abs format (unit mm)*
G04 Created by KiCad (PCBNEW 7.0.10-7.0.10~ubuntu22.04.1) date 2024-01-09 15:42:03*
%MOMM*%
%LPD*%
G01*
G04 APERTURE LIST*
G04 Aperture macros list*
%AMRoundRect*
0 Rectangle with rounded corners*
0 $1 Rounding radius*
0 $2 $3 $4 $5 $6 $7 $8 $9 X,Y pos of 4 corners*
0 Add a 4 corners polygon primitive as box body*
4,1,4,$2,$3,$4,$5,$6,$7,$8,$9,$2,$3,0*
0 Add four circle primitives for the rounded corners*
1,1,$1+$1,$2,$3*
1,1,$1+$1,$4,$5*
1,1,$1+$1,$6,$7*
1,1,$1+$1,$8,$9*
0 Add four rect primitives between the rounded corners*
20,1,$1+$1,$2,$3,$4,$5,0*
20,1,$1+$1,$4,$5,$6,$7,0*
20,1,$1+$1,$6,$7,$8,$9,0*
20,1,$1+$1,$8,$9,$2,$3,0*%
G04 Aperture macros list end*
%ADD10RoundRect,0.225000X-0.225000X-0.250000X0.225000X-0.250000X0.225000X0.250000X-0.225000X0.250000X0*%
%ADD11RoundRect,0.225000X0.225000X0.250000X-0.225000X0.250000X-0.225000X-0.250000X0.225000X-0.250000X0*%
%ADD12RoundRect,0.250000X0.262500X0.450000X-0.262500X0.450000X-0.262500X-0.450000X0.262500X-0.450000X0*%
%ADD13RoundRect,0.250000X-0.450000X0.262500X-0.450000X-0.262500X0.450000X-0.262500X0.450000X0.262500X0*%
%ADD14RoundRect,0.225000X-0.250000X0.225000X-0.250000X-0.225000X0.250000X-0.225000X0.250000X0.225000X0*%
%ADD15RoundRect,0.250000X-0.262500X-0.450000X0.262500X-0.450000X0.262500X0.450000X-0.262500X0.450000X0*%
%ADD16RoundRect,0.250000X0.450000X-0.262500X0.450000X0.262500X-0.450000X0.262500X-0.450000X-0.262500X0*%
%ADD17RoundRect,0.225000X0.250000X-0.225000X0.250000X0.225000X-0.250000X0.225000X-0.250000X-0.225000X0*%
%ADD18RoundRect,0.150000X0.650000X0.150000X-0.650000X0.150000X-0.650000X-0.150000X0.650000X-0.150000X0*%
%ADD19RoundRect,0.250000X-1.100000X0.325000X-1.100000X-0.325000X1.100000X-0.325000X1.100000X0.325000X0*%
%ADD20RoundRect,0.250000X1.100000X-0.325000X1.100000X0.325000X-1.100000X0.325000X-1.100000X-0.325000X0*%
%ADD21RoundRect,0.150000X0.150000X-0.587500X0.150000X0.587500X-0.150000X0.587500X-0.150000X-0.587500X0*%
G04 APERTURE END LIST*
D10*
%TO.C,C38*%
X208625000Y-44600000D03*
X210175000Y-44600000D03*
%TD*%
D11*
%TO.C,C6*%
X213975000Y-43800000D03*
X212425000Y-43800000D03*
%TD*%
D12*
%TO.C,R7*%
X218752500Y-43000000D03*
X216927500Y-43000000D03*
%TD*%
D13*
%TO.C,R12*%
X213600000Y-70687500D03*
X213600000Y-72512500D03*
%TD*%
D14*
%TO.C,C12*%
X203200000Y-54950000D03*
X203200000Y-56500000D03*
%TD*%
D15*
%TO.C,R21*%
X220527500Y-43000000D03*
X222352500Y-43000000D03*
%TD*%
D14*
%TO.C,C18*%
X218174000Y-61391000D03*
X218174000Y-62941000D03*
%TD*%
D15*
%TO.C,R34*%
X209687500Y-59300000D03*
X211512500Y-59300000D03*
%TD*%
D16*
%TO.C,R36*%
X208500000Y-72412500D03*
X208500000Y-70587500D03*
%TD*%
D17*
%TO.C,C16*%
X219774000Y-62941000D03*
X219774000Y-61391000D03*
%TD*%
D11*
%TO.C,C23*%
X203475000Y-74600000D03*
X201925000Y-74600000D03*
%TD*%
D18*
%TO.C,U3*%
X219400000Y-46695000D03*
X219400000Y-47965000D03*
X219400000Y-49235000D03*
X219400000Y-50505000D03*
X212200000Y-50505000D03*
X212200000Y-49235000D03*
X212200000Y-47965000D03*
X212200000Y-46695000D03*
%TD*%
D14*
%TO.C,C40*%
X195500000Y-64975000D03*
X195500000Y-66525000D03*
%TD*%
D15*
%TO.C,R17*%
X209011500Y-84616000D03*
X210836500Y-84616000D03*
%TD*%
D17*
%TO.C,C39*%
X213900000Y-39275000D03*
X213900000Y-37725000D03*
%TD*%
D13*
%TO.C,R10*%
X211500000Y-70687500D03*
X211500000Y-72512500D03*
%TD*%
D19*
%TO.C,C9*%
X184324000Y-85941000D03*
X184324000Y-88891000D03*
%TD*%
D11*
%TO.C,C7*%
X194275000Y-48000000D03*
X192725000Y-48000000D03*
%TD*%
D14*
%TO.C,C24*%
X204824000Y-69566000D03*
X204824000Y-71116000D03*
%TD*%
D13*
%TO.C,R20*%
X202000000Y-71053500D03*
X202000000Y-72878500D03*
%TD*%
D19*
%TO.C,C5*%
X173824000Y-85341000D03*
X173824000Y-88291000D03*
%TD*%
D20*
%TO.C,C17*%
X222324000Y-64241000D03*
X222324000Y-61291000D03*
%TD*%
D16*
%TO.C,R32*%
X216300000Y-72512500D03*
X216300000Y-70687500D03*
%TD*%
D21*
%TO.C,Q2*%
X185624000Y-67016000D03*
X183724000Y-67016000D03*
X184674000Y-65141000D03*
%TD*%
D12*
%TO.C,R6*%
X212712500Y-54200000D03*
X210887500Y-54200000D03*
%TD*%
D21*
%TO.C,Q1*%
X182024000Y-67016000D03*
X180124000Y-67016000D03*
X181074000Y-65141000D03*
%TD*%
D14*
%TO.C,C25*%
X172920000Y-46225000D03*
X172920000Y-47775000D03*
%TD*%
M02*
