%TF.GenerationSoftware,KiCad,Pcbnew,7.0.10-7.0.10~ubuntu22.04.1*%
%TF.CreationDate,2024-01-09T15:42:03+03:00*%
%TF.ProjectId,air-detector,6169722d-6465-4746-9563-746f722e6b69,rev?*%
%TF.SameCoordinates,Original*%
%TF.FileFunction,Legend,Top*%
%TF.FilePolarity,Positive*%
%FSLAX46Y46*%
G04 Gerber Fmt 4.6, Leading zero omitted, Abs format (unit mm)*
G04 Created by KiCad (PCBNEW 7.0.10-7.0.10~ubuntu22.04.1) date 2024-01-09 15:42:03*
%MOMM*%
%LPD*%
G01*
G04 APERTURE LIST*
%ADD10C,0.150000*%
%ADD11C,0.120000*%
%ADD12C,0.127000*%
%ADD13C,0.200000*%
G04 APERTURE END LIST*
D10*
X172660779Y-63654866D02*
X173422684Y-63654866D01*
X173041731Y-64035819D02*
X173041731Y-63273914D01*
X174375064Y-63035819D02*
X173898874Y-63035819D01*
X173898874Y-63035819D02*
X173851255Y-63512009D01*
X173851255Y-63512009D02*
X173898874Y-63464390D01*
X173898874Y-63464390D02*
X173994112Y-63416771D01*
X173994112Y-63416771D02*
X174232207Y-63416771D01*
X174232207Y-63416771D02*
X174327445Y-63464390D01*
X174327445Y-63464390D02*
X174375064Y-63512009D01*
X174375064Y-63512009D02*
X174422683Y-63607247D01*
X174422683Y-63607247D02*
X174422683Y-63845342D01*
X174422683Y-63845342D02*
X174375064Y-63940580D01*
X174375064Y-63940580D02*
X174327445Y-63988200D01*
X174327445Y-63988200D02*
X174232207Y-64035819D01*
X174232207Y-64035819D02*
X173994112Y-64035819D01*
X173994112Y-64035819D02*
X173898874Y-63988200D01*
X173898874Y-63988200D02*
X173851255Y-63940580D01*
X174708398Y-63035819D02*
X175041731Y-64035819D01*
X175041731Y-64035819D02*
X175375064Y-63035819D01*
X173384588Y-61783438D02*
X173289350Y-61735819D01*
X173289350Y-61735819D02*
X173146493Y-61735819D01*
X173146493Y-61735819D02*
X173003636Y-61783438D01*
X173003636Y-61783438D02*
X172908398Y-61878676D01*
X172908398Y-61878676D02*
X172860779Y-61973914D01*
X172860779Y-61973914D02*
X172813160Y-62164390D01*
X172813160Y-62164390D02*
X172813160Y-62307247D01*
X172813160Y-62307247D02*
X172860779Y-62497723D01*
X172860779Y-62497723D02*
X172908398Y-62592961D01*
X172908398Y-62592961D02*
X173003636Y-62688200D01*
X173003636Y-62688200D02*
X173146493Y-62735819D01*
X173146493Y-62735819D02*
X173241731Y-62735819D01*
X173241731Y-62735819D02*
X173384588Y-62688200D01*
X173384588Y-62688200D02*
X173432207Y-62640580D01*
X173432207Y-62640580D02*
X173432207Y-62307247D01*
X173432207Y-62307247D02*
X173241731Y-62307247D01*
X173860779Y-62735819D02*
X173860779Y-61735819D01*
X173860779Y-61735819D02*
X174432207Y-62735819D01*
X174432207Y-62735819D02*
X174432207Y-61735819D01*
X174908398Y-62735819D02*
X174908398Y-61735819D01*
X174908398Y-61735819D02*
X175146493Y-61735819D01*
X175146493Y-61735819D02*
X175289350Y-61783438D01*
X175289350Y-61783438D02*
X175384588Y-61878676D01*
X175384588Y-61878676D02*
X175432207Y-61973914D01*
X175432207Y-61973914D02*
X175479826Y-62164390D01*
X175479826Y-62164390D02*
X175479826Y-62307247D01*
X175479826Y-62307247D02*
X175432207Y-62497723D01*
X175432207Y-62497723D02*
X175384588Y-62592961D01*
X175384588Y-62592961D02*
X175289350Y-62688200D01*
X175289350Y-62688200D02*
X175146493Y-62735819D01*
X175146493Y-62735819D02*
X174908398Y-62735819D01*
X226429180Y-40612095D02*
X225619657Y-40612095D01*
X225619657Y-40612095D02*
X225524419Y-40659714D01*
X225524419Y-40659714D02*
X225476800Y-40707333D01*
X225476800Y-40707333D02*
X225429180Y-40802571D01*
X225429180Y-40802571D02*
X225429180Y-40993047D01*
X225429180Y-40993047D02*
X225476800Y-41088285D01*
X225476800Y-41088285D02*
X225524419Y-41135904D01*
X225524419Y-41135904D02*
X225619657Y-41183523D01*
X225619657Y-41183523D02*
X226429180Y-41183523D01*
X226333942Y-41612095D02*
X226381561Y-41659714D01*
X226381561Y-41659714D02*
X226429180Y-41754952D01*
X226429180Y-41754952D02*
X226429180Y-41993047D01*
X226429180Y-41993047D02*
X226381561Y-42088285D01*
X226381561Y-42088285D02*
X226333942Y-42135904D01*
X226333942Y-42135904D02*
X226238704Y-42183523D01*
X226238704Y-42183523D02*
X226143466Y-42183523D01*
X226143466Y-42183523D02*
X226000609Y-42135904D01*
X226000609Y-42135904D02*
X225429180Y-41564476D01*
X225429180Y-41564476D02*
X225429180Y-42183523D01*
X180907333Y-63883319D02*
X180574000Y-63407128D01*
X180335905Y-63883319D02*
X180335905Y-62883319D01*
X180335905Y-62883319D02*
X180716857Y-62883319D01*
X180716857Y-62883319D02*
X180812095Y-62930938D01*
X180812095Y-62930938D02*
X180859714Y-62978557D01*
X180859714Y-62978557D02*
X180907333Y-63073795D01*
X180907333Y-63073795D02*
X180907333Y-63216652D01*
X180907333Y-63216652D02*
X180859714Y-63311890D01*
X180859714Y-63311890D02*
X180812095Y-63359509D01*
X180812095Y-63359509D02*
X180716857Y-63407128D01*
X180716857Y-63407128D02*
X180335905Y-63407128D01*
X181812095Y-62883319D02*
X181335905Y-62883319D01*
X181335905Y-62883319D02*
X181288286Y-63359509D01*
X181288286Y-63359509D02*
X181335905Y-63311890D01*
X181335905Y-63311890D02*
X181431143Y-63264271D01*
X181431143Y-63264271D02*
X181669238Y-63264271D01*
X181669238Y-63264271D02*
X181764476Y-63311890D01*
X181764476Y-63311890D02*
X181812095Y-63359509D01*
X181812095Y-63359509D02*
X181859714Y-63454747D01*
X181859714Y-63454747D02*
X181859714Y-63692842D01*
X181859714Y-63692842D02*
X181812095Y-63788080D01*
X181812095Y-63788080D02*
X181764476Y-63835700D01*
X181764476Y-63835700D02*
X181669238Y-63883319D01*
X181669238Y-63883319D02*
X181431143Y-63883319D01*
X181431143Y-63883319D02*
X181335905Y-63835700D01*
X181335905Y-63835700D02*
X181288286Y-63788080D01*
X204028761Y-53770819D02*
X203695428Y-53294628D01*
X203457333Y-53770819D02*
X203457333Y-52770819D01*
X203457333Y-52770819D02*
X203838285Y-52770819D01*
X203838285Y-52770819D02*
X203933523Y-52818438D01*
X203933523Y-52818438D02*
X203981142Y-52866057D01*
X203981142Y-52866057D02*
X204028761Y-52961295D01*
X204028761Y-52961295D02*
X204028761Y-53104152D01*
X204028761Y-53104152D02*
X203981142Y-53199390D01*
X203981142Y-53199390D02*
X203933523Y-53247009D01*
X203933523Y-53247009D02*
X203838285Y-53294628D01*
X203838285Y-53294628D02*
X203457333Y-53294628D01*
X204314476Y-52770819D02*
X204647809Y-53770819D01*
X204647809Y-53770819D02*
X204981142Y-52770819D01*
X205838285Y-53770819D02*
X205266857Y-53770819D01*
X205552571Y-53770819D02*
X205552571Y-52770819D01*
X205552571Y-52770819D02*
X205457333Y-52913676D01*
X205457333Y-52913676D02*
X205362095Y-53008914D01*
X205362095Y-53008914D02*
X205266857Y-53056533D01*
X202133523Y-55075580D02*
X202085904Y-55123200D01*
X202085904Y-55123200D02*
X201943047Y-55170819D01*
X201943047Y-55170819D02*
X201847809Y-55170819D01*
X201847809Y-55170819D02*
X201704952Y-55123200D01*
X201704952Y-55123200D02*
X201609714Y-55027961D01*
X201609714Y-55027961D02*
X201562095Y-54932723D01*
X201562095Y-54932723D02*
X201514476Y-54742247D01*
X201514476Y-54742247D02*
X201514476Y-54599390D01*
X201514476Y-54599390D02*
X201562095Y-54408914D01*
X201562095Y-54408914D02*
X201609714Y-54313676D01*
X201609714Y-54313676D02*
X201704952Y-54218438D01*
X201704952Y-54218438D02*
X201847809Y-54170819D01*
X201847809Y-54170819D02*
X201943047Y-54170819D01*
X201943047Y-54170819D02*
X202085904Y-54218438D01*
X202085904Y-54218438D02*
X202133523Y-54266057D01*
X202752571Y-54170819D02*
X202943047Y-54170819D01*
X202943047Y-54170819D02*
X203038285Y-54218438D01*
X203038285Y-54218438D02*
X203133523Y-54313676D01*
X203133523Y-54313676D02*
X203181142Y-54504152D01*
X203181142Y-54504152D02*
X203181142Y-54837485D01*
X203181142Y-54837485D02*
X203133523Y-55027961D01*
X203133523Y-55027961D02*
X203038285Y-55123200D01*
X203038285Y-55123200D02*
X202943047Y-55170819D01*
X202943047Y-55170819D02*
X202752571Y-55170819D01*
X202752571Y-55170819D02*
X202657333Y-55123200D01*
X202657333Y-55123200D02*
X202562095Y-55027961D01*
X202562095Y-55027961D02*
X202514476Y-54837485D01*
X202514476Y-54837485D02*
X202514476Y-54504152D01*
X202514476Y-54504152D02*
X202562095Y-54313676D01*
X202562095Y-54313676D02*
X202657333Y-54218438D01*
X202657333Y-54218438D02*
X202752571Y-54170819D01*
X204324000Y-55123200D02*
X204466857Y-55170819D01*
X204466857Y-55170819D02*
X204704952Y-55170819D01*
X204704952Y-55170819D02*
X204800190Y-55123200D01*
X204800190Y-55123200D02*
X204847809Y-55075580D01*
X204847809Y-55075580D02*
X204895428Y-54980342D01*
X204895428Y-54980342D02*
X204895428Y-54885104D01*
X204895428Y-54885104D02*
X204847809Y-54789866D01*
X204847809Y-54789866D02*
X204800190Y-54742247D01*
X204800190Y-54742247D02*
X204704952Y-54694628D01*
X204704952Y-54694628D02*
X204514476Y-54647009D01*
X204514476Y-54647009D02*
X204419238Y-54599390D01*
X204419238Y-54599390D02*
X204371619Y-54551771D01*
X204371619Y-54551771D02*
X204324000Y-54456533D01*
X204324000Y-54456533D02*
X204324000Y-54361295D01*
X204324000Y-54361295D02*
X204371619Y-54266057D01*
X204371619Y-54266057D02*
X204419238Y-54218438D01*
X204419238Y-54218438D02*
X204514476Y-54170819D01*
X204514476Y-54170819D02*
X204752571Y-54170819D01*
X204752571Y-54170819D02*
X204895428Y-54218438D01*
X205704952Y-55123200D02*
X205609714Y-55170819D01*
X205609714Y-55170819D02*
X205419238Y-55170819D01*
X205419238Y-55170819D02*
X205324000Y-55123200D01*
X205324000Y-55123200D02*
X205276381Y-55027961D01*
X205276381Y-55027961D02*
X205276381Y-54647009D01*
X205276381Y-54647009D02*
X205324000Y-54551771D01*
X205324000Y-54551771D02*
X205419238Y-54504152D01*
X205419238Y-54504152D02*
X205609714Y-54504152D01*
X205609714Y-54504152D02*
X205704952Y-54551771D01*
X205704952Y-54551771D02*
X205752571Y-54647009D01*
X205752571Y-54647009D02*
X205752571Y-54742247D01*
X205752571Y-54742247D02*
X205276381Y-54837485D01*
X206038286Y-54504152D02*
X206419238Y-54504152D01*
X206181143Y-54170819D02*
X206181143Y-55027961D01*
X206181143Y-55027961D02*
X206228762Y-55123200D01*
X206228762Y-55123200D02*
X206324000Y-55170819D01*
X206324000Y-55170819D02*
X206419238Y-55170819D01*
X207181143Y-54504152D02*
X207181143Y-55170819D01*
X206752572Y-54504152D02*
X206752572Y-55027961D01*
X206752572Y-55027961D02*
X206800191Y-55123200D01*
X206800191Y-55123200D02*
X206895429Y-55170819D01*
X206895429Y-55170819D02*
X207038286Y-55170819D01*
X207038286Y-55170819D02*
X207133524Y-55123200D01*
X207133524Y-55123200D02*
X207181143Y-55075580D01*
X207657334Y-54504152D02*
X207657334Y-55504152D01*
X207657334Y-54551771D02*
X207752572Y-54504152D01*
X207752572Y-54504152D02*
X207943048Y-54504152D01*
X207943048Y-54504152D02*
X208038286Y-54551771D01*
X208038286Y-54551771D02*
X208085905Y-54599390D01*
X208085905Y-54599390D02*
X208133524Y-54694628D01*
X208133524Y-54694628D02*
X208133524Y-54980342D01*
X208133524Y-54980342D02*
X208085905Y-55075580D01*
X208085905Y-55075580D02*
X208038286Y-55123200D01*
X208038286Y-55123200D02*
X207943048Y-55170819D01*
X207943048Y-55170819D02*
X207752572Y-55170819D01*
X207752572Y-55170819D02*
X207657334Y-55123200D01*
X223281142Y-82720819D02*
X222947809Y-82244628D01*
X222709714Y-82720819D02*
X222709714Y-81720819D01*
X222709714Y-81720819D02*
X223090666Y-81720819D01*
X223090666Y-81720819D02*
X223185904Y-81768438D01*
X223185904Y-81768438D02*
X223233523Y-81816057D01*
X223233523Y-81816057D02*
X223281142Y-81911295D01*
X223281142Y-81911295D02*
X223281142Y-82054152D01*
X223281142Y-82054152D02*
X223233523Y-82149390D01*
X223233523Y-82149390D02*
X223185904Y-82197009D01*
X223185904Y-82197009D02*
X223090666Y-82244628D01*
X223090666Y-82244628D02*
X222709714Y-82244628D01*
X223614476Y-81720819D02*
X224233523Y-81720819D01*
X224233523Y-81720819D02*
X223900190Y-82101771D01*
X223900190Y-82101771D02*
X224043047Y-82101771D01*
X224043047Y-82101771D02*
X224138285Y-82149390D01*
X224138285Y-82149390D02*
X224185904Y-82197009D01*
X224185904Y-82197009D02*
X224233523Y-82292247D01*
X224233523Y-82292247D02*
X224233523Y-82530342D01*
X224233523Y-82530342D02*
X224185904Y-82625580D01*
X224185904Y-82625580D02*
X224138285Y-82673200D01*
X224138285Y-82673200D02*
X224043047Y-82720819D01*
X224043047Y-82720819D02*
X223757333Y-82720819D01*
X223757333Y-82720819D02*
X223662095Y-82673200D01*
X223662095Y-82673200D02*
X223614476Y-82625580D01*
X224852571Y-81720819D02*
X224947809Y-81720819D01*
X224947809Y-81720819D02*
X225043047Y-81768438D01*
X225043047Y-81768438D02*
X225090666Y-81816057D01*
X225090666Y-81816057D02*
X225138285Y-81911295D01*
X225138285Y-81911295D02*
X225185904Y-82101771D01*
X225185904Y-82101771D02*
X225185904Y-82339866D01*
X225185904Y-82339866D02*
X225138285Y-82530342D01*
X225138285Y-82530342D02*
X225090666Y-82625580D01*
X225090666Y-82625580D02*
X225043047Y-82673200D01*
X225043047Y-82673200D02*
X224947809Y-82720819D01*
X224947809Y-82720819D02*
X224852571Y-82720819D01*
X224852571Y-82720819D02*
X224757333Y-82673200D01*
X224757333Y-82673200D02*
X224709714Y-82625580D01*
X224709714Y-82625580D02*
X224662095Y-82530342D01*
X224662095Y-82530342D02*
X224614476Y-82339866D01*
X224614476Y-82339866D02*
X224614476Y-82101771D01*
X224614476Y-82101771D02*
X224662095Y-81911295D01*
X224662095Y-81911295D02*
X224709714Y-81816057D01*
X224709714Y-81816057D02*
X224757333Y-81768438D01*
X224757333Y-81768438D02*
X224852571Y-81720819D01*
X186412095Y-73620819D02*
X186412095Y-74430342D01*
X186412095Y-74430342D02*
X186459714Y-74525580D01*
X186459714Y-74525580D02*
X186507333Y-74573200D01*
X186507333Y-74573200D02*
X186602571Y-74620819D01*
X186602571Y-74620819D02*
X186793047Y-74620819D01*
X186793047Y-74620819D02*
X186888285Y-74573200D01*
X186888285Y-74573200D02*
X186935904Y-74525580D01*
X186935904Y-74525580D02*
X186983523Y-74430342D01*
X186983523Y-74430342D02*
X186983523Y-73620819D01*
X187983523Y-74620819D02*
X187412095Y-74620819D01*
X187697809Y-74620819D02*
X187697809Y-73620819D01*
X187697809Y-73620819D02*
X187602571Y-73763676D01*
X187602571Y-73763676D02*
X187507333Y-73858914D01*
X187507333Y-73858914D02*
X187412095Y-73906533D01*
X206114476Y-81520819D02*
X206114476Y-82235104D01*
X206114476Y-82235104D02*
X206066857Y-82377961D01*
X206066857Y-82377961D02*
X205971619Y-82473200D01*
X205971619Y-82473200D02*
X205828762Y-82520819D01*
X205828762Y-82520819D02*
X205733524Y-82520819D01*
X207114476Y-82520819D02*
X206543048Y-82520819D01*
X206828762Y-82520819D02*
X206828762Y-81520819D01*
X206828762Y-81520819D02*
X206733524Y-81663676D01*
X206733524Y-81663676D02*
X206638286Y-81758914D01*
X206638286Y-81758914D02*
X206543048Y-81806533D01*
X208066857Y-82520819D02*
X207495429Y-82520819D01*
X207781143Y-82520819D02*
X207781143Y-81520819D01*
X207781143Y-81520819D02*
X207685905Y-81663676D01*
X207685905Y-81663676D02*
X207590667Y-81758914D01*
X207590667Y-81758914D02*
X207495429Y-81806533D01*
X202338286Y-83920819D02*
X202338286Y-82920819D01*
X202338286Y-82920819D02*
X202671619Y-83635104D01*
X202671619Y-83635104D02*
X203004952Y-82920819D01*
X203004952Y-82920819D02*
X203004952Y-83920819D01*
X203481143Y-83920819D02*
X203481143Y-82920819D01*
X203481143Y-83397009D02*
X204052571Y-83397009D01*
X204052571Y-83920819D02*
X204052571Y-82920819D01*
X204433524Y-82920819D02*
X205100190Y-82920819D01*
X205100190Y-82920819D02*
X204433524Y-83920819D01*
X204433524Y-83920819D02*
X205100190Y-83920819D01*
X206004952Y-83920819D02*
X205433524Y-83920819D01*
X205719238Y-83920819D02*
X205719238Y-82920819D01*
X205719238Y-82920819D02*
X205624000Y-83063676D01*
X205624000Y-83063676D02*
X205528762Y-83158914D01*
X205528762Y-83158914D02*
X205433524Y-83206533D01*
X206481143Y-83920819D02*
X206671619Y-83920819D01*
X206671619Y-83920819D02*
X206766857Y-83873200D01*
X206766857Y-83873200D02*
X206814476Y-83825580D01*
X206814476Y-83825580D02*
X206909714Y-83682723D01*
X206909714Y-83682723D02*
X206957333Y-83492247D01*
X206957333Y-83492247D02*
X206957333Y-83111295D01*
X206957333Y-83111295D02*
X206909714Y-83016057D01*
X206909714Y-83016057D02*
X206862095Y-82968438D01*
X206862095Y-82968438D02*
X206766857Y-82920819D01*
X206766857Y-82920819D02*
X206576381Y-82920819D01*
X206576381Y-82920819D02*
X206481143Y-82968438D01*
X206481143Y-82968438D02*
X206433524Y-83016057D01*
X206433524Y-83016057D02*
X206385905Y-83111295D01*
X206385905Y-83111295D02*
X206385905Y-83349390D01*
X206385905Y-83349390D02*
X206433524Y-83444628D01*
X206433524Y-83444628D02*
X206481143Y-83492247D01*
X206481143Y-83492247D02*
X206576381Y-83539866D01*
X206576381Y-83539866D02*
X206766857Y-83539866D01*
X206766857Y-83539866D02*
X206862095Y-83492247D01*
X206862095Y-83492247D02*
X206909714Y-83444628D01*
X206909714Y-83444628D02*
X206957333Y-83349390D01*
X207719238Y-83397009D02*
X207862095Y-83444628D01*
X207862095Y-83444628D02*
X207909714Y-83492247D01*
X207909714Y-83492247D02*
X207957333Y-83587485D01*
X207957333Y-83587485D02*
X207957333Y-83730342D01*
X207957333Y-83730342D02*
X207909714Y-83825580D01*
X207909714Y-83825580D02*
X207862095Y-83873200D01*
X207862095Y-83873200D02*
X207766857Y-83920819D01*
X207766857Y-83920819D02*
X207385905Y-83920819D01*
X207385905Y-83920819D02*
X207385905Y-82920819D01*
X207385905Y-82920819D02*
X207719238Y-82920819D01*
X207719238Y-82920819D02*
X207814476Y-82968438D01*
X207814476Y-82968438D02*
X207862095Y-83016057D01*
X207862095Y-83016057D02*
X207909714Y-83111295D01*
X207909714Y-83111295D02*
X207909714Y-83206533D01*
X207909714Y-83206533D02*
X207862095Y-83301771D01*
X207862095Y-83301771D02*
X207814476Y-83349390D01*
X207814476Y-83349390D02*
X207719238Y-83397009D01*
X207719238Y-83397009D02*
X207385905Y-83397009D01*
X201416667Y-68157200D02*
X201559524Y-68204819D01*
X201559524Y-68204819D02*
X201797619Y-68204819D01*
X201797619Y-68204819D02*
X201892857Y-68157200D01*
X201892857Y-68157200D02*
X201940476Y-68109580D01*
X201940476Y-68109580D02*
X201988095Y-68014342D01*
X201988095Y-68014342D02*
X201988095Y-67919104D01*
X201988095Y-67919104D02*
X201940476Y-67823866D01*
X201940476Y-67823866D02*
X201892857Y-67776247D01*
X201892857Y-67776247D02*
X201797619Y-67728628D01*
X201797619Y-67728628D02*
X201607143Y-67681009D01*
X201607143Y-67681009D02*
X201511905Y-67633390D01*
X201511905Y-67633390D02*
X201464286Y-67585771D01*
X201464286Y-67585771D02*
X201416667Y-67490533D01*
X201416667Y-67490533D02*
X201416667Y-67395295D01*
X201416667Y-67395295D02*
X201464286Y-67300057D01*
X201464286Y-67300057D02*
X201511905Y-67252438D01*
X201511905Y-67252438D02*
X201607143Y-67204819D01*
X201607143Y-67204819D02*
X201845238Y-67204819D01*
X201845238Y-67204819D02*
X201988095Y-67252438D01*
X202321429Y-67204819D02*
X202559524Y-68204819D01*
X202559524Y-68204819D02*
X202750000Y-67490533D01*
X202750000Y-67490533D02*
X202940476Y-68204819D01*
X202940476Y-68204819D02*
X203178572Y-67204819D01*
X204083333Y-68204819D02*
X203511905Y-68204819D01*
X203797619Y-68204819D02*
X203797619Y-67204819D01*
X203797619Y-67204819D02*
X203702381Y-67347676D01*
X203702381Y-67347676D02*
X203607143Y-67442914D01*
X203607143Y-67442914D02*
X203511905Y-67490533D01*
X201321428Y-68931009D02*
X200988095Y-68931009D01*
X200988095Y-69454819D02*
X200988095Y-68454819D01*
X200988095Y-68454819D02*
X201464285Y-68454819D01*
X201988095Y-69454819D02*
X201892857Y-69407200D01*
X201892857Y-69407200D02*
X201845238Y-69311961D01*
X201845238Y-69311961D02*
X201845238Y-68454819D01*
X202797619Y-68788152D02*
X202797619Y-69454819D01*
X202369048Y-68788152D02*
X202369048Y-69311961D01*
X202369048Y-69311961D02*
X202416667Y-69407200D01*
X202416667Y-69407200D02*
X202511905Y-69454819D01*
X202511905Y-69454819D02*
X202654762Y-69454819D01*
X202654762Y-69454819D02*
X202750000Y-69407200D01*
X202750000Y-69407200D02*
X202797619Y-69359580D01*
X203226191Y-69407200D02*
X203321429Y-69454819D01*
X203321429Y-69454819D02*
X203511905Y-69454819D01*
X203511905Y-69454819D02*
X203607143Y-69407200D01*
X203607143Y-69407200D02*
X203654762Y-69311961D01*
X203654762Y-69311961D02*
X203654762Y-69264342D01*
X203654762Y-69264342D02*
X203607143Y-69169104D01*
X203607143Y-69169104D02*
X203511905Y-69121485D01*
X203511905Y-69121485D02*
X203369048Y-69121485D01*
X203369048Y-69121485D02*
X203273810Y-69073866D01*
X203273810Y-69073866D02*
X203226191Y-68978628D01*
X203226191Y-68978628D02*
X203226191Y-68931009D01*
X203226191Y-68931009D02*
X203273810Y-68835771D01*
X203273810Y-68835771D02*
X203369048Y-68788152D01*
X203369048Y-68788152D02*
X203511905Y-68788152D01*
X203511905Y-68788152D02*
X203607143Y-68835771D01*
X204083334Y-69454819D02*
X204083334Y-68454819D01*
X204511905Y-69454819D02*
X204511905Y-68931009D01*
X204511905Y-68931009D02*
X204464286Y-68835771D01*
X204464286Y-68835771D02*
X204369048Y-68788152D01*
X204369048Y-68788152D02*
X204226191Y-68788152D01*
X204226191Y-68788152D02*
X204130953Y-68835771D01*
X204130953Y-68835771D02*
X204083334Y-68883390D01*
X193607142Y-57859580D02*
X193559523Y-57907200D01*
X193559523Y-57907200D02*
X193416666Y-57954819D01*
X193416666Y-57954819D02*
X193321428Y-57954819D01*
X193321428Y-57954819D02*
X193178571Y-57907200D01*
X193178571Y-57907200D02*
X193083333Y-57811961D01*
X193083333Y-57811961D02*
X193035714Y-57716723D01*
X193035714Y-57716723D02*
X192988095Y-57526247D01*
X192988095Y-57526247D02*
X192988095Y-57383390D01*
X192988095Y-57383390D02*
X193035714Y-57192914D01*
X193035714Y-57192914D02*
X193083333Y-57097676D01*
X193083333Y-57097676D02*
X193178571Y-57002438D01*
X193178571Y-57002438D02*
X193321428Y-56954819D01*
X193321428Y-56954819D02*
X193416666Y-56954819D01*
X193416666Y-56954819D02*
X193559523Y-57002438D01*
X193559523Y-57002438D02*
X193607142Y-57050057D01*
X193988095Y-57050057D02*
X194035714Y-57002438D01*
X194035714Y-57002438D02*
X194130952Y-56954819D01*
X194130952Y-56954819D02*
X194369047Y-56954819D01*
X194369047Y-56954819D02*
X194464285Y-57002438D01*
X194464285Y-57002438D02*
X194511904Y-57050057D01*
X194511904Y-57050057D02*
X194559523Y-57145295D01*
X194559523Y-57145295D02*
X194559523Y-57240533D01*
X194559523Y-57240533D02*
X194511904Y-57383390D01*
X194511904Y-57383390D02*
X193940476Y-57954819D01*
X193940476Y-57954819D02*
X194559523Y-57954819D01*
X195416666Y-56954819D02*
X195226190Y-56954819D01*
X195226190Y-56954819D02*
X195130952Y-57002438D01*
X195130952Y-57002438D02*
X195083333Y-57050057D01*
X195083333Y-57050057D02*
X194988095Y-57192914D01*
X194988095Y-57192914D02*
X194940476Y-57383390D01*
X194940476Y-57383390D02*
X194940476Y-57764342D01*
X194940476Y-57764342D02*
X194988095Y-57859580D01*
X194988095Y-57859580D02*
X195035714Y-57907200D01*
X195035714Y-57907200D02*
X195130952Y-57954819D01*
X195130952Y-57954819D02*
X195321428Y-57954819D01*
X195321428Y-57954819D02*
X195416666Y-57907200D01*
X195416666Y-57907200D02*
X195464285Y-57859580D01*
X195464285Y-57859580D02*
X195511904Y-57764342D01*
X195511904Y-57764342D02*
X195511904Y-57526247D01*
X195511904Y-57526247D02*
X195464285Y-57431009D01*
X195464285Y-57431009D02*
X195416666Y-57383390D01*
X195416666Y-57383390D02*
X195321428Y-57335771D01*
X195321428Y-57335771D02*
X195130952Y-57335771D01*
X195130952Y-57335771D02*
X195035714Y-57383390D01*
X195035714Y-57383390D02*
X194988095Y-57431009D01*
X194988095Y-57431009D02*
X194940476Y-57526247D01*
X165835905Y-37820819D02*
X165835905Y-38630342D01*
X165835905Y-38630342D02*
X165883524Y-38725580D01*
X165883524Y-38725580D02*
X165931143Y-38773200D01*
X165931143Y-38773200D02*
X166026381Y-38820819D01*
X166026381Y-38820819D02*
X166216857Y-38820819D01*
X166216857Y-38820819D02*
X166312095Y-38773200D01*
X166312095Y-38773200D02*
X166359714Y-38725580D01*
X166359714Y-38725580D02*
X166407333Y-38630342D01*
X166407333Y-38630342D02*
X166407333Y-37820819D01*
X167407333Y-38820819D02*
X166835905Y-38820819D01*
X167121619Y-38820819D02*
X167121619Y-37820819D01*
X167121619Y-37820819D02*
X167026381Y-37963676D01*
X167026381Y-37963676D02*
X166931143Y-38058914D01*
X166931143Y-38058914D02*
X166835905Y-38106533D01*
X167788286Y-37916057D02*
X167835905Y-37868438D01*
X167835905Y-37868438D02*
X167931143Y-37820819D01*
X167931143Y-37820819D02*
X168169238Y-37820819D01*
X168169238Y-37820819D02*
X168264476Y-37868438D01*
X168264476Y-37868438D02*
X168312095Y-37916057D01*
X168312095Y-37916057D02*
X168359714Y-38011295D01*
X168359714Y-38011295D02*
X168359714Y-38106533D01*
X168359714Y-38106533D02*
X168312095Y-38249390D01*
X168312095Y-38249390D02*
X167740667Y-38820819D01*
X167740667Y-38820819D02*
X168359714Y-38820819D01*
X167440666Y-66570819D02*
X167440666Y-67285104D01*
X167440666Y-67285104D02*
X167393047Y-67427961D01*
X167393047Y-67427961D02*
X167297809Y-67523200D01*
X167297809Y-67523200D02*
X167154952Y-67570819D01*
X167154952Y-67570819D02*
X167059714Y-67570819D01*
X168440666Y-67570819D02*
X167869238Y-67570819D01*
X168154952Y-67570819D02*
X168154952Y-66570819D01*
X168154952Y-66570819D02*
X168059714Y-66713676D01*
X168059714Y-66713676D02*
X167964476Y-66808914D01*
X167964476Y-66808914D02*
X167869238Y-66856533D01*
X187662095Y-37770819D02*
X187662095Y-38580342D01*
X187662095Y-38580342D02*
X187709714Y-38675580D01*
X187709714Y-38675580D02*
X187757333Y-38723200D01*
X187757333Y-38723200D02*
X187852571Y-38770819D01*
X187852571Y-38770819D02*
X188043047Y-38770819D01*
X188043047Y-38770819D02*
X188138285Y-38723200D01*
X188138285Y-38723200D02*
X188185904Y-38675580D01*
X188185904Y-38675580D02*
X188233523Y-38580342D01*
X188233523Y-38580342D02*
X188233523Y-37770819D01*
X189185904Y-37770819D02*
X188709714Y-37770819D01*
X188709714Y-37770819D02*
X188662095Y-38247009D01*
X188662095Y-38247009D02*
X188709714Y-38199390D01*
X188709714Y-38199390D02*
X188804952Y-38151771D01*
X188804952Y-38151771D02*
X189043047Y-38151771D01*
X189043047Y-38151771D02*
X189138285Y-38199390D01*
X189138285Y-38199390D02*
X189185904Y-38247009D01*
X189185904Y-38247009D02*
X189233523Y-38342247D01*
X189233523Y-38342247D02*
X189233523Y-38580342D01*
X189233523Y-38580342D02*
X189185904Y-38675580D01*
X189185904Y-38675580D02*
X189138285Y-38723200D01*
X189138285Y-38723200D02*
X189043047Y-38770819D01*
X189043047Y-38770819D02*
X188804952Y-38770819D01*
X188804952Y-38770819D02*
X188709714Y-38723200D01*
X188709714Y-38723200D02*
X188662095Y-38675580D01*
X175707333Y-80270819D02*
X175374000Y-79794628D01*
X175135905Y-80270819D02*
X175135905Y-79270819D01*
X175135905Y-79270819D02*
X175516857Y-79270819D01*
X175516857Y-79270819D02*
X175612095Y-79318438D01*
X175612095Y-79318438D02*
X175659714Y-79366057D01*
X175659714Y-79366057D02*
X175707333Y-79461295D01*
X175707333Y-79461295D02*
X175707333Y-79604152D01*
X175707333Y-79604152D02*
X175659714Y-79699390D01*
X175659714Y-79699390D02*
X175612095Y-79747009D01*
X175612095Y-79747009D02*
X175516857Y-79794628D01*
X175516857Y-79794628D02*
X175135905Y-79794628D01*
X176659714Y-80270819D02*
X176088286Y-80270819D01*
X176374000Y-80270819D02*
X176374000Y-79270819D01*
X176374000Y-79270819D02*
X176278762Y-79413676D01*
X176278762Y-79413676D02*
X176183524Y-79508914D01*
X176183524Y-79508914D02*
X176088286Y-79556533D01*
X190107142Y-59704819D02*
X189773809Y-59228628D01*
X189535714Y-59704819D02*
X189535714Y-58704819D01*
X189535714Y-58704819D02*
X189916666Y-58704819D01*
X189916666Y-58704819D02*
X190011904Y-58752438D01*
X190011904Y-58752438D02*
X190059523Y-58800057D01*
X190059523Y-58800057D02*
X190107142Y-58895295D01*
X190107142Y-58895295D02*
X190107142Y-59038152D01*
X190107142Y-59038152D02*
X190059523Y-59133390D01*
X190059523Y-59133390D02*
X190011904Y-59181009D01*
X190011904Y-59181009D02*
X189916666Y-59228628D01*
X189916666Y-59228628D02*
X189535714Y-59228628D01*
X191059523Y-59704819D02*
X190488095Y-59704819D01*
X190773809Y-59704819D02*
X190773809Y-58704819D01*
X190773809Y-58704819D02*
X190678571Y-58847676D01*
X190678571Y-58847676D02*
X190583333Y-58942914D01*
X190583333Y-58942914D02*
X190488095Y-58990533D01*
X191964285Y-58704819D02*
X191488095Y-58704819D01*
X191488095Y-58704819D02*
X191440476Y-59181009D01*
X191440476Y-59181009D02*
X191488095Y-59133390D01*
X191488095Y-59133390D02*
X191583333Y-59085771D01*
X191583333Y-59085771D02*
X191821428Y-59085771D01*
X191821428Y-59085771D02*
X191916666Y-59133390D01*
X191916666Y-59133390D02*
X191964285Y-59181009D01*
X191964285Y-59181009D02*
X192011904Y-59276247D01*
X192011904Y-59276247D02*
X192011904Y-59514342D01*
X192011904Y-59514342D02*
X191964285Y-59609580D01*
X191964285Y-59609580D02*
X191916666Y-59657200D01*
X191916666Y-59657200D02*
X191821428Y-59704819D01*
X191821428Y-59704819D02*
X191583333Y-59704819D01*
X191583333Y-59704819D02*
X191488095Y-59657200D01*
X191488095Y-59657200D02*
X191440476Y-59609580D01*
X178428761Y-57420819D02*
X178095428Y-56944628D01*
X177857333Y-57420819D02*
X177857333Y-56420819D01*
X177857333Y-56420819D02*
X178238285Y-56420819D01*
X178238285Y-56420819D02*
X178333523Y-56468438D01*
X178333523Y-56468438D02*
X178381142Y-56516057D01*
X178381142Y-56516057D02*
X178428761Y-56611295D01*
X178428761Y-56611295D02*
X178428761Y-56754152D01*
X178428761Y-56754152D02*
X178381142Y-56849390D01*
X178381142Y-56849390D02*
X178333523Y-56897009D01*
X178333523Y-56897009D02*
X178238285Y-56944628D01*
X178238285Y-56944628D02*
X177857333Y-56944628D01*
X178714476Y-56420819D02*
X179047809Y-57420819D01*
X179047809Y-57420819D02*
X179381142Y-56420819D01*
X179619238Y-56420819D02*
X180238285Y-56420819D01*
X180238285Y-56420819D02*
X179904952Y-56801771D01*
X179904952Y-56801771D02*
X180047809Y-56801771D01*
X180047809Y-56801771D02*
X180143047Y-56849390D01*
X180143047Y-56849390D02*
X180190666Y-56897009D01*
X180190666Y-56897009D02*
X180238285Y-56992247D01*
X180238285Y-56992247D02*
X180238285Y-57230342D01*
X180238285Y-57230342D02*
X180190666Y-57325580D01*
X180190666Y-57325580D02*
X180143047Y-57373200D01*
X180143047Y-57373200D02*
X180047809Y-57420819D01*
X180047809Y-57420819D02*
X179762095Y-57420819D01*
X179762095Y-57420819D02*
X179666857Y-57373200D01*
X179666857Y-57373200D02*
X179619238Y-57325580D01*
X173259714Y-58620819D02*
X173259714Y-57620819D01*
X173259714Y-58097009D02*
X173831142Y-58097009D01*
X173831142Y-58620819D02*
X173831142Y-57620819D01*
X174259714Y-57716057D02*
X174307333Y-57668438D01*
X174307333Y-57668438D02*
X174402571Y-57620819D01*
X174402571Y-57620819D02*
X174640666Y-57620819D01*
X174640666Y-57620819D02*
X174735904Y-57668438D01*
X174735904Y-57668438D02*
X174783523Y-57716057D01*
X174783523Y-57716057D02*
X174831142Y-57811295D01*
X174831142Y-57811295D02*
X174831142Y-57906533D01*
X174831142Y-57906533D02*
X174783523Y-58049390D01*
X174783523Y-58049390D02*
X174212095Y-58620819D01*
X174212095Y-58620819D02*
X174831142Y-58620819D01*
X175212095Y-58573200D02*
X175354952Y-58620819D01*
X175354952Y-58620819D02*
X175593047Y-58620819D01*
X175593047Y-58620819D02*
X175688285Y-58573200D01*
X175688285Y-58573200D02*
X175735904Y-58525580D01*
X175735904Y-58525580D02*
X175783523Y-58430342D01*
X175783523Y-58430342D02*
X175783523Y-58335104D01*
X175783523Y-58335104D02*
X175735904Y-58239866D01*
X175735904Y-58239866D02*
X175688285Y-58192247D01*
X175688285Y-58192247D02*
X175593047Y-58144628D01*
X175593047Y-58144628D02*
X175402571Y-58097009D01*
X175402571Y-58097009D02*
X175307333Y-58049390D01*
X175307333Y-58049390D02*
X175259714Y-58001771D01*
X175259714Y-58001771D02*
X175212095Y-57906533D01*
X175212095Y-57906533D02*
X175212095Y-57811295D01*
X175212095Y-57811295D02*
X175259714Y-57716057D01*
X175259714Y-57716057D02*
X175307333Y-57668438D01*
X175307333Y-57668438D02*
X175402571Y-57620819D01*
X175402571Y-57620819D02*
X175640666Y-57620819D01*
X175640666Y-57620819D02*
X175783523Y-57668438D01*
X176926381Y-58573200D02*
X177069238Y-58620819D01*
X177069238Y-58620819D02*
X177307333Y-58620819D01*
X177307333Y-58620819D02*
X177402571Y-58573200D01*
X177402571Y-58573200D02*
X177450190Y-58525580D01*
X177450190Y-58525580D02*
X177497809Y-58430342D01*
X177497809Y-58430342D02*
X177497809Y-58335104D01*
X177497809Y-58335104D02*
X177450190Y-58239866D01*
X177450190Y-58239866D02*
X177402571Y-58192247D01*
X177402571Y-58192247D02*
X177307333Y-58144628D01*
X177307333Y-58144628D02*
X177116857Y-58097009D01*
X177116857Y-58097009D02*
X177021619Y-58049390D01*
X177021619Y-58049390D02*
X176974000Y-58001771D01*
X176974000Y-58001771D02*
X176926381Y-57906533D01*
X176926381Y-57906533D02*
X176926381Y-57811295D01*
X176926381Y-57811295D02*
X176974000Y-57716057D01*
X176974000Y-57716057D02*
X177021619Y-57668438D01*
X177021619Y-57668438D02*
X177116857Y-57620819D01*
X177116857Y-57620819D02*
X177354952Y-57620819D01*
X177354952Y-57620819D02*
X177497809Y-57668438D01*
X178307333Y-58573200D02*
X178212095Y-58620819D01*
X178212095Y-58620819D02*
X178021619Y-58620819D01*
X178021619Y-58620819D02*
X177926381Y-58573200D01*
X177926381Y-58573200D02*
X177878762Y-58477961D01*
X177878762Y-58477961D02*
X177878762Y-58097009D01*
X177878762Y-58097009D02*
X177926381Y-58001771D01*
X177926381Y-58001771D02*
X178021619Y-57954152D01*
X178021619Y-57954152D02*
X178212095Y-57954152D01*
X178212095Y-57954152D02*
X178307333Y-58001771D01*
X178307333Y-58001771D02*
X178354952Y-58097009D01*
X178354952Y-58097009D02*
X178354952Y-58192247D01*
X178354952Y-58192247D02*
X177878762Y-58287485D01*
X178640667Y-57954152D02*
X179021619Y-57954152D01*
X178783524Y-57620819D02*
X178783524Y-58477961D01*
X178783524Y-58477961D02*
X178831143Y-58573200D01*
X178831143Y-58573200D02*
X178926381Y-58620819D01*
X178926381Y-58620819D02*
X179021619Y-58620819D01*
X179783524Y-57954152D02*
X179783524Y-58620819D01*
X179354953Y-57954152D02*
X179354953Y-58477961D01*
X179354953Y-58477961D02*
X179402572Y-58573200D01*
X179402572Y-58573200D02*
X179497810Y-58620819D01*
X179497810Y-58620819D02*
X179640667Y-58620819D01*
X179640667Y-58620819D02*
X179735905Y-58573200D01*
X179735905Y-58573200D02*
X179783524Y-58525580D01*
X180259715Y-57954152D02*
X180259715Y-58954152D01*
X180259715Y-58001771D02*
X180354953Y-57954152D01*
X180354953Y-57954152D02*
X180545429Y-57954152D01*
X180545429Y-57954152D02*
X180640667Y-58001771D01*
X180640667Y-58001771D02*
X180688286Y-58049390D01*
X180688286Y-58049390D02*
X180735905Y-58144628D01*
X180735905Y-58144628D02*
X180735905Y-58430342D01*
X180735905Y-58430342D02*
X180688286Y-58525580D01*
X180688286Y-58525580D02*
X180640667Y-58573200D01*
X180640667Y-58573200D02*
X180545429Y-58620819D01*
X180545429Y-58620819D02*
X180354953Y-58620819D01*
X180354953Y-58620819D02*
X180259715Y-58573200D01*
X184857333Y-82375580D02*
X184809714Y-82423200D01*
X184809714Y-82423200D02*
X184666857Y-82470819D01*
X184666857Y-82470819D02*
X184571619Y-82470819D01*
X184571619Y-82470819D02*
X184428762Y-82423200D01*
X184428762Y-82423200D02*
X184333524Y-82327961D01*
X184333524Y-82327961D02*
X184285905Y-82232723D01*
X184285905Y-82232723D02*
X184238286Y-82042247D01*
X184238286Y-82042247D02*
X184238286Y-81899390D01*
X184238286Y-81899390D02*
X184285905Y-81708914D01*
X184285905Y-81708914D02*
X184333524Y-81613676D01*
X184333524Y-81613676D02*
X184428762Y-81518438D01*
X184428762Y-81518438D02*
X184571619Y-81470819D01*
X184571619Y-81470819D02*
X184666857Y-81470819D01*
X184666857Y-81470819D02*
X184809714Y-81518438D01*
X184809714Y-81518438D02*
X184857333Y-81566057D01*
X185809714Y-82470819D02*
X185238286Y-82470819D01*
X185524000Y-82470819D02*
X185524000Y-81470819D01*
X185524000Y-81470819D02*
X185428762Y-81613676D01*
X185428762Y-81613676D02*
X185333524Y-81708914D01*
X185333524Y-81708914D02*
X185238286Y-81756533D01*
X186290666Y-63220819D02*
X186290666Y-63935104D01*
X186290666Y-63935104D02*
X186243047Y-64077961D01*
X186243047Y-64077961D02*
X186147809Y-64173200D01*
X186147809Y-64173200D02*
X186004952Y-64220819D01*
X186004952Y-64220819D02*
X185909714Y-64220819D01*
X186766857Y-64220819D02*
X186766857Y-63220819D01*
X186766857Y-63220819D02*
X187147809Y-63220819D01*
X187147809Y-63220819D02*
X187243047Y-63268438D01*
X187243047Y-63268438D02*
X187290666Y-63316057D01*
X187290666Y-63316057D02*
X187338285Y-63411295D01*
X187338285Y-63411295D02*
X187338285Y-63554152D01*
X187338285Y-63554152D02*
X187290666Y-63649390D01*
X187290666Y-63649390D02*
X187243047Y-63697009D01*
X187243047Y-63697009D02*
X187147809Y-63744628D01*
X187147809Y-63744628D02*
X186766857Y-63744628D01*
X187719238Y-63316057D02*
X187766857Y-63268438D01*
X187766857Y-63268438D02*
X187862095Y-63220819D01*
X187862095Y-63220819D02*
X188100190Y-63220819D01*
X188100190Y-63220819D02*
X188195428Y-63268438D01*
X188195428Y-63268438D02*
X188243047Y-63316057D01*
X188243047Y-63316057D02*
X188290666Y-63411295D01*
X188290666Y-63411295D02*
X188290666Y-63506533D01*
X188290666Y-63506533D02*
X188243047Y-63649390D01*
X188243047Y-63649390D02*
X187671619Y-64220819D01*
X187671619Y-64220819D02*
X188290666Y-64220819D01*
X184871618Y-65670819D02*
X184538285Y-65194628D01*
X184300190Y-65670819D02*
X184300190Y-64670819D01*
X184300190Y-64670819D02*
X184681142Y-64670819D01*
X184681142Y-64670819D02*
X184776380Y-64718438D01*
X184776380Y-64718438D02*
X184823999Y-64766057D01*
X184823999Y-64766057D02*
X184871618Y-64861295D01*
X184871618Y-64861295D02*
X184871618Y-65004152D01*
X184871618Y-65004152D02*
X184823999Y-65099390D01*
X184823999Y-65099390D02*
X184776380Y-65147009D01*
X184776380Y-65147009D02*
X184681142Y-65194628D01*
X184681142Y-65194628D02*
X184300190Y-65194628D01*
X185300190Y-65147009D02*
X185633523Y-65147009D01*
X185776380Y-65670819D02*
X185300190Y-65670819D01*
X185300190Y-65670819D02*
X185300190Y-64670819D01*
X185300190Y-64670819D02*
X185776380Y-64670819D01*
X186157333Y-65623200D02*
X186300190Y-65670819D01*
X186300190Y-65670819D02*
X186538285Y-65670819D01*
X186538285Y-65670819D02*
X186633523Y-65623200D01*
X186633523Y-65623200D02*
X186681142Y-65575580D01*
X186681142Y-65575580D02*
X186728761Y-65480342D01*
X186728761Y-65480342D02*
X186728761Y-65385104D01*
X186728761Y-65385104D02*
X186681142Y-65289866D01*
X186681142Y-65289866D02*
X186633523Y-65242247D01*
X186633523Y-65242247D02*
X186538285Y-65194628D01*
X186538285Y-65194628D02*
X186347809Y-65147009D01*
X186347809Y-65147009D02*
X186252571Y-65099390D01*
X186252571Y-65099390D02*
X186204952Y-65051771D01*
X186204952Y-65051771D02*
X186157333Y-64956533D01*
X186157333Y-64956533D02*
X186157333Y-64861295D01*
X186157333Y-64861295D02*
X186204952Y-64766057D01*
X186204952Y-64766057D02*
X186252571Y-64718438D01*
X186252571Y-64718438D02*
X186347809Y-64670819D01*
X186347809Y-64670819D02*
X186585904Y-64670819D01*
X186585904Y-64670819D02*
X186728761Y-64718438D01*
X187157333Y-65147009D02*
X187490666Y-65147009D01*
X187633523Y-65670819D02*
X187157333Y-65670819D01*
X187157333Y-65670819D02*
X187157333Y-64670819D01*
X187157333Y-64670819D02*
X187633523Y-64670819D01*
X187919238Y-64670819D02*
X188490666Y-64670819D01*
X188204952Y-65670819D02*
X188204952Y-64670819D01*
X190416667Y-71157200D02*
X190559524Y-71204819D01*
X190559524Y-71204819D02*
X190797619Y-71204819D01*
X190797619Y-71204819D02*
X190892857Y-71157200D01*
X190892857Y-71157200D02*
X190940476Y-71109580D01*
X190940476Y-71109580D02*
X190988095Y-71014342D01*
X190988095Y-71014342D02*
X190988095Y-70919104D01*
X190988095Y-70919104D02*
X190940476Y-70823866D01*
X190940476Y-70823866D02*
X190892857Y-70776247D01*
X190892857Y-70776247D02*
X190797619Y-70728628D01*
X190797619Y-70728628D02*
X190607143Y-70681009D01*
X190607143Y-70681009D02*
X190511905Y-70633390D01*
X190511905Y-70633390D02*
X190464286Y-70585771D01*
X190464286Y-70585771D02*
X190416667Y-70490533D01*
X190416667Y-70490533D02*
X190416667Y-70395295D01*
X190416667Y-70395295D02*
X190464286Y-70300057D01*
X190464286Y-70300057D02*
X190511905Y-70252438D01*
X190511905Y-70252438D02*
X190607143Y-70204819D01*
X190607143Y-70204819D02*
X190845238Y-70204819D01*
X190845238Y-70204819D02*
X190988095Y-70252438D01*
X191321429Y-70204819D02*
X191559524Y-71204819D01*
X191559524Y-71204819D02*
X191750000Y-70490533D01*
X191750000Y-70490533D02*
X191940476Y-71204819D01*
X191940476Y-71204819D02*
X192178572Y-70204819D01*
X192464286Y-70204819D02*
X193083333Y-70204819D01*
X193083333Y-70204819D02*
X192750000Y-70585771D01*
X192750000Y-70585771D02*
X192892857Y-70585771D01*
X192892857Y-70585771D02*
X192988095Y-70633390D01*
X192988095Y-70633390D02*
X193035714Y-70681009D01*
X193035714Y-70681009D02*
X193083333Y-70776247D01*
X193083333Y-70776247D02*
X193083333Y-71014342D01*
X193083333Y-71014342D02*
X193035714Y-71109580D01*
X193035714Y-71109580D02*
X192988095Y-71157200D01*
X192988095Y-71157200D02*
X192892857Y-71204819D01*
X192892857Y-71204819D02*
X192607143Y-71204819D01*
X192607143Y-71204819D02*
X192511905Y-71157200D01*
X192511905Y-71157200D02*
X192464286Y-71109580D01*
X187678570Y-72609580D02*
X187630951Y-72657200D01*
X187630951Y-72657200D02*
X187488094Y-72704819D01*
X187488094Y-72704819D02*
X187392856Y-72704819D01*
X187392856Y-72704819D02*
X187249999Y-72657200D01*
X187249999Y-72657200D02*
X187154761Y-72561961D01*
X187154761Y-72561961D02*
X187107142Y-72466723D01*
X187107142Y-72466723D02*
X187059523Y-72276247D01*
X187059523Y-72276247D02*
X187059523Y-72133390D01*
X187059523Y-72133390D02*
X187107142Y-71942914D01*
X187107142Y-71942914D02*
X187154761Y-71847676D01*
X187154761Y-71847676D02*
X187249999Y-71752438D01*
X187249999Y-71752438D02*
X187392856Y-71704819D01*
X187392856Y-71704819D02*
X187488094Y-71704819D01*
X187488094Y-71704819D02*
X187630951Y-71752438D01*
X187630951Y-71752438D02*
X187678570Y-71800057D01*
X188535713Y-72704819D02*
X188535713Y-72181009D01*
X188535713Y-72181009D02*
X188488094Y-72085771D01*
X188488094Y-72085771D02*
X188392856Y-72038152D01*
X188392856Y-72038152D02*
X188202380Y-72038152D01*
X188202380Y-72038152D02*
X188107142Y-72085771D01*
X188535713Y-72657200D02*
X188440475Y-72704819D01*
X188440475Y-72704819D02*
X188202380Y-72704819D01*
X188202380Y-72704819D02*
X188107142Y-72657200D01*
X188107142Y-72657200D02*
X188059523Y-72561961D01*
X188059523Y-72561961D02*
X188059523Y-72466723D01*
X188059523Y-72466723D02*
X188107142Y-72371485D01*
X188107142Y-72371485D02*
X188202380Y-72323866D01*
X188202380Y-72323866D02*
X188440475Y-72323866D01*
X188440475Y-72323866D02*
X188535713Y-72276247D01*
X189154761Y-72704819D02*
X189059523Y-72657200D01*
X189059523Y-72657200D02*
X189011904Y-72561961D01*
X189011904Y-72561961D02*
X189011904Y-71704819D01*
X189535714Y-72704819D02*
X189535714Y-72038152D01*
X189535714Y-71704819D02*
X189488095Y-71752438D01*
X189488095Y-71752438D02*
X189535714Y-71800057D01*
X189535714Y-71800057D02*
X189583333Y-71752438D01*
X189583333Y-71752438D02*
X189535714Y-71704819D01*
X189535714Y-71704819D02*
X189535714Y-71800057D01*
X190011904Y-72704819D02*
X190011904Y-71704819D01*
X190011904Y-72085771D02*
X190107142Y-72038152D01*
X190107142Y-72038152D02*
X190297618Y-72038152D01*
X190297618Y-72038152D02*
X190392856Y-72085771D01*
X190392856Y-72085771D02*
X190440475Y-72133390D01*
X190440475Y-72133390D02*
X190488094Y-72228628D01*
X190488094Y-72228628D02*
X190488094Y-72514342D01*
X190488094Y-72514342D02*
X190440475Y-72609580D01*
X190440475Y-72609580D02*
X190392856Y-72657200D01*
X190392856Y-72657200D02*
X190297618Y-72704819D01*
X190297618Y-72704819D02*
X190107142Y-72704819D01*
X190107142Y-72704819D02*
X190011904Y-72657200D01*
X190916666Y-72704819D02*
X190916666Y-72038152D01*
X190916666Y-72228628D02*
X190964285Y-72133390D01*
X190964285Y-72133390D02*
X191011904Y-72085771D01*
X191011904Y-72085771D02*
X191107142Y-72038152D01*
X191107142Y-72038152D02*
X191202380Y-72038152D01*
X191964285Y-72704819D02*
X191964285Y-72181009D01*
X191964285Y-72181009D02*
X191916666Y-72085771D01*
X191916666Y-72085771D02*
X191821428Y-72038152D01*
X191821428Y-72038152D02*
X191630952Y-72038152D01*
X191630952Y-72038152D02*
X191535714Y-72085771D01*
X191964285Y-72657200D02*
X191869047Y-72704819D01*
X191869047Y-72704819D02*
X191630952Y-72704819D01*
X191630952Y-72704819D02*
X191535714Y-72657200D01*
X191535714Y-72657200D02*
X191488095Y-72561961D01*
X191488095Y-72561961D02*
X191488095Y-72466723D01*
X191488095Y-72466723D02*
X191535714Y-72371485D01*
X191535714Y-72371485D02*
X191630952Y-72323866D01*
X191630952Y-72323866D02*
X191869047Y-72323866D01*
X191869047Y-72323866D02*
X191964285Y-72276247D01*
X192297619Y-72038152D02*
X192678571Y-72038152D01*
X192440476Y-71704819D02*
X192440476Y-72561961D01*
X192440476Y-72561961D02*
X192488095Y-72657200D01*
X192488095Y-72657200D02*
X192583333Y-72704819D01*
X192583333Y-72704819D02*
X192678571Y-72704819D01*
X193392857Y-72657200D02*
X193297619Y-72704819D01*
X193297619Y-72704819D02*
X193107143Y-72704819D01*
X193107143Y-72704819D02*
X193011905Y-72657200D01*
X193011905Y-72657200D02*
X192964286Y-72561961D01*
X192964286Y-72561961D02*
X192964286Y-72181009D01*
X192964286Y-72181009D02*
X193011905Y-72085771D01*
X193011905Y-72085771D02*
X193107143Y-72038152D01*
X193107143Y-72038152D02*
X193297619Y-72038152D01*
X193297619Y-72038152D02*
X193392857Y-72085771D01*
X193392857Y-72085771D02*
X193440476Y-72181009D01*
X193440476Y-72181009D02*
X193440476Y-72276247D01*
X193440476Y-72276247D02*
X192964286Y-72371485D01*
X208808095Y-56844819D02*
X208808095Y-57654342D01*
X208808095Y-57654342D02*
X208855714Y-57749580D01*
X208855714Y-57749580D02*
X208903333Y-57797200D01*
X208903333Y-57797200D02*
X208998571Y-57844819D01*
X208998571Y-57844819D02*
X209189047Y-57844819D01*
X209189047Y-57844819D02*
X209284285Y-57797200D01*
X209284285Y-57797200D02*
X209331904Y-57749580D01*
X209331904Y-57749580D02*
X209379523Y-57654342D01*
X209379523Y-57654342D02*
X209379523Y-56844819D01*
X209998571Y-57273390D02*
X209903333Y-57225771D01*
X209903333Y-57225771D02*
X209855714Y-57178152D01*
X209855714Y-57178152D02*
X209808095Y-57082914D01*
X209808095Y-57082914D02*
X209808095Y-57035295D01*
X209808095Y-57035295D02*
X209855714Y-56940057D01*
X209855714Y-56940057D02*
X209903333Y-56892438D01*
X209903333Y-56892438D02*
X209998571Y-56844819D01*
X209998571Y-56844819D02*
X210189047Y-56844819D01*
X210189047Y-56844819D02*
X210284285Y-56892438D01*
X210284285Y-56892438D02*
X210331904Y-56940057D01*
X210331904Y-56940057D02*
X210379523Y-57035295D01*
X210379523Y-57035295D02*
X210379523Y-57082914D01*
X210379523Y-57082914D02*
X210331904Y-57178152D01*
X210331904Y-57178152D02*
X210284285Y-57225771D01*
X210284285Y-57225771D02*
X210189047Y-57273390D01*
X210189047Y-57273390D02*
X209998571Y-57273390D01*
X209998571Y-57273390D02*
X209903333Y-57321009D01*
X209903333Y-57321009D02*
X209855714Y-57368628D01*
X209855714Y-57368628D02*
X209808095Y-57463866D01*
X209808095Y-57463866D02*
X209808095Y-57654342D01*
X209808095Y-57654342D02*
X209855714Y-57749580D01*
X209855714Y-57749580D02*
X209903333Y-57797200D01*
X209903333Y-57797200D02*
X209998571Y-57844819D01*
X209998571Y-57844819D02*
X210189047Y-57844819D01*
X210189047Y-57844819D02*
X210284285Y-57797200D01*
X210284285Y-57797200D02*
X210331904Y-57749580D01*
X210331904Y-57749580D02*
X210379523Y-57654342D01*
X210379523Y-57654342D02*
X210379523Y-57463866D01*
X210379523Y-57463866D02*
X210331904Y-57368628D01*
X210331904Y-57368628D02*
X210284285Y-57321009D01*
X210284285Y-57321009D02*
X210189047Y-57273390D01*
X196990666Y-88570819D02*
X196990666Y-89285104D01*
X196990666Y-89285104D02*
X196943047Y-89427961D01*
X196943047Y-89427961D02*
X196847809Y-89523200D01*
X196847809Y-89523200D02*
X196704952Y-89570819D01*
X196704952Y-89570819D02*
X196609714Y-89570819D01*
X197943047Y-88570819D02*
X197466857Y-88570819D01*
X197466857Y-88570819D02*
X197419238Y-89047009D01*
X197419238Y-89047009D02*
X197466857Y-88999390D01*
X197466857Y-88999390D02*
X197562095Y-88951771D01*
X197562095Y-88951771D02*
X197800190Y-88951771D01*
X197800190Y-88951771D02*
X197895428Y-88999390D01*
X197895428Y-88999390D02*
X197943047Y-89047009D01*
X197943047Y-89047009D02*
X197990666Y-89142247D01*
X197990666Y-89142247D02*
X197990666Y-89380342D01*
X197990666Y-89380342D02*
X197943047Y-89475580D01*
X197943047Y-89475580D02*
X197895428Y-89523200D01*
X197895428Y-89523200D02*
X197800190Y-89570819D01*
X197800190Y-89570819D02*
X197562095Y-89570819D01*
X197562095Y-89570819D02*
X197466857Y-89523200D01*
X197466857Y-89523200D02*
X197419238Y-89475580D01*
X191559714Y-91170819D02*
X191559714Y-90170819D01*
X191559714Y-90170819D02*
X191940666Y-90170819D01*
X191940666Y-90170819D02*
X192035904Y-90218438D01*
X192035904Y-90218438D02*
X192083523Y-90266057D01*
X192083523Y-90266057D02*
X192131142Y-90361295D01*
X192131142Y-90361295D02*
X192131142Y-90504152D01*
X192131142Y-90504152D02*
X192083523Y-90599390D01*
X192083523Y-90599390D02*
X192035904Y-90647009D01*
X192035904Y-90647009D02*
X191940666Y-90694628D01*
X191940666Y-90694628D02*
X191559714Y-90694628D01*
X192559714Y-91170819D02*
X192559714Y-90170819D01*
X192559714Y-90170819D02*
X192893047Y-90885104D01*
X192893047Y-90885104D02*
X193226380Y-90170819D01*
X193226380Y-90170819D02*
X193226380Y-91170819D01*
X193654952Y-91123200D02*
X193797809Y-91170819D01*
X193797809Y-91170819D02*
X194035904Y-91170819D01*
X194035904Y-91170819D02*
X194131142Y-91123200D01*
X194131142Y-91123200D02*
X194178761Y-91075580D01*
X194178761Y-91075580D02*
X194226380Y-90980342D01*
X194226380Y-90980342D02*
X194226380Y-90885104D01*
X194226380Y-90885104D02*
X194178761Y-90789866D01*
X194178761Y-90789866D02*
X194131142Y-90742247D01*
X194131142Y-90742247D02*
X194035904Y-90694628D01*
X194035904Y-90694628D02*
X193845428Y-90647009D01*
X193845428Y-90647009D02*
X193750190Y-90599390D01*
X193750190Y-90599390D02*
X193702571Y-90551771D01*
X193702571Y-90551771D02*
X193654952Y-90456533D01*
X193654952Y-90456533D02*
X193654952Y-90361295D01*
X193654952Y-90361295D02*
X193702571Y-90266057D01*
X193702571Y-90266057D02*
X193750190Y-90218438D01*
X193750190Y-90218438D02*
X193845428Y-90170819D01*
X193845428Y-90170819D02*
X194083523Y-90170819D01*
X194083523Y-90170819D02*
X194226380Y-90218438D01*
X194559714Y-90170819D02*
X195226380Y-90170819D01*
X195226380Y-90170819D02*
X194797809Y-91170819D01*
X195797809Y-90170819D02*
X195893047Y-90170819D01*
X195893047Y-90170819D02*
X195988285Y-90218438D01*
X195988285Y-90218438D02*
X196035904Y-90266057D01*
X196035904Y-90266057D02*
X196083523Y-90361295D01*
X196083523Y-90361295D02*
X196131142Y-90551771D01*
X196131142Y-90551771D02*
X196131142Y-90789866D01*
X196131142Y-90789866D02*
X196083523Y-90980342D01*
X196083523Y-90980342D02*
X196035904Y-91075580D01*
X196035904Y-91075580D02*
X195988285Y-91123200D01*
X195988285Y-91123200D02*
X195893047Y-91170819D01*
X195893047Y-91170819D02*
X195797809Y-91170819D01*
X195797809Y-91170819D02*
X195702571Y-91123200D01*
X195702571Y-91123200D02*
X195654952Y-91075580D01*
X195654952Y-91075580D02*
X195607333Y-90980342D01*
X195607333Y-90980342D02*
X195559714Y-90789866D01*
X195559714Y-90789866D02*
X195559714Y-90551771D01*
X195559714Y-90551771D02*
X195607333Y-90361295D01*
X195607333Y-90361295D02*
X195654952Y-90266057D01*
X195654952Y-90266057D02*
X195702571Y-90218438D01*
X195702571Y-90218438D02*
X195797809Y-90170819D01*
X196750190Y-90170819D02*
X196845428Y-90170819D01*
X196845428Y-90170819D02*
X196940666Y-90218438D01*
X196940666Y-90218438D02*
X196988285Y-90266057D01*
X196988285Y-90266057D02*
X197035904Y-90361295D01*
X197035904Y-90361295D02*
X197083523Y-90551771D01*
X197083523Y-90551771D02*
X197083523Y-90789866D01*
X197083523Y-90789866D02*
X197035904Y-90980342D01*
X197035904Y-90980342D02*
X196988285Y-91075580D01*
X196988285Y-91075580D02*
X196940666Y-91123200D01*
X196940666Y-91123200D02*
X196845428Y-91170819D01*
X196845428Y-91170819D02*
X196750190Y-91170819D01*
X196750190Y-91170819D02*
X196654952Y-91123200D01*
X196654952Y-91123200D02*
X196607333Y-91075580D01*
X196607333Y-91075580D02*
X196559714Y-90980342D01*
X196559714Y-90980342D02*
X196512095Y-90789866D01*
X196512095Y-90789866D02*
X196512095Y-90551771D01*
X196512095Y-90551771D02*
X196559714Y-90361295D01*
X196559714Y-90361295D02*
X196607333Y-90266057D01*
X196607333Y-90266057D02*
X196654952Y-90218438D01*
X196654952Y-90218438D02*
X196750190Y-90170819D01*
X197416857Y-90170819D02*
X198035904Y-90170819D01*
X198035904Y-90170819D02*
X197702571Y-90551771D01*
X197702571Y-90551771D02*
X197845428Y-90551771D01*
X197845428Y-90551771D02*
X197940666Y-90599390D01*
X197940666Y-90599390D02*
X197988285Y-90647009D01*
X197988285Y-90647009D02*
X198035904Y-90742247D01*
X198035904Y-90742247D02*
X198035904Y-90980342D01*
X198035904Y-90980342D02*
X197988285Y-91075580D01*
X197988285Y-91075580D02*
X197940666Y-91123200D01*
X197940666Y-91123200D02*
X197845428Y-91170819D01*
X197845428Y-91170819D02*
X197559714Y-91170819D01*
X197559714Y-91170819D02*
X197464476Y-91123200D01*
X197464476Y-91123200D02*
X197416857Y-91075580D01*
X178257333Y-74525580D02*
X178209714Y-74573200D01*
X178209714Y-74573200D02*
X178066857Y-74620819D01*
X178066857Y-74620819D02*
X177971619Y-74620819D01*
X177971619Y-74620819D02*
X177828762Y-74573200D01*
X177828762Y-74573200D02*
X177733524Y-74477961D01*
X177733524Y-74477961D02*
X177685905Y-74382723D01*
X177685905Y-74382723D02*
X177638286Y-74192247D01*
X177638286Y-74192247D02*
X177638286Y-74049390D01*
X177638286Y-74049390D02*
X177685905Y-73858914D01*
X177685905Y-73858914D02*
X177733524Y-73763676D01*
X177733524Y-73763676D02*
X177828762Y-73668438D01*
X177828762Y-73668438D02*
X177971619Y-73620819D01*
X177971619Y-73620819D02*
X178066857Y-73620819D01*
X178066857Y-73620819D02*
X178209714Y-73668438D01*
X178209714Y-73668438D02*
X178257333Y-73716057D01*
X178590667Y-73620819D02*
X179209714Y-73620819D01*
X179209714Y-73620819D02*
X178876381Y-74001771D01*
X178876381Y-74001771D02*
X179019238Y-74001771D01*
X179019238Y-74001771D02*
X179114476Y-74049390D01*
X179114476Y-74049390D02*
X179162095Y-74097009D01*
X179162095Y-74097009D02*
X179209714Y-74192247D01*
X179209714Y-74192247D02*
X179209714Y-74430342D01*
X179209714Y-74430342D02*
X179162095Y-74525580D01*
X179162095Y-74525580D02*
X179114476Y-74573200D01*
X179114476Y-74573200D02*
X179019238Y-74620819D01*
X179019238Y-74620819D02*
X178733524Y-74620819D01*
X178733524Y-74620819D02*
X178638286Y-74573200D01*
X178638286Y-74573200D02*
X178590667Y-74525580D01*
X193607142Y-59109580D02*
X193559523Y-59157200D01*
X193559523Y-59157200D02*
X193416666Y-59204819D01*
X193416666Y-59204819D02*
X193321428Y-59204819D01*
X193321428Y-59204819D02*
X193178571Y-59157200D01*
X193178571Y-59157200D02*
X193083333Y-59061961D01*
X193083333Y-59061961D02*
X193035714Y-58966723D01*
X193035714Y-58966723D02*
X192988095Y-58776247D01*
X192988095Y-58776247D02*
X192988095Y-58633390D01*
X192988095Y-58633390D02*
X193035714Y-58442914D01*
X193035714Y-58442914D02*
X193083333Y-58347676D01*
X193083333Y-58347676D02*
X193178571Y-58252438D01*
X193178571Y-58252438D02*
X193321428Y-58204819D01*
X193321428Y-58204819D02*
X193416666Y-58204819D01*
X193416666Y-58204819D02*
X193559523Y-58252438D01*
X193559523Y-58252438D02*
X193607142Y-58300057D01*
X194559523Y-59204819D02*
X193988095Y-59204819D01*
X194273809Y-59204819D02*
X194273809Y-58204819D01*
X194273809Y-58204819D02*
X194178571Y-58347676D01*
X194178571Y-58347676D02*
X194083333Y-58442914D01*
X194083333Y-58442914D02*
X193988095Y-58490533D01*
X195464285Y-58204819D02*
X194988095Y-58204819D01*
X194988095Y-58204819D02*
X194940476Y-58681009D01*
X194940476Y-58681009D02*
X194988095Y-58633390D01*
X194988095Y-58633390D02*
X195083333Y-58585771D01*
X195083333Y-58585771D02*
X195321428Y-58585771D01*
X195321428Y-58585771D02*
X195416666Y-58633390D01*
X195416666Y-58633390D02*
X195464285Y-58681009D01*
X195464285Y-58681009D02*
X195511904Y-58776247D01*
X195511904Y-58776247D02*
X195511904Y-59014342D01*
X195511904Y-59014342D02*
X195464285Y-59109580D01*
X195464285Y-59109580D02*
X195416666Y-59157200D01*
X195416666Y-59157200D02*
X195321428Y-59204819D01*
X195321428Y-59204819D02*
X195083333Y-59204819D01*
X195083333Y-59204819D02*
X194988095Y-59157200D01*
X194988095Y-59157200D02*
X194940476Y-59109580D01*
X203718905Y-71178419D02*
X203718905Y-71987942D01*
X203718905Y-71987942D02*
X203766524Y-72083180D01*
X203766524Y-72083180D02*
X203814143Y-72130800D01*
X203814143Y-72130800D02*
X203909381Y-72178419D01*
X203909381Y-72178419D02*
X204099857Y-72178419D01*
X204099857Y-72178419D02*
X204195095Y-72130800D01*
X204195095Y-72130800D02*
X204242714Y-72083180D01*
X204242714Y-72083180D02*
X204290333Y-71987942D01*
X204290333Y-71987942D02*
X204290333Y-71178419D01*
X205290333Y-72178419D02*
X204718905Y-72178419D01*
X205004619Y-72178419D02*
X205004619Y-71178419D01*
X205004619Y-71178419D02*
X204909381Y-71321276D01*
X204909381Y-71321276D02*
X204814143Y-71416514D01*
X204814143Y-71416514D02*
X204718905Y-71464133D01*
X206242714Y-72178419D02*
X205671286Y-72178419D01*
X205957000Y-72178419D02*
X205957000Y-71178419D01*
X205957000Y-71178419D02*
X205861762Y-71321276D01*
X205861762Y-71321276D02*
X205766524Y-71416514D01*
X205766524Y-71416514D02*
X205671286Y-71464133D01*
X184957333Y-80270819D02*
X184624000Y-79794628D01*
X184385905Y-80270819D02*
X184385905Y-79270819D01*
X184385905Y-79270819D02*
X184766857Y-79270819D01*
X184766857Y-79270819D02*
X184862095Y-79318438D01*
X184862095Y-79318438D02*
X184909714Y-79366057D01*
X184909714Y-79366057D02*
X184957333Y-79461295D01*
X184957333Y-79461295D02*
X184957333Y-79604152D01*
X184957333Y-79604152D02*
X184909714Y-79699390D01*
X184909714Y-79699390D02*
X184862095Y-79747009D01*
X184862095Y-79747009D02*
X184766857Y-79794628D01*
X184766857Y-79794628D02*
X184385905Y-79794628D01*
X185338286Y-79366057D02*
X185385905Y-79318438D01*
X185385905Y-79318438D02*
X185481143Y-79270819D01*
X185481143Y-79270819D02*
X185719238Y-79270819D01*
X185719238Y-79270819D02*
X185814476Y-79318438D01*
X185814476Y-79318438D02*
X185862095Y-79366057D01*
X185862095Y-79366057D02*
X185909714Y-79461295D01*
X185909714Y-79461295D02*
X185909714Y-79556533D01*
X185909714Y-79556533D02*
X185862095Y-79699390D01*
X185862095Y-79699390D02*
X185290667Y-80270819D01*
X185290667Y-80270819D02*
X185909714Y-80270819D01*
X175457333Y-76875580D02*
X175409714Y-76923200D01*
X175409714Y-76923200D02*
X175266857Y-76970819D01*
X175266857Y-76970819D02*
X175171619Y-76970819D01*
X175171619Y-76970819D02*
X175028762Y-76923200D01*
X175028762Y-76923200D02*
X174933524Y-76827961D01*
X174933524Y-76827961D02*
X174885905Y-76732723D01*
X174885905Y-76732723D02*
X174838286Y-76542247D01*
X174838286Y-76542247D02*
X174838286Y-76399390D01*
X174838286Y-76399390D02*
X174885905Y-76208914D01*
X174885905Y-76208914D02*
X174933524Y-76113676D01*
X174933524Y-76113676D02*
X175028762Y-76018438D01*
X175028762Y-76018438D02*
X175171619Y-75970819D01*
X175171619Y-75970819D02*
X175266857Y-75970819D01*
X175266857Y-75970819D02*
X175409714Y-76018438D01*
X175409714Y-76018438D02*
X175457333Y-76066057D01*
X175838286Y-76066057D02*
X175885905Y-76018438D01*
X175885905Y-76018438D02*
X175981143Y-75970819D01*
X175981143Y-75970819D02*
X176219238Y-75970819D01*
X176219238Y-75970819D02*
X176314476Y-76018438D01*
X176314476Y-76018438D02*
X176362095Y-76066057D01*
X176362095Y-76066057D02*
X176409714Y-76161295D01*
X176409714Y-76161295D02*
X176409714Y-76256533D01*
X176409714Y-76256533D02*
X176362095Y-76399390D01*
X176362095Y-76399390D02*
X175790667Y-76970819D01*
X175790667Y-76970819D02*
X176409714Y-76970819D01*
X201090666Y-77870819D02*
X201090666Y-78585104D01*
X201090666Y-78585104D02*
X201043047Y-78727961D01*
X201043047Y-78727961D02*
X200947809Y-78823200D01*
X200947809Y-78823200D02*
X200804952Y-78870819D01*
X200804952Y-78870819D02*
X200709714Y-78870819D01*
X201709714Y-78299390D02*
X201614476Y-78251771D01*
X201614476Y-78251771D02*
X201566857Y-78204152D01*
X201566857Y-78204152D02*
X201519238Y-78108914D01*
X201519238Y-78108914D02*
X201519238Y-78061295D01*
X201519238Y-78061295D02*
X201566857Y-77966057D01*
X201566857Y-77966057D02*
X201614476Y-77918438D01*
X201614476Y-77918438D02*
X201709714Y-77870819D01*
X201709714Y-77870819D02*
X201900190Y-77870819D01*
X201900190Y-77870819D02*
X201995428Y-77918438D01*
X201995428Y-77918438D02*
X202043047Y-77966057D01*
X202043047Y-77966057D02*
X202090666Y-78061295D01*
X202090666Y-78061295D02*
X202090666Y-78108914D01*
X202090666Y-78108914D02*
X202043047Y-78204152D01*
X202043047Y-78204152D02*
X201995428Y-78251771D01*
X201995428Y-78251771D02*
X201900190Y-78299390D01*
X201900190Y-78299390D02*
X201709714Y-78299390D01*
X201709714Y-78299390D02*
X201614476Y-78347009D01*
X201614476Y-78347009D02*
X201566857Y-78394628D01*
X201566857Y-78394628D02*
X201519238Y-78489866D01*
X201519238Y-78489866D02*
X201519238Y-78680342D01*
X201519238Y-78680342D02*
X201566857Y-78775580D01*
X201566857Y-78775580D02*
X201614476Y-78823200D01*
X201614476Y-78823200D02*
X201709714Y-78870819D01*
X201709714Y-78870819D02*
X201900190Y-78870819D01*
X201900190Y-78870819D02*
X201995428Y-78823200D01*
X201995428Y-78823200D02*
X202043047Y-78775580D01*
X202043047Y-78775580D02*
X202090666Y-78680342D01*
X202090666Y-78680342D02*
X202090666Y-78489866D01*
X202090666Y-78489866D02*
X202043047Y-78394628D01*
X202043047Y-78394628D02*
X201995428Y-78347009D01*
X201995428Y-78347009D02*
X201900190Y-78299390D01*
X201143047Y-79597009D02*
X201285904Y-79644628D01*
X201285904Y-79644628D02*
X201333523Y-79692247D01*
X201333523Y-79692247D02*
X201381142Y-79787485D01*
X201381142Y-79787485D02*
X201381142Y-79930342D01*
X201381142Y-79930342D02*
X201333523Y-80025580D01*
X201333523Y-80025580D02*
X201285904Y-80073200D01*
X201285904Y-80073200D02*
X201190666Y-80120819D01*
X201190666Y-80120819D02*
X200809714Y-80120819D01*
X200809714Y-80120819D02*
X200809714Y-79120819D01*
X200809714Y-79120819D02*
X201143047Y-79120819D01*
X201143047Y-79120819D02*
X201238285Y-79168438D01*
X201238285Y-79168438D02*
X201285904Y-79216057D01*
X201285904Y-79216057D02*
X201333523Y-79311295D01*
X201333523Y-79311295D02*
X201333523Y-79406533D01*
X201333523Y-79406533D02*
X201285904Y-79501771D01*
X201285904Y-79501771D02*
X201238285Y-79549390D01*
X201238285Y-79549390D02*
X201143047Y-79597009D01*
X201143047Y-79597009D02*
X200809714Y-79597009D01*
X201809714Y-80120819D02*
X201809714Y-79120819D01*
X201809714Y-79120819D02*
X202143047Y-79835104D01*
X202143047Y-79835104D02*
X202476380Y-79120819D01*
X202476380Y-79120819D02*
X202476380Y-80120819D01*
X202952571Y-79597009D02*
X203285904Y-79597009D01*
X203428761Y-80120819D02*
X202952571Y-80120819D01*
X202952571Y-80120819D02*
X202952571Y-79120819D01*
X202952571Y-79120819D02*
X203428761Y-79120819D01*
X203809714Y-79216057D02*
X203857333Y-79168438D01*
X203857333Y-79168438D02*
X203952571Y-79120819D01*
X203952571Y-79120819D02*
X204190666Y-79120819D01*
X204190666Y-79120819D02*
X204285904Y-79168438D01*
X204285904Y-79168438D02*
X204333523Y-79216057D01*
X204333523Y-79216057D02*
X204381142Y-79311295D01*
X204381142Y-79311295D02*
X204381142Y-79406533D01*
X204381142Y-79406533D02*
X204333523Y-79549390D01*
X204333523Y-79549390D02*
X203762095Y-80120819D01*
X203762095Y-80120819D02*
X204381142Y-80120819D01*
X204952571Y-79549390D02*
X204857333Y-79501771D01*
X204857333Y-79501771D02*
X204809714Y-79454152D01*
X204809714Y-79454152D02*
X204762095Y-79358914D01*
X204762095Y-79358914D02*
X204762095Y-79311295D01*
X204762095Y-79311295D02*
X204809714Y-79216057D01*
X204809714Y-79216057D02*
X204857333Y-79168438D01*
X204857333Y-79168438D02*
X204952571Y-79120819D01*
X204952571Y-79120819D02*
X205143047Y-79120819D01*
X205143047Y-79120819D02*
X205238285Y-79168438D01*
X205238285Y-79168438D02*
X205285904Y-79216057D01*
X205285904Y-79216057D02*
X205333523Y-79311295D01*
X205333523Y-79311295D02*
X205333523Y-79358914D01*
X205333523Y-79358914D02*
X205285904Y-79454152D01*
X205285904Y-79454152D02*
X205238285Y-79501771D01*
X205238285Y-79501771D02*
X205143047Y-79549390D01*
X205143047Y-79549390D02*
X204952571Y-79549390D01*
X204952571Y-79549390D02*
X204857333Y-79597009D01*
X204857333Y-79597009D02*
X204809714Y-79644628D01*
X204809714Y-79644628D02*
X204762095Y-79739866D01*
X204762095Y-79739866D02*
X204762095Y-79930342D01*
X204762095Y-79930342D02*
X204809714Y-80025580D01*
X204809714Y-80025580D02*
X204857333Y-80073200D01*
X204857333Y-80073200D02*
X204952571Y-80120819D01*
X204952571Y-80120819D02*
X205143047Y-80120819D01*
X205143047Y-80120819D02*
X205238285Y-80073200D01*
X205238285Y-80073200D02*
X205285904Y-80025580D01*
X205285904Y-80025580D02*
X205333523Y-79930342D01*
X205333523Y-79930342D02*
X205333523Y-79739866D01*
X205333523Y-79739866D02*
X205285904Y-79644628D01*
X205285904Y-79644628D02*
X205238285Y-79597009D01*
X205238285Y-79597009D02*
X205143047Y-79549390D01*
X205952571Y-79120819D02*
X206047809Y-79120819D01*
X206047809Y-79120819D02*
X206143047Y-79168438D01*
X206143047Y-79168438D02*
X206190666Y-79216057D01*
X206190666Y-79216057D02*
X206238285Y-79311295D01*
X206238285Y-79311295D02*
X206285904Y-79501771D01*
X206285904Y-79501771D02*
X206285904Y-79739866D01*
X206285904Y-79739866D02*
X206238285Y-79930342D01*
X206238285Y-79930342D02*
X206190666Y-80025580D01*
X206190666Y-80025580D02*
X206143047Y-80073200D01*
X206143047Y-80073200D02*
X206047809Y-80120819D01*
X206047809Y-80120819D02*
X205952571Y-80120819D01*
X205952571Y-80120819D02*
X205857333Y-80073200D01*
X205857333Y-80073200D02*
X205809714Y-80025580D01*
X205809714Y-80025580D02*
X205762095Y-79930342D01*
X205762095Y-79930342D02*
X205714476Y-79739866D01*
X205714476Y-79739866D02*
X205714476Y-79501771D01*
X205714476Y-79501771D02*
X205762095Y-79311295D01*
X205762095Y-79311295D02*
X205809714Y-79216057D01*
X205809714Y-79216057D02*
X205857333Y-79168438D01*
X205857333Y-79168438D02*
X205952571Y-79120819D01*
X173140666Y-60420819D02*
X173140666Y-61135104D01*
X173140666Y-61135104D02*
X173093047Y-61277961D01*
X173093047Y-61277961D02*
X172997809Y-61373200D01*
X172997809Y-61373200D02*
X172854952Y-61420819D01*
X172854952Y-61420819D02*
X172759714Y-61420819D01*
X173521619Y-60420819D02*
X174140666Y-60420819D01*
X174140666Y-60420819D02*
X173807333Y-60801771D01*
X173807333Y-60801771D02*
X173950190Y-60801771D01*
X173950190Y-60801771D02*
X174045428Y-60849390D01*
X174045428Y-60849390D02*
X174093047Y-60897009D01*
X174093047Y-60897009D02*
X174140666Y-60992247D01*
X174140666Y-60992247D02*
X174140666Y-61230342D01*
X174140666Y-61230342D02*
X174093047Y-61325580D01*
X174093047Y-61325580D02*
X174045428Y-61373200D01*
X174045428Y-61373200D02*
X173950190Y-61420819D01*
X173950190Y-61420819D02*
X173664476Y-61420819D01*
X173664476Y-61420819D02*
X173569238Y-61373200D01*
X173569238Y-61373200D02*
X173521619Y-61325580D01*
X186416666Y-66704819D02*
X186416666Y-67419104D01*
X186416666Y-67419104D02*
X186369047Y-67561961D01*
X186369047Y-67561961D02*
X186273809Y-67657200D01*
X186273809Y-67657200D02*
X186130952Y-67704819D01*
X186130952Y-67704819D02*
X186035714Y-67704819D01*
X186892857Y-67704819D02*
X186892857Y-66704819D01*
X186892857Y-66704819D02*
X187273809Y-66704819D01*
X187273809Y-66704819D02*
X187369047Y-66752438D01*
X187369047Y-66752438D02*
X187416666Y-66800057D01*
X187416666Y-66800057D02*
X187464285Y-66895295D01*
X187464285Y-66895295D02*
X187464285Y-67038152D01*
X187464285Y-67038152D02*
X187416666Y-67133390D01*
X187416666Y-67133390D02*
X187369047Y-67181009D01*
X187369047Y-67181009D02*
X187273809Y-67228628D01*
X187273809Y-67228628D02*
X186892857Y-67228628D01*
X188416666Y-67704819D02*
X187845238Y-67704819D01*
X188130952Y-67704819D02*
X188130952Y-66704819D01*
X188130952Y-66704819D02*
X188035714Y-66847676D01*
X188035714Y-66847676D02*
X187940476Y-66942914D01*
X187940476Y-66942914D02*
X187845238Y-66990533D01*
X184664285Y-68631009D02*
X184330952Y-68631009D01*
X184330952Y-69154819D02*
X184330952Y-68154819D01*
X184330952Y-68154819D02*
X184807142Y-68154819D01*
X185664285Y-69154819D02*
X185188095Y-69154819D01*
X185188095Y-69154819D02*
X185188095Y-68154819D01*
X185997619Y-68154819D02*
X185997619Y-68964342D01*
X185997619Y-68964342D02*
X186045238Y-69059580D01*
X186045238Y-69059580D02*
X186092857Y-69107200D01*
X186092857Y-69107200D02*
X186188095Y-69154819D01*
X186188095Y-69154819D02*
X186378571Y-69154819D01*
X186378571Y-69154819D02*
X186473809Y-69107200D01*
X186473809Y-69107200D02*
X186521428Y-69059580D01*
X186521428Y-69059580D02*
X186569047Y-68964342D01*
X186569047Y-68964342D02*
X186569047Y-68154819D01*
X186997619Y-69107200D02*
X187140476Y-69154819D01*
X187140476Y-69154819D02*
X187378571Y-69154819D01*
X187378571Y-69154819D02*
X187473809Y-69107200D01*
X187473809Y-69107200D02*
X187521428Y-69059580D01*
X187521428Y-69059580D02*
X187569047Y-68964342D01*
X187569047Y-68964342D02*
X187569047Y-68869104D01*
X187569047Y-68869104D02*
X187521428Y-68773866D01*
X187521428Y-68773866D02*
X187473809Y-68726247D01*
X187473809Y-68726247D02*
X187378571Y-68678628D01*
X187378571Y-68678628D02*
X187188095Y-68631009D01*
X187188095Y-68631009D02*
X187092857Y-68583390D01*
X187092857Y-68583390D02*
X187045238Y-68535771D01*
X187045238Y-68535771D02*
X186997619Y-68440533D01*
X186997619Y-68440533D02*
X186997619Y-68345295D01*
X186997619Y-68345295D02*
X187045238Y-68250057D01*
X187045238Y-68250057D02*
X187092857Y-68202438D01*
X187092857Y-68202438D02*
X187188095Y-68154819D01*
X187188095Y-68154819D02*
X187426190Y-68154819D01*
X187426190Y-68154819D02*
X187569047Y-68202438D01*
X187997619Y-69154819D02*
X187997619Y-68154819D01*
X187997619Y-68631009D02*
X188569047Y-68631009D01*
X188569047Y-69154819D02*
X188569047Y-68154819D01*
X191481142Y-83775580D02*
X191433523Y-83823200D01*
X191433523Y-83823200D02*
X191290666Y-83870819D01*
X191290666Y-83870819D02*
X191195428Y-83870819D01*
X191195428Y-83870819D02*
X191052571Y-83823200D01*
X191052571Y-83823200D02*
X190957333Y-83727961D01*
X190957333Y-83727961D02*
X190909714Y-83632723D01*
X190909714Y-83632723D02*
X190862095Y-83442247D01*
X190862095Y-83442247D02*
X190862095Y-83299390D01*
X190862095Y-83299390D02*
X190909714Y-83108914D01*
X190909714Y-83108914D02*
X190957333Y-83013676D01*
X190957333Y-83013676D02*
X191052571Y-82918438D01*
X191052571Y-82918438D02*
X191195428Y-82870819D01*
X191195428Y-82870819D02*
X191290666Y-82870819D01*
X191290666Y-82870819D02*
X191433523Y-82918438D01*
X191433523Y-82918438D02*
X191481142Y-82966057D01*
X192433523Y-83870819D02*
X191862095Y-83870819D01*
X192147809Y-83870819D02*
X192147809Y-82870819D01*
X192147809Y-82870819D02*
X192052571Y-83013676D01*
X192052571Y-83013676D02*
X191957333Y-83108914D01*
X191957333Y-83108914D02*
X191862095Y-83156533D01*
X193385904Y-83870819D02*
X192814476Y-83870819D01*
X193100190Y-83870819D02*
X193100190Y-82870819D01*
X193100190Y-82870819D02*
X193004952Y-83013676D01*
X193004952Y-83013676D02*
X192909714Y-83108914D01*
X192909714Y-83108914D02*
X192814476Y-83156533D01*
X174062095Y-83570819D02*
X174062095Y-84380342D01*
X174062095Y-84380342D02*
X174109714Y-84475580D01*
X174109714Y-84475580D02*
X174157333Y-84523200D01*
X174157333Y-84523200D02*
X174252571Y-84570819D01*
X174252571Y-84570819D02*
X174443047Y-84570819D01*
X174443047Y-84570819D02*
X174538285Y-84523200D01*
X174538285Y-84523200D02*
X174585904Y-84475580D01*
X174585904Y-84475580D02*
X174633523Y-84380342D01*
X174633523Y-84380342D02*
X174633523Y-83570819D01*
X175538285Y-83904152D02*
X175538285Y-84570819D01*
X175300190Y-83523200D02*
X175062095Y-84237485D01*
X175062095Y-84237485D02*
X175681142Y-84237485D01*
X190107142Y-61054819D02*
X189773809Y-60578628D01*
X189535714Y-61054819D02*
X189535714Y-60054819D01*
X189535714Y-60054819D02*
X189916666Y-60054819D01*
X189916666Y-60054819D02*
X190011904Y-60102438D01*
X190011904Y-60102438D02*
X190059523Y-60150057D01*
X190059523Y-60150057D02*
X190107142Y-60245295D01*
X190107142Y-60245295D02*
X190107142Y-60388152D01*
X190107142Y-60388152D02*
X190059523Y-60483390D01*
X190059523Y-60483390D02*
X190011904Y-60531009D01*
X190011904Y-60531009D02*
X189916666Y-60578628D01*
X189916666Y-60578628D02*
X189535714Y-60578628D01*
X191059523Y-61054819D02*
X190488095Y-61054819D01*
X190773809Y-61054819D02*
X190773809Y-60054819D01*
X190773809Y-60054819D02*
X190678571Y-60197676D01*
X190678571Y-60197676D02*
X190583333Y-60292914D01*
X190583333Y-60292914D02*
X190488095Y-60340533D01*
X191916666Y-60388152D02*
X191916666Y-61054819D01*
X191678571Y-60007200D02*
X191440476Y-60721485D01*
X191440476Y-60721485D02*
X192059523Y-60721485D01*
X175681905Y-68174819D02*
X175681905Y-67174819D01*
X175681905Y-67174819D02*
X175920000Y-67174819D01*
X175920000Y-67174819D02*
X176062857Y-67222438D01*
X176062857Y-67222438D02*
X176158095Y-67317676D01*
X176158095Y-67317676D02*
X176205714Y-67412914D01*
X176205714Y-67412914D02*
X176253333Y-67603390D01*
X176253333Y-67603390D02*
X176253333Y-67746247D01*
X176253333Y-67746247D02*
X176205714Y-67936723D01*
X176205714Y-67936723D02*
X176158095Y-68031961D01*
X176158095Y-68031961D02*
X176062857Y-68127200D01*
X176062857Y-68127200D02*
X175920000Y-68174819D01*
X175920000Y-68174819D02*
X175681905Y-68174819D01*
X176824762Y-67603390D02*
X176729524Y-67555771D01*
X176729524Y-67555771D02*
X176681905Y-67508152D01*
X176681905Y-67508152D02*
X176634286Y-67412914D01*
X176634286Y-67412914D02*
X176634286Y-67365295D01*
X176634286Y-67365295D02*
X176681905Y-67270057D01*
X176681905Y-67270057D02*
X176729524Y-67222438D01*
X176729524Y-67222438D02*
X176824762Y-67174819D01*
X176824762Y-67174819D02*
X177015238Y-67174819D01*
X177015238Y-67174819D02*
X177110476Y-67222438D01*
X177110476Y-67222438D02*
X177158095Y-67270057D01*
X177158095Y-67270057D02*
X177205714Y-67365295D01*
X177205714Y-67365295D02*
X177205714Y-67412914D01*
X177205714Y-67412914D02*
X177158095Y-67508152D01*
X177158095Y-67508152D02*
X177110476Y-67555771D01*
X177110476Y-67555771D02*
X177015238Y-67603390D01*
X177015238Y-67603390D02*
X176824762Y-67603390D01*
X176824762Y-67603390D02*
X176729524Y-67651009D01*
X176729524Y-67651009D02*
X176681905Y-67698628D01*
X176681905Y-67698628D02*
X176634286Y-67793866D01*
X176634286Y-67793866D02*
X176634286Y-67984342D01*
X176634286Y-67984342D02*
X176681905Y-68079580D01*
X176681905Y-68079580D02*
X176729524Y-68127200D01*
X176729524Y-68127200D02*
X176824762Y-68174819D01*
X176824762Y-68174819D02*
X177015238Y-68174819D01*
X177015238Y-68174819D02*
X177110476Y-68127200D01*
X177110476Y-68127200D02*
X177158095Y-68079580D01*
X177158095Y-68079580D02*
X177205714Y-67984342D01*
X177205714Y-67984342D02*
X177205714Y-67793866D01*
X177205714Y-67793866D02*
X177158095Y-67698628D01*
X177158095Y-67698628D02*
X177110476Y-67651009D01*
X177110476Y-67651009D02*
X177015238Y-67603390D01*
X166357333Y-83256929D02*
X166309714Y-83304549D01*
X166309714Y-83304549D02*
X166166857Y-83352168D01*
X166166857Y-83352168D02*
X166071619Y-83352168D01*
X166071619Y-83352168D02*
X165928762Y-83304549D01*
X165928762Y-83304549D02*
X165833524Y-83209310D01*
X165833524Y-83209310D02*
X165785905Y-83114072D01*
X165785905Y-83114072D02*
X165738286Y-82923596D01*
X165738286Y-82923596D02*
X165738286Y-82780739D01*
X165738286Y-82780739D02*
X165785905Y-82590263D01*
X165785905Y-82590263D02*
X165833524Y-82495025D01*
X165833524Y-82495025D02*
X165928762Y-82399787D01*
X165928762Y-82399787D02*
X166071619Y-82352168D01*
X166071619Y-82352168D02*
X166166857Y-82352168D01*
X166166857Y-82352168D02*
X166309714Y-82399787D01*
X166309714Y-82399787D02*
X166357333Y-82447406D01*
X167214476Y-82685501D02*
X167214476Y-83352168D01*
X166976381Y-82304549D02*
X166738286Y-83018834D01*
X166738286Y-83018834D02*
X167357333Y-83018834D01*
X187057333Y-78170819D02*
X186724000Y-77694628D01*
X186485905Y-78170819D02*
X186485905Y-77170819D01*
X186485905Y-77170819D02*
X186866857Y-77170819D01*
X186866857Y-77170819D02*
X186962095Y-77218438D01*
X186962095Y-77218438D02*
X187009714Y-77266057D01*
X187009714Y-77266057D02*
X187057333Y-77361295D01*
X187057333Y-77361295D02*
X187057333Y-77504152D01*
X187057333Y-77504152D02*
X187009714Y-77599390D01*
X187009714Y-77599390D02*
X186962095Y-77647009D01*
X186962095Y-77647009D02*
X186866857Y-77694628D01*
X186866857Y-77694628D02*
X186485905Y-77694628D01*
X187390667Y-77170819D02*
X188009714Y-77170819D01*
X188009714Y-77170819D02*
X187676381Y-77551771D01*
X187676381Y-77551771D02*
X187819238Y-77551771D01*
X187819238Y-77551771D02*
X187914476Y-77599390D01*
X187914476Y-77599390D02*
X187962095Y-77647009D01*
X187962095Y-77647009D02*
X188009714Y-77742247D01*
X188009714Y-77742247D02*
X188009714Y-77980342D01*
X188009714Y-77980342D02*
X187962095Y-78075580D01*
X187962095Y-78075580D02*
X187914476Y-78123200D01*
X187914476Y-78123200D02*
X187819238Y-78170819D01*
X187819238Y-78170819D02*
X187533524Y-78170819D01*
X187533524Y-78170819D02*
X187438286Y-78123200D01*
X187438286Y-78123200D02*
X187390667Y-78075580D01*
X179957333Y-68920819D02*
X179624000Y-68444628D01*
X179385905Y-68920819D02*
X179385905Y-67920819D01*
X179385905Y-67920819D02*
X179766857Y-67920819D01*
X179766857Y-67920819D02*
X179862095Y-67968438D01*
X179862095Y-67968438D02*
X179909714Y-68016057D01*
X179909714Y-68016057D02*
X179957333Y-68111295D01*
X179957333Y-68111295D02*
X179957333Y-68254152D01*
X179957333Y-68254152D02*
X179909714Y-68349390D01*
X179909714Y-68349390D02*
X179862095Y-68397009D01*
X179862095Y-68397009D02*
X179766857Y-68444628D01*
X179766857Y-68444628D02*
X179385905Y-68444628D01*
X180814476Y-68254152D02*
X180814476Y-68920819D01*
X180576381Y-67873200D02*
X180338286Y-68587485D01*
X180338286Y-68587485D02*
X180957333Y-68587485D01*
D11*
%TO.C,U2*%
X226600000Y-47600000D02*
G75*
G03*
X206200000Y-47600000I-10200000J0D01*
G01*
X206200000Y-47600000D02*
G75*
G03*
X226600000Y-47600000I10200000J0D01*
G01*
%TO.C,R5*%
X180846936Y-64343500D02*
X181301064Y-64343500D01*
X180846936Y-65813500D02*
X181301064Y-65813500D01*
%TO.C,RV1*%
X199974000Y-62326000D02*
X200224000Y-62326000D01*
X205684000Y-62326000D02*
X202144000Y-62326000D01*
X199774000Y-62226000D02*
X199974000Y-62226000D01*
X199774000Y-62226000D02*
X199774000Y-60806000D01*
X199974000Y-62226000D02*
X199974000Y-62326000D01*
X199974000Y-60806000D02*
X199774000Y-60806000D01*
X199974000Y-60806000D02*
X199974000Y-57226000D01*
X206994000Y-59526000D02*
X206994000Y-61016000D01*
X199774000Y-57226000D02*
X199774000Y-55806000D01*
X199974000Y-57226000D02*
X199774000Y-57226000D01*
X206994000Y-57016000D02*
X206994000Y-58506000D01*
X199774000Y-55806000D02*
X199974000Y-55806000D01*
X199974000Y-55806000D02*
X199974000Y-55706000D01*
X199974000Y-55706000D02*
X200664000Y-55706000D01*
X201704000Y-55706000D02*
X205684000Y-55706000D01*
X205684000Y-62326000D02*
G75*
G03*
X206994000Y-61016000I0J1310000D01*
G01*
X206994000Y-57016000D02*
G75*
G03*
X205684000Y-55706000I-1310000J0D01*
G01*
%TO.C,R30*%
X223796936Y-83131000D02*
X224251064Y-83131000D01*
X223796936Y-84601000D02*
X224251064Y-84601000D01*
%TO.C,U1*%
X180375800Y-75825200D02*
X180375800Y-75100200D01*
X181100800Y-70605200D02*
X180375800Y-70605200D01*
X181100800Y-75825200D02*
X180375800Y-75825200D01*
X184870800Y-70605200D02*
X185595800Y-70605200D01*
X184870800Y-75825200D02*
X185595800Y-75825200D01*
X185595800Y-70605200D02*
X185595800Y-71330200D01*
X185595800Y-75825200D02*
X185595800Y-75100200D01*
%TO.C,J11*%
X208324000Y-77991000D02*
X208324000Y-79241000D01*
X208614000Y-78281000D02*
X208614000Y-84251000D01*
X208614000Y-84251000D02*
X221234000Y-84251000D01*
X208624000Y-78291000D02*
X208624000Y-79041000D01*
X208624000Y-79041000D02*
X210424000Y-79041000D01*
X208624000Y-80541000D02*
X209374000Y-80541000D01*
X209374000Y-80541000D02*
X209374000Y-83491000D01*
X209374000Y-83491000D02*
X214924000Y-83491000D01*
X209574000Y-77991000D02*
X208324000Y-77991000D01*
X210424000Y-78291000D02*
X208624000Y-78291000D01*
X210424000Y-79041000D02*
X210424000Y-78291000D01*
X211924000Y-78291000D02*
X211924000Y-79041000D01*
X211924000Y-79041000D02*
X217924000Y-79041000D01*
X217924000Y-78291000D02*
X211924000Y-78291000D01*
X217924000Y-79041000D02*
X217924000Y-78291000D01*
X219424000Y-78291000D02*
X219424000Y-79041000D01*
X219424000Y-79041000D02*
X221224000Y-79041000D01*
X220474000Y-80541000D02*
X220474000Y-83491000D01*
X220474000Y-83491000D02*
X214924000Y-83491000D01*
X221224000Y-78291000D02*
X219424000Y-78291000D01*
X221224000Y-79041000D02*
X221224000Y-78291000D01*
X221224000Y-80541000D02*
X220474000Y-80541000D01*
X221234000Y-78281000D02*
X208614000Y-78281000D01*
X221234000Y-84251000D02*
X221234000Y-78281000D01*
%TO.C,SW1*%
X206000000Y-66750000D02*
X206000000Y-66250000D01*
X206000000Y-66750000D02*
X199500000Y-66750000D01*
X206000000Y-63250000D02*
X206000000Y-63750000D01*
X206000000Y-63250000D02*
X199500000Y-63250000D01*
X204750000Y-65000000D02*
X203500000Y-65000000D01*
X203500000Y-65750000D02*
X202000000Y-65750000D01*
X203500000Y-65250000D02*
X203500000Y-65000000D01*
X202750000Y-66250000D02*
X202750000Y-65750000D01*
X202000000Y-65000000D02*
X202000000Y-65250000D01*
X200750000Y-65000000D02*
X202000000Y-65000000D01*
X199500000Y-66750000D02*
X199500000Y-66250000D01*
X199500000Y-63250000D02*
X199500000Y-63750000D01*
%TO.C,C26*%
X197134420Y-57290000D02*
X197415580Y-57290000D01*
X197134420Y-58310000D02*
X197415580Y-58310000D01*
%TO.C,U12*%
X184585000Y-46840000D02*
G75*
G03*
X165335000Y-46840000I-9625000J0D01*
G01*
X165335000Y-46840000D02*
G75*
G03*
X184585000Y-46840000I9625000J0D01*
G01*
%TO.C,U5*%
X204265000Y-47040000D02*
G75*
G03*
X185015000Y-47040000I-9625000J0D01*
G01*
X185015000Y-47040000D02*
G75*
G03*
X204265000Y-47040000I9625000J0D01*
G01*
%TO.C,R1*%
X178296936Y-79081000D02*
X178751064Y-79081000D01*
X178296936Y-80551000D02*
X178751064Y-80551000D01*
%TO.C,R15*%
X194022936Y-59515000D02*
X194477064Y-59515000D01*
X194022936Y-60985000D02*
X194477064Y-60985000D01*
%TO.C,RV3*%
X181415400Y-62428200D02*
X181665400Y-62428200D01*
X187125400Y-62428200D02*
X183585400Y-62428200D01*
X181215400Y-62328200D02*
X181415400Y-62328200D01*
X181215400Y-62328200D02*
X181215400Y-60908200D01*
X181415400Y-62328200D02*
X181415400Y-62428200D01*
X181415400Y-60908200D02*
X181215400Y-60908200D01*
X181415400Y-60908200D02*
X181415400Y-57328200D01*
X188435400Y-59628200D02*
X188435400Y-61118200D01*
X181215400Y-57328200D02*
X181215400Y-55908200D01*
X181415400Y-57328200D02*
X181215400Y-57328200D01*
X188435400Y-57118200D02*
X188435400Y-58608200D01*
X181215400Y-55908200D02*
X181415400Y-55908200D01*
X181415400Y-55908200D02*
X181415400Y-55808200D01*
X181415400Y-55808200D02*
X182105400Y-55808200D01*
X183145400Y-55808200D02*
X187125400Y-55808200D01*
X187125400Y-62428200D02*
G75*
G03*
X188435400Y-61118200I0J1310000D01*
G01*
X188435400Y-57118200D02*
G75*
G03*
X187125400Y-55808200I-1310000J0D01*
G01*
%TO.C,C1*%
X182283420Y-81506000D02*
X182564580Y-81506000D01*
X182283420Y-82526000D02*
X182564580Y-82526000D01*
%TO.C,JP2*%
X189024000Y-63716000D02*
X191824000Y-63716000D01*
X189024000Y-65716000D02*
X189024000Y-63716000D01*
X191824000Y-63716000D02*
X191824000Y-65716000D01*
X191824000Y-65716000D02*
X189024000Y-65716000D01*
%TO.C,SW3*%
X193750000Y-69250000D02*
X194250000Y-69250000D01*
X193750000Y-69250000D02*
X193750000Y-62750000D01*
X197250000Y-69250000D02*
X196750000Y-69250000D01*
X197250000Y-69250000D02*
X197250000Y-62750000D01*
X195500000Y-68000000D02*
X195500000Y-66750000D01*
X194750000Y-66750000D02*
X194750000Y-65250000D01*
X195250000Y-66750000D02*
X195500000Y-66750000D01*
X194250000Y-66000000D02*
X194750000Y-66000000D01*
X195500000Y-65250000D02*
X195250000Y-65250000D01*
X195500000Y-64000000D02*
X195500000Y-65250000D01*
X193750000Y-62750000D02*
X194250000Y-62750000D01*
X197250000Y-62750000D02*
X196750000Y-62750000D01*
%TO.C,U8*%
X233860000Y-58880000D02*
X227445000Y-58880000D01*
X233860000Y-58880000D02*
X233860000Y-77120000D01*
X227445000Y-58880000D02*
X227445000Y-58500000D01*
X208900000Y-58880000D02*
X208120000Y-58880000D01*
X208120000Y-58880000D02*
X208120000Y-59880000D01*
X233860000Y-77120000D02*
X227445000Y-77120000D01*
X208900000Y-77120000D02*
X208120000Y-77120000D01*
X208120000Y-77120000D02*
X208120000Y-76120000D01*
%TO.C,J5*%
X198550000Y-85050000D02*
X198550000Y-86300000D01*
X198840000Y-85340000D02*
X198840000Y-91310000D01*
X198840000Y-91310000D02*
X226460000Y-91310000D01*
X198850000Y-85350000D02*
X198850000Y-86100000D01*
X198850000Y-86100000D02*
X200650000Y-86100000D01*
X198850000Y-87600000D02*
X199600000Y-87600000D01*
X199600000Y-87600000D02*
X199600000Y-90550000D01*
X199600000Y-90550000D02*
X212650000Y-90550000D01*
X199800000Y-85050000D02*
X198550000Y-85050000D01*
X200650000Y-85350000D02*
X198850000Y-85350000D01*
X200650000Y-86100000D02*
X200650000Y-85350000D01*
X202150000Y-85350000D02*
X202150000Y-86100000D01*
X202150000Y-86100000D02*
X223150000Y-86100000D01*
X223150000Y-85350000D02*
X202150000Y-85350000D01*
X223150000Y-86100000D02*
X223150000Y-85350000D01*
X224650000Y-85350000D02*
X224650000Y-86100000D01*
X224650000Y-86100000D02*
X226450000Y-86100000D01*
X225700000Y-87600000D02*
X225700000Y-90550000D01*
X225700000Y-90550000D02*
X212650000Y-90550000D01*
X226450000Y-85350000D02*
X224650000Y-85350000D01*
X226450000Y-86100000D02*
X226450000Y-85350000D01*
X226450000Y-87600000D02*
X225700000Y-87600000D01*
X226460000Y-85340000D02*
X198840000Y-85340000D01*
X226460000Y-91310000D02*
X226460000Y-85340000D01*
%TO.C,C3*%
X179534000Y-76275420D02*
X179534000Y-76556580D01*
X178514000Y-76275420D02*
X178514000Y-76556580D01*
%TO.C,C15*%
X197609420Y-59740000D02*
X197890580Y-59740000D01*
X197609420Y-60760000D02*
X197890580Y-60760000D01*
D12*
%TO.C,U11*%
X203380000Y-72480000D02*
X205820000Y-72480000D01*
X205820000Y-75120000D02*
X203380000Y-75120000D01*
D13*
X202650000Y-73000000D02*
G75*
G03*
X202450000Y-73000000I-100000J0D01*
G01*
X202450000Y-73000000D02*
G75*
G03*
X202650000Y-73000000I100000J0D01*
G01*
D11*
%TO.C,R2*%
X182116936Y-79081000D02*
X182571064Y-79081000D01*
X182116936Y-80551000D02*
X182571064Y-80551000D01*
%TO.C,C2*%
X177934000Y-76275420D02*
X177934000Y-76556580D01*
X176914000Y-76275420D02*
X176914000Y-76556580D01*
%TO.C,J8*%
X200399000Y-71266000D02*
X199149000Y-71266000D01*
X200109000Y-71556000D02*
X194139000Y-71556000D01*
X194139000Y-71556000D02*
X194139000Y-84176000D01*
X200099000Y-71566000D02*
X199349000Y-71566000D01*
X199349000Y-71566000D02*
X199349000Y-73366000D01*
X197849000Y-71566000D02*
X197849000Y-72316000D01*
X197849000Y-72316000D02*
X194899000Y-72316000D01*
X194899000Y-72316000D02*
X194899000Y-77866000D01*
X200399000Y-72516000D02*
X200399000Y-71266000D01*
X200099000Y-73366000D02*
X200099000Y-71566000D01*
X199349000Y-73366000D02*
X200099000Y-73366000D01*
X200099000Y-74866000D02*
X199349000Y-74866000D01*
X199349000Y-74866000D02*
X199349000Y-80866000D01*
X200099000Y-80866000D02*
X200099000Y-74866000D01*
X199349000Y-80866000D02*
X200099000Y-80866000D01*
X200099000Y-82366000D02*
X199349000Y-82366000D01*
X199349000Y-82366000D02*
X199349000Y-84166000D01*
X197849000Y-83416000D02*
X194899000Y-83416000D01*
X194899000Y-83416000D02*
X194899000Y-77866000D01*
X200099000Y-84166000D02*
X200099000Y-82366000D01*
X199349000Y-84166000D02*
X200099000Y-84166000D01*
X197849000Y-84166000D02*
X197849000Y-83416000D01*
X200109000Y-84176000D02*
X200109000Y-71556000D01*
X194139000Y-84176000D02*
X200109000Y-84176000D01*
%TO.C,J3*%
X172070600Y-57284200D02*
X170820600Y-57284200D01*
X171780600Y-57574200D02*
X165810600Y-57574200D01*
X165810600Y-57574200D02*
X165810600Y-65194200D01*
X171770600Y-57584200D02*
X171020600Y-57584200D01*
X171020600Y-57584200D02*
X171020600Y-59384200D01*
X169520600Y-57584200D02*
X169520600Y-58334200D01*
X169520600Y-58334200D02*
X166570600Y-58334200D01*
X166570600Y-58334200D02*
X166570600Y-61384200D01*
X172070600Y-58534200D02*
X172070600Y-57284200D01*
X171770600Y-59384200D02*
X171770600Y-57584200D01*
X171020600Y-59384200D02*
X171770600Y-59384200D01*
X171770600Y-60884200D02*
X171020600Y-60884200D01*
X171020600Y-60884200D02*
X171020600Y-61884200D01*
X171770600Y-61884200D02*
X171770600Y-60884200D01*
X171020600Y-61884200D02*
X171770600Y-61884200D01*
X171770600Y-63384200D02*
X171020600Y-63384200D01*
X171020600Y-63384200D02*
X171020600Y-65184200D01*
X169520600Y-64434200D02*
X166570600Y-64434200D01*
X166570600Y-64434200D02*
X166570600Y-61384200D01*
X171770600Y-65184200D02*
X171770600Y-63384200D01*
X171020600Y-65184200D02*
X171770600Y-65184200D01*
X169520600Y-65184200D02*
X169520600Y-64434200D01*
X171780600Y-65194200D02*
X171780600Y-57574200D01*
X165810600Y-65194200D02*
X171780600Y-65194200D01*
%TO.C,JP1*%
X189100000Y-67200000D02*
X191900000Y-67200000D01*
X189100000Y-69200000D02*
X189100000Y-67200000D01*
X191900000Y-67200000D02*
X191900000Y-69200000D01*
X191900000Y-69200000D02*
X189100000Y-69200000D01*
%TO.C,C11*%
X185509000Y-91628349D02*
X185509000Y-90828349D01*
X185109000Y-91228349D02*
X185909000Y-91228349D01*
X183744000Y-87218651D02*
X191904000Y-87218651D01*
X183744000Y-87178651D02*
X191904000Y-87178651D01*
X183744000Y-87138651D02*
X191904000Y-87138651D01*
X183745000Y-87098651D02*
X191903000Y-87098651D01*
X183747000Y-87058651D02*
X191901000Y-87058651D01*
X183748000Y-87018651D02*
X191900000Y-87018651D01*
X183750000Y-86978651D02*
X191898000Y-86978651D01*
X183753000Y-86938651D02*
X191895000Y-86938651D01*
X183756000Y-86898651D02*
X191892000Y-86898651D01*
X183759000Y-86858651D02*
X191889000Y-86858651D01*
X183763000Y-86818651D02*
X191885000Y-86818651D01*
X183767000Y-86778651D02*
X191881000Y-86778651D01*
X183772000Y-86738651D02*
X191876000Y-86738651D01*
X183776000Y-86698651D02*
X191872000Y-86698651D01*
X183782000Y-86658651D02*
X191866000Y-86658651D01*
X183787000Y-86618651D02*
X191861000Y-86618651D01*
X183794000Y-86578651D02*
X191854000Y-86578651D01*
X183800000Y-86538651D02*
X191848000Y-86538651D01*
X183807000Y-86497651D02*
X186784000Y-86497651D01*
X188864000Y-86497651D02*
X191841000Y-86497651D01*
X183814000Y-86457651D02*
X186784000Y-86457651D01*
X188864000Y-86457651D02*
X191834000Y-86457651D01*
X183822000Y-86417651D02*
X186784000Y-86417651D01*
X188864000Y-86417651D02*
X191826000Y-86417651D01*
X183830000Y-86377651D02*
X186784000Y-86377651D01*
X188864000Y-86377651D02*
X191818000Y-86377651D01*
X183839000Y-86337651D02*
X186784000Y-86337651D01*
X188864000Y-86337651D02*
X191809000Y-86337651D01*
X183848000Y-86297651D02*
X186784000Y-86297651D01*
X188864000Y-86297651D02*
X191800000Y-86297651D01*
X183857000Y-86257651D02*
X186784000Y-86257651D01*
X188864000Y-86257651D02*
X191791000Y-86257651D01*
X183867000Y-86217651D02*
X186784000Y-86217651D01*
X188864000Y-86217651D02*
X191781000Y-86217651D01*
X183877000Y-86177651D02*
X186784000Y-86177651D01*
X188864000Y-86177651D02*
X191771000Y-86177651D01*
X183888000Y-86137651D02*
X186784000Y-86137651D01*
X188864000Y-86137651D02*
X191760000Y-86137651D01*
X183899000Y-86097651D02*
X186784000Y-86097651D01*
X188864000Y-86097651D02*
X191749000Y-86097651D01*
X183910000Y-86057651D02*
X186784000Y-86057651D01*
X188864000Y-86057651D02*
X191738000Y-86057651D01*
X183922000Y-86017651D02*
X186784000Y-86017651D01*
X188864000Y-86017651D02*
X191726000Y-86017651D01*
X183935000Y-85977651D02*
X186784000Y-85977651D01*
X188864000Y-85977651D02*
X191713000Y-85977651D01*
X183947000Y-85937651D02*
X186784000Y-85937651D01*
X188864000Y-85937651D02*
X191701000Y-85937651D01*
X183961000Y-85897651D02*
X186784000Y-85897651D01*
X188864000Y-85897651D02*
X191687000Y-85897651D01*
X183974000Y-85857651D02*
X186784000Y-85857651D01*
X188864000Y-85857651D02*
X191674000Y-85857651D01*
X183989000Y-85817651D02*
X186784000Y-85817651D01*
X188864000Y-85817651D02*
X191659000Y-85817651D01*
X184003000Y-85777651D02*
X186784000Y-85777651D01*
X188864000Y-85777651D02*
X191645000Y-85777651D01*
X184019000Y-85737651D02*
X186784000Y-85737651D01*
X188864000Y-85737651D02*
X191629000Y-85737651D01*
X184034000Y-85697651D02*
X186784000Y-85697651D01*
X188864000Y-85697651D02*
X191614000Y-85697651D01*
X184050000Y-85657651D02*
X186784000Y-85657651D01*
X188864000Y-85657651D02*
X191598000Y-85657651D01*
X184067000Y-85617651D02*
X186784000Y-85617651D01*
X188864000Y-85617651D02*
X191581000Y-85617651D01*
X184084000Y-85577651D02*
X186784000Y-85577651D01*
X188864000Y-85577651D02*
X191564000Y-85577651D01*
X184102000Y-85537651D02*
X186784000Y-85537651D01*
X188864000Y-85537651D02*
X191546000Y-85537651D01*
X184120000Y-85497651D02*
X186784000Y-85497651D01*
X188864000Y-85497651D02*
X191528000Y-85497651D01*
X184138000Y-85457651D02*
X186784000Y-85457651D01*
X188864000Y-85457651D02*
X191510000Y-85457651D01*
X184158000Y-85417651D02*
X186784000Y-85417651D01*
X188864000Y-85417651D02*
X191490000Y-85417651D01*
X184177000Y-85377651D02*
X186784000Y-85377651D01*
X188864000Y-85377651D02*
X191471000Y-85377651D01*
X184197000Y-85337651D02*
X186784000Y-85337651D01*
X188864000Y-85337651D02*
X191451000Y-85337651D01*
X184218000Y-85297651D02*
X186784000Y-85297651D01*
X188864000Y-85297651D02*
X191430000Y-85297651D01*
X184240000Y-85257651D02*
X186784000Y-85257651D01*
X188864000Y-85257651D02*
X191408000Y-85257651D01*
X184262000Y-85217651D02*
X186784000Y-85217651D01*
X188864000Y-85217651D02*
X191386000Y-85217651D01*
X184284000Y-85177651D02*
X186784000Y-85177651D01*
X188864000Y-85177651D02*
X191364000Y-85177651D01*
X184307000Y-85137651D02*
X186784000Y-85137651D01*
X188864000Y-85137651D02*
X191341000Y-85137651D01*
X184331000Y-85097651D02*
X186784000Y-85097651D01*
X188864000Y-85097651D02*
X191317000Y-85097651D01*
X184355000Y-85057651D02*
X186784000Y-85057651D01*
X188864000Y-85057651D02*
X191293000Y-85057651D01*
X184380000Y-85017651D02*
X186784000Y-85017651D01*
X188864000Y-85017651D02*
X191268000Y-85017651D01*
X184406000Y-84977651D02*
X186784000Y-84977651D01*
X188864000Y-84977651D02*
X191242000Y-84977651D01*
X184432000Y-84937651D02*
X186784000Y-84937651D01*
X188864000Y-84937651D02*
X191216000Y-84937651D01*
X184459000Y-84897651D02*
X186784000Y-84897651D01*
X188864000Y-84897651D02*
X191189000Y-84897651D01*
X184486000Y-84857651D02*
X186784000Y-84857651D01*
X188864000Y-84857651D02*
X191162000Y-84857651D01*
X184515000Y-84817651D02*
X186784000Y-84817651D01*
X188864000Y-84817651D02*
X191133000Y-84817651D01*
X184544000Y-84777651D02*
X186784000Y-84777651D01*
X188864000Y-84777651D02*
X191104000Y-84777651D01*
X184574000Y-84737651D02*
X186784000Y-84737651D01*
X188864000Y-84737651D02*
X191074000Y-84737651D01*
X184604000Y-84697651D02*
X186784000Y-84697651D01*
X188864000Y-84697651D02*
X191044000Y-84697651D01*
X184635000Y-84657651D02*
X186784000Y-84657651D01*
X188864000Y-84657651D02*
X191013000Y-84657651D01*
X184668000Y-84617651D02*
X186784000Y-84617651D01*
X188864000Y-84617651D02*
X190980000Y-84617651D01*
X184700000Y-84577651D02*
X186784000Y-84577651D01*
X188864000Y-84577651D02*
X190948000Y-84577651D01*
X184734000Y-84537651D02*
X186784000Y-84537651D01*
X188864000Y-84537651D02*
X190914000Y-84537651D01*
X184769000Y-84497651D02*
X186784000Y-84497651D01*
X188864000Y-84497651D02*
X190879000Y-84497651D01*
X184805000Y-84457651D02*
X186784000Y-84457651D01*
X188864000Y-84457651D02*
X190843000Y-84457651D01*
X184841000Y-84417651D02*
X190807000Y-84417651D01*
X184879000Y-84377651D02*
X190769000Y-84377651D01*
X184917000Y-84337651D02*
X190731000Y-84337651D01*
X184957000Y-84297651D02*
X190691000Y-84297651D01*
X184998000Y-84257651D02*
X190650000Y-84257651D01*
X185040000Y-84217651D02*
X190608000Y-84217651D01*
X185083000Y-84177651D02*
X190565000Y-84177651D01*
X185127000Y-84137651D02*
X190521000Y-84137651D01*
X185173000Y-84097651D02*
X190475000Y-84097651D01*
X185220000Y-84057651D02*
X190428000Y-84057651D01*
X185268000Y-84017651D02*
X190380000Y-84017651D01*
X185319000Y-83977651D02*
X190329000Y-83977651D01*
X185370000Y-83937651D02*
X190278000Y-83937651D01*
X185424000Y-83897651D02*
X190224000Y-83897651D01*
X185479000Y-83857651D02*
X190169000Y-83857651D01*
X185537000Y-83817651D02*
X190111000Y-83817651D01*
X185596000Y-83777651D02*
X190052000Y-83777651D01*
X185658000Y-83737651D02*
X189990000Y-83737651D01*
X185722000Y-83697651D02*
X189926000Y-83697651D01*
X185790000Y-83657651D02*
X189858000Y-83657651D01*
X185860000Y-83617651D02*
X189788000Y-83617651D01*
X185934000Y-83577651D02*
X189714000Y-83577651D01*
X186011000Y-83537651D02*
X189637000Y-83537651D01*
X186093000Y-83497651D02*
X189555000Y-83497651D01*
X186179000Y-83457651D02*
X189469000Y-83457651D01*
X186272000Y-83417651D02*
X189376000Y-83417651D01*
X186371000Y-83377651D02*
X189277000Y-83377651D01*
X186478000Y-83337651D02*
X189170000Y-83337651D01*
X186595000Y-83297651D02*
X189053000Y-83297651D01*
X186726000Y-83257651D02*
X188922000Y-83257651D01*
X186876000Y-83217651D02*
X188772000Y-83217651D01*
X187056000Y-83177651D02*
X188592000Y-83177651D01*
X187291000Y-83137651D02*
X188357000Y-83137651D01*
X191944000Y-87218651D02*
G75*
G03*
X183704000Y-87218651I-4120000J0D01*
G01*
X183704000Y-87218651D02*
G75*
G03*
X191944000Y-87218651I4120000J0D01*
G01*
%TO.C,U4*%
X183018800Y-83288400D02*
X183018800Y-89298400D01*
X176198800Y-85538400D02*
X176198800Y-89298400D01*
X183018800Y-89298400D02*
X181758800Y-89298400D01*
X176198800Y-89298400D02*
X177458800Y-89298400D01*
%TO.C,R14*%
X191272936Y-61515000D02*
X191727064Y-61515000D01*
X191272936Y-62985000D02*
X191727064Y-62985000D01*
%TO.C,D8*%
X175750000Y-71660000D02*
X177050000Y-71660000D01*
X177050000Y-68540000D02*
X175050000Y-68540000D01*
%TO.C,C4*%
X167409000Y-91659698D02*
X167409000Y-90859698D01*
X167009000Y-91259698D02*
X167809000Y-91259698D01*
X165644000Y-87250000D02*
X173804000Y-87250000D01*
X165644000Y-87210000D02*
X173804000Y-87210000D01*
X165644000Y-87170000D02*
X173804000Y-87170000D01*
X165645000Y-87130000D02*
X173803000Y-87130000D01*
X165647000Y-87090000D02*
X173801000Y-87090000D01*
X165648000Y-87050000D02*
X173800000Y-87050000D01*
X165650000Y-87010000D02*
X173798000Y-87010000D01*
X165653000Y-86970000D02*
X173795000Y-86970000D01*
X165656000Y-86930000D02*
X173792000Y-86930000D01*
X165659000Y-86890000D02*
X173789000Y-86890000D01*
X165663000Y-86850000D02*
X173785000Y-86850000D01*
X165667000Y-86810000D02*
X173781000Y-86810000D01*
X165672000Y-86770000D02*
X173776000Y-86770000D01*
X165676000Y-86730000D02*
X173772000Y-86730000D01*
X165682000Y-86690000D02*
X173766000Y-86690000D01*
X165687000Y-86650000D02*
X173761000Y-86650000D01*
X165694000Y-86610000D02*
X173754000Y-86610000D01*
X165700000Y-86570000D02*
X173748000Y-86570000D01*
X165707000Y-86529000D02*
X168684000Y-86529000D01*
X170764000Y-86529000D02*
X173741000Y-86529000D01*
X165714000Y-86489000D02*
X168684000Y-86489000D01*
X170764000Y-86489000D02*
X173734000Y-86489000D01*
X165722000Y-86449000D02*
X168684000Y-86449000D01*
X170764000Y-86449000D02*
X173726000Y-86449000D01*
X165730000Y-86409000D02*
X168684000Y-86409000D01*
X170764000Y-86409000D02*
X173718000Y-86409000D01*
X165739000Y-86369000D02*
X168684000Y-86369000D01*
X170764000Y-86369000D02*
X173709000Y-86369000D01*
X165748000Y-86329000D02*
X168684000Y-86329000D01*
X170764000Y-86329000D02*
X173700000Y-86329000D01*
X165757000Y-86289000D02*
X168684000Y-86289000D01*
X170764000Y-86289000D02*
X173691000Y-86289000D01*
X165767000Y-86249000D02*
X168684000Y-86249000D01*
X170764000Y-86249000D02*
X173681000Y-86249000D01*
X165777000Y-86209000D02*
X168684000Y-86209000D01*
X170764000Y-86209000D02*
X173671000Y-86209000D01*
X165788000Y-86169000D02*
X168684000Y-86169000D01*
X170764000Y-86169000D02*
X173660000Y-86169000D01*
X165799000Y-86129000D02*
X168684000Y-86129000D01*
X170764000Y-86129000D02*
X173649000Y-86129000D01*
X165810000Y-86089000D02*
X168684000Y-86089000D01*
X170764000Y-86089000D02*
X173638000Y-86089000D01*
X165822000Y-86049000D02*
X168684000Y-86049000D01*
X170764000Y-86049000D02*
X173626000Y-86049000D01*
X165835000Y-86009000D02*
X168684000Y-86009000D01*
X170764000Y-86009000D02*
X173613000Y-86009000D01*
X165847000Y-85969000D02*
X168684000Y-85969000D01*
X170764000Y-85969000D02*
X173601000Y-85969000D01*
X165861000Y-85929000D02*
X168684000Y-85929000D01*
X170764000Y-85929000D02*
X173587000Y-85929000D01*
X165874000Y-85889000D02*
X168684000Y-85889000D01*
X170764000Y-85889000D02*
X173574000Y-85889000D01*
X165889000Y-85849000D02*
X168684000Y-85849000D01*
X170764000Y-85849000D02*
X173559000Y-85849000D01*
X165903000Y-85809000D02*
X168684000Y-85809000D01*
X170764000Y-85809000D02*
X173545000Y-85809000D01*
X165919000Y-85769000D02*
X168684000Y-85769000D01*
X170764000Y-85769000D02*
X173529000Y-85769000D01*
X165934000Y-85729000D02*
X168684000Y-85729000D01*
X170764000Y-85729000D02*
X173514000Y-85729000D01*
X165950000Y-85689000D02*
X168684000Y-85689000D01*
X170764000Y-85689000D02*
X173498000Y-85689000D01*
X165967000Y-85649000D02*
X168684000Y-85649000D01*
X170764000Y-85649000D02*
X173481000Y-85649000D01*
X165984000Y-85609000D02*
X168684000Y-85609000D01*
X170764000Y-85609000D02*
X173464000Y-85609000D01*
X166002000Y-85569000D02*
X168684000Y-85569000D01*
X170764000Y-85569000D02*
X173446000Y-85569000D01*
X166020000Y-85529000D02*
X168684000Y-85529000D01*
X170764000Y-85529000D02*
X173428000Y-85529000D01*
X166038000Y-85489000D02*
X168684000Y-85489000D01*
X170764000Y-85489000D02*
X173410000Y-85489000D01*
X166058000Y-85449000D02*
X168684000Y-85449000D01*
X170764000Y-85449000D02*
X173390000Y-85449000D01*
X166077000Y-85409000D02*
X168684000Y-85409000D01*
X170764000Y-85409000D02*
X173371000Y-85409000D01*
X166097000Y-85369000D02*
X168684000Y-85369000D01*
X170764000Y-85369000D02*
X173351000Y-85369000D01*
X166118000Y-85329000D02*
X168684000Y-85329000D01*
X170764000Y-85329000D02*
X173330000Y-85329000D01*
X166140000Y-85289000D02*
X168684000Y-85289000D01*
X170764000Y-85289000D02*
X173308000Y-85289000D01*
X166162000Y-85249000D02*
X168684000Y-85249000D01*
X170764000Y-85249000D02*
X173286000Y-85249000D01*
X166184000Y-85209000D02*
X168684000Y-85209000D01*
X170764000Y-85209000D02*
X173264000Y-85209000D01*
X166207000Y-85169000D02*
X168684000Y-85169000D01*
X170764000Y-85169000D02*
X173241000Y-85169000D01*
X166231000Y-85129000D02*
X168684000Y-85129000D01*
X170764000Y-85129000D02*
X173217000Y-85129000D01*
X166255000Y-85089000D02*
X168684000Y-85089000D01*
X170764000Y-85089000D02*
X173193000Y-85089000D01*
X166280000Y-85049000D02*
X168684000Y-85049000D01*
X170764000Y-85049000D02*
X173168000Y-85049000D01*
X166306000Y-85009000D02*
X168684000Y-85009000D01*
X170764000Y-85009000D02*
X173142000Y-85009000D01*
X166332000Y-84969000D02*
X168684000Y-84969000D01*
X170764000Y-84969000D02*
X173116000Y-84969000D01*
X166359000Y-84929000D02*
X168684000Y-84929000D01*
X170764000Y-84929000D02*
X173089000Y-84929000D01*
X166386000Y-84889000D02*
X168684000Y-84889000D01*
X170764000Y-84889000D02*
X173062000Y-84889000D01*
X166415000Y-84849000D02*
X168684000Y-84849000D01*
X170764000Y-84849000D02*
X173033000Y-84849000D01*
X166444000Y-84809000D02*
X168684000Y-84809000D01*
X170764000Y-84809000D02*
X173004000Y-84809000D01*
X166474000Y-84769000D02*
X168684000Y-84769000D01*
X170764000Y-84769000D02*
X172974000Y-84769000D01*
X166504000Y-84729000D02*
X168684000Y-84729000D01*
X170764000Y-84729000D02*
X172944000Y-84729000D01*
X166535000Y-84689000D02*
X168684000Y-84689000D01*
X170764000Y-84689000D02*
X172913000Y-84689000D01*
X166568000Y-84649000D02*
X168684000Y-84649000D01*
X170764000Y-84649000D02*
X172880000Y-84649000D01*
X166600000Y-84609000D02*
X168684000Y-84609000D01*
X170764000Y-84609000D02*
X172848000Y-84609000D01*
X166634000Y-84569000D02*
X168684000Y-84569000D01*
X170764000Y-84569000D02*
X172814000Y-84569000D01*
X166669000Y-84529000D02*
X168684000Y-84529000D01*
X170764000Y-84529000D02*
X172779000Y-84529000D01*
X166705000Y-84489000D02*
X168684000Y-84489000D01*
X170764000Y-84489000D02*
X172743000Y-84489000D01*
X166741000Y-84449000D02*
X172707000Y-84449000D01*
X166779000Y-84409000D02*
X172669000Y-84409000D01*
X166817000Y-84369000D02*
X172631000Y-84369000D01*
X166857000Y-84329000D02*
X172591000Y-84329000D01*
X166898000Y-84289000D02*
X172550000Y-84289000D01*
X166940000Y-84249000D02*
X172508000Y-84249000D01*
X166983000Y-84209000D02*
X172465000Y-84209000D01*
X167027000Y-84169000D02*
X172421000Y-84169000D01*
X167073000Y-84129000D02*
X172375000Y-84129000D01*
X167120000Y-84089000D02*
X172328000Y-84089000D01*
X167168000Y-84049000D02*
X172280000Y-84049000D01*
X167219000Y-84009000D02*
X172229000Y-84009000D01*
X167270000Y-83969000D02*
X172178000Y-83969000D01*
X167324000Y-83929000D02*
X172124000Y-83929000D01*
X167379000Y-83889000D02*
X172069000Y-83889000D01*
X167437000Y-83849000D02*
X172011000Y-83849000D01*
X167496000Y-83809000D02*
X171952000Y-83809000D01*
X167558000Y-83769000D02*
X171890000Y-83769000D01*
X167622000Y-83729000D02*
X171826000Y-83729000D01*
X167690000Y-83689000D02*
X171758000Y-83689000D01*
X167760000Y-83649000D02*
X171688000Y-83649000D01*
X167834000Y-83609000D02*
X171614000Y-83609000D01*
X167911000Y-83569000D02*
X171537000Y-83569000D01*
X167993000Y-83529000D02*
X171455000Y-83529000D01*
X168079000Y-83489000D02*
X171369000Y-83489000D01*
X168172000Y-83449000D02*
X171276000Y-83449000D01*
X168271000Y-83409000D02*
X171177000Y-83409000D01*
X168378000Y-83369000D02*
X171070000Y-83369000D01*
X168495000Y-83329000D02*
X170953000Y-83329000D01*
X168626000Y-83289000D02*
X170822000Y-83289000D01*
X168776000Y-83249000D02*
X170672000Y-83249000D01*
X168956000Y-83209000D02*
X170492000Y-83209000D01*
X169191000Y-83169000D02*
X170257000Y-83169000D01*
X173844000Y-87250000D02*
G75*
G03*
X165604000Y-87250000I-4120000J0D01*
G01*
X165604000Y-87250000D02*
G75*
G03*
X173844000Y-87250000I4120000J0D01*
G01*
%TO.C,R3*%
X184196936Y-76981000D02*
X184651064Y-76981000D01*
X184196936Y-78451000D02*
X184651064Y-78451000D01*
%TO.C,R4*%
X183101064Y-67813500D02*
X182646936Y-67813500D01*
X183101064Y-66343500D02*
X182646936Y-66343500D01*
%TD*%
M02*
