%TF.GenerationSoftware,KiCad,Pcbnew,7.0.10-7.0.10~ubuntu22.04.1*%
%TF.CreationDate,2024-01-09T15:42:03+03:00*%
%TF.ProjectId,air-detector,6169722d-6465-4746-9563-746f722e6b69,rev?*%
%TF.SameCoordinates,Original*%
%TF.FileFunction,Soldermask,Top*%
%TF.FilePolarity,Negative*%
%FSLAX46Y46*%
G04 Gerber Fmt 4.6, Leading zero omitted, Abs format (unit mm)*
G04 Created by KiCad (PCBNEW 7.0.10-7.0.10~ubuntu22.04.1) date 2024-01-09 15:42:03*
%MOMM*%
%LPD*%
G01*
G04 APERTURE LIST*
G04 Aperture macros list*
%AMRoundRect*
0 Rectangle with rounded corners*
0 $1 Rounding radius*
0 $2 $3 $4 $5 $6 $7 $8 $9 X,Y pos of 4 corners*
0 Add a 4 corners polygon primitive as box body*
4,1,4,$2,$3,$4,$5,$6,$7,$8,$9,$2,$3,0*
0 Add four circle primitives for the rounded corners*
1,1,$1+$1,$2,$3*
1,1,$1+$1,$4,$5*
1,1,$1+$1,$6,$7*
1,1,$1+$1,$8,$9*
0 Add four rect primitives between the rounded corners*
20,1,$1+$1,$2,$3,$4,$5,0*
20,1,$1+$1,$4,$5,$6,$7,0*
20,1,$1+$1,$6,$7,$8,$9,0*
20,1,$1+$1,$8,$9,$2,$3,0*%
%AMFreePoly0*
4,1,6,1.000000,0.000000,0.500000,-0.750000,-0.500000,-0.750000,-0.500000,0.750000,0.500000,0.750000,1.000000,0.000000,1.000000,0.000000,$1*%
%AMFreePoly1*
4,1,6,0.500000,-0.750000,-0.650000,-0.750000,-0.150000,0.000000,-0.650000,0.750000,0.500000,0.750000,0.500000,-0.750000,0.500000,-0.750000,$1*%
G04 Aperture macros list end*
%ADD10C,0.010000*%
%ADD11C,4.000000*%
%ADD12C,2.200000*%
%ADD13RoundRect,0.250000X-0.262500X-0.450000X0.262500X-0.450000X0.262500X0.450000X-0.262500X0.450000X0*%
%ADD14R,1.560000X1.560000*%
%ADD15C,1.560000*%
%ADD16RoundRect,0.062500X-0.337500X-0.062500X0.337500X-0.062500X0.337500X0.062500X-0.337500X0.062500X0*%
%ADD17RoundRect,0.062500X-0.062500X-0.337500X0.062500X-0.337500X0.062500X0.337500X-0.062500X0.337500X0*%
%ADD18R,3.350000X3.350000*%
%ADD19RoundRect,0.250000X-0.600000X-0.725000X0.600000X-0.725000X0.600000X0.725000X-0.600000X0.725000X0*%
%ADD20O,1.700000X1.950000*%
%ADD21C,2.000000*%
%ADD22RoundRect,0.225000X-0.225000X-0.250000X0.225000X-0.250000X0.225000X0.250000X-0.225000X0.250000X0*%
%ADD23R,2.000000X2.000000*%
%ADD24R,1.160000X0.600000*%
%ADD25R,1.160000X0.300000*%
%ADD26O,2.000000X1.200000*%
%ADD27O,2.400000X1.000000*%
%ADD28FreePoly0,0.000000*%
%ADD29FreePoly1,0.000000*%
%ADD30R,0.900000X1.500000*%
%ADD31R,1.500000X0.900000*%
%ADD32C,0.600000*%
%ADD33R,4.200000X4.200000*%
%ADD34RoundRect,0.225000X-0.250000X0.225000X-0.250000X-0.225000X0.250000X-0.225000X0.250000X0.225000X0*%
%ADD35R,0.550000X0.400000*%
%ADD36RoundRect,0.250000X-0.725000X0.600000X-0.725000X-0.600000X0.725000X-0.600000X0.725000X0.600000X0*%
%ADD37O,1.950000X1.700000*%
%ADD38RoundRect,0.250000X-0.750000X0.600000X-0.750000X-0.600000X0.750000X-0.600000X0.750000X0.600000X0*%
%ADD39O,2.000000X1.700000*%
%ADD40R,1.600000X1.600000*%
%ADD41C,1.600000*%
%ADD42R,1.500000X2.000000*%
%ADD43R,3.800000X2.000000*%
%ADD44R,0.700000X1.000000*%
%ADD45R,0.700000X0.600000*%
%ADD46RoundRect,0.250000X0.262500X0.450000X-0.262500X0.450000X-0.262500X-0.450000X0.262500X-0.450000X0*%
G04 APERTURE END LIST*
%TO.C,U11*%
D10*
X205275000Y-74700000D02*
X203925000Y-74700000D01*
X203925000Y-73220000D01*
X204245000Y-72900000D01*
X205275000Y-72900000D01*
X205275000Y-74700000D01*
G36*
X205275000Y-74700000D02*
G01*
X203925000Y-74700000D01*
X203925000Y-73220000D01*
X204245000Y-72900000D01*
X205275000Y-72900000D01*
X205275000Y-74700000D01*
G37*
%TD*%
D11*
%TO.C,U2*%
X216400000Y-54350000D03*
X223150000Y-47600000D03*
%TD*%
D12*
%TO.C,H7*%
X178000000Y-61000000D03*
%TD*%
D13*
%TO.C,R5*%
X180161500Y-65078500D03*
X181986500Y-65078500D03*
%TD*%
D14*
%TO.C,RV1*%
X201184000Y-61516000D03*
D15*
X206184000Y-59016000D03*
X201184000Y-56516000D03*
%TD*%
D13*
%TO.C,R30*%
X223111500Y-83866000D03*
X224936500Y-83866000D03*
%TD*%
D16*
%TO.C,U1*%
X180535800Y-71715200D03*
X180535800Y-72215200D03*
X180535800Y-72715200D03*
X180535800Y-73215200D03*
X180535800Y-73715200D03*
X180535800Y-74215200D03*
X180535800Y-74715200D03*
D17*
X181485800Y-75665200D03*
X181985800Y-75665200D03*
X182485800Y-75665200D03*
X182985800Y-75665200D03*
X183485800Y-75665200D03*
X183985800Y-75665200D03*
X184485800Y-75665200D03*
D16*
X185435800Y-74715200D03*
X185435800Y-74215200D03*
X185435800Y-73715200D03*
X185435800Y-73215200D03*
X185435800Y-72715200D03*
X185435800Y-72215200D03*
X185435800Y-71715200D03*
D17*
X184485800Y-70765200D03*
X183985800Y-70765200D03*
X183485800Y-70765200D03*
X182985800Y-70765200D03*
X182485800Y-70765200D03*
X181985800Y-70765200D03*
X181485800Y-70765200D03*
D18*
X182985800Y-73215200D03*
%TD*%
D19*
%TO.C,J11*%
X211174000Y-80741000D03*
D20*
X213674000Y-80741000D03*
X216174000Y-80741000D03*
X218674000Y-80741000D03*
%TD*%
D21*
%TO.C,SW1*%
X206000000Y-65000000D03*
X199500000Y-65000000D03*
%TD*%
D22*
%TO.C,C26*%
X196500000Y-57800000D03*
X198050000Y-57800000D03*
%TD*%
D23*
%TO.C,U12*%
X178320000Y-50200000D03*
D21*
X179710000Y-46840000D03*
X178320000Y-43480000D03*
X171600000Y-43480000D03*
X170210000Y-46840000D03*
X171600000Y-50200000D03*
%TD*%
D24*
%TO.C,J1*%
X171910000Y-71209000D03*
X171910000Y-72009000D03*
D25*
X171910000Y-73159000D03*
X171910000Y-74159000D03*
X171910000Y-74659000D03*
X171910000Y-75659000D03*
D24*
X171910000Y-76809000D03*
X171910000Y-77609000D03*
X171910000Y-77609000D03*
X171910000Y-76809000D03*
D25*
X171910000Y-76159000D03*
X171910000Y-75159000D03*
X171910000Y-73659000D03*
X171910000Y-72659000D03*
D24*
X171910000Y-72009000D03*
X171910000Y-71209000D03*
D26*
X171025000Y-68809000D03*
D27*
X167100000Y-68809000D03*
D26*
X171025000Y-80009000D03*
D27*
X167100000Y-80009000D03*
%TD*%
D23*
%TO.C,U5*%
X198000000Y-50400000D03*
D21*
X199390000Y-47040000D03*
X198000000Y-43680000D03*
X191280000Y-43680000D03*
X189890000Y-47040000D03*
X191280000Y-50400000D03*
%TD*%
D13*
%TO.C,R1*%
X177611500Y-79816000D03*
X179436500Y-79816000D03*
%TD*%
%TO.C,R15*%
X193337500Y-60250000D03*
X195162500Y-60250000D03*
%TD*%
D12*
%TO.C,H9*%
X185000000Y-39500000D03*
%TD*%
D14*
%TO.C,RV3*%
X182625400Y-61618200D03*
D15*
X187625400Y-59118200D03*
X182625400Y-56618200D03*
%TD*%
D22*
%TO.C,C1*%
X181649000Y-82016000D03*
X183199000Y-82016000D03*
%TD*%
D28*
%TO.C,JP2*%
X189699000Y-64716000D03*
D29*
X191149000Y-64716000D03*
%TD*%
D21*
%TO.C,SW3*%
X195500000Y-69250000D03*
X195500000Y-62750000D03*
%TD*%
D30*
%TO.C,U8*%
X226250000Y-59250000D03*
X224980000Y-59250000D03*
X223710000Y-59250000D03*
X222440000Y-59250000D03*
X221170000Y-59250000D03*
X219900000Y-59250000D03*
X218630000Y-59250000D03*
X217360000Y-59250000D03*
X216090000Y-59250000D03*
X214820000Y-59250000D03*
X213550000Y-59250000D03*
X212280000Y-59250000D03*
X211010000Y-59250000D03*
X209740000Y-59250000D03*
D31*
X208490000Y-62290000D03*
X208490000Y-63560000D03*
X208490000Y-64830000D03*
X208490000Y-66100000D03*
X208490000Y-67370000D03*
X208490000Y-68640000D03*
X208490000Y-69910000D03*
X208490000Y-71180000D03*
X208490000Y-72450000D03*
X208490000Y-73720000D03*
D30*
X209740000Y-76750000D03*
X211010000Y-76750000D03*
X212280000Y-76750000D03*
X213550000Y-76750000D03*
X214820000Y-76750000D03*
X216090000Y-76750000D03*
X217360000Y-76750000D03*
X218630000Y-76750000D03*
X219900000Y-76750000D03*
X221170000Y-76750000D03*
X222440000Y-76750000D03*
X223710000Y-76750000D03*
X224980000Y-76750000D03*
X226250000Y-76750000D03*
D32*
X219672500Y-65795000D03*
X218147500Y-65795000D03*
X220435000Y-66557500D03*
X218910000Y-66557500D03*
X217385000Y-66557500D03*
X219672500Y-67320000D03*
D33*
X218910000Y-67320000D03*
D32*
X218147500Y-67320000D03*
X220435000Y-68082500D03*
X218910000Y-68082500D03*
X217385000Y-68082500D03*
X219672500Y-68845000D03*
X218147500Y-68845000D03*
%TD*%
D19*
%TO.C,J5*%
X201400000Y-87800000D03*
D20*
X203900000Y-87800000D03*
X206400000Y-87800000D03*
X208900000Y-87800000D03*
X211400000Y-87800000D03*
X213900000Y-87800000D03*
X216400000Y-87800000D03*
X218900000Y-87800000D03*
X221400000Y-87800000D03*
X223900000Y-87800000D03*
%TD*%
D34*
%TO.C,C3*%
X179024000Y-75641000D03*
X179024000Y-77191000D03*
%TD*%
D12*
%TO.C,H5*%
X195000000Y-87500000D03*
%TD*%
D22*
%TO.C,C15*%
X196975000Y-60250000D03*
X198525000Y-60250000D03*
%TD*%
D35*
%TO.C,U11*%
X203450000Y-73000000D03*
X203450000Y-73800000D03*
X203450000Y-74600000D03*
X205750000Y-74600000D03*
X205750000Y-73800000D03*
X205750000Y-73000000D03*
%TD*%
D13*
%TO.C,R2*%
X181431500Y-79816000D03*
X183256500Y-79816000D03*
%TD*%
D34*
%TO.C,C2*%
X177424000Y-75641000D03*
X177424000Y-77191000D03*
%TD*%
D36*
%TO.C,J8*%
X197649000Y-74116000D03*
D37*
X197649000Y-76616000D03*
X197649000Y-79116000D03*
X197649000Y-81616000D03*
%TD*%
D12*
%TO.C,H6*%
X189000000Y-80000000D03*
%TD*%
D38*
%TO.C,J3*%
X169320600Y-60134200D03*
D39*
X169320600Y-62634200D03*
%TD*%
D28*
%TO.C,JP1*%
X189775000Y-68200000D03*
D29*
X191225000Y-68200000D03*
%TD*%
D40*
%TO.C,C11*%
X187824000Y-88968651D03*
D41*
X187824000Y-85468651D03*
%TD*%
D42*
%TO.C,U4*%
X181908800Y-84238400D03*
X179608800Y-84238400D03*
D43*
X179608800Y-90538400D03*
D42*
X177308800Y-84238400D03*
%TD*%
D13*
%TO.C,R14*%
X190587500Y-62250000D03*
X192412500Y-62250000D03*
%TD*%
D44*
%TO.C,D8*%
X175400000Y-69350000D03*
D45*
X175400000Y-71050000D03*
X177400000Y-71050000D03*
X177400000Y-69150000D03*
%TD*%
D12*
%TO.C,H8*%
X205000000Y-40000000D03*
%TD*%
D40*
%TO.C,C4*%
X169724000Y-89000000D03*
D41*
X169724000Y-85500000D03*
%TD*%
D13*
%TO.C,R3*%
X183511500Y-77716000D03*
X185336500Y-77716000D03*
%TD*%
D46*
%TO.C,R4*%
X183786500Y-67078500D03*
X181961500Y-67078500D03*
%TD*%
M02*
