%TF.GenerationSoftware,KiCad,Pcbnew,7.0.10-7.0.10~ubuntu22.04.1*%
%TF.CreationDate,2024-01-09T15:42:03+03:00*%
%TF.ProjectId,air-detector,6169722d-6465-4746-9563-746f722e6b69,rev?*%
%TF.SameCoordinates,Original*%
%TF.FileFunction,Legend,Bot*%
%TF.FilePolarity,Positive*%
%FSLAX46Y46*%
G04 Gerber Fmt 4.6, Leading zero omitted, Abs format (unit mm)*
G04 Created by KiCad (PCBNEW 7.0.10-7.0.10~ubuntu22.04.1) date 2024-01-09 15:42:03*
%MOMM*%
%LPD*%
G01*
G04 APERTURE LIST*
%ADD10C,0.150000*%
%ADD11C,0.120000*%
G04 APERTURE END LIST*
D10*
X184134839Y-38200104D02*
X183658649Y-38200104D01*
X184230077Y-38485819D02*
X183896744Y-37485819D01*
X183896744Y-37485819D02*
X183563411Y-38485819D01*
X183230077Y-38485819D02*
X183230077Y-37819152D01*
X183230077Y-37485819D02*
X183277696Y-37533438D01*
X183277696Y-37533438D02*
X183230077Y-37581057D01*
X183230077Y-37581057D02*
X183182458Y-37533438D01*
X183182458Y-37533438D02*
X183230077Y-37485819D01*
X183230077Y-37485819D02*
X183230077Y-37581057D01*
X182753887Y-38485819D02*
X182753887Y-37819152D01*
X182753887Y-38009628D02*
X182706268Y-37914390D01*
X182706268Y-37914390D02*
X182658649Y-37866771D01*
X182658649Y-37866771D02*
X182563411Y-37819152D01*
X182563411Y-37819152D02*
X182468173Y-37819152D01*
X181420553Y-38438200D02*
X181325315Y-38485819D01*
X181325315Y-38485819D02*
X181134839Y-38485819D01*
X181134839Y-38485819D02*
X181039601Y-38438200D01*
X181039601Y-38438200D02*
X180991982Y-38342961D01*
X180991982Y-38342961D02*
X180991982Y-38295342D01*
X180991982Y-38295342D02*
X181039601Y-38200104D01*
X181039601Y-38200104D02*
X181134839Y-38152485D01*
X181134839Y-38152485D02*
X181277696Y-38152485D01*
X181277696Y-38152485D02*
X181372934Y-38104866D01*
X181372934Y-38104866D02*
X181420553Y-38009628D01*
X181420553Y-38009628D02*
X181420553Y-37962009D01*
X181420553Y-37962009D02*
X181372934Y-37866771D01*
X181372934Y-37866771D02*
X181277696Y-37819152D01*
X181277696Y-37819152D02*
X181134839Y-37819152D01*
X181134839Y-37819152D02*
X181039601Y-37866771D01*
X180182458Y-38438200D02*
X180277696Y-38485819D01*
X180277696Y-38485819D02*
X180468172Y-38485819D01*
X180468172Y-38485819D02*
X180563410Y-38438200D01*
X180563410Y-38438200D02*
X180611029Y-38342961D01*
X180611029Y-38342961D02*
X180611029Y-37962009D01*
X180611029Y-37962009D02*
X180563410Y-37866771D01*
X180563410Y-37866771D02*
X180468172Y-37819152D01*
X180468172Y-37819152D02*
X180277696Y-37819152D01*
X180277696Y-37819152D02*
X180182458Y-37866771D01*
X180182458Y-37866771D02*
X180134839Y-37962009D01*
X180134839Y-37962009D02*
X180134839Y-38057247D01*
X180134839Y-38057247D02*
X180611029Y-38152485D01*
X179706267Y-37819152D02*
X179706267Y-38485819D01*
X179706267Y-37914390D02*
X179658648Y-37866771D01*
X179658648Y-37866771D02*
X179563410Y-37819152D01*
X179563410Y-37819152D02*
X179420553Y-37819152D01*
X179420553Y-37819152D02*
X179325315Y-37866771D01*
X179325315Y-37866771D02*
X179277696Y-37962009D01*
X179277696Y-37962009D02*
X179277696Y-38485819D01*
X178849124Y-38438200D02*
X178753886Y-38485819D01*
X178753886Y-38485819D02*
X178563410Y-38485819D01*
X178563410Y-38485819D02*
X178468172Y-38438200D01*
X178468172Y-38438200D02*
X178420553Y-38342961D01*
X178420553Y-38342961D02*
X178420553Y-38295342D01*
X178420553Y-38295342D02*
X178468172Y-38200104D01*
X178468172Y-38200104D02*
X178563410Y-38152485D01*
X178563410Y-38152485D02*
X178706267Y-38152485D01*
X178706267Y-38152485D02*
X178801505Y-38104866D01*
X178801505Y-38104866D02*
X178849124Y-38009628D01*
X178849124Y-38009628D02*
X178849124Y-37962009D01*
X178849124Y-37962009D02*
X178801505Y-37866771D01*
X178801505Y-37866771D02*
X178706267Y-37819152D01*
X178706267Y-37819152D02*
X178563410Y-37819152D01*
X178563410Y-37819152D02*
X178468172Y-37866771D01*
X177849124Y-38485819D02*
X177944362Y-38438200D01*
X177944362Y-38438200D02*
X177991981Y-38390580D01*
X177991981Y-38390580D02*
X178039600Y-38295342D01*
X178039600Y-38295342D02*
X178039600Y-38009628D01*
X178039600Y-38009628D02*
X177991981Y-37914390D01*
X177991981Y-37914390D02*
X177944362Y-37866771D01*
X177944362Y-37866771D02*
X177849124Y-37819152D01*
X177849124Y-37819152D02*
X177706267Y-37819152D01*
X177706267Y-37819152D02*
X177611029Y-37866771D01*
X177611029Y-37866771D02*
X177563410Y-37914390D01*
X177563410Y-37914390D02*
X177515791Y-38009628D01*
X177515791Y-38009628D02*
X177515791Y-38295342D01*
X177515791Y-38295342D02*
X177563410Y-38390580D01*
X177563410Y-38390580D02*
X177611029Y-38438200D01*
X177611029Y-38438200D02*
X177706267Y-38485819D01*
X177706267Y-38485819D02*
X177849124Y-38485819D01*
X177087219Y-38485819D02*
X177087219Y-37819152D01*
X177087219Y-38009628D02*
X177039600Y-37914390D01*
X177039600Y-37914390D02*
X176991981Y-37866771D01*
X176991981Y-37866771D02*
X176896743Y-37819152D01*
X176896743Y-37819152D02*
X176801505Y-37819152D01*
X175801504Y-37819152D02*
X175563409Y-38485819D01*
X175563409Y-38485819D02*
X175325314Y-37819152D01*
X174991980Y-37581057D02*
X174944361Y-37533438D01*
X174944361Y-37533438D02*
X174849123Y-37485819D01*
X174849123Y-37485819D02*
X174611028Y-37485819D01*
X174611028Y-37485819D02*
X174515790Y-37533438D01*
X174515790Y-37533438D02*
X174468171Y-37581057D01*
X174468171Y-37581057D02*
X174420552Y-37676295D01*
X174420552Y-37676295D02*
X174420552Y-37771533D01*
X174420552Y-37771533D02*
X174468171Y-37914390D01*
X174468171Y-37914390D02*
X175039599Y-38485819D01*
X175039599Y-38485819D02*
X174420552Y-38485819D01*
X173991980Y-38390580D02*
X173944361Y-38438200D01*
X173944361Y-38438200D02*
X173991980Y-38485819D01*
X173991980Y-38485819D02*
X174039599Y-38438200D01*
X174039599Y-38438200D02*
X173991980Y-38390580D01*
X173991980Y-38390580D02*
X173991980Y-38485819D01*
X173563409Y-37581057D02*
X173515790Y-37533438D01*
X173515790Y-37533438D02*
X173420552Y-37485819D01*
X173420552Y-37485819D02*
X173182457Y-37485819D01*
X173182457Y-37485819D02*
X173087219Y-37533438D01*
X173087219Y-37533438D02*
X173039600Y-37581057D01*
X173039600Y-37581057D02*
X172991981Y-37676295D01*
X172991981Y-37676295D02*
X172991981Y-37771533D01*
X172991981Y-37771533D02*
X173039600Y-37914390D01*
X173039600Y-37914390D02*
X173611028Y-38485819D01*
X173611028Y-38485819D02*
X172991981Y-38485819D01*
X172563409Y-38104866D02*
X171801505Y-38104866D01*
X171325314Y-38485819D02*
X171325314Y-37485819D01*
X171325314Y-37866771D02*
X171230076Y-37819152D01*
X171230076Y-37819152D02*
X171039600Y-37819152D01*
X171039600Y-37819152D02*
X170944362Y-37866771D01*
X170944362Y-37866771D02*
X170896743Y-37914390D01*
X170896743Y-37914390D02*
X170849124Y-38009628D01*
X170849124Y-38009628D02*
X170849124Y-38295342D01*
X170849124Y-38295342D02*
X170896743Y-38390580D01*
X170896743Y-38390580D02*
X170944362Y-38438200D01*
X170944362Y-38438200D02*
X171039600Y-38485819D01*
X171039600Y-38485819D02*
X171230076Y-38485819D01*
X171230076Y-38485819D02*
X171325314Y-38438200D01*
X170277695Y-38485819D02*
X170372933Y-38438200D01*
X170372933Y-38438200D02*
X170420552Y-38390580D01*
X170420552Y-38390580D02*
X170468171Y-38295342D01*
X170468171Y-38295342D02*
X170468171Y-38009628D01*
X170468171Y-38009628D02*
X170420552Y-37914390D01*
X170420552Y-37914390D02*
X170372933Y-37866771D01*
X170372933Y-37866771D02*
X170277695Y-37819152D01*
X170277695Y-37819152D02*
X170134838Y-37819152D01*
X170134838Y-37819152D02*
X170039600Y-37866771D01*
X170039600Y-37866771D02*
X169991981Y-37914390D01*
X169991981Y-37914390D02*
X169944362Y-38009628D01*
X169944362Y-38009628D02*
X169944362Y-38295342D01*
X169944362Y-38295342D02*
X169991981Y-38390580D01*
X169991981Y-38390580D02*
X170039600Y-38438200D01*
X170039600Y-38438200D02*
X170134838Y-38485819D01*
X170134838Y-38485819D02*
X170277695Y-38485819D01*
X169087219Y-38485819D02*
X169087219Y-37962009D01*
X169087219Y-37962009D02*
X169134838Y-37866771D01*
X169134838Y-37866771D02*
X169230076Y-37819152D01*
X169230076Y-37819152D02*
X169420552Y-37819152D01*
X169420552Y-37819152D02*
X169515790Y-37866771D01*
X169087219Y-38438200D02*
X169182457Y-38485819D01*
X169182457Y-38485819D02*
X169420552Y-38485819D01*
X169420552Y-38485819D02*
X169515790Y-38438200D01*
X169515790Y-38438200D02*
X169563409Y-38342961D01*
X169563409Y-38342961D02*
X169563409Y-38247723D01*
X169563409Y-38247723D02*
X169515790Y-38152485D01*
X169515790Y-38152485D02*
X169420552Y-38104866D01*
X169420552Y-38104866D02*
X169182457Y-38104866D01*
X169182457Y-38104866D02*
X169087219Y-38057247D01*
X168611028Y-38485819D02*
X168611028Y-37819152D01*
X168611028Y-38009628D02*
X168563409Y-37914390D01*
X168563409Y-37914390D02*
X168515790Y-37866771D01*
X168515790Y-37866771D02*
X168420552Y-37819152D01*
X168420552Y-37819152D02*
X168325314Y-37819152D01*
X167563409Y-38485819D02*
X167563409Y-37485819D01*
X167563409Y-38438200D02*
X167658647Y-38485819D01*
X167658647Y-38485819D02*
X167849123Y-38485819D01*
X167849123Y-38485819D02*
X167944361Y-38438200D01*
X167944361Y-38438200D02*
X167991980Y-38390580D01*
X167991980Y-38390580D02*
X168039599Y-38295342D01*
X168039599Y-38295342D02*
X168039599Y-38009628D01*
X168039599Y-38009628D02*
X167991980Y-37914390D01*
X167991980Y-37914390D02*
X167944361Y-37866771D01*
X167944361Y-37866771D02*
X167849123Y-37819152D01*
X167849123Y-37819152D02*
X167658647Y-37819152D01*
X167658647Y-37819152D02*
X167563409Y-37866771D01*
X167087218Y-38104866D02*
X166325314Y-38104866D01*
X165325314Y-38485819D02*
X165896742Y-38485819D01*
X165611028Y-38485819D02*
X165611028Y-37485819D01*
X165611028Y-37485819D02*
X165706266Y-37628676D01*
X165706266Y-37628676D02*
X165801504Y-37723914D01*
X165801504Y-37723914D02*
X165896742Y-37771533D01*
X209942857Y-43559580D02*
X209990476Y-43607200D01*
X209990476Y-43607200D02*
X210133333Y-43654819D01*
X210133333Y-43654819D02*
X210228571Y-43654819D01*
X210228571Y-43654819D02*
X210371428Y-43607200D01*
X210371428Y-43607200D02*
X210466666Y-43511961D01*
X210466666Y-43511961D02*
X210514285Y-43416723D01*
X210514285Y-43416723D02*
X210561904Y-43226247D01*
X210561904Y-43226247D02*
X210561904Y-43083390D01*
X210561904Y-43083390D02*
X210514285Y-42892914D01*
X210514285Y-42892914D02*
X210466666Y-42797676D01*
X210466666Y-42797676D02*
X210371428Y-42702438D01*
X210371428Y-42702438D02*
X210228571Y-42654819D01*
X210228571Y-42654819D02*
X210133333Y-42654819D01*
X210133333Y-42654819D02*
X209990476Y-42702438D01*
X209990476Y-42702438D02*
X209942857Y-42750057D01*
X209609523Y-42654819D02*
X208990476Y-42654819D01*
X208990476Y-42654819D02*
X209323809Y-43035771D01*
X209323809Y-43035771D02*
X209180952Y-43035771D01*
X209180952Y-43035771D02*
X209085714Y-43083390D01*
X209085714Y-43083390D02*
X209038095Y-43131009D01*
X209038095Y-43131009D02*
X208990476Y-43226247D01*
X208990476Y-43226247D02*
X208990476Y-43464342D01*
X208990476Y-43464342D02*
X209038095Y-43559580D01*
X209038095Y-43559580D02*
X209085714Y-43607200D01*
X209085714Y-43607200D02*
X209180952Y-43654819D01*
X209180952Y-43654819D02*
X209466666Y-43654819D01*
X209466666Y-43654819D02*
X209561904Y-43607200D01*
X209561904Y-43607200D02*
X209609523Y-43559580D01*
X208419047Y-43083390D02*
X208514285Y-43035771D01*
X208514285Y-43035771D02*
X208561904Y-42988152D01*
X208561904Y-42988152D02*
X208609523Y-42892914D01*
X208609523Y-42892914D02*
X208609523Y-42845295D01*
X208609523Y-42845295D02*
X208561904Y-42750057D01*
X208561904Y-42750057D02*
X208514285Y-42702438D01*
X208514285Y-42702438D02*
X208419047Y-42654819D01*
X208419047Y-42654819D02*
X208228571Y-42654819D01*
X208228571Y-42654819D02*
X208133333Y-42702438D01*
X208133333Y-42702438D02*
X208085714Y-42750057D01*
X208085714Y-42750057D02*
X208038095Y-42845295D01*
X208038095Y-42845295D02*
X208038095Y-42892914D01*
X208038095Y-42892914D02*
X208085714Y-42988152D01*
X208085714Y-42988152D02*
X208133333Y-43035771D01*
X208133333Y-43035771D02*
X208228571Y-43083390D01*
X208228571Y-43083390D02*
X208419047Y-43083390D01*
X208419047Y-43083390D02*
X208514285Y-43131009D01*
X208514285Y-43131009D02*
X208561904Y-43178628D01*
X208561904Y-43178628D02*
X208609523Y-43273866D01*
X208609523Y-43273866D02*
X208609523Y-43464342D01*
X208609523Y-43464342D02*
X208561904Y-43559580D01*
X208561904Y-43559580D02*
X208514285Y-43607200D01*
X208514285Y-43607200D02*
X208419047Y-43654819D01*
X208419047Y-43654819D02*
X208228571Y-43654819D01*
X208228571Y-43654819D02*
X208133333Y-43607200D01*
X208133333Y-43607200D02*
X208085714Y-43559580D01*
X208085714Y-43559580D02*
X208038095Y-43464342D01*
X208038095Y-43464342D02*
X208038095Y-43273866D01*
X208038095Y-43273866D02*
X208085714Y-43178628D01*
X208085714Y-43178628D02*
X208133333Y-43131009D01*
X208133333Y-43131009D02*
X208228571Y-43083390D01*
X213366666Y-42729580D02*
X213414285Y-42777200D01*
X213414285Y-42777200D02*
X213557142Y-42824819D01*
X213557142Y-42824819D02*
X213652380Y-42824819D01*
X213652380Y-42824819D02*
X213795237Y-42777200D01*
X213795237Y-42777200D02*
X213890475Y-42681961D01*
X213890475Y-42681961D02*
X213938094Y-42586723D01*
X213938094Y-42586723D02*
X213985713Y-42396247D01*
X213985713Y-42396247D02*
X213985713Y-42253390D01*
X213985713Y-42253390D02*
X213938094Y-42062914D01*
X213938094Y-42062914D02*
X213890475Y-41967676D01*
X213890475Y-41967676D02*
X213795237Y-41872438D01*
X213795237Y-41872438D02*
X213652380Y-41824819D01*
X213652380Y-41824819D02*
X213557142Y-41824819D01*
X213557142Y-41824819D02*
X213414285Y-41872438D01*
X213414285Y-41872438D02*
X213366666Y-41920057D01*
X212509523Y-41824819D02*
X212699999Y-41824819D01*
X212699999Y-41824819D02*
X212795237Y-41872438D01*
X212795237Y-41872438D02*
X212842856Y-41920057D01*
X212842856Y-41920057D02*
X212938094Y-42062914D01*
X212938094Y-42062914D02*
X212985713Y-42253390D01*
X212985713Y-42253390D02*
X212985713Y-42634342D01*
X212985713Y-42634342D02*
X212938094Y-42729580D01*
X212938094Y-42729580D02*
X212890475Y-42777200D01*
X212890475Y-42777200D02*
X212795237Y-42824819D01*
X212795237Y-42824819D02*
X212604761Y-42824819D01*
X212604761Y-42824819D02*
X212509523Y-42777200D01*
X212509523Y-42777200D02*
X212461904Y-42729580D01*
X212461904Y-42729580D02*
X212414285Y-42634342D01*
X212414285Y-42634342D02*
X212414285Y-42396247D01*
X212414285Y-42396247D02*
X212461904Y-42301009D01*
X212461904Y-42301009D02*
X212509523Y-42253390D01*
X212509523Y-42253390D02*
X212604761Y-42205771D01*
X212604761Y-42205771D02*
X212795237Y-42205771D01*
X212795237Y-42205771D02*
X212890475Y-42253390D01*
X212890475Y-42253390D02*
X212938094Y-42301009D01*
X212938094Y-42301009D02*
X212985713Y-42396247D01*
X218332666Y-45088819D02*
X218665999Y-44612628D01*
X218904094Y-45088819D02*
X218904094Y-44088819D01*
X218904094Y-44088819D02*
X218523142Y-44088819D01*
X218523142Y-44088819D02*
X218427904Y-44136438D01*
X218427904Y-44136438D02*
X218380285Y-44184057D01*
X218380285Y-44184057D02*
X218332666Y-44279295D01*
X218332666Y-44279295D02*
X218332666Y-44422152D01*
X218332666Y-44422152D02*
X218380285Y-44517390D01*
X218380285Y-44517390D02*
X218427904Y-44565009D01*
X218427904Y-44565009D02*
X218523142Y-44612628D01*
X218523142Y-44612628D02*
X218904094Y-44612628D01*
X217999332Y-44088819D02*
X217332666Y-44088819D01*
X217332666Y-44088819D02*
X217761237Y-45088819D01*
X215042857Y-69420819D02*
X215376190Y-68944628D01*
X215614285Y-69420819D02*
X215614285Y-68420819D01*
X215614285Y-68420819D02*
X215233333Y-68420819D01*
X215233333Y-68420819D02*
X215138095Y-68468438D01*
X215138095Y-68468438D02*
X215090476Y-68516057D01*
X215090476Y-68516057D02*
X215042857Y-68611295D01*
X215042857Y-68611295D02*
X215042857Y-68754152D01*
X215042857Y-68754152D02*
X215090476Y-68849390D01*
X215090476Y-68849390D02*
X215138095Y-68897009D01*
X215138095Y-68897009D02*
X215233333Y-68944628D01*
X215233333Y-68944628D02*
X215614285Y-68944628D01*
X214090476Y-69420819D02*
X214661904Y-69420819D01*
X214376190Y-69420819D02*
X214376190Y-68420819D01*
X214376190Y-68420819D02*
X214471428Y-68563676D01*
X214471428Y-68563676D02*
X214566666Y-68658914D01*
X214566666Y-68658914D02*
X214661904Y-68706533D01*
X213709523Y-68516057D02*
X213661904Y-68468438D01*
X213661904Y-68468438D02*
X213566666Y-68420819D01*
X213566666Y-68420819D02*
X213328571Y-68420819D01*
X213328571Y-68420819D02*
X213233333Y-68468438D01*
X213233333Y-68468438D02*
X213185714Y-68516057D01*
X213185714Y-68516057D02*
X213138095Y-68611295D01*
X213138095Y-68611295D02*
X213138095Y-68706533D01*
X213138095Y-68706533D02*
X213185714Y-68849390D01*
X213185714Y-68849390D02*
X213757142Y-69420819D01*
X213757142Y-69420819D02*
X213138095Y-69420819D01*
X206142857Y-55959580D02*
X206190476Y-56007200D01*
X206190476Y-56007200D02*
X206333333Y-56054819D01*
X206333333Y-56054819D02*
X206428571Y-56054819D01*
X206428571Y-56054819D02*
X206571428Y-56007200D01*
X206571428Y-56007200D02*
X206666666Y-55911961D01*
X206666666Y-55911961D02*
X206714285Y-55816723D01*
X206714285Y-55816723D02*
X206761904Y-55626247D01*
X206761904Y-55626247D02*
X206761904Y-55483390D01*
X206761904Y-55483390D02*
X206714285Y-55292914D01*
X206714285Y-55292914D02*
X206666666Y-55197676D01*
X206666666Y-55197676D02*
X206571428Y-55102438D01*
X206571428Y-55102438D02*
X206428571Y-55054819D01*
X206428571Y-55054819D02*
X206333333Y-55054819D01*
X206333333Y-55054819D02*
X206190476Y-55102438D01*
X206190476Y-55102438D02*
X206142857Y-55150057D01*
X205190476Y-56054819D02*
X205761904Y-56054819D01*
X205476190Y-56054819D02*
X205476190Y-55054819D01*
X205476190Y-55054819D02*
X205571428Y-55197676D01*
X205571428Y-55197676D02*
X205666666Y-55292914D01*
X205666666Y-55292914D02*
X205761904Y-55340533D01*
X204809523Y-55150057D02*
X204761904Y-55102438D01*
X204761904Y-55102438D02*
X204666666Y-55054819D01*
X204666666Y-55054819D02*
X204428571Y-55054819D01*
X204428571Y-55054819D02*
X204333333Y-55102438D01*
X204333333Y-55102438D02*
X204285714Y-55150057D01*
X204285714Y-55150057D02*
X204238095Y-55245295D01*
X204238095Y-55245295D02*
X204238095Y-55340533D01*
X204238095Y-55340533D02*
X204285714Y-55483390D01*
X204285714Y-55483390D02*
X204857142Y-56054819D01*
X204857142Y-56054819D02*
X204238095Y-56054819D01*
X222082857Y-45104819D02*
X222416190Y-44628628D01*
X222654285Y-45104819D02*
X222654285Y-44104819D01*
X222654285Y-44104819D02*
X222273333Y-44104819D01*
X222273333Y-44104819D02*
X222178095Y-44152438D01*
X222178095Y-44152438D02*
X222130476Y-44200057D01*
X222130476Y-44200057D02*
X222082857Y-44295295D01*
X222082857Y-44295295D02*
X222082857Y-44438152D01*
X222082857Y-44438152D02*
X222130476Y-44533390D01*
X222130476Y-44533390D02*
X222178095Y-44581009D01*
X222178095Y-44581009D02*
X222273333Y-44628628D01*
X222273333Y-44628628D02*
X222654285Y-44628628D01*
X221701904Y-44200057D02*
X221654285Y-44152438D01*
X221654285Y-44152438D02*
X221559047Y-44104819D01*
X221559047Y-44104819D02*
X221320952Y-44104819D01*
X221320952Y-44104819D02*
X221225714Y-44152438D01*
X221225714Y-44152438D02*
X221178095Y-44200057D01*
X221178095Y-44200057D02*
X221130476Y-44295295D01*
X221130476Y-44295295D02*
X221130476Y-44390533D01*
X221130476Y-44390533D02*
X221178095Y-44533390D01*
X221178095Y-44533390D02*
X221749523Y-45104819D01*
X221749523Y-45104819D02*
X221130476Y-45104819D01*
X220178095Y-45104819D02*
X220749523Y-45104819D01*
X220463809Y-45104819D02*
X220463809Y-44104819D01*
X220463809Y-44104819D02*
X220559047Y-44247676D01*
X220559047Y-44247676D02*
X220654285Y-44342914D01*
X220654285Y-44342914D02*
X220749523Y-44390533D01*
X216266857Y-62475580D02*
X216314476Y-62523200D01*
X216314476Y-62523200D02*
X216457333Y-62570819D01*
X216457333Y-62570819D02*
X216552571Y-62570819D01*
X216552571Y-62570819D02*
X216695428Y-62523200D01*
X216695428Y-62523200D02*
X216790666Y-62427961D01*
X216790666Y-62427961D02*
X216838285Y-62332723D01*
X216838285Y-62332723D02*
X216885904Y-62142247D01*
X216885904Y-62142247D02*
X216885904Y-61999390D01*
X216885904Y-61999390D02*
X216838285Y-61808914D01*
X216838285Y-61808914D02*
X216790666Y-61713676D01*
X216790666Y-61713676D02*
X216695428Y-61618438D01*
X216695428Y-61618438D02*
X216552571Y-61570819D01*
X216552571Y-61570819D02*
X216457333Y-61570819D01*
X216457333Y-61570819D02*
X216314476Y-61618438D01*
X216314476Y-61618438D02*
X216266857Y-61666057D01*
X215314476Y-62570819D02*
X215885904Y-62570819D01*
X215600190Y-62570819D02*
X215600190Y-61570819D01*
X215600190Y-61570819D02*
X215695428Y-61713676D01*
X215695428Y-61713676D02*
X215790666Y-61808914D01*
X215790666Y-61808914D02*
X215885904Y-61856533D01*
X214743047Y-61999390D02*
X214838285Y-61951771D01*
X214838285Y-61951771D02*
X214885904Y-61904152D01*
X214885904Y-61904152D02*
X214933523Y-61808914D01*
X214933523Y-61808914D02*
X214933523Y-61761295D01*
X214933523Y-61761295D02*
X214885904Y-61666057D01*
X214885904Y-61666057D02*
X214838285Y-61618438D01*
X214838285Y-61618438D02*
X214743047Y-61570819D01*
X214743047Y-61570819D02*
X214552571Y-61570819D01*
X214552571Y-61570819D02*
X214457333Y-61618438D01*
X214457333Y-61618438D02*
X214409714Y-61666057D01*
X214409714Y-61666057D02*
X214362095Y-61761295D01*
X214362095Y-61761295D02*
X214362095Y-61808914D01*
X214362095Y-61808914D02*
X214409714Y-61904152D01*
X214409714Y-61904152D02*
X214457333Y-61951771D01*
X214457333Y-61951771D02*
X214552571Y-61999390D01*
X214552571Y-61999390D02*
X214743047Y-61999390D01*
X214743047Y-61999390D02*
X214838285Y-62047009D01*
X214838285Y-62047009D02*
X214885904Y-62094628D01*
X214885904Y-62094628D02*
X214933523Y-62189866D01*
X214933523Y-62189866D02*
X214933523Y-62380342D01*
X214933523Y-62380342D02*
X214885904Y-62475580D01*
X214885904Y-62475580D02*
X214838285Y-62523200D01*
X214838285Y-62523200D02*
X214743047Y-62570819D01*
X214743047Y-62570819D02*
X214552571Y-62570819D01*
X214552571Y-62570819D02*
X214457333Y-62523200D01*
X214457333Y-62523200D02*
X214409714Y-62475580D01*
X214409714Y-62475580D02*
X214362095Y-62380342D01*
X214362095Y-62380342D02*
X214362095Y-62189866D01*
X214362095Y-62189866D02*
X214409714Y-62094628D01*
X214409714Y-62094628D02*
X214457333Y-62047009D01*
X214457333Y-62047009D02*
X214552571Y-61999390D01*
X211242857Y-61404819D02*
X211576190Y-60928628D01*
X211814285Y-61404819D02*
X211814285Y-60404819D01*
X211814285Y-60404819D02*
X211433333Y-60404819D01*
X211433333Y-60404819D02*
X211338095Y-60452438D01*
X211338095Y-60452438D02*
X211290476Y-60500057D01*
X211290476Y-60500057D02*
X211242857Y-60595295D01*
X211242857Y-60595295D02*
X211242857Y-60738152D01*
X211242857Y-60738152D02*
X211290476Y-60833390D01*
X211290476Y-60833390D02*
X211338095Y-60881009D01*
X211338095Y-60881009D02*
X211433333Y-60928628D01*
X211433333Y-60928628D02*
X211814285Y-60928628D01*
X210909523Y-60404819D02*
X210290476Y-60404819D01*
X210290476Y-60404819D02*
X210623809Y-60785771D01*
X210623809Y-60785771D02*
X210480952Y-60785771D01*
X210480952Y-60785771D02*
X210385714Y-60833390D01*
X210385714Y-60833390D02*
X210338095Y-60881009D01*
X210338095Y-60881009D02*
X210290476Y-60976247D01*
X210290476Y-60976247D02*
X210290476Y-61214342D01*
X210290476Y-61214342D02*
X210338095Y-61309580D01*
X210338095Y-61309580D02*
X210385714Y-61357200D01*
X210385714Y-61357200D02*
X210480952Y-61404819D01*
X210480952Y-61404819D02*
X210766666Y-61404819D01*
X210766666Y-61404819D02*
X210861904Y-61357200D01*
X210861904Y-61357200D02*
X210909523Y-61309580D01*
X209433333Y-60738152D02*
X209433333Y-61404819D01*
X209671428Y-60357200D02*
X209909523Y-61071485D01*
X209909523Y-61071485D02*
X209290476Y-61071485D01*
X208642857Y-69354819D02*
X208976190Y-68878628D01*
X209214285Y-69354819D02*
X209214285Y-68354819D01*
X209214285Y-68354819D02*
X208833333Y-68354819D01*
X208833333Y-68354819D02*
X208738095Y-68402438D01*
X208738095Y-68402438D02*
X208690476Y-68450057D01*
X208690476Y-68450057D02*
X208642857Y-68545295D01*
X208642857Y-68545295D02*
X208642857Y-68688152D01*
X208642857Y-68688152D02*
X208690476Y-68783390D01*
X208690476Y-68783390D02*
X208738095Y-68831009D01*
X208738095Y-68831009D02*
X208833333Y-68878628D01*
X208833333Y-68878628D02*
X209214285Y-68878628D01*
X208309523Y-68354819D02*
X207690476Y-68354819D01*
X207690476Y-68354819D02*
X208023809Y-68735771D01*
X208023809Y-68735771D02*
X207880952Y-68735771D01*
X207880952Y-68735771D02*
X207785714Y-68783390D01*
X207785714Y-68783390D02*
X207738095Y-68831009D01*
X207738095Y-68831009D02*
X207690476Y-68926247D01*
X207690476Y-68926247D02*
X207690476Y-69164342D01*
X207690476Y-69164342D02*
X207738095Y-69259580D01*
X207738095Y-69259580D02*
X207785714Y-69307200D01*
X207785714Y-69307200D02*
X207880952Y-69354819D01*
X207880952Y-69354819D02*
X208166666Y-69354819D01*
X208166666Y-69354819D02*
X208261904Y-69307200D01*
X208261904Y-69307200D02*
X208309523Y-69259580D01*
X206833333Y-68354819D02*
X207023809Y-68354819D01*
X207023809Y-68354819D02*
X207119047Y-68402438D01*
X207119047Y-68402438D02*
X207166666Y-68450057D01*
X207166666Y-68450057D02*
X207261904Y-68592914D01*
X207261904Y-68592914D02*
X207309523Y-68783390D01*
X207309523Y-68783390D02*
X207309523Y-69164342D01*
X207309523Y-69164342D02*
X207261904Y-69259580D01*
X207261904Y-69259580D02*
X207214285Y-69307200D01*
X207214285Y-69307200D02*
X207119047Y-69354819D01*
X207119047Y-69354819D02*
X206928571Y-69354819D01*
X206928571Y-69354819D02*
X206833333Y-69307200D01*
X206833333Y-69307200D02*
X206785714Y-69259580D01*
X206785714Y-69259580D02*
X206738095Y-69164342D01*
X206738095Y-69164342D02*
X206738095Y-68926247D01*
X206738095Y-68926247D02*
X206785714Y-68831009D01*
X206785714Y-68831009D02*
X206833333Y-68783390D01*
X206833333Y-68783390D02*
X206928571Y-68735771D01*
X206928571Y-68735771D02*
X207119047Y-68735771D01*
X207119047Y-68735771D02*
X207214285Y-68783390D01*
X207214285Y-68783390D02*
X207261904Y-68831009D01*
X207261904Y-68831009D02*
X207309523Y-68926247D01*
X219966857Y-59875580D02*
X220014476Y-59923200D01*
X220014476Y-59923200D02*
X220157333Y-59970819D01*
X220157333Y-59970819D02*
X220252571Y-59970819D01*
X220252571Y-59970819D02*
X220395428Y-59923200D01*
X220395428Y-59923200D02*
X220490666Y-59827961D01*
X220490666Y-59827961D02*
X220538285Y-59732723D01*
X220538285Y-59732723D02*
X220585904Y-59542247D01*
X220585904Y-59542247D02*
X220585904Y-59399390D01*
X220585904Y-59399390D02*
X220538285Y-59208914D01*
X220538285Y-59208914D02*
X220490666Y-59113676D01*
X220490666Y-59113676D02*
X220395428Y-59018438D01*
X220395428Y-59018438D02*
X220252571Y-58970819D01*
X220252571Y-58970819D02*
X220157333Y-58970819D01*
X220157333Y-58970819D02*
X220014476Y-59018438D01*
X220014476Y-59018438D02*
X219966857Y-59066057D01*
X219014476Y-59970819D02*
X219585904Y-59970819D01*
X219300190Y-59970819D02*
X219300190Y-58970819D01*
X219300190Y-58970819D02*
X219395428Y-59113676D01*
X219395428Y-59113676D02*
X219490666Y-59208914D01*
X219490666Y-59208914D02*
X219585904Y-59256533D01*
X218157333Y-58970819D02*
X218347809Y-58970819D01*
X218347809Y-58970819D02*
X218443047Y-59018438D01*
X218443047Y-59018438D02*
X218490666Y-59066057D01*
X218490666Y-59066057D02*
X218585904Y-59208914D01*
X218585904Y-59208914D02*
X218633523Y-59399390D01*
X218633523Y-59399390D02*
X218633523Y-59780342D01*
X218633523Y-59780342D02*
X218585904Y-59875580D01*
X218585904Y-59875580D02*
X218538285Y-59923200D01*
X218538285Y-59923200D02*
X218443047Y-59970819D01*
X218443047Y-59970819D02*
X218252571Y-59970819D01*
X218252571Y-59970819D02*
X218157333Y-59923200D01*
X218157333Y-59923200D02*
X218109714Y-59875580D01*
X218109714Y-59875580D02*
X218062095Y-59780342D01*
X218062095Y-59780342D02*
X218062095Y-59542247D01*
X218062095Y-59542247D02*
X218109714Y-59447009D01*
X218109714Y-59447009D02*
X218157333Y-59399390D01*
X218157333Y-59399390D02*
X218252571Y-59351771D01*
X218252571Y-59351771D02*
X218443047Y-59351771D01*
X218443047Y-59351771D02*
X218538285Y-59399390D01*
X218538285Y-59399390D02*
X218585904Y-59447009D01*
X218585904Y-59447009D02*
X218633523Y-59542247D01*
X203542857Y-76959580D02*
X203590476Y-77007200D01*
X203590476Y-77007200D02*
X203733333Y-77054819D01*
X203733333Y-77054819D02*
X203828571Y-77054819D01*
X203828571Y-77054819D02*
X203971428Y-77007200D01*
X203971428Y-77007200D02*
X204066666Y-76911961D01*
X204066666Y-76911961D02*
X204114285Y-76816723D01*
X204114285Y-76816723D02*
X204161904Y-76626247D01*
X204161904Y-76626247D02*
X204161904Y-76483390D01*
X204161904Y-76483390D02*
X204114285Y-76292914D01*
X204114285Y-76292914D02*
X204066666Y-76197676D01*
X204066666Y-76197676D02*
X203971428Y-76102438D01*
X203971428Y-76102438D02*
X203828571Y-76054819D01*
X203828571Y-76054819D02*
X203733333Y-76054819D01*
X203733333Y-76054819D02*
X203590476Y-76102438D01*
X203590476Y-76102438D02*
X203542857Y-76150057D01*
X203161904Y-76150057D02*
X203114285Y-76102438D01*
X203114285Y-76102438D02*
X203019047Y-76054819D01*
X203019047Y-76054819D02*
X202780952Y-76054819D01*
X202780952Y-76054819D02*
X202685714Y-76102438D01*
X202685714Y-76102438D02*
X202638095Y-76150057D01*
X202638095Y-76150057D02*
X202590476Y-76245295D01*
X202590476Y-76245295D02*
X202590476Y-76340533D01*
X202590476Y-76340533D02*
X202638095Y-76483390D01*
X202638095Y-76483390D02*
X203209523Y-77054819D01*
X203209523Y-77054819D02*
X202590476Y-77054819D01*
X202257142Y-76054819D02*
X201638095Y-76054819D01*
X201638095Y-76054819D02*
X201971428Y-76435771D01*
X201971428Y-76435771D02*
X201828571Y-76435771D01*
X201828571Y-76435771D02*
X201733333Y-76483390D01*
X201733333Y-76483390D02*
X201685714Y-76531009D01*
X201685714Y-76531009D02*
X201638095Y-76626247D01*
X201638095Y-76626247D02*
X201638095Y-76864342D01*
X201638095Y-76864342D02*
X201685714Y-76959580D01*
X201685714Y-76959580D02*
X201733333Y-77007200D01*
X201733333Y-77007200D02*
X201828571Y-77054819D01*
X201828571Y-77054819D02*
X202114285Y-77054819D01*
X202114285Y-77054819D02*
X202209523Y-77007200D01*
X202209523Y-77007200D02*
X202257142Y-76959580D01*
X213835904Y-52070819D02*
X213835904Y-52880342D01*
X213835904Y-52880342D02*
X213788285Y-52975580D01*
X213788285Y-52975580D02*
X213740666Y-53023200D01*
X213740666Y-53023200D02*
X213645428Y-53070819D01*
X213645428Y-53070819D02*
X213454952Y-53070819D01*
X213454952Y-53070819D02*
X213359714Y-53023200D01*
X213359714Y-53023200D02*
X213312095Y-52975580D01*
X213312095Y-52975580D02*
X213264476Y-52880342D01*
X213264476Y-52880342D02*
X213264476Y-52070819D01*
X212883523Y-52070819D02*
X212264476Y-52070819D01*
X212264476Y-52070819D02*
X212597809Y-52451771D01*
X212597809Y-52451771D02*
X212454952Y-52451771D01*
X212454952Y-52451771D02*
X212359714Y-52499390D01*
X212359714Y-52499390D02*
X212312095Y-52547009D01*
X212312095Y-52547009D02*
X212264476Y-52642247D01*
X212264476Y-52642247D02*
X212264476Y-52880342D01*
X212264476Y-52880342D02*
X212312095Y-52975580D01*
X212312095Y-52975580D02*
X212359714Y-53023200D01*
X212359714Y-53023200D02*
X212454952Y-53070819D01*
X212454952Y-53070819D02*
X212740666Y-53070819D01*
X212740666Y-53070819D02*
X212835904Y-53023200D01*
X212835904Y-53023200D02*
X212883523Y-52975580D01*
X193892857Y-66109580D02*
X193940476Y-66157200D01*
X193940476Y-66157200D02*
X194083333Y-66204819D01*
X194083333Y-66204819D02*
X194178571Y-66204819D01*
X194178571Y-66204819D02*
X194321428Y-66157200D01*
X194321428Y-66157200D02*
X194416666Y-66061961D01*
X194416666Y-66061961D02*
X194464285Y-65966723D01*
X194464285Y-65966723D02*
X194511904Y-65776247D01*
X194511904Y-65776247D02*
X194511904Y-65633390D01*
X194511904Y-65633390D02*
X194464285Y-65442914D01*
X194464285Y-65442914D02*
X194416666Y-65347676D01*
X194416666Y-65347676D02*
X194321428Y-65252438D01*
X194321428Y-65252438D02*
X194178571Y-65204819D01*
X194178571Y-65204819D02*
X194083333Y-65204819D01*
X194083333Y-65204819D02*
X193940476Y-65252438D01*
X193940476Y-65252438D02*
X193892857Y-65300057D01*
X193035714Y-65538152D02*
X193035714Y-66204819D01*
X193273809Y-65157200D02*
X193511904Y-65871485D01*
X193511904Y-65871485D02*
X192892857Y-65871485D01*
X192321428Y-65204819D02*
X192226190Y-65204819D01*
X192226190Y-65204819D02*
X192130952Y-65252438D01*
X192130952Y-65252438D02*
X192083333Y-65300057D01*
X192083333Y-65300057D02*
X192035714Y-65395295D01*
X192035714Y-65395295D02*
X191988095Y-65585771D01*
X191988095Y-65585771D02*
X191988095Y-65823866D01*
X191988095Y-65823866D02*
X192035714Y-66014342D01*
X192035714Y-66014342D02*
X192083333Y-66109580D01*
X192083333Y-66109580D02*
X192130952Y-66157200D01*
X192130952Y-66157200D02*
X192226190Y-66204819D01*
X192226190Y-66204819D02*
X192321428Y-66204819D01*
X192321428Y-66204819D02*
X192416666Y-66157200D01*
X192416666Y-66157200D02*
X192464285Y-66109580D01*
X192464285Y-66109580D02*
X192511904Y-66014342D01*
X192511904Y-66014342D02*
X192559523Y-65823866D01*
X192559523Y-65823866D02*
X192559523Y-65585771D01*
X192559523Y-65585771D02*
X192511904Y-65395295D01*
X192511904Y-65395295D02*
X192464285Y-65300057D01*
X192464285Y-65300057D02*
X192416666Y-65252438D01*
X192416666Y-65252438D02*
X192321428Y-65204819D01*
X210440857Y-83320819D02*
X210774190Y-82844628D01*
X211012285Y-83320819D02*
X211012285Y-82320819D01*
X211012285Y-82320819D02*
X210631333Y-82320819D01*
X210631333Y-82320819D02*
X210536095Y-82368438D01*
X210536095Y-82368438D02*
X210488476Y-82416057D01*
X210488476Y-82416057D02*
X210440857Y-82511295D01*
X210440857Y-82511295D02*
X210440857Y-82654152D01*
X210440857Y-82654152D02*
X210488476Y-82749390D01*
X210488476Y-82749390D02*
X210536095Y-82797009D01*
X210536095Y-82797009D02*
X210631333Y-82844628D01*
X210631333Y-82844628D02*
X211012285Y-82844628D01*
X209488476Y-83320819D02*
X210059904Y-83320819D01*
X209774190Y-83320819D02*
X209774190Y-82320819D01*
X209774190Y-82320819D02*
X209869428Y-82463676D01*
X209869428Y-82463676D02*
X209964666Y-82558914D01*
X209964666Y-82558914D02*
X210059904Y-82606533D01*
X209155142Y-82320819D02*
X208488476Y-82320819D01*
X208488476Y-82320819D02*
X208917047Y-83320819D01*
X216842857Y-39259580D02*
X216890476Y-39307200D01*
X216890476Y-39307200D02*
X217033333Y-39354819D01*
X217033333Y-39354819D02*
X217128571Y-39354819D01*
X217128571Y-39354819D02*
X217271428Y-39307200D01*
X217271428Y-39307200D02*
X217366666Y-39211961D01*
X217366666Y-39211961D02*
X217414285Y-39116723D01*
X217414285Y-39116723D02*
X217461904Y-38926247D01*
X217461904Y-38926247D02*
X217461904Y-38783390D01*
X217461904Y-38783390D02*
X217414285Y-38592914D01*
X217414285Y-38592914D02*
X217366666Y-38497676D01*
X217366666Y-38497676D02*
X217271428Y-38402438D01*
X217271428Y-38402438D02*
X217128571Y-38354819D01*
X217128571Y-38354819D02*
X217033333Y-38354819D01*
X217033333Y-38354819D02*
X216890476Y-38402438D01*
X216890476Y-38402438D02*
X216842857Y-38450057D01*
X216509523Y-38354819D02*
X215890476Y-38354819D01*
X215890476Y-38354819D02*
X216223809Y-38735771D01*
X216223809Y-38735771D02*
X216080952Y-38735771D01*
X216080952Y-38735771D02*
X215985714Y-38783390D01*
X215985714Y-38783390D02*
X215938095Y-38831009D01*
X215938095Y-38831009D02*
X215890476Y-38926247D01*
X215890476Y-38926247D02*
X215890476Y-39164342D01*
X215890476Y-39164342D02*
X215938095Y-39259580D01*
X215938095Y-39259580D02*
X215985714Y-39307200D01*
X215985714Y-39307200D02*
X216080952Y-39354819D01*
X216080952Y-39354819D02*
X216366666Y-39354819D01*
X216366666Y-39354819D02*
X216461904Y-39307200D01*
X216461904Y-39307200D02*
X216509523Y-39259580D01*
X215414285Y-39354819D02*
X215223809Y-39354819D01*
X215223809Y-39354819D02*
X215128571Y-39307200D01*
X215128571Y-39307200D02*
X215080952Y-39259580D01*
X215080952Y-39259580D02*
X214985714Y-39116723D01*
X214985714Y-39116723D02*
X214938095Y-38926247D01*
X214938095Y-38926247D02*
X214938095Y-38545295D01*
X214938095Y-38545295D02*
X214985714Y-38450057D01*
X214985714Y-38450057D02*
X215033333Y-38402438D01*
X215033333Y-38402438D02*
X215128571Y-38354819D01*
X215128571Y-38354819D02*
X215319047Y-38354819D01*
X215319047Y-38354819D02*
X215414285Y-38402438D01*
X215414285Y-38402438D02*
X215461904Y-38450057D01*
X215461904Y-38450057D02*
X215509523Y-38545295D01*
X215509523Y-38545295D02*
X215509523Y-38783390D01*
X215509523Y-38783390D02*
X215461904Y-38878628D01*
X215461904Y-38878628D02*
X215414285Y-38926247D01*
X215414285Y-38926247D02*
X215319047Y-38973866D01*
X215319047Y-38973866D02*
X215128571Y-38973866D01*
X215128571Y-38973866D02*
X215033333Y-38926247D01*
X215033333Y-38926247D02*
X214985714Y-38878628D01*
X214985714Y-38878628D02*
X214938095Y-38783390D01*
X211942857Y-69354819D02*
X212276190Y-68878628D01*
X212514285Y-69354819D02*
X212514285Y-68354819D01*
X212514285Y-68354819D02*
X212133333Y-68354819D01*
X212133333Y-68354819D02*
X212038095Y-68402438D01*
X212038095Y-68402438D02*
X211990476Y-68450057D01*
X211990476Y-68450057D02*
X211942857Y-68545295D01*
X211942857Y-68545295D02*
X211942857Y-68688152D01*
X211942857Y-68688152D02*
X211990476Y-68783390D01*
X211990476Y-68783390D02*
X212038095Y-68831009D01*
X212038095Y-68831009D02*
X212133333Y-68878628D01*
X212133333Y-68878628D02*
X212514285Y-68878628D01*
X210990476Y-69354819D02*
X211561904Y-69354819D01*
X211276190Y-69354819D02*
X211276190Y-68354819D01*
X211276190Y-68354819D02*
X211371428Y-68497676D01*
X211371428Y-68497676D02*
X211466666Y-68592914D01*
X211466666Y-68592914D02*
X211561904Y-68640533D01*
X210371428Y-68354819D02*
X210276190Y-68354819D01*
X210276190Y-68354819D02*
X210180952Y-68402438D01*
X210180952Y-68402438D02*
X210133333Y-68450057D01*
X210133333Y-68450057D02*
X210085714Y-68545295D01*
X210085714Y-68545295D02*
X210038095Y-68735771D01*
X210038095Y-68735771D02*
X210038095Y-68973866D01*
X210038095Y-68973866D02*
X210085714Y-69164342D01*
X210085714Y-69164342D02*
X210133333Y-69259580D01*
X210133333Y-69259580D02*
X210180952Y-69307200D01*
X210180952Y-69307200D02*
X210276190Y-69354819D01*
X210276190Y-69354819D02*
X210371428Y-69354819D01*
X210371428Y-69354819D02*
X210466666Y-69307200D01*
X210466666Y-69307200D02*
X210514285Y-69259580D01*
X210514285Y-69259580D02*
X210561904Y-69164342D01*
X210561904Y-69164342D02*
X210609523Y-68973866D01*
X210609523Y-68973866D02*
X210609523Y-68735771D01*
X210609523Y-68735771D02*
X210561904Y-68545295D01*
X210561904Y-68545295D02*
X210514285Y-68450057D01*
X210514285Y-68450057D02*
X210466666Y-68402438D01*
X210466666Y-68402438D02*
X210371428Y-68354819D01*
X181640666Y-87775580D02*
X181688285Y-87823200D01*
X181688285Y-87823200D02*
X181831142Y-87870819D01*
X181831142Y-87870819D02*
X181926380Y-87870819D01*
X181926380Y-87870819D02*
X182069237Y-87823200D01*
X182069237Y-87823200D02*
X182164475Y-87727961D01*
X182164475Y-87727961D02*
X182212094Y-87632723D01*
X182212094Y-87632723D02*
X182259713Y-87442247D01*
X182259713Y-87442247D02*
X182259713Y-87299390D01*
X182259713Y-87299390D02*
X182212094Y-87108914D01*
X182212094Y-87108914D02*
X182164475Y-87013676D01*
X182164475Y-87013676D02*
X182069237Y-86918438D01*
X182069237Y-86918438D02*
X181926380Y-86870819D01*
X181926380Y-86870819D02*
X181831142Y-86870819D01*
X181831142Y-86870819D02*
X181688285Y-86918438D01*
X181688285Y-86918438D02*
X181640666Y-86966057D01*
X181164475Y-87870819D02*
X180973999Y-87870819D01*
X180973999Y-87870819D02*
X180878761Y-87823200D01*
X180878761Y-87823200D02*
X180831142Y-87775580D01*
X180831142Y-87775580D02*
X180735904Y-87632723D01*
X180735904Y-87632723D02*
X180688285Y-87442247D01*
X180688285Y-87442247D02*
X180688285Y-87061295D01*
X180688285Y-87061295D02*
X180735904Y-86966057D01*
X180735904Y-86966057D02*
X180783523Y-86918438D01*
X180783523Y-86918438D02*
X180878761Y-86870819D01*
X180878761Y-86870819D02*
X181069237Y-86870819D01*
X181069237Y-86870819D02*
X181164475Y-86918438D01*
X181164475Y-86918438D02*
X181212094Y-86966057D01*
X181212094Y-86966057D02*
X181259713Y-87061295D01*
X181259713Y-87061295D02*
X181259713Y-87299390D01*
X181259713Y-87299390D02*
X181212094Y-87394628D01*
X181212094Y-87394628D02*
X181164475Y-87442247D01*
X181164475Y-87442247D02*
X181069237Y-87489866D01*
X181069237Y-87489866D02*
X180878761Y-87489866D01*
X180878761Y-87489866D02*
X180783523Y-87442247D01*
X180783523Y-87442247D02*
X180735904Y-87394628D01*
X180735904Y-87394628D02*
X180688285Y-87299390D01*
X193866666Y-46959580D02*
X193914285Y-47007200D01*
X193914285Y-47007200D02*
X194057142Y-47054819D01*
X194057142Y-47054819D02*
X194152380Y-47054819D01*
X194152380Y-47054819D02*
X194295237Y-47007200D01*
X194295237Y-47007200D02*
X194390475Y-46911961D01*
X194390475Y-46911961D02*
X194438094Y-46816723D01*
X194438094Y-46816723D02*
X194485713Y-46626247D01*
X194485713Y-46626247D02*
X194485713Y-46483390D01*
X194485713Y-46483390D02*
X194438094Y-46292914D01*
X194438094Y-46292914D02*
X194390475Y-46197676D01*
X194390475Y-46197676D02*
X194295237Y-46102438D01*
X194295237Y-46102438D02*
X194152380Y-46054819D01*
X194152380Y-46054819D02*
X194057142Y-46054819D01*
X194057142Y-46054819D02*
X193914285Y-46102438D01*
X193914285Y-46102438D02*
X193866666Y-46150057D01*
X193533332Y-46054819D02*
X192866666Y-46054819D01*
X192866666Y-46054819D02*
X193295237Y-47054819D01*
X205566857Y-68275580D02*
X205614476Y-68323200D01*
X205614476Y-68323200D02*
X205757333Y-68370819D01*
X205757333Y-68370819D02*
X205852571Y-68370819D01*
X205852571Y-68370819D02*
X205995428Y-68323200D01*
X205995428Y-68323200D02*
X206090666Y-68227961D01*
X206090666Y-68227961D02*
X206138285Y-68132723D01*
X206138285Y-68132723D02*
X206185904Y-67942247D01*
X206185904Y-67942247D02*
X206185904Y-67799390D01*
X206185904Y-67799390D02*
X206138285Y-67608914D01*
X206138285Y-67608914D02*
X206090666Y-67513676D01*
X206090666Y-67513676D02*
X205995428Y-67418438D01*
X205995428Y-67418438D02*
X205852571Y-67370819D01*
X205852571Y-67370819D02*
X205757333Y-67370819D01*
X205757333Y-67370819D02*
X205614476Y-67418438D01*
X205614476Y-67418438D02*
X205566857Y-67466057D01*
X205185904Y-67466057D02*
X205138285Y-67418438D01*
X205138285Y-67418438D02*
X205043047Y-67370819D01*
X205043047Y-67370819D02*
X204804952Y-67370819D01*
X204804952Y-67370819D02*
X204709714Y-67418438D01*
X204709714Y-67418438D02*
X204662095Y-67466057D01*
X204662095Y-67466057D02*
X204614476Y-67561295D01*
X204614476Y-67561295D02*
X204614476Y-67656533D01*
X204614476Y-67656533D02*
X204662095Y-67799390D01*
X204662095Y-67799390D02*
X205233523Y-68370819D01*
X205233523Y-68370819D02*
X204614476Y-68370819D01*
X203757333Y-67704152D02*
X203757333Y-68370819D01*
X203995428Y-67323200D02*
X204233523Y-68037485D01*
X204233523Y-68037485D02*
X203614476Y-68037485D01*
X200092857Y-72370819D02*
X200426190Y-71894628D01*
X200664285Y-72370819D02*
X200664285Y-71370819D01*
X200664285Y-71370819D02*
X200283333Y-71370819D01*
X200283333Y-71370819D02*
X200188095Y-71418438D01*
X200188095Y-71418438D02*
X200140476Y-71466057D01*
X200140476Y-71466057D02*
X200092857Y-71561295D01*
X200092857Y-71561295D02*
X200092857Y-71704152D01*
X200092857Y-71704152D02*
X200140476Y-71799390D01*
X200140476Y-71799390D02*
X200188095Y-71847009D01*
X200188095Y-71847009D02*
X200283333Y-71894628D01*
X200283333Y-71894628D02*
X200664285Y-71894628D01*
X199711904Y-71466057D02*
X199664285Y-71418438D01*
X199664285Y-71418438D02*
X199569047Y-71370819D01*
X199569047Y-71370819D02*
X199330952Y-71370819D01*
X199330952Y-71370819D02*
X199235714Y-71418438D01*
X199235714Y-71418438D02*
X199188095Y-71466057D01*
X199188095Y-71466057D02*
X199140476Y-71561295D01*
X199140476Y-71561295D02*
X199140476Y-71656533D01*
X199140476Y-71656533D02*
X199188095Y-71799390D01*
X199188095Y-71799390D02*
X199759523Y-72370819D01*
X199759523Y-72370819D02*
X199140476Y-72370819D01*
X198521428Y-71370819D02*
X198426190Y-71370819D01*
X198426190Y-71370819D02*
X198330952Y-71418438D01*
X198330952Y-71418438D02*
X198283333Y-71466057D01*
X198283333Y-71466057D02*
X198235714Y-71561295D01*
X198235714Y-71561295D02*
X198188095Y-71751771D01*
X198188095Y-71751771D02*
X198188095Y-71989866D01*
X198188095Y-71989866D02*
X198235714Y-72180342D01*
X198235714Y-72180342D02*
X198283333Y-72275580D01*
X198283333Y-72275580D02*
X198330952Y-72323200D01*
X198330952Y-72323200D02*
X198426190Y-72370819D01*
X198426190Y-72370819D02*
X198521428Y-72370819D01*
X198521428Y-72370819D02*
X198616666Y-72323200D01*
X198616666Y-72323200D02*
X198664285Y-72275580D01*
X198664285Y-72275580D02*
X198711904Y-72180342D01*
X198711904Y-72180342D02*
X198759523Y-71989866D01*
X198759523Y-71989866D02*
X198759523Y-71751771D01*
X198759523Y-71751771D02*
X198711904Y-71561295D01*
X198711904Y-71561295D02*
X198664285Y-71466057D01*
X198664285Y-71466057D02*
X198616666Y-71418438D01*
X198616666Y-71418438D02*
X198521428Y-71370819D01*
X171040666Y-87325580D02*
X171088285Y-87373200D01*
X171088285Y-87373200D02*
X171231142Y-87420819D01*
X171231142Y-87420819D02*
X171326380Y-87420819D01*
X171326380Y-87420819D02*
X171469237Y-87373200D01*
X171469237Y-87373200D02*
X171564475Y-87277961D01*
X171564475Y-87277961D02*
X171612094Y-87182723D01*
X171612094Y-87182723D02*
X171659713Y-86992247D01*
X171659713Y-86992247D02*
X171659713Y-86849390D01*
X171659713Y-86849390D02*
X171612094Y-86658914D01*
X171612094Y-86658914D02*
X171564475Y-86563676D01*
X171564475Y-86563676D02*
X171469237Y-86468438D01*
X171469237Y-86468438D02*
X171326380Y-86420819D01*
X171326380Y-86420819D02*
X171231142Y-86420819D01*
X171231142Y-86420819D02*
X171088285Y-86468438D01*
X171088285Y-86468438D02*
X171040666Y-86516057D01*
X170135904Y-86420819D02*
X170612094Y-86420819D01*
X170612094Y-86420819D02*
X170659713Y-86897009D01*
X170659713Y-86897009D02*
X170612094Y-86849390D01*
X170612094Y-86849390D02*
X170516856Y-86801771D01*
X170516856Y-86801771D02*
X170278761Y-86801771D01*
X170278761Y-86801771D02*
X170183523Y-86849390D01*
X170183523Y-86849390D02*
X170135904Y-86897009D01*
X170135904Y-86897009D02*
X170088285Y-86992247D01*
X170088285Y-86992247D02*
X170088285Y-87230342D01*
X170088285Y-87230342D02*
X170135904Y-87325580D01*
X170135904Y-87325580D02*
X170183523Y-87373200D01*
X170183523Y-87373200D02*
X170278761Y-87420819D01*
X170278761Y-87420819D02*
X170516856Y-87420819D01*
X170516856Y-87420819D02*
X170612094Y-87373200D01*
X170612094Y-87373200D02*
X170659713Y-87325580D01*
X223416857Y-59825580D02*
X223464476Y-59873200D01*
X223464476Y-59873200D02*
X223607333Y-59920819D01*
X223607333Y-59920819D02*
X223702571Y-59920819D01*
X223702571Y-59920819D02*
X223845428Y-59873200D01*
X223845428Y-59873200D02*
X223940666Y-59777961D01*
X223940666Y-59777961D02*
X223988285Y-59682723D01*
X223988285Y-59682723D02*
X224035904Y-59492247D01*
X224035904Y-59492247D02*
X224035904Y-59349390D01*
X224035904Y-59349390D02*
X223988285Y-59158914D01*
X223988285Y-59158914D02*
X223940666Y-59063676D01*
X223940666Y-59063676D02*
X223845428Y-58968438D01*
X223845428Y-58968438D02*
X223702571Y-58920819D01*
X223702571Y-58920819D02*
X223607333Y-58920819D01*
X223607333Y-58920819D02*
X223464476Y-58968438D01*
X223464476Y-58968438D02*
X223416857Y-59016057D01*
X222464476Y-59920819D02*
X223035904Y-59920819D01*
X222750190Y-59920819D02*
X222750190Y-58920819D01*
X222750190Y-58920819D02*
X222845428Y-59063676D01*
X222845428Y-59063676D02*
X222940666Y-59158914D01*
X222940666Y-59158914D02*
X223035904Y-59206533D01*
X222131142Y-58920819D02*
X221464476Y-58920819D01*
X221464476Y-58920819D02*
X221893047Y-59920819D01*
X219442857Y-71854819D02*
X219776190Y-71378628D01*
X220014285Y-71854819D02*
X220014285Y-70854819D01*
X220014285Y-70854819D02*
X219633333Y-70854819D01*
X219633333Y-70854819D02*
X219538095Y-70902438D01*
X219538095Y-70902438D02*
X219490476Y-70950057D01*
X219490476Y-70950057D02*
X219442857Y-71045295D01*
X219442857Y-71045295D02*
X219442857Y-71188152D01*
X219442857Y-71188152D02*
X219490476Y-71283390D01*
X219490476Y-71283390D02*
X219538095Y-71331009D01*
X219538095Y-71331009D02*
X219633333Y-71378628D01*
X219633333Y-71378628D02*
X220014285Y-71378628D01*
X219109523Y-70854819D02*
X218490476Y-70854819D01*
X218490476Y-70854819D02*
X218823809Y-71235771D01*
X218823809Y-71235771D02*
X218680952Y-71235771D01*
X218680952Y-71235771D02*
X218585714Y-71283390D01*
X218585714Y-71283390D02*
X218538095Y-71331009D01*
X218538095Y-71331009D02*
X218490476Y-71426247D01*
X218490476Y-71426247D02*
X218490476Y-71664342D01*
X218490476Y-71664342D02*
X218538095Y-71759580D01*
X218538095Y-71759580D02*
X218585714Y-71807200D01*
X218585714Y-71807200D02*
X218680952Y-71854819D01*
X218680952Y-71854819D02*
X218966666Y-71854819D01*
X218966666Y-71854819D02*
X219061904Y-71807200D01*
X219061904Y-71807200D02*
X219109523Y-71759580D01*
X218109523Y-70950057D02*
X218061904Y-70902438D01*
X218061904Y-70902438D02*
X217966666Y-70854819D01*
X217966666Y-70854819D02*
X217728571Y-70854819D01*
X217728571Y-70854819D02*
X217633333Y-70902438D01*
X217633333Y-70902438D02*
X217585714Y-70950057D01*
X217585714Y-70950057D02*
X217538095Y-71045295D01*
X217538095Y-71045295D02*
X217538095Y-71140533D01*
X217538095Y-71140533D02*
X217585714Y-71283390D01*
X217585714Y-71283390D02*
X218157142Y-71854819D01*
X218157142Y-71854819D02*
X217538095Y-71854819D01*
X187619238Y-66566057D02*
X187714476Y-66518438D01*
X187714476Y-66518438D02*
X187809714Y-66423200D01*
X187809714Y-66423200D02*
X187952571Y-66280342D01*
X187952571Y-66280342D02*
X188047809Y-66232723D01*
X188047809Y-66232723D02*
X188143047Y-66232723D01*
X188095428Y-66470819D02*
X188190666Y-66423200D01*
X188190666Y-66423200D02*
X188285904Y-66327961D01*
X188285904Y-66327961D02*
X188333523Y-66137485D01*
X188333523Y-66137485D02*
X188333523Y-65804152D01*
X188333523Y-65804152D02*
X188285904Y-65613676D01*
X188285904Y-65613676D02*
X188190666Y-65518438D01*
X188190666Y-65518438D02*
X188095428Y-65470819D01*
X188095428Y-65470819D02*
X187904952Y-65470819D01*
X187904952Y-65470819D02*
X187809714Y-65518438D01*
X187809714Y-65518438D02*
X187714476Y-65613676D01*
X187714476Y-65613676D02*
X187666857Y-65804152D01*
X187666857Y-65804152D02*
X187666857Y-66137485D01*
X187666857Y-66137485D02*
X187714476Y-66327961D01*
X187714476Y-66327961D02*
X187809714Y-66423200D01*
X187809714Y-66423200D02*
X187904952Y-66470819D01*
X187904952Y-66470819D02*
X188095428Y-66470819D01*
X187285904Y-65566057D02*
X187238285Y-65518438D01*
X187238285Y-65518438D02*
X187143047Y-65470819D01*
X187143047Y-65470819D02*
X186904952Y-65470819D01*
X186904952Y-65470819D02*
X186809714Y-65518438D01*
X186809714Y-65518438D02*
X186762095Y-65566057D01*
X186762095Y-65566057D02*
X186714476Y-65661295D01*
X186714476Y-65661295D02*
X186714476Y-65756533D01*
X186714476Y-65756533D02*
X186762095Y-65899390D01*
X186762095Y-65899390D02*
X187333523Y-66470819D01*
X187333523Y-66470819D02*
X186714476Y-66470819D01*
X212000666Y-56728819D02*
X212333999Y-56252628D01*
X212572094Y-56728819D02*
X212572094Y-55728819D01*
X212572094Y-55728819D02*
X212191142Y-55728819D01*
X212191142Y-55728819D02*
X212095904Y-55776438D01*
X212095904Y-55776438D02*
X212048285Y-55824057D01*
X212048285Y-55824057D02*
X212000666Y-55919295D01*
X212000666Y-55919295D02*
X212000666Y-56062152D01*
X212000666Y-56062152D02*
X212048285Y-56157390D01*
X212048285Y-56157390D02*
X212095904Y-56205009D01*
X212095904Y-56205009D02*
X212191142Y-56252628D01*
X212191142Y-56252628D02*
X212572094Y-56252628D01*
X211143523Y-55728819D02*
X211333999Y-55728819D01*
X211333999Y-55728819D02*
X211429237Y-55776438D01*
X211429237Y-55776438D02*
X211476856Y-55824057D01*
X211476856Y-55824057D02*
X211572094Y-55966914D01*
X211572094Y-55966914D02*
X211619713Y-56157390D01*
X211619713Y-56157390D02*
X211619713Y-56538342D01*
X211619713Y-56538342D02*
X211572094Y-56633580D01*
X211572094Y-56633580D02*
X211524475Y-56681200D01*
X211524475Y-56681200D02*
X211429237Y-56728819D01*
X211429237Y-56728819D02*
X211238761Y-56728819D01*
X211238761Y-56728819D02*
X211143523Y-56681200D01*
X211143523Y-56681200D02*
X211095904Y-56633580D01*
X211095904Y-56633580D02*
X211048285Y-56538342D01*
X211048285Y-56538342D02*
X211048285Y-56300247D01*
X211048285Y-56300247D02*
X211095904Y-56205009D01*
X211095904Y-56205009D02*
X211143523Y-56157390D01*
X211143523Y-56157390D02*
X211238761Y-56109771D01*
X211238761Y-56109771D02*
X211429237Y-56109771D01*
X211429237Y-56109771D02*
X211524475Y-56157390D01*
X211524475Y-56157390D02*
X211572094Y-56205009D01*
X211572094Y-56205009D02*
X211619713Y-56300247D01*
X178269238Y-66566057D02*
X178364476Y-66518438D01*
X178364476Y-66518438D02*
X178459714Y-66423200D01*
X178459714Y-66423200D02*
X178602571Y-66280342D01*
X178602571Y-66280342D02*
X178697809Y-66232723D01*
X178697809Y-66232723D02*
X178793047Y-66232723D01*
X178745428Y-66470819D02*
X178840666Y-66423200D01*
X178840666Y-66423200D02*
X178935904Y-66327961D01*
X178935904Y-66327961D02*
X178983523Y-66137485D01*
X178983523Y-66137485D02*
X178983523Y-65804152D01*
X178983523Y-65804152D02*
X178935904Y-65613676D01*
X178935904Y-65613676D02*
X178840666Y-65518438D01*
X178840666Y-65518438D02*
X178745428Y-65470819D01*
X178745428Y-65470819D02*
X178554952Y-65470819D01*
X178554952Y-65470819D02*
X178459714Y-65518438D01*
X178459714Y-65518438D02*
X178364476Y-65613676D01*
X178364476Y-65613676D02*
X178316857Y-65804152D01*
X178316857Y-65804152D02*
X178316857Y-66137485D01*
X178316857Y-66137485D02*
X178364476Y-66327961D01*
X178364476Y-66327961D02*
X178459714Y-66423200D01*
X178459714Y-66423200D02*
X178554952Y-66470819D01*
X178554952Y-66470819D02*
X178745428Y-66470819D01*
X177364476Y-66470819D02*
X177935904Y-66470819D01*
X177650190Y-66470819D02*
X177650190Y-65470819D01*
X177650190Y-65470819D02*
X177745428Y-65613676D01*
X177745428Y-65613676D02*
X177840666Y-65708914D01*
X177840666Y-65708914D02*
X177935904Y-65756533D01*
X176392857Y-47359580D02*
X176440476Y-47407200D01*
X176440476Y-47407200D02*
X176583333Y-47454819D01*
X176583333Y-47454819D02*
X176678571Y-47454819D01*
X176678571Y-47454819D02*
X176821428Y-47407200D01*
X176821428Y-47407200D02*
X176916666Y-47311961D01*
X176916666Y-47311961D02*
X176964285Y-47216723D01*
X176964285Y-47216723D02*
X177011904Y-47026247D01*
X177011904Y-47026247D02*
X177011904Y-46883390D01*
X177011904Y-46883390D02*
X176964285Y-46692914D01*
X176964285Y-46692914D02*
X176916666Y-46597676D01*
X176916666Y-46597676D02*
X176821428Y-46502438D01*
X176821428Y-46502438D02*
X176678571Y-46454819D01*
X176678571Y-46454819D02*
X176583333Y-46454819D01*
X176583333Y-46454819D02*
X176440476Y-46502438D01*
X176440476Y-46502438D02*
X176392857Y-46550057D01*
X176011904Y-46550057D02*
X175964285Y-46502438D01*
X175964285Y-46502438D02*
X175869047Y-46454819D01*
X175869047Y-46454819D02*
X175630952Y-46454819D01*
X175630952Y-46454819D02*
X175535714Y-46502438D01*
X175535714Y-46502438D02*
X175488095Y-46550057D01*
X175488095Y-46550057D02*
X175440476Y-46645295D01*
X175440476Y-46645295D02*
X175440476Y-46740533D01*
X175440476Y-46740533D02*
X175488095Y-46883390D01*
X175488095Y-46883390D02*
X176059523Y-47454819D01*
X176059523Y-47454819D02*
X175440476Y-47454819D01*
X174535714Y-46454819D02*
X175011904Y-46454819D01*
X175011904Y-46454819D02*
X175059523Y-46931009D01*
X175059523Y-46931009D02*
X175011904Y-46883390D01*
X175011904Y-46883390D02*
X174916666Y-46835771D01*
X174916666Y-46835771D02*
X174678571Y-46835771D01*
X174678571Y-46835771D02*
X174583333Y-46883390D01*
X174583333Y-46883390D02*
X174535714Y-46931009D01*
X174535714Y-46931009D02*
X174488095Y-47026247D01*
X174488095Y-47026247D02*
X174488095Y-47264342D01*
X174488095Y-47264342D02*
X174535714Y-47359580D01*
X174535714Y-47359580D02*
X174583333Y-47407200D01*
X174583333Y-47407200D02*
X174678571Y-47454819D01*
X174678571Y-47454819D02*
X174916666Y-47454819D01*
X174916666Y-47454819D02*
X175011904Y-47407200D01*
X175011904Y-47407200D02*
X175059523Y-47359580D01*
D11*
%TO.C,C38*%
X209259420Y-44090000D02*
X209540580Y-44090000D01*
X209259420Y-45110000D02*
X209540580Y-45110000D01*
%TO.C,C6*%
X213340580Y-44310000D02*
X213059420Y-44310000D01*
X213340580Y-43290000D02*
X213059420Y-43290000D01*
%TO.C,R7*%
X218067064Y-43735000D02*
X217612936Y-43735000D01*
X218067064Y-42265000D02*
X217612936Y-42265000D01*
%TO.C,R12*%
X214335000Y-71372936D02*
X214335000Y-71827064D01*
X212865000Y-71372936D02*
X212865000Y-71827064D01*
%TO.C,C12*%
X203710000Y-55584420D02*
X203710000Y-55865580D01*
X202690000Y-55584420D02*
X202690000Y-55865580D01*
%TO.C,R21*%
X221212936Y-42265000D02*
X221667064Y-42265000D01*
X221212936Y-43735000D02*
X221667064Y-43735000D01*
%TO.C,C18*%
X218684000Y-62025420D02*
X218684000Y-62306580D01*
X217664000Y-62025420D02*
X217664000Y-62306580D01*
%TO.C,R34*%
X210372936Y-58565000D02*
X210827064Y-58565000D01*
X210372936Y-60035000D02*
X210827064Y-60035000D01*
%TO.C,R36*%
X207765000Y-71727064D02*
X207765000Y-71272936D01*
X209235000Y-71727064D02*
X209235000Y-71272936D01*
%TO.C,C16*%
X219264000Y-62306580D02*
X219264000Y-62025420D01*
X220284000Y-62306580D02*
X220284000Y-62025420D01*
%TO.C,C23*%
X202840580Y-75110000D02*
X202559420Y-75110000D01*
X202840580Y-74090000D02*
X202559420Y-74090000D01*
%TO.C,U3*%
X218550000Y-51325000D02*
X218550000Y-51065000D01*
X218550000Y-46135000D02*
X220200000Y-46135000D01*
X218550000Y-45875000D02*
X218550000Y-46135000D01*
X215800000Y-51325000D02*
X218550000Y-51325000D01*
X215800000Y-51325000D02*
X213050000Y-51325000D01*
X215800000Y-45875000D02*
X218550000Y-45875000D01*
X215800000Y-45875000D02*
X213050000Y-45875000D01*
X213050000Y-51325000D02*
X213050000Y-51065000D01*
X213050000Y-45875000D02*
X213050000Y-46135000D01*
%TO.C,C40*%
X196010000Y-65609420D02*
X196010000Y-65890580D01*
X194990000Y-65609420D02*
X194990000Y-65890580D01*
%TO.C,R17*%
X209696936Y-83881000D02*
X210151064Y-83881000D01*
X209696936Y-85351000D02*
X210151064Y-85351000D01*
%TO.C,C39*%
X213390000Y-38640580D02*
X213390000Y-38359420D01*
X214410000Y-38640580D02*
X214410000Y-38359420D01*
%TO.C,R10*%
X212235000Y-71372936D02*
X212235000Y-71827064D01*
X210765000Y-71372936D02*
X210765000Y-71827064D01*
%TO.C,C9*%
X185684000Y-86704748D02*
X185684000Y-88127252D01*
X182964000Y-86704748D02*
X182964000Y-88127252D01*
%TO.C,C7*%
X193640580Y-48510000D02*
X193359420Y-48510000D01*
X193640580Y-47490000D02*
X193359420Y-47490000D01*
%TO.C,C24*%
X205334000Y-70200420D02*
X205334000Y-70481580D01*
X204314000Y-70200420D02*
X204314000Y-70481580D01*
%TO.C,R20*%
X202735000Y-71738936D02*
X202735000Y-72193064D01*
X201265000Y-71738936D02*
X201265000Y-72193064D01*
%TO.C,C5*%
X175184000Y-86104748D02*
X175184000Y-87527252D01*
X172464000Y-86104748D02*
X172464000Y-87527252D01*
%TO.C,C17*%
X220964000Y-63477252D02*
X220964000Y-62054748D01*
X223684000Y-63477252D02*
X223684000Y-62054748D01*
%TO.C,R32*%
X215565000Y-71827064D02*
X215565000Y-71372936D01*
X217035000Y-71827064D02*
X217035000Y-71372936D01*
%TO.C,Q2*%
X183114000Y-66078500D02*
X183114000Y-66728500D01*
X183114000Y-66078500D02*
X183114000Y-65428500D01*
X186234000Y-66078500D02*
X186234000Y-67753500D01*
X186234000Y-66078500D02*
X186234000Y-65428500D01*
%TO.C,R6*%
X212027064Y-54935000D02*
X211572936Y-54935000D01*
X212027064Y-53465000D02*
X211572936Y-53465000D01*
%TO.C,Q1*%
X179514000Y-66078500D02*
X179514000Y-66728500D01*
X179514000Y-66078500D02*
X179514000Y-65428500D01*
X182634000Y-66078500D02*
X182634000Y-67753500D01*
X182634000Y-66078500D02*
X182634000Y-65428500D01*
%TO.C,C25*%
X173430000Y-46859420D02*
X173430000Y-47140580D01*
X172410000Y-46859420D02*
X172410000Y-47140580D01*
%TD*%
M02*
